<svg width="34" height="27" viewBox="0 0 34 27" fill="none" xmlns="http://www.w3.org/2000/svg">
<path d="M32.5046 7.47744L22.8393 0.640876C22.2675 0.236224 21.5893 0.0132768 20.8915 0.000574678C20.1936 -0.0121275 19.5079 0.185993 18.9221 0.569576L8.38588 7.47228C7.89527 7.79372 7.49199 8.2341 7.21275 8.75334C6.93351 9.27258 6.78719 9.85419 6.78711 10.4452V12.33C8.48682 10.9732 10.6309 10.3158 12.7899 10.4895C14.9488 10.6632 16.9631 11.6551 18.4291 13.2665C19.8951 14.878 20.7046 16.9899 20.6954 19.1792C20.6862 21.3685 19.8589 23.4733 18.3793 25.0721L30.501 25.0462C31.4296 25.0443 32.3195 24.67 32.9753 24.0055C33.6311 23.341 33.9993 22.4406 33.9991 21.5019V10.3811C33.9991 10.3811 33.4409 8.13981 32.5046 7.47744Z" fill="#161F4A"/>
<path d="M12.1128 12.5933C11.056 12.5919 10.0151 12.8523 9.08082 13.3515C8.14658 13.8507 7.3475 14.5736 6.75341 15.457C6.15933 16.3404 5.78833 17.3575 5.67282 18.4193C5.55731 19.4811 5.70081 20.5554 6.09079 21.5482L0.483817 25.1432C0.370148 25.2113 0.271158 25.3018 0.192726 25.4093C0.114293 25.5168 0.0580027 25.6392 0.0271984 25.7691C-0.00360581 25.899 -0.00829649 26.0338 0.0133941 26.1656C0.0350847 26.2974 0.0827221 26.4234 0.153481 26.5362C0.224239 26.6491 0.316677 26.7464 0.425324 26.8224C0.533972 26.8985 0.656612 26.9517 0.785984 26.979C0.915355 27.0062 1.04882 27.007 1.17848 26.9811C1.30814 26.9553 1.43135 26.9034 1.54081 26.8285L7.08645 23.2738C7.77644 24.1312 8.66989 24.7981 9.68356 25.2124C10.6972 25.6267 11.7982 25.7749 12.8837 25.6431C13.9693 25.5114 15.0043 25.104 15.8922 24.459C16.78 23.8139 17.4919 22.9522 17.9616 21.9541C18.4312 20.956 18.6432 19.8539 18.578 18.7507C18.5127 17.6474 18.1722 16.5787 17.5883 15.6443C17.0043 14.7099 16.1959 13.9401 15.2383 13.4066C14.2807 12.8731 13.2052 12.5933 12.1118 12.5933H12.1128ZM15.2551 21.9233C14.7172 22.5563 14.0057 23.0139 13.2105 23.2381C12.4153 23.4623 11.5722 23.4431 10.7878 23.183C10.0034 22.9228 9.31293 22.4333 8.80374 21.7765C8.29454 21.1196 7.98948 20.3249 7.92714 19.4928C7.8648 18.6606 8.04797 17.8285 8.4535 17.1016C8.85902 16.3747 9.46869 15.7857 10.2054 15.4091C10.9421 15.0325 11.7727 14.8852 12.5922 14.9858C13.4117 15.0864 14.1833 15.4304 14.8094 15.9744C15.2252 16.3353 15.5665 16.7756 15.8139 17.2699C16.0613 17.7643 16.2099 18.3031 16.2513 18.8555C16.2927 19.4079 16.226 19.9632 16.0551 20.4896C15.8842 21.0159 15.6124 21.5031 15.2551 21.9233Z" fill="#DE1E34"/>
</svg>
