<?xml version="1.0" encoding="UTF-8"?>
<svg id="Calque_2" xmlns="http://www.w3.org/2000/svg" viewBox="0 0 800 800" fill="#fff">
    <g id="Calque_1-2">
        <path fill="#fff"
            d="m400,0C179.09,0,0,179.09,0,400s179.09,400,400,400,400-179.09,400-400S620.91,0,400,0Zm-71.98,191.28c15.4,0,27.89,12.49,27.89,27.89s-12.49,27.89-27.89,27.89-27.89-12.49-27.89-27.89,12.49-27.89,27.89-27.89Zm-75.17,45.09c-1.74-1.62-1.84-4.33-.23-6.07,1.62-1.73,4.33-1.83,6.07-.22l1.94,1.8,12.5-13.47,11.9,11.04-12.5,13.47,20.43,18.96c5.4-2.6,12.03-2.16,17.12,1.73l38.66,29.28,5.56-16.25c-7.64-8.31-9.28-20.9-3.1-31,7.48-12.2,23.43-16.02,35.62-8.54,2.31,1.42,57.08,35.35,90.78,85.89,1.72,2.56,2.88,5.33,3.58,8.16.06.2.09.41.15.59.08.38.17.76.23,1.13.19.92.3,1.86.32,2.81.15,2.3,0,4.6-.45,6.84l-7.17,74.31,43.05,47.74c6.1,6.77,5.55,17.19-1.22,23.29-2.61,2.35-5.74,3.7-8.97,4.1-5.17.65-10.55-1.16-14.31-5.31l-47.89-53.15c-3.11-3.44-4.61-8.01-4.17-12.62l5.73-59.51c-2.76-1.1-5.34-2.67-7.62-4.69l-22.09,15.83,18.19,41.78c3.66,8.36-.18,18.06-8.52,21.69-1.24.53-2.51.91-3.79,1.13l4.49,4.1h-237.82v-47.16h186.16l24.43,22.3-18.68-42.9c-3.1-7.13-.8-15.44,5.51-19.98l31.5-22.58c-12.14-13.6-25.35-25.11-36.17-33.62l-9.52,27.91c-1.72,5.01-5.73,8.89-10.81,10.44-.91.27-1.83.47-2.75.59-4.25.53-8.57-.61-12.03-3.24l-56.85-43.11c-6.97-5.32-8.51-15.11-3.67-22.3l-19.75-18.32-12.5,13.47-11.9-11.04,12.5-13.47-1.94-1.8Zm231.69,257.21H189.34v-47.16h243.55l51.66,47.16Zm-295.2-151.95h128.77l51.65,47.15h-180.43v-47.15Zm0-5.24v-47.16h71.38l51.66,47.16h-123.04Zm0-112.32l47.52,43.39v-2.91h-.22c-.58,0-1.04-.47-1.04-1.05s.47-1.05,1.04-1.04h2.23s.05,0,.08,0,.05,0,.08,0h2.22c.57,0,1.04.47,1.04,1.04s-.47,1.05-1.04,1.05h-.21v6.73l13.94,12.72h-65.64v-59.93Zm300.94,274.75l51.66,47.16H189.34v-47.16s300.94,0,300.94,0Zm-300.94,109.91v-57.5h358.33l62.99,57.5H189.34Z" />
    </g>
</svg>