<?xml version="1.0" encoding="UTF-8"?>
<svg id="Calque_2" xmlns="http://www.w3.org/2000/svg" viewBox="0 0 800 800" fill="#fff">
    <g id="Calque_1-2">
        <path fill="#fff"
            d="m328.08,368.88c35.15-7.16,70.96-20.18,106.11-33.2,35.8-13.02,72.25-26.04,109.36-33.85,25.39-5.21,48.82-7.16,70.95-5.86v-3.26l-69-54.03c-22.13-2.6-46.22-.65-72.91,4.56-35.8,7.16-71.61,20.18-106.76,33.2-35.8,13.02-72.91,26.04-109.36,33.85-26.04,5.21-49.48,7.16-71.61,5.86v3.26s69.66,54.03,69.66,54.03c22.78,2.6,46.87.65,73.56-4.56Z" />
        <path fill="#fff"
            d="m327.43,421.61c35.8-7.16,71.61-20.18,106.76-33.2,35.8-13.02,72.91-26.69,109.36-33.85,18.23-3.26,35.15-5.21,51.42-5.86l-37.11-29.29c-3.26.65-7.16,1.3-10.42,1.95-35.8,7.16-71.61,20.18-106.76,33.2-35.8,13.02-72.91,26.69-109.36,33.85-20.18,3.91-39.06,5.86-56.63,5.86-8.46,0-16.92-.65-25.39-1.3l-5.21-1.95-7.16-5.86h0c-11.07,1.95-21.48,2.61-31.9,2.61l48.83,38.41c22.78,2.6,46.87.65,73.56-4.56Z" />
        <path fill="#fff"
            d="m440.68,406.64c-35.8,13.02-72.91,26.04-109.36,33.85-25.39,5.21-48.82,7.16-70.95,5.86v44.92c1.95.65,4.56.65,6.51.65h23.44c3.91,0,8.46-.65,12.37-1.3,1.95,0,3.91-.65,5.86-.65,5.86-.65,12.36-1.95,18.88-3.26,35.8-7.16,71.61-20.18,106.76-33.2,35.8-13.02,72.91-26.69,109.36-33.85,25.39-5.21,48.82-7.16,70.95-5.86v-45.57h0c-20.83-1.3-42.96.65-67.7,5.21-35.15,7.16-70.96,20.18-106.11,33.2Z" />
        <path fill="#fff"
            d="m400,0C179.09,0,0,179.09,0,400s179.09,400,400,400,400-179.09,400-400S620.91,0,400,0Zm234.67,496.47l-11.07,9.76c-23.44-2.6-48.17-1.3-76.16,4.56-35.8,7.16-71.61,20.18-106.76,33.2-35.8,13.02-72.91,26.04-109.36,33.85-20.18,3.91-39.06,5.86-56.63,5.86-8.46,0-16.92-.65-25.39-1.3l-5.21-1.95-74.86-59.24-3.91-7.81v-18.88l11.07-9.76c12.37,1.3,24.73,1.3,38.41.65l-45.57-36.45-3.91-7.81v-65.1l11.07-9.76c12.37,1.3,24.73,1.3,38.41.65l-45.57-36.45-3.91-7.81v-18.88l11.07-9.76c23.44,2.6,48.17,1.3,76.16-4.56,35.15-7.16,70.96-20.18,106.11-33.2,35.8-13.02,72.25-26.04,109.36-33.85,29.94-5.86,56.63-7.81,82.02-4.56l5.21,1.95,74.86,59.24,3.9,7.81v18.88l-11.07,9.76c-12.37-1.3-24.73-1.3-38.41-.65l45.57,36.45,3.91,7.81v65.1l-11.07,9.76c-12.37-1.3-24.73-1.3-38.41-.65l46.22,36.46,3.91,7.81v18.88Z" />
        <polygon fill="#fff" points="240.85 440.49 185.52 396.88 184.86 437.23 240.85 480.85 240.85 440.49" />
        <path fill="#fff"
            d="m546.79,438.54c-35.15,7.16-70.96,20.18-106.11,33.2-36.45,13.67-73.56,26.69-110.01,34.5-20.18,3.91-39.06,5.86-56.63,5.86-8.46,0-16.92-.65-25.39-1.3l-5.21-1.95-7.16-5.86c-18.23,2.6-35.15,3.91-51.42,2.6v3.26l69,54.03c22.78,2.6,46.87.65,73.56-4.56,35.8-7.16,71.61-20.18,106.76-33.2,35.8-13.02,72.91-26.04,109.36-33.85,25.39-5.21,48.82-7.16,70.95-5.86v-3.9s-57.28-44.92-57.28-44.92c-3.26.65-7.16,1.3-10.42,1.95Z" />
    </g>
</svg>