<svg width="21" height="20" viewBox="0 0 21 20" fill="none" xmlns="http://www.w3.org/2000/svg">
<path d="M0.602539 12.7471C0.602539 12.2744 0.717122 11.8447 0.946289 11.458C1.18262 11.0641 1.49414 10.7526 1.88086 10.5234C2.27474 10.2871 2.70801 10.1689 3.18066 10.1689C3.65332 10.1689 4.08301 10.2871 4.46973 10.5234C4.86361 10.7526 5.17871 11.0641 5.41504 11.458C5.65137 11.8447 5.76953 12.2744 5.76953 12.7471C5.76953 13.2197 5.65137 13.653 5.41504 14.0469C5.17871 14.4336 4.86361 14.7451 4.46973 14.9814C4.08301 15.2106 3.65332 15.3252 3.18066 15.3252C2.70801 15.3252 2.27474 15.2106 1.88086 14.9814C1.49414 14.7451 1.18262 14.4336 0.946289 14.0469C0.717122 13.653 0.602539 13.2197 0.602539 12.7471ZM1.92383 12.7471C1.92383 13.1051 2.04557 13.4059 2.28906 13.6494C2.53971 13.8857 2.84049 14.0039 3.19141 14.0039C3.54232 14.0039 3.83952 13.8857 4.08301 13.6494C4.3265 13.4059 4.44824 13.1051 4.44824 12.7471C4.44824 12.3962 4.3265 12.099 4.08301 11.8555C3.83952 11.612 3.54232 11.4902 3.19141 11.4902C2.84049 11.4902 2.53971 11.612 2.28906 11.8555C2.04557 12.099 1.92383 12.3962 1.92383 12.7471ZM3.19141 0.275391C3.42773 0.275391 3.62826 0.361328 3.79297 0.533203C3.96484 0.697917 4.05078 0.902018 4.05078 1.14551V11.0391H2.32129V1.14551C2.32129 0.902018 2.40365 0.697917 2.56836 0.533203C2.74023 0.361328 2.94792 0.275391 3.19141 0.275391ZM3.19141 19.1816C2.94792 19.1816 2.74023 19.0993 2.56836 18.9346C2.40365 18.7699 2.32129 18.5765 2.32129 18.3545V14.6162H4.05078V18.3545C4.05078 18.5765 3.96484 18.7699 3.79297 18.9346C3.62826 19.0993 3.42773 19.1816 3.19141 19.1816ZM7.84277 6.53809C7.84277 6.06543 7.96094 5.63574 8.19727 5.24902C8.43359 4.85514 8.74512 4.54362 9.13184 4.31445C9.52572 4.07812 9.95898 3.95996 10.4316 3.95996C10.9043 3.95996 11.334 4.07812 11.7207 4.31445C12.1146 4.54362 12.4261 4.85514 12.6553 5.24902C12.8916 5.63574 13.0098 6.06543 13.0098 6.53809C13.0098 7.01074 12.8916 7.44401 12.6553 7.83789C12.4261 8.22461 12.1146 8.53613 11.7207 8.77246C11.334 9.00163 10.9043 9.11621 10.4316 9.11621C9.95898 9.11621 9.52572 9.00163 9.13184 8.77246C8.74512 8.53613 8.43359 8.22461 8.19727 7.83789C7.96094 7.44401 7.84277 7.01074 7.84277 6.53809ZM9.1748 6.53809C9.1748 6.89616 9.29655 7.19694 9.54004 7.44043C9.78353 7.67676 10.0807 7.79492 10.4316 7.79492C10.7897 7.79492 11.0869 7.67676 11.3232 7.44043C11.5667 7.19694 11.6885 6.89616 11.6885 6.53809C11.6885 6.18717 11.5667 5.88997 11.3232 5.64648C11.0869 5.40299 10.7897 5.28125 10.4316 5.28125C10.0807 5.28125 9.78353 5.40299 9.54004 5.64648C9.29655 5.88997 9.1748 6.18717 9.1748 6.53809ZM10.4316 0.275391C10.6751 0.275391 10.8792 0.357747 11.0439 0.522461C11.2158 0.687174 11.3018 0.880534 11.3018 1.10254V4.69043H9.57227V1.10254C9.57227 0.880534 9.65462 0.687174 9.81934 0.522461C9.98405 0.357747 10.1882 0.275391 10.4316 0.275391ZM10.4316 19.1816C10.1882 19.1816 9.98405 19.0957 9.81934 18.9238C9.65462 18.7591 9.57227 18.555 9.57227 18.3115V8.24609H11.3018V18.3115C11.3018 18.555 11.2158 18.7591 11.0439 18.9238C10.8792 19.0957 10.6751 19.1816 10.4316 19.1816ZM15.1045 12.7471C15.1045 12.2744 15.2191 11.8447 15.4482 11.458C15.6846 11.0641 15.9961 10.7526 16.3828 10.5234C16.7767 10.2871 17.21 10.1689 17.6826 10.1689C18.1553 10.1689 18.585 10.2871 18.9717 10.5234C19.3656 10.7526 19.6771 11.0641 19.9062 11.458C20.1426 11.8447 20.2607 12.2744 20.2607 12.7471C20.2607 13.2197 20.1426 13.653 19.9062 14.0469C19.6771 14.4336 19.3656 14.7451 18.9717 14.9814C18.585 15.2106 18.1553 15.3252 17.6826 15.3252C17.21 15.3252 16.7767 15.2106 16.3828 14.9814C15.9961 14.7451 15.6846 14.4336 15.4482 14.0469C15.2191 13.653 15.1045 13.2197 15.1045 12.7471ZM16.4258 12.7471C16.4258 13.1051 16.5475 13.4059 16.791 13.6494C17.0345 13.8857 17.3317 14.0039 17.6826 14.0039C18.0407 14.0039 18.3379 13.8857 18.5742 13.6494C18.8177 13.4059 18.9395 13.1051 18.9395 12.7471C18.9395 12.3962 18.8177 12.099 18.5742 11.8555C18.3379 11.612 18.0407 11.4902 17.6826 11.4902C17.3317 11.4902 17.0345 11.612 16.791 11.8555C16.5475 12.099 16.4258 12.3962 16.4258 12.7471ZM17.6826 0.275391C17.9189 0.275391 18.1195 0.361328 18.2842 0.533203C18.4561 0.697917 18.542 0.902018 18.542 1.14551V11.0928H16.8125V1.14551C16.8125 0.902018 16.8949 0.697917 17.0596 0.533203C17.2314 0.361328 17.4391 0.275391 17.6826 0.275391ZM17.6826 19.1816C17.4391 19.1816 17.2314 19.0993 17.0596 18.9346C16.8949 18.7699 16.8125 18.5765 16.8125 18.3545V14.4658H18.542V18.3545C18.542 18.5765 18.4561 18.7699 18.2842 18.9346C18.1195 19.0993 17.9189 19.1816 17.6826 19.1816Z" fill="#D50032"/>
</svg>
