<svg width="26" height="26" viewBox="0 0 26 26" fill="none" xmlns="http://www.w3.org/2000/svg">
<path d="M0.460223 13.7149H11.83C12.0855 13.7149 12.2903 13.9219 12.2903 14.1749V25.5378C12.2903 25.793 12.0832 25.9977 11.83 25.9977C5.29947 26 0 20.7038 0 14.1772C0 13.9219 0.2071 13.7172 0.460223 13.7172V13.7149Z" fill="#FF9500"/>
<path d="M11.83 0C12.0855 0 12.2903 0.206974 12.2903 0.459943V11.8228C12.2903 12.0781 12.0832 12.2828 11.83 12.2828H0.460223C0.204799 12.2828 0 12.0758 0 11.8228C0 5.29624 5.29947 0 11.83 0Z" fill="#FF9500"/>
<path d="M14.1677 13.7149H25.5375C25.7929 13.7149 25.9977 13.9219 25.9977 14.1749C25.9977 20.7015 20.6959 26 14.1654 26C13.9099 26 13.7051 25.793 13.7051 25.5401V14.1772C13.7051 13.9219 13.9122 13.7172 14.1654 13.7172L14.1677 13.7149Z" fill="#FF9500" fill-opacity="0.4"/>
<path d="M14.1677 0C20.6982 0 26 5.29854 26 11.8251C26 12.0804 25.7929 12.2851 25.5398 12.2851H14.17C13.9145 12.2851 13.7097 12.0781 13.7097 11.8251V0.459943C13.7097 0.204675 13.9168 0 14.17 0H14.1677Z" fill="#FF9500" fill-opacity="0.4"/>
</svg>
