<svg width="119" height="119" viewBox="0 0 119 119" fill="none" xmlns="http://www.w3.org/2000/svg">
<rect x="0.25" y="0.25" width="118.5" height="118.5" rx="12.75" fill="#E7E7F0" fill-opacity="0.6" stroke="#CACFD3" stroke-width="0.5"/>
<path d="M19.5804 90V79.0789H21.1092L26.7249 87.0256H26.8384V79.0789H28.4883V90H26.9595L21.3514 82.0684H21.2303V90H19.5804ZM34.4279 90.1589C32.0136 90.1589 30.5377 88.5469 30.5377 85.8979V85.8828C30.5377 83.2415 32.0211 81.6218 34.4279 81.6218C36.8271 81.6218 38.3104 83.2339 38.3104 85.8828V85.8979C38.3104 88.5469 36.8346 90.1589 34.4279 90.1589ZM34.4279 88.7891C35.8356 88.7891 36.6378 87.7144 36.6378 85.8979V85.8828C36.6378 84.0588 35.8356 82.9917 34.4279 82.9917C33.0126 82.9917 32.2179 84.0588 32.2179 85.8828V85.8979C32.2179 87.7219 33.0126 88.7891 34.4279 88.7891ZM40.1707 90V81.7808H41.813V83.0295H41.9341C42.3352 82.1516 43.1223 81.6218 44.3181 81.6218C46.1572 81.6218 47.1714 82.7192 47.1714 84.6794V90H45.5366V85.0654C45.5366 83.7031 44.969 83.0295 43.7656 83.0295C42.5623 83.0295 41.813 83.8545 41.813 85.179V90H40.1707ZM55.7583 90.1362C54.1916 90.1362 53.0336 89.1826 53.0336 87.6917V87.6765C53.0336 86.2083 54.1386 85.353 56.0988 85.2319L58.3239 85.1033V84.3767C58.3239 83.4761 57.7563 82.9766 56.6437 82.9766C55.7355 82.9766 55.1376 83.3096 54.9409 83.8923L54.9333 83.9226H53.3515L53.3591 83.8696C53.5559 82.5225 54.85 81.6218 56.7194 81.6218C58.7856 81.6218 59.9511 82.6511 59.9511 84.3767V90H58.3239V88.8345H58.1953C57.7109 89.667 56.8481 90.1362 55.7583 90.1362ZM54.6684 87.6235C54.6684 88.3804 55.3117 88.8269 56.1972 88.8269C57.4233 88.8269 58.3239 88.0247 58.3239 86.9651V86.2612L56.3183 86.3899C55.1831 86.458 54.6684 86.8667 54.6684 87.6084V87.6235ZM65.6258 90.1589C63.2266 90.1589 61.7584 88.5242 61.7584 85.8677V85.8525C61.7584 83.249 63.219 81.6218 65.6182 81.6218C67.6844 81.6218 68.918 82.7874 69.1451 84.3843V84.4221L67.5709 84.4297L67.5633 84.407C67.3816 83.5972 66.7156 82.9917 65.6258 82.9917C64.2559 82.9917 63.431 84.0815 63.431 85.8525V85.8677C63.431 87.6841 64.271 88.7891 65.6258 88.7891C66.6551 88.7891 67.2908 88.3198 67.5557 87.4343L67.5709 87.3965H69.1451L69.1299 87.4646C68.8348 89.0615 67.6617 90.1589 65.6258 90.1589ZM76.5756 92.7397V88.7588H76.4469C76.0155 89.6292 75.0846 90.1362 73.9115 90.1362C71.8378 90.1362 70.5058 88.4788 70.5058 85.8979V85.8828C70.5058 83.2793 71.8227 81.637 73.9267 81.637C75.0316 81.637 75.9853 82.2122 76.4772 83.1431H76.5756V81.7808H78.2104V92.7397H76.5756ZM74.3883 88.7361C75.7431 88.7361 76.6059 87.6387 76.6059 85.8979V85.8828C76.6059 84.1345 75.7431 83.0447 74.3808 83.0447C73.0109 83.0447 72.1784 84.1194 72.1784 85.8828V85.8979C72.1784 87.6614 73.0109 88.7361 74.3883 88.7361ZM83.2039 90.1589C81.3496 90.1589 80.3884 89.0464 80.3884 87.1013V81.7808H82.0308V86.7153C82.0308 88.0776 82.5303 88.7512 83.7336 88.7512C85.0505 88.7512 85.7544 87.9263 85.7544 86.6018V81.7808H87.3892V90H85.7544V88.7588H85.6257C85.2322 89.6443 84.3997 90.1589 83.2039 90.1589ZM90.5133 80.3125C89.9456 80.3125 89.484 79.8508 89.484 79.2908C89.484 78.7231 89.9456 78.2615 90.5133 78.2615C91.0733 78.2615 91.5426 78.7231 91.5426 79.2908C91.5426 79.8508 91.0733 80.3125 90.5133 80.3125ZM89.6883 90V81.7808H91.3231V90H89.6883ZM96.6042 90.1589C94.6213 90.1589 93.3649 89.228 93.206 87.8506V87.843H94.8483L94.8559 87.8506C95.0603 88.4712 95.6582 88.8875 96.6345 88.8875C97.6486 88.8875 98.3525 88.4258 98.3525 87.7522V87.7371C98.3525 87.2224 97.9665 86.8743 97.0129 86.6548L95.7036 86.3521C94.1521 85.9963 93.4331 85.2925 93.4331 84.0891V84.0815C93.4331 82.6511 94.7651 81.6218 96.6269 81.6218C98.5039 81.6218 99.7072 82.5603 99.851 83.8999V83.9075H98.2844V83.8923C98.1254 83.3171 97.5427 82.8857 96.6193 82.8857C95.7187 82.8857 95.0678 83.3323 95.0678 83.9907V84.0059C95.0678 84.5205 95.4462 84.8384 96.3696 85.0579L97.6713 85.353C99.2531 85.7239 100.01 86.3975 100.01 87.5857V87.6008C100.01 89.1221 98.5568 90.1589 96.6042 90.1589Z" fill="#7B7B81"/>
<path d="M43.4602 42.7149H54.83C55.0855 42.7149 55.2903 42.9219 55.2903 43.1749V54.5378C55.2903 54.793 55.0832 54.9977 54.83 54.9977C48.2995 55 43 49.7038 43 43.1772C43 42.9219 43.2071 42.7172 43.4602 42.7172V42.7149Z" fill="#7B7B81" fill-opacity="0.4"/>
<path d="M54.83 29C55.0855 29 55.2903 29.207 55.2903 29.4599V40.8228C55.2903 41.0781 55.0832 41.2828 54.83 41.2828H43.4602C43.2048 41.2828 43 41.0758 43 40.8228C43 34.2962 48.2995 29 54.83 29Z" fill="#7B7B81"/>
<path d="M57.1677 42.7149H68.5375C68.7929 42.7149 68.9977 42.9219 68.9977 43.1749C68.9977 49.7015 63.6959 55 57.1654 55C56.9099 55 56.7051 54.793 56.7051 54.5401V43.1772C56.7051 42.9219 56.9122 42.7172 57.1654 42.7172L57.1677 42.7149Z" fill="#7B7B81" fill-opacity="0.4"/>
<path d="M57.1677 29C63.6982 29 69 34.2985 69 40.8251C69 41.0804 68.7929 41.2851 68.5398 41.2851H57.17C56.9145 41.2851 56.7097 41.0781 56.7097 40.8251V29.4599C56.7097 29.2047 56.9168 29 57.17 29H57.1677Z" fill="#7B7B81" fill-opacity="0.4"/>
</svg>
