<svg width="119" height="119" viewBox="0 0 119 119" fill="none" xmlns="http://www.w3.org/2000/svg">
<rect x="0.25" y="0.25" width="118.5" height="118.5" rx="12.75" fill="#E7E7F0" fill-opacity="0.6" stroke="#CACFD3" stroke-width="0.5"/>
<path d="M28.8349 90V79.0789H35.7675V80.5396H30.5302V83.7334H35.4874V85.1411H30.5302V88.5393H35.7675V90H28.8349ZM37.9304 90V81.7808H39.5728V83.0295H39.6938C40.095 82.1516 40.8821 81.6218 42.0779 81.6218C43.917 81.6218 44.9312 82.7192 44.9312 84.6794V90H43.2964V85.0654C43.2964 83.7031 42.7288 83.0295 41.5254 83.0295C40.322 83.0295 39.5728 83.8545 39.5728 85.179V90H37.9304ZM54.7214 90.1589C52.3222 90.1589 50.854 88.5242 50.854 85.8677V85.8525C50.854 83.249 52.3146 81.6218 54.7138 81.6218C56.78 81.6218 58.0136 82.7874 58.2407 84.3843V84.4221L56.6665 84.4297L56.6589 84.407C56.4772 83.5972 55.8112 82.9917 54.7214 82.9917C53.3515 82.9917 52.5266 84.0815 52.5266 85.8525V85.8677C52.5266 87.6841 53.3666 88.7891 54.7214 88.7891C55.7507 88.7891 56.3864 88.3198 56.6513 87.4343L56.6665 87.3965H58.2407L58.2255 87.4646C57.9304 89.0615 56.7573 90.1589 54.7214 90.1589ZM63.4839 90.1589C61.0696 90.1589 59.5938 88.5469 59.5938 85.8979V85.8828C59.5938 83.2415 61.0772 81.6218 63.4839 81.6218C65.8831 81.6218 67.3665 83.2339 67.3665 85.8828V85.8979C67.3665 88.5469 65.8907 90.1589 63.4839 90.1589ZM63.4839 88.7891C64.8916 88.7891 65.6939 87.7144 65.6939 85.8979V85.8828C65.6939 84.0588 64.8916 82.9917 63.4839 82.9917C62.0686 82.9917 61.274 84.0588 61.274 85.8828V85.8979C61.274 87.7219 62.0686 88.7891 63.4839 88.7891ZM71.9665 90.1589C70.1122 90.1589 69.151 89.0464 69.151 87.1013V81.7808H70.7934V86.7153C70.7934 88.0776 71.2929 88.7512 72.4962 88.7512C73.8131 88.7512 74.517 87.9263 74.517 86.6018V81.7808H76.1518V90H74.517V88.7588H74.3883C73.9948 89.6443 73.1623 90.1589 71.9665 90.1589ZM78.4207 90V81.7808H80.063V83.022H80.1841C80.4792 82.1516 81.2437 81.637 82.3411 81.637C82.606 81.637 82.8936 81.6748 83.0601 81.7126V83.2263C82.7649 83.1658 82.4849 83.1279 82.1746 83.1279C80.9182 83.1279 80.063 83.8999 80.063 85.0881V90H78.4207ZM87.3497 90.1589C85.3668 90.1589 84.1104 89.228 83.9515 87.8506V87.843H85.5938L85.6014 87.8506C85.8058 88.4712 86.4037 88.8875 87.38 88.8875C88.3941 88.8875 89.098 88.4258 89.098 87.7522V87.7371C89.098 87.2224 88.712 86.8743 87.7584 86.6548L86.4491 86.3521C84.8976 85.9963 84.1786 85.2925 84.1786 84.0891V84.0815C84.1786 82.6511 85.5106 81.6218 87.3724 81.6218C89.2494 81.6218 90.4527 82.5603 90.5965 83.8999V83.9075H89.0299V83.8923C88.8709 83.3171 88.2882 82.8857 87.3648 82.8857C86.4642 82.8857 85.8133 83.3323 85.8133 83.9907V84.0059C85.8133 84.5205 86.1917 84.8384 87.1151 85.0579L88.4168 85.353C89.9986 85.7239 90.7555 86.3975 90.7555 87.5857V87.6008C90.7555 89.1221 89.3023 90.1589 87.3497 90.1589Z" fill="#7B7B81"/>
<path d="M43.4602 42.7149H54.83C55.0855 42.7149 55.2903 42.9219 55.2903 43.1749V54.5378C55.2903 54.793 55.0832 54.9977 54.83 54.9977C48.2995 55 43 49.7038 43 43.1772C43 42.9219 43.2071 42.7172 43.4602 42.7172V42.7149Z" fill="#FF9500"/>
<path d="M54.83 29C55.0855 29 55.2903 29.207 55.2903 29.4599V40.8228C55.2903 41.0781 55.0832 41.2828 54.83 41.2828H43.4602C43.2048 41.2828 43 41.0758 43 40.8228C43 34.2962 48.2995 29 54.83 29Z" fill="#FF9500"/>
<path d="M57.1677 42.7149H68.5375C68.7929 42.7149 68.9977 42.9219 68.9977 43.1749C68.9977 49.7015 63.6959 55 57.1654 55C56.9099 55 56.7051 54.793 56.7051 54.5401V43.1772C56.7051 42.9219 56.9122 42.7172 57.1654 42.7172L57.1677 42.7149Z" fill="#FF9500" fill-opacity="0.4"/>
<path d="M57.1677 29C63.6982 29 69 34.2985 69 40.8251C69 41.0804 68.7929 41.2851 68.5398 41.2851H57.17C56.9145 41.2851 56.7097 41.0781 56.7097 40.8251V29.4599C56.7097 29.2047 56.9168 29 57.17 29H57.1677Z" fill="#FF9500" fill-opacity="0.4"/>
</svg>
