<svg width="119" height="119" viewBox="0 0 119 119" fill="none" xmlns="http://www.w3.org/2000/svg">
<rect x="0.25" y="0.25" width="118.5" height="118.5" rx="12.75" fill="#34C759" fill-opacity="0.15" stroke="#34C759" stroke-width="0.5"/>
<path d="M31.1735 90V79.0789H33.1261L36.6076 87.79H36.7287L40.2101 79.0789H42.1627V90H40.6188V81.9851H40.5053L37.2963 90H36.0399L32.8385 81.9851H32.7174V90H31.1735ZM46.8687 90.1362C45.302 90.1362 44.144 89.1826 44.144 87.6917V87.6765C44.144 86.2083 45.249 85.353 47.2092 85.2319L49.4343 85.1033V84.3767C49.4343 83.4761 48.8667 82.9766 47.7542 82.9766C46.8459 82.9766 46.248 83.3096 46.0513 83.8923L46.0437 83.9226H44.4619L44.4695 83.8696C44.6663 82.5225 45.9604 81.6218 47.8298 81.6218C49.896 81.6218 51.0615 82.6511 51.0615 84.3767V90H49.4343V88.8345H49.3057C48.8213 89.667 47.9585 90.1362 46.8687 90.1362ZM45.7788 87.6235C45.7788 88.3804 46.4221 88.8269 47.3076 88.8269C48.5337 88.8269 49.4343 88.0247 49.4343 86.9651V86.2612L47.4287 86.3899C46.2935 86.458 45.7788 86.8667 45.7788 87.6084V87.6235ZM51.3399 80.6455L53.2169 78.042H55.0409L56.9178 80.6455H55.3436L54.1932 78.9729H54.0646L52.9142 80.6455H51.3399ZM53.3077 90V81.7808H54.9425V90H53.3077ZM60.3371 90.053C58.5283 90.053 57.7866 89.4172 57.7866 87.8354V83.075H56.5V81.7808H57.7866V79.707H59.4592V81.7808H61.2226V83.075H59.4592V87.4419C59.4592 88.3274 59.7922 88.6907 60.602 88.6907C60.8518 88.6907 60.9956 88.6831 61.2226 88.6604V89.9697C60.9577 90.0151 60.655 90.053 60.3371 90.053ZM63.0374 90V81.7808H64.6797V83.022H64.8008C65.096 82.1516 65.8604 81.637 66.9578 81.637C67.2227 81.637 67.5103 81.6748 67.6768 81.7126V83.2263C67.3816 83.1658 67.1016 83.1279 66.7913 83.1279C65.535 83.1279 64.6797 83.8999 64.6797 85.0881V90H63.0374ZM69.9987 80.3125C69.4311 80.3125 68.9694 79.8508 68.9694 79.2908C68.9694 78.7231 69.4311 78.2615 69.9987 78.2615C70.5587 78.2615 71.028 78.7231 71.028 79.2908C71.028 79.8508 70.5587 80.3125 69.9987 80.3125ZM69.1737 90V81.7808H70.8085V90H69.1737ZM76.0896 90.1589C74.1067 90.1589 72.8503 89.228 72.6914 87.8506V87.843H74.3337L74.3413 87.8506C74.5457 88.4712 75.1436 88.8875 76.1199 88.8875C77.134 88.8875 77.8379 88.4258 77.8379 87.7522V87.7371C77.8379 87.2224 77.4519 86.8743 76.4983 86.6548L75.189 86.3521C73.6375 85.9963 72.9185 85.2925 72.9185 84.0891V84.0815C72.9185 82.6511 74.2505 81.6218 76.1123 81.6218C77.9893 81.6218 79.1926 82.5603 79.3364 83.8999V83.9075H77.7698V83.8923C77.6108 83.3171 77.0281 82.8857 76.1047 82.8857C75.2041 82.8857 74.5532 83.3323 74.5532 83.9907V84.0059C74.5532 84.5205 74.9316 84.8384 75.855 85.0579L77.1567 85.353C78.7385 85.7239 79.4954 86.3975 79.4954 87.5857V87.6008C79.4954 89.1221 78.0422 90.1589 76.0896 90.1589ZM85.3063 80.6455H84.0121L85.3365 78.042H87.0924L85.3063 80.6455ZM84.8067 90.1589C82.4 90.1589 80.9469 88.5166 80.9469 85.9131V85.9055C80.9469 83.3398 82.4303 81.6218 84.7235 81.6218C87.0167 81.6218 88.4244 83.2793 88.4244 85.7466V86.3218H82.5968C82.6271 87.896 83.4898 88.8118 84.8446 88.8118C85.8966 88.8118 86.5248 88.2896 86.7215 87.8657L86.7518 87.8052L88.3336 87.7976L88.3185 87.8657C88.046 88.948 86.9107 90.1589 84.8067 90.1589ZM84.7311 82.969C83.6109 82.969 82.7633 83.7334 82.6195 85.1487H86.7972C86.6686 83.6804 85.8436 82.969 84.7311 82.969Z" fill="#34C759"/>
<circle cx="59.5" cy="42.5" r="13.5" fill="#34C759"/>
</svg>
