<svg width="119" height="119" viewBox="0 0 119 119" fill="none" xmlns="http://www.w3.org/2000/svg">
<rect x="0.25" y="0.25" width="118.5" height="118.5" rx="12.75" fill="#E7E7F0" fill-opacity="0.6" stroke="#CACFD3" stroke-width="0.5"/>
<path d="M35.0166 90L38.9597 79.0789H40.7913L44.7344 90H42.9482L41.9644 87.0483H37.7866L36.7952 90H35.0166ZM39.8074 80.9937L38.2407 85.686H41.5103L39.936 80.9937H39.8074ZM49.3495 90.1589C46.9503 90.1589 45.482 88.5242 45.482 85.8677V85.8525C45.482 83.249 46.9427 81.6218 49.3419 81.6218C51.4081 81.6218 52.6417 82.7874 52.8688 84.3843V84.4221L51.2945 84.4297L51.287 84.407C51.1053 83.5972 50.4393 82.9917 49.3495 82.9917C47.9796 82.9917 47.1546 84.0815 47.1546 85.8525V85.8677C47.1546 87.6841 47.9947 88.7891 49.3495 88.7891C50.3788 88.7891 51.0145 88.3198 51.2794 87.4343L51.2945 87.3965H52.8688L52.8536 87.4646C52.5584 89.0615 51.3854 90.1589 49.3495 90.1589ZM60.2993 92.7397V88.7588H60.1706C59.7392 89.6292 58.8083 90.1362 57.6352 90.1362C55.5615 90.1362 54.2294 88.4788 54.2294 85.8979V85.8828C54.2294 83.2793 55.5463 81.637 57.6503 81.637C58.7553 81.637 59.7089 82.2122 60.2009 83.1431H60.2993V81.7808H61.934V92.7397H60.2993ZM58.112 88.7361C59.4667 88.7361 60.3295 87.6387 60.3295 85.8979V85.8828C60.3295 84.1345 59.4667 83.0447 58.1044 83.0447C56.7346 83.0447 55.9021 84.1194 55.9021 85.8828V85.8979C55.9021 87.6614 56.7346 88.7361 58.112 88.7361ZM66.9275 90.1589C65.0733 90.1589 64.1121 89.0464 64.1121 87.1013V81.7808H65.7544V86.7153C65.7544 88.0776 66.254 88.7512 67.4573 88.7512C68.7742 88.7512 69.4781 87.9263 69.4781 86.6018V81.7808H71.1128V90H69.4781V88.7588H69.3494C68.9559 89.6443 68.1233 90.1589 66.9275 90.1589ZM74.237 80.3125C73.6693 80.3125 73.2077 79.8508 73.2077 79.2908C73.2077 78.7231 73.6693 78.2615 74.237 78.2615C74.797 78.2615 75.2663 78.7231 75.2663 79.2908C75.2663 79.8508 74.797 80.3125 74.237 80.3125ZM73.412 90V81.7808H75.0468V90H73.412ZM80.3279 90.1589C78.345 90.1589 77.0886 89.228 76.9297 87.8506V87.843H78.572L78.5796 87.8506C78.7839 88.4712 79.3818 88.8875 80.3582 88.8875C81.3723 88.8875 82.0762 88.4258 82.0762 87.7522V87.7371C82.0762 87.2224 81.6902 86.8743 80.7366 86.6548L79.4272 86.3521C77.8757 85.9963 77.1567 85.2925 77.1567 84.0891V84.0815C77.1567 82.6511 78.4888 81.6218 80.3506 81.6218C82.2275 81.6218 83.4309 82.5603 83.5747 83.8999V83.9075H82.0081V83.8923C81.8491 83.3171 81.2664 82.8857 80.343 82.8857C79.4424 82.8857 78.7915 83.3323 78.7915 83.9907V84.0059C78.7915 84.5205 79.1699 84.8384 80.0933 85.0579L81.395 85.353C82.9768 85.7239 83.7336 86.3975 83.7336 87.5857V87.6008C83.7336 89.1221 82.2805 90.1589 80.3279 90.1589Z" fill="#007AFF"/>
<path d="M43.4602 42.7149H54.83C55.0855 42.7149 55.2903 42.9219 55.2903 43.1749V54.5378C55.2903 54.793 55.0832 54.9977 54.83 54.9977C48.2995 55 43 49.7038 43 43.1772C43 42.9219 43.2071 42.7172 43.4602 42.7172V42.7149Z" fill="#007AFF"/>
<path d="M54.83 29C55.0855 29 55.2903 29.207 55.2903 29.4599V40.8228C55.2903 41.0781 55.0832 41.2828 54.83 41.2828H43.4602C43.2048 41.2828 43 41.0758 43 40.8228C43 34.2962 48.2995 29 54.83 29Z" fill="#007AFF"/>
<path d="M57.1677 42.7149H68.5375C68.7929 42.7149 68.9977 42.9219 68.9977 43.1749C68.9977 49.7015 63.6959 55 57.1654 55C56.9099 55 56.7051 54.793 56.7051 54.5401V43.1772C56.7051 42.9219 56.9122 42.7172 57.1654 42.7172L57.1677 42.7149Z" fill="#007AFF"/>
<path d="M57.1677 29C63.6982 29 69 34.2985 69 40.8251C69 41.0804 68.7929 41.2851 68.5398 41.2851H57.17C56.9145 41.2851 56.7097 41.0781 56.7097 40.8251V29.4599C56.7097 29.2047 56.9168 29 57.17 29H57.1677Z" fill="#007AFF" fill-opacity="0.4"/>
</svg>
