<svg width="39" height="39" viewBox="0 0 39 39" fill="none" xmlns="http://www.w3.org/2000/svg">
<path d="M19.2471 38.5293C21.8324 38.5293 24.263 38.0345 26.5391 37.0449C28.8275 36.0553 30.8438 34.6885 32.5879 32.9443C34.332 31.2002 35.6989 29.1901 36.6885 26.9141C37.6781 24.6257 38.1729 22.1888 38.1729 19.6035C38.1729 17.0182 37.6781 14.5876 36.6885 12.3115C35.6989 10.0231 34.332 8.00684 32.5879 6.2627C30.8438 4.51855 28.8275 3.15169 26.5391 2.16211C24.2507 1.17253 21.8138 0.677734 19.2285 0.677734C16.6432 0.677734 14.2064 1.17253 11.918 2.16211C9.64193 3.15169 7.63184 4.51855 5.8877 6.2627C4.15592 8.00684 2.79525 10.0231 1.80566 12.3115C0.816081 14.5876 0.321289 17.0182 0.321289 19.6035C0.321289 22.1888 0.816081 24.6257 1.80566 26.9141C2.79525 29.1901 4.16211 31.2002 5.90625 32.9443C7.65039 34.6885 9.66048 36.0553 11.9365 37.0449C14.2249 38.0345 16.6618 38.5293 19.2471 38.5293ZM19.2471 35.375C17.0576 35.375 15.0104 34.9668 13.1055 34.1504C11.2005 33.334 9.52441 32.2083 8.07715 30.7734C6.64225 29.3262 5.5166 27.6501 4.7002 25.7451C3.89616 23.8402 3.49414 21.793 3.49414 19.6035C3.49414 17.4141 3.89616 15.3669 4.7002 13.4619C5.5166 11.557 6.64225 9.88086 8.07715 8.43359C9.51204 6.98633 11.182 5.86068 13.0869 5.05664C14.9919 4.24023 17.0391 3.83203 19.2285 3.83203C21.418 3.83203 23.4652 4.24023 25.3701 5.05664C27.2751 5.86068 28.9512 6.98633 30.3984 8.43359C31.8457 9.88086 32.9775 11.557 33.7939 13.4619C34.6104 15.3669 35.0186 17.4141 35.0186 19.6035C35.0186 21.793 34.6104 23.8402 33.7939 25.7451C32.9899 27.6501 31.8643 29.3262 30.417 30.7734C28.9821 32.2083 27.306 33.334 25.3887 34.1504C23.4837 34.9668 21.4365 35.375 19.2471 35.375ZM28.7656 19.5664C28.7656 19.2077 28.5863 18.849 28.2275 18.4902L21.9746 12.2002C21.7272 11.9528 21.3994 11.8291 20.9912 11.8291C20.6201 11.8291 20.3047 11.959 20.0449 12.2188C19.7852 12.4661 19.6553 12.7816 19.6553 13.165C19.6553 13.5485 19.7975 13.8763 20.082 14.1484L22.4014 16.4492L24.6279 18.3232L20.7129 18.1748H11.0459C10.6377 18.1748 10.3037 18.3109 10.0439 18.583C9.78418 18.8428 9.6543 19.1706 9.6543 19.5664C9.6543 19.9746 9.78418 20.3086 10.0439 20.5684C10.3037 20.8281 10.6377 20.958 11.0459 20.958H20.7129L24.6465 20.8096L22.4014 22.7021L20.082 24.9844C19.7975 25.2441 19.6553 25.5781 19.6553 25.9863C19.6553 26.3574 19.7852 26.679 20.0449 26.9512C20.3047 27.2109 20.6201 27.3408 20.9912 27.3408C21.387 27.3408 21.7148 27.2109 21.9746 26.9512L28.2275 20.6611C28.5863 20.3024 28.7656 19.9375 28.7656 19.5664Z" fill="white"/>
</svg>
