<svg width="25" height="25" viewBox="0 0 25 25" fill="none" xmlns="http://www.w3.org/2000/svg">
<path d="M12.0508 24.4922C13.6836 24.4922 15.2188 24.1797 16.6562 23.5547C18.1016 22.9297 19.375 22.0664 20.4766 20.9648C21.5781 19.8633 22.4414 18.5938 23.0664 17.1562C23.6914 15.7109 24.0039 14.1719 24.0039 12.5391C24.0039 10.9062 23.6914 9.37109 23.0664 7.93359C22.4414 6.48828 21.5781 5.21484 20.4766 4.11328C19.375 3.01172 18.1016 2.14844 16.6562 1.52344C15.2109 0.898438 13.6719 0.585938 12.0391 0.585938C10.4062 0.585938 8.86719 0.898438 7.42188 1.52344C5.98438 2.14844 4.71484 3.01172 3.61328 4.11328C2.51953 5.21484 1.66016 6.48828 1.03516 7.93359C0.410156 9.37109 0.0976562 10.9062 0.0976562 12.5391C0.0976562 14.1719 0.410156 15.7109 1.03516 17.1562C1.66016 18.5938 2.52344 19.8633 3.625 20.9648C4.72656 22.0664 5.99609 22.9297 7.43359 23.5547C8.87891 24.1797 10.418 24.4922 12.0508 24.4922ZM14.3711 18.3281C14.2148 18.4766 14.0078 18.5469 13.75 18.5391C13.5 18.5312 13.293 18.4492 13.1289 18.293L8.24219 13.6875C8.02344 13.4844 7.875 13.2422 7.79688 12.9609C7.72656 12.6797 7.72656 12.3984 7.79688 12.1172C7.875 11.8359 8.02344 11.5938 8.24219 11.3906L13.1289 6.79688C13.3086 6.625 13.5156 6.53516 13.75 6.52734C13.9922 6.51953 14.1953 6.59766 14.3594 6.76172C14.5391 6.92578 14.6328 7.13281 14.6406 7.38281C14.6484 7.63281 14.5625 7.84375 14.3828 8.01562L9.56641 12.5391L14.3828 17.0742C14.5547 17.2383 14.6406 17.4453 14.6406 17.6953C14.6406 17.9453 14.5508 18.1562 14.3711 18.3281Z" fill="#E73745"/>
</svg>
