<svg width="66" height="60" viewBox="0 0 66 60" fill="none" xmlns="http://www.w3.org/2000/svg">
<g clip-path="url(#clip0_3763_11328)">
<path d="M27.6324 59.7256C27.2279 59.9038 26.8029 59.9929 26.3711 59.9998C26.8509 60.0066 27.3376 59.9175 27.7832 59.7187L30.1412 58.6768L30.0932 58.6562L27.6392 59.7325L27.6324 59.7256Z" fill="#2D52EA"/>
<path d="M52.7412 3.31785C52.7412 3.26302 52.7412 3.20818 52.7344 3.14648C52.7344 3.20818 52.7412 3.26302 52.7412 3.32471V3.311V3.31785Z" fill="#2D52EA"/>
<path d="M30.1398 58.6772L32.7994 57.4913L32.8131 57.4639L30.0918 58.6497L30.1398 58.6772Z" fill="#E9EFFD"/>
<path d="M52.7344 6.45701L52.7412 6.42959V3.44775L52.7344 6.45701Z" fill="#E9EFFD"/>
<path d="M0.00685479 3.15332C0.00685479 3.20816 0 3.263 0 3.32469V6.43677L0.0137096 6.46419L0 3.33155C0 3.26985 0 3.21501 0.00685479 3.15332Z" fill="#2D52EA"/>
<path d="M19.9277 57.4639L19.9414 57.4981L24.9592 59.7259C25.4116 59.9247 25.8914 60.0207 26.3712 60.007C25.9394 60.0001 25.5075 59.911 25.11 59.7328L19.9277 57.4639Z" fill="#2D52EA"/>
<path d="M3.95422 7.0056C3.95422 5.04513 5.53768 3.44796 7.49815 3.44796H11.5082L14.2844 0H3.31672C3.31672 0 3.31672 0 3.30987 0C3.20019 0 3.09052 0 2.98084 0.0137096C2.93971 0.0137096 2.89858 0.0274192 2.85745 0.034274C2.7889 0.0411287 2.72036 0.0548383 2.65181 0.0685479C2.59697 0.0822575 2.54213 0.0959671 2.48729 0.109677C2.43931 0.123386 2.38447 0.130241 2.33649 0.150805C2.28165 0.164515 2.23367 0.191934 2.17883 0.205644C2.13085 0.226208 2.07601 0.239918 2.02802 0.260482C1.98004 0.281046 1.93206 0.308466 1.89093 0.32903C1.84294 0.356449 1.78811 0.377014 1.74012 0.404433C1.69214 0.431852 1.65101 0.459271 1.60988 0.48669C1.5619 0.514109 1.51391 0.541528 1.46593 0.568948C1.4248 0.596367 1.38367 0.630641 1.34254 0.65806C1.30142 0.692334 1.25343 0.719753 1.2123 0.760882C1.17117 0.795156 1.1369 0.82943 1.10263 0.863704C1.0615 0.897978 1.02037 0.939106 0.97924 0.97338C0.944966 1.00765 0.910692 1.04878 0.876418 1.08991C0.842144 1.13104 0.801015 1.17217 0.766741 1.2133C0.732467 1.25443 0.705048 1.29556 0.677629 1.33668C0.643355 1.37781 0.609081 1.4258 0.574807 1.47378C0.547388 1.51491 0.519969 1.55604 0.499404 1.60402C0.471985 1.652 0.437711 1.69999 0.410292 1.74797C0.389728 1.7891 0.369163 1.83708 0.341744 1.88507C0.314325 1.93305 0.286906 1.98789 0.266341 2.03587C0.245777 2.08386 0.232068 2.13869 0.211503 2.18668C0.190939 2.23466 0.170374 2.2895 0.156665 2.33748C0.142955 2.39232 0.129246 2.44031 0.115536 2.49514C0.101826 2.54998 0.0881169 2.59797 0.0744073 2.6528C0.0606977 2.70764 0.0606977 2.76248 0.0469881 2.81732C0.0401333 2.87216 0.0264238 2.927 0.019569 2.98869C0.019569 3.04353 0.019569 3.09837 0.0127142 3.1532C0.0127142 3.2149 0.00585938 3.26974 0.00585938 3.33143L0.019569 6.45721L0.0606977 17.7265L3.99535 12.8253L3.96793 7.0056H3.95422Z" fill="#2D52EA"/>
<path d="M28.1048 3.44796L30.8741 0H27.9334L25.1641 3.44796H28.1048Z" fill="#2D52EA"/>
<path d="M4.05188 29.7363L0.103516 34.6512L0.117225 38.298L4.07244 33.3831L4.05188 29.7363Z" fill="#2D52EA"/>
<path d="M30.0932 58.6498L18.2001 53.0357L6.23848 47.3874C4.94978 46.8253 4.12035 45.5571 4.11349 44.1519L4.07922 36.502L0.130859 41.4305L0.151424 46.647C0.151424 47.9632 0.93287 49.149 2.13931 49.6769L19.9344 57.4639L25.1166 59.7328C25.521 59.9111 25.946 60.0002 26.3779 60.007C26.8097 60.0002 27.2416 59.9111 27.6391 59.7328L30.0932 58.6566V58.6498Z" fill="#2D52EA"/>
<path d="M52.7405 3.44796V3.32457C52.7405 3.26288 52.7405 3.20804 52.7337 3.14635C52.7337 3.09151 52.7337 3.03667 52.7268 2.98183C52.7268 2.927 52.7131 2.87216 52.6994 2.81047C52.6925 2.75563 52.6857 2.70079 52.672 2.64595C52.6583 2.59111 52.6445 2.54313 52.6308 2.48829C52.6171 2.43345 52.6034 2.37861 52.5897 2.33063C52.576 2.27579 52.5554 2.22781 52.5349 2.17982C52.5143 2.13184 52.5006 2.077 52.48 2.02902C52.4595 1.97418 52.432 1.9262 52.4046 1.87821C52.3841 1.83023 52.3635 1.7891 52.3361 1.74112C52.3087 1.69313 52.2744 1.64515 52.247 1.59717C52.2195 1.55604 52.199 1.50805 52.1716 1.46693C52.1373 1.41894 52.103 1.37781 52.0687 1.32983C52.0413 1.2887 52.0071 1.24757 51.9796 1.20644C51.9454 1.16531 51.9042 1.12419 51.87 1.08991C51.8357 1.04878 51.8014 1.00765 51.7671 0.973381C51.726 0.932252 51.6849 0.897978 51.6437 0.863704C51.6026 0.82943 51.5683 0.795156 51.5272 0.760882C51.4861 0.726608 51.4381 0.692334 51.397 0.65806C51.3558 0.630641 51.3147 0.596367 51.2736 0.568948C51.2256 0.541529 51.1776 0.514109 51.1296 0.48669C51.0885 0.459271 51.0405 0.431852 50.9994 0.404433C50.9514 0.377014 50.8966 0.356449 50.8486 0.32903C50.8006 0.308466 50.7595 0.281047 50.7115 0.260482C50.6635 0.239918 50.6155 0.226208 50.5607 0.205644C50.5059 0.185079 50.4579 0.164515 50.403 0.150805C50.355 0.137096 50.3002 0.123386 50.2522 0.109677C50.1974 0.0959671 50.1425 0.0754027 50.0877 0.0685479C50.0192 0.0548383 49.9506 0.0479835 49.8821 0.034274C49.8409 0.034274 49.7998 0.0205644 49.7587 0.0137096C49.649 0 49.5393 0 49.4296 0C49.4296 0 49.4296 0 49.4228 0H33.3963L30.627 3.44796H52.7405Z" fill="#2D52EA"/>
<path d="M4.05078 29.7359L4.07135 33.3826L28.1042 3.44775H25.1635L4.05078 29.7359Z" fill="#E9EFFD"/>
<path d="M30.6267 3.44777L4.07812 36.5016L4.1124 44.1515C4.1124 45.5568 4.94868 46.8249 6.23739 47.387L18.199 53.0354L30.0921 58.6494L32.8134 57.4567L50.6085 49.6696C51.8149 49.1418 52.5963 47.9559 52.5963 46.6398L52.7334 6.45017V3.44092H30.6267V3.44777Z" fill="#E9EFFD"/>
<path d="M7.49903 3.44775C5.53856 3.44775 3.94825 5.04492 3.9551 7.00539L3.98252 12.8251L11.5091 3.44775H7.49903Z" fill="#E9EFFD"/>
<path d="M3.99719 16.6707L3.98348 12.8252L0.0488281 17.7264L0.103666 34.6509L4.05203 29.736L3.99719 16.6707Z" fill="#2D52EA"/>
<g style="mix-blend-mode:soft-light">
<path d="M3.99719 16.6707L3.98348 12.8252L0.0488281 17.7264L0.103666 34.6509L4.05203 29.736L3.99719 16.6707Z" fill="white"/>
</g>
<path d="M25.1645 3.44796L27.9338 0H14.286L11.5098 3.44796H25.1645Z" fill="#2D52EA"/>
<g style="mix-blend-mode:soft-light">
<path d="M25.1645 3.44796L27.9338 0H14.286L11.5098 3.44796H25.1645Z" fill="white"/>
</g>
<path d="M11.509 3.44775L3.98242 12.8251L3.99613 16.6706L4.05097 29.7359L25.1637 3.44775H11.509Z" fill="#E9EFFD"/>
<g style="mix-blend-mode:soft-light">
<path d="M11.509 3.44775L3.98242 12.8251L3.99613 16.6706L4.05097 29.7359L25.1637 3.44775H11.509Z" fill="white"/>
</g>
<path d="M28.1055 3.44796H30.628L33.3974 0H30.8748L28.1055 3.44796Z" fill="#2D52EA"/>
<g style="mix-blend-mode:soft-light">
<path d="M28.1055 3.44796H30.628L33.3974 0H30.8748L28.1055 3.44796Z" fill="white"/>
</g>
<path d="M4.0724 33.3828L0.117188 38.2977L0.130897 41.4303L4.07926 36.5017L4.0724 33.3828Z" fill="#2D52EA"/>
<g style="mix-blend-mode:soft-light">
<path d="M4.0724 33.3828L0.117188 38.2977L0.130897 41.4303L4.07926 36.5017L4.0724 33.3828Z" fill="white"/>
</g>
<path d="M4.07912 36.5016L30.6277 3.44775H28.1052L4.07227 33.3826L4.07912 36.5016Z" fill="#E9EFFD"/>
<g style="mix-blend-mode:soft-light">
<path d="M4.07912 36.5016L30.6277 3.44775H28.1052L4.07227 33.3826L4.07912 36.5016Z" fill="white"/>
</g>
<path d="M13.8675 23.1421C13.2231 23.1421 12.6748 23.0667 12.2155 22.909C11.7562 22.7582 11.3792 22.5526 11.0844 22.3126C10.7897 22.0727 10.5772 21.8054 10.4332 21.5243C10.2893 21.2433 10.2139 20.976 10.207 20.7223C10.207 20.6469 10.2345 20.5852 10.2893 20.5373C10.3441 20.4893 10.4058 20.4619 10.4812 20.4619H12.1195C12.2086 20.4619 12.284 20.4824 12.3457 20.5167C12.4074 20.551 12.4554 20.6127 12.5102 20.6949C12.5788 20.8526 12.6748 20.9828 12.805 21.0856C12.9352 21.1885 13.0929 21.257 13.2711 21.2913C13.4562 21.3256 13.655 21.3461 13.8675 21.3461C14.2925 21.3461 14.6215 21.2502 14.8614 21.0514C15.1014 20.8526 15.2179 20.5852 15.2179 20.2494C15.2179 19.8929 15.1082 19.6324 14.882 19.4816C14.6558 19.3308 14.3336 19.2486 13.9223 19.2486H12.5377C12.4485 19.2486 12.3731 19.2211 12.3115 19.1594C12.2566 19.1046 12.2223 19.0292 12.2223 18.9332V18.234C12.2223 18.1312 12.2429 18.049 12.284 17.9736C12.3252 17.8982 12.3731 17.8433 12.4211 17.809L14.4707 16.0748H10.9953C10.9131 16.0748 10.8377 16.0474 10.776 15.9857C10.7143 15.924 10.68 15.8554 10.68 15.7595V14.5873C10.68 14.4982 10.7143 14.4228 10.776 14.3611C10.8377 14.2994 10.9131 14.272 10.9953 14.272H16.7396C16.8288 14.272 16.911 14.2994 16.9727 14.3611C17.0344 14.4159 17.0687 14.4913 17.0687 14.5873V15.6498C17.0687 15.7389 17.0481 15.8212 17.007 15.8897C16.9659 15.9583 16.9179 16.0199 16.8699 16.0611L14.9711 17.8228L15.0602 17.8502C15.5401 17.9119 15.9719 18.0353 16.3421 18.2272C16.7122 18.4191 17.007 18.6933 17.2195 19.0429C17.4388 19.3994 17.5417 19.8449 17.5417 20.3864C17.5417 20.928 17.384 21.4421 17.0618 21.8534C16.7396 22.2647 16.3078 22.5868 15.7594 22.8062C15.211 23.0324 14.5804 23.1421 13.8743 23.1421H13.8675Z" fill="#282E45"/>
<path d="M22.2716 23.1419C21.6752 23.1419 21.1543 23.0597 20.7156 22.8883C20.2769 22.7169 19.9135 22.4839 19.6256 22.1823C19.3309 21.8806 19.1115 21.5311 18.9607 21.1335C18.8099 20.7359 18.7208 20.304 18.7003 19.8448C18.6934 19.6186 18.6865 19.3649 18.6797 19.077C18.6797 18.7891 18.6797 18.5012 18.6797 18.1996C18.6797 17.9049 18.6934 17.6375 18.7003 17.4045C18.7277 16.9452 18.8168 16.5202 18.9676 16.1226C19.1184 15.725 19.3446 15.3823 19.6394 15.0875C19.9341 14.7928 20.3043 14.5597 20.7361 14.3952C21.168 14.2307 21.6821 14.1484 22.2647 14.1484C22.8474 14.1484 23.3684 14.2307 23.8071 14.3952C24.2458 14.5597 24.6091 14.7928 24.897 15.0875C25.1849 15.3823 25.4111 15.7319 25.5688 16.1226C25.7264 16.5202 25.8155 16.9452 25.8429 17.4045C25.8498 17.6375 25.8567 17.9049 25.8635 18.1996C25.8635 18.4944 25.8635 18.7891 25.8635 19.077C25.8635 19.3649 25.8498 19.6186 25.8429 19.8448C25.8155 20.304 25.7264 20.729 25.5756 21.1335C25.4248 21.5311 25.1986 21.8806 24.9107 22.1823C24.6228 22.4839 24.2595 22.7169 23.8208 22.8883C23.3821 23.0597 22.8611 23.1419 22.251 23.1419H22.2716ZM22.2716 21.3254C22.7035 21.3254 23.0188 21.1883 23.2176 20.9073C23.4163 20.6262 23.5123 20.2492 23.526 19.7762C23.5397 19.5363 23.5534 19.2827 23.5603 19.0153C23.5603 18.748 23.5603 18.4807 23.5603 18.2133C23.5603 17.946 23.5466 17.6992 23.526 17.473C23.5192 17.0137 23.4163 16.6436 23.2176 16.3625C23.0188 16.0815 22.7103 15.9307 22.2716 15.9238C21.8466 15.9307 21.5381 16.0746 21.3393 16.3625C21.1406 16.6436 21.0377 17.0137 21.024 17.473C21.024 17.6992 21.024 17.946 21.024 18.2133C21.024 18.4807 21.024 18.748 21.024 19.0153C21.024 19.2827 21.024 19.5363 21.024 19.7762C21.0377 20.2492 21.1474 20.6262 21.3462 20.9073C21.545 21.1883 21.8535 21.3254 22.2716 21.3254Z" fill="#282E45"/>
<path d="M27.5849 23.0117C27.4957 23.0117 27.4203 22.9774 27.3586 22.9158C27.297 22.8541 27.2695 22.7787 27.2695 22.6964V14.4501C27.2695 14.361 27.297 14.2856 27.3586 14.2239C27.4203 14.1622 27.4889 14.1348 27.5849 14.1348H29.0312C29.1135 14.1348 29.1889 14.1622 29.2506 14.2239C29.3123 14.2787 29.3465 14.3541 29.3465 14.4501V18.6315L31.0808 16.719C31.1288 16.6642 31.1836 16.6093 31.2453 16.5682C31.307 16.5271 31.3893 16.5065 31.4921 16.5065H33.1647C33.2401 16.5065 33.3017 16.5339 33.3566 16.5888C33.4114 16.6436 33.4388 16.7053 33.4388 16.7807C33.4388 16.815 33.4388 16.8493 33.4183 16.8904C33.4046 16.9315 33.3772 16.9658 33.336 16.9932L31.0877 19.4198L33.6513 22.5319C33.7199 22.6004 33.7542 22.6621 33.7542 22.717C33.7542 22.7992 33.7267 22.8678 33.6719 22.9226C33.6171 22.9774 33.5485 23.0049 33.4663 23.0049H31.7526C31.6292 23.0049 31.5332 22.9843 31.4784 22.9363C31.4235 22.8883 31.3687 22.8404 31.3139 22.7924L29.3397 20.4206V22.6964C29.3397 22.7787 29.3054 22.8541 29.2437 22.9158C29.182 22.9774 29.1066 23.0117 29.0244 23.0117H27.578H27.5849Z" fill="#282E45"/>
<path d="M65.0108 18.6448L55.4758 6.69006C55.325 6.49812 55.0371 6.48441 54.8657 6.66264L43.3976 18.4186C43.1509 18.6722 43.3291 19.1041 43.6855 19.1109L45.8311 19.1315V49.7519H62.6253C62.783 49.7519 62.9132 49.6216 62.9132 49.464V19.2823L64.7023 19.296C65.0451 19.296 65.237 18.9053 65.0245 18.638L65.0108 18.6448Z" fill="url(#paint0_linear_3763_11328)"/>
<path d="M38.3664 23.2446H53.8788C54.3107 23.2446 54.6603 23.5942 54.6603 24.0261V49.5122C54.6603 49.6699 54.53 49.8001 54.3724 49.8001H37.5781V24.0329C37.5781 23.6011 37.9277 23.2515 38.3596 23.2515L38.3664 23.2446Z" fill="url(#paint1_linear_3763_11328)"/>
<path d="M29.3654 31.4839H42.6843C43.1161 31.4839 43.4657 31.8335 43.4657 32.2653V49.793H28.584V32.2653C28.584 31.8335 28.9336 31.4839 29.3654 31.4839Z" fill="url(#paint2_linear_3763_11328)"/>
<path d="M20.3586 36.8652H31.6142C32.046 36.8652 32.3956 37.2148 32.3956 37.6467V49.8002H19.8582C19.7006 49.8002 19.5703 49.67 19.5703 49.5123V37.6467C19.5703 37.2148 19.9199 36.8652 20.3518 36.8652H20.3586Z" fill="url(#paint3_linear_3763_11328)"/>
</g>
<defs>
<linearGradient id="paint0_linear_3763_11328" x1="54.1871" y1="51.726" x2="54.1871" y2="7.85537" gradientUnits="userSpaceOnUse">
<stop stop-color="#FF8A00"/>
<stop offset="1" stop-color="#FFC700"/>
</linearGradient>
<linearGradient id="paint1_linear_3763_11328" x1="46.1192" y1="59.3351" x2="46.1192" y2="24.2249" gradientUnits="userSpaceOnUse">
<stop stop-color="#222C4F"/>
<stop offset="1" stop-color="#4B69DE"/>
</linearGradient>
<linearGradient id="paint2_linear_3763_11328" x1="36.0283" y1="51.7261" x2="36.0283" y2="7.85541" gradientUnits="userSpaceOnUse">
<stop stop-color="#FF8A00"/>
<stop offset="1" stop-color="#FFC700"/>
</linearGradient>
<linearGradient id="paint3_linear_3763_11328" x1="25.9864" y1="59.3352" x2="25.9864" y2="24.225" gradientUnits="userSpaceOnUse">
<stop stop-color="#222C4F"/>
<stop offset="1" stop-color="#4B69DE"/>
</linearGradient>
<clipPath id="clip0_3763_11328">
<rect width="65.1" height="60" fill="white"/>
</clipPath>
</defs>
</svg>
