<svg width="56" height="57" viewBox="0 0 56 57" fill="none" xmlns="http://www.w3.org/2000/svg">
<g clip-path="url(#clip0_3763_11002)">
<path d="M26.251 56.7395C25.8667 56.9088 25.463 56.9935 25.0527 57C25.5086 57.0065 25.9709 56.9219 26.3942 56.733L28.6344 55.7432L28.5888 55.7236L26.2575 56.746L26.251 56.7395Z" fill="#2D52EA"/>
<path d="M50.1042 3.15206C50.1042 3.09996 50.1042 3.04787 50.0977 2.98926C50.0977 3.04787 50.1042 3.09996 50.1042 3.15857V3.14555V3.15206Z" fill="#2D52EA"/>
<path d="M28.6335 55.743L31.1601 54.6164L31.1732 54.5903L28.5879 55.7169L28.6335 55.743Z" fill="#E9EFFD"/>
<path d="M50.0977 6.13418L50.1042 6.10813V3.27539L50.0977 6.13418Z" fill="#E9EFFD"/>
<path d="M0.00651205 2.99561C0 3.0477 0 3.0998 0 3.15189V6.10837L0.0130241 6.13442L0 3.16492C0 3.10631 0 3.05421 0.00651205 2.99561Z" fill="#2D52EA"/>
<path d="M18.9297 54.5903L18.9427 54.6229L23.7095 56.7393C24.1393 56.9282 24.5952 57.0193 25.051 57.0063C24.6408 56.9998 24.2305 56.9151 23.8528 56.7458L18.9297 54.5903Z" fill="#2D52EA"/>
<path d="M3.7568 6.65532C3.7568 4.79287 5.26109 3.27556 7.12353 3.27556H10.9331L13.5705 0H3.15118C3.15118 0 3.15118 0 3.14467 0C3.04048 0 2.93628 0 2.83209 0.0130241C2.79302 0.0130241 2.75395 0.0260482 2.71487 0.0325603C2.64975 0.0390723 2.58463 0.0520964 2.51951 0.0651205C2.46742 0.0781446 2.41532 0.0911687 2.36322 0.104193C2.31764 0.117217 2.26554 0.123729 2.21996 0.143265C2.16786 0.156289 2.12228 0.182337 2.07018 0.195362C2.0246 0.214898 1.9725 0.227922 1.92692 0.247458C1.88133 0.266994 1.83575 0.293042 1.79667 0.312579C1.75109 0.338627 1.69899 0.358163 1.65341 0.384211C1.60782 0.410259 1.56875 0.436308 1.52968 0.462356C1.4841 0.488404 1.43851 0.514452 1.39293 0.5405C1.35385 0.566549 1.31478 0.599109 1.27571 0.625157C1.23664 0.657717 1.19105 0.683766 1.15198 0.722838C1.11291 0.755398 1.08035 0.787958 1.04779 0.820519C1.00872 0.853079 0.969643 0.892151 0.930571 0.924712C0.898011 0.957272 0.86545 0.996344 0.83289 1.03542C0.80033 1.07449 0.761258 1.11356 0.728697 1.15263C0.696137 1.19171 0.670089 1.23078 0.644041 1.26985C0.61148 1.30892 0.57892 1.35451 0.54636 1.40009C0.520312 1.43916 0.494263 1.47824 0.474727 1.52382C0.448679 1.5694 0.416119 1.61499 0.390071 1.66057C0.370534 1.69965 0.350998 1.74523 0.32495 1.79081C0.298902 1.8364 0.272854 1.8885 0.253317 1.93408C0.233781 1.97966 0.220757 2.03176 0.201221 2.07734C0.181685 2.12293 0.162149 2.17503 0.149125 2.22061C0.1361 2.27271 0.123076 2.31829 0.110052 2.37039C0.0970281 2.42248 0.084004 2.46807 0.0709799 2.52016C0.0579558 2.57226 0.0579558 2.62436 0.0449317 2.67645C0.0384196 2.72855 0.0253955 2.78065 0.0188835 2.83926C0.0188835 2.89135 0.0188835 2.94345 0.0123714 2.99554C0.0123714 3.05415 0.00585938 3.10625 0.00585938 3.16486L0.0188835 6.13435L0.0579558 16.8402L3.79587 12.1841L3.76983 6.65532H3.7568Z" fill="#2D52EA"/>
<path d="M26.6999 3.27556L29.3308 0H26.5371L23.9062 3.27556H26.6999Z" fill="#2D52EA"/>
<path d="M3.8486 28.2495L0.0976562 32.9187L0.11068 36.3831L3.86813 31.7139L3.8486 28.2495Z" fill="#2D52EA"/>
<path d="M28.5872 55.7172L17.2888 50.3838L5.92529 45.0179C4.70102 44.4839 3.91306 43.2792 3.90655 41.9442L3.87399 34.6768L0.123047 39.3589L0.142583 44.3146C0.142583 45.5649 0.884957 46.6915 2.03108 47.1929L18.9364 54.5906L23.8595 56.7461C24.2437 56.9154 24.6474 57.0001 25.0577 57.0066C25.468 57.0001 25.8782 56.9154 26.2559 56.7461L28.5872 55.7237V55.7172Z" fill="#2D52EA"/>
<path d="M50.1036 3.27556V3.15835C50.1036 3.09974 50.1036 3.04764 50.0971 2.98903C50.0971 2.93694 50.0971 2.88484 50.0906 2.83274C50.0906 2.78065 50.0775 2.72855 50.0645 2.66994C50.058 2.61785 50.0515 2.56575 50.0385 2.51365C50.0254 2.46156 50.0124 2.41597 49.9994 2.36388C49.9864 2.31178 49.9733 2.25968 49.9603 2.2141C49.9473 2.162 49.9278 2.11642 49.9082 2.07083C49.8887 2.02525 49.8757 1.97315 49.8561 1.92757C49.8366 1.87547 49.8105 1.82989 49.7845 1.7843C49.765 1.73872 49.7454 1.69965 49.7194 1.65406C49.6933 1.60848 49.6608 1.56289 49.6347 1.51731C49.6087 1.47824 49.5891 1.43265 49.5631 1.39358C49.5305 1.348 49.498 1.30892 49.4654 1.26334C49.4394 1.22427 49.4068 1.18519 49.3807 1.14612C49.3482 1.10705 49.3091 1.06798 49.2766 1.03542C49.244 0.996344 49.2114 0.957272 49.1789 0.924712C49.1398 0.885639 49.1007 0.853079 49.0617 0.820519C49.0226 0.787958 48.99 0.755398 48.951 0.722838C48.9119 0.690278 48.8663 0.657717 48.8272 0.625157C48.7882 0.599109 48.7491 0.566549 48.71 0.5405C48.6644 0.514452 48.6188 0.488404 48.5733 0.462356C48.5342 0.436308 48.4886 0.410259 48.4495 0.384211C48.4039 0.358163 48.3518 0.338627 48.3063 0.312579C48.2607 0.293042 48.2216 0.266994 48.176 0.247458C48.1304 0.227922 48.0849 0.214898 48.0328 0.195362C47.9807 0.175825 47.9351 0.156289 47.883 0.143265C47.8374 0.130241 47.7853 0.117217 47.7397 0.104193C47.6876 0.0911687 47.6355 0.0716326 47.5834 0.0651205C47.5183 0.0520964 47.4532 0.0455844 47.3881 0.0325603C47.349 0.0325603 47.3099 0.0195362 47.2708 0.0130241C47.1666 0 47.0625 0 46.9583 0C46.9583 0 46.9583 0 46.9518 0H31.7266L29.0957 3.27556H50.1036Z" fill="#2D52EA"/>
<path d="M3.84766 28.2491L3.86719 31.7135L26.6985 3.27539H23.9048L3.84766 28.2491Z" fill="#EAEEFF"/>
<path d="M29.0962 3.27556L3.875 34.6767L3.90756 41.9441C3.90756 43.2791 4.70203 44.4838 5.9263 45.0178L17.2898 50.3838L28.5882 55.7171L31.1735 54.584L48.0788 47.1863C49.2249 46.6849 49.9673 45.5583 49.9673 44.308L50.0976 6.12783V3.26904H29.0962V3.27556Z" fill="#EAEEFF"/>
<path d="M7.12456 3.27539C5.26212 3.27539 3.75132 4.7927 3.75783 6.65515L3.78388 12.1839L10.9341 3.27539H7.12456Z" fill="#EAEEFF"/>
<path d="M3.79586 15.8373L3.78284 12.1841L0.0449219 16.8402L0.0970183 32.9185L3.84796 28.2493L3.79586 15.8373Z" fill="#2D52EA"/>
<g style="mix-blend-mode:soft-light">
<path d="M3.79586 15.8373L3.78284 12.1841L0.0449219 16.8402L0.0970183 32.9185L3.84796 28.2493L3.79586 15.8373Z" fill="white"/>
</g>
<path d="M23.9056 3.27556L26.5365 0H13.571L10.9336 3.27556H23.9056Z" fill="#2D52EA"/>
<g style="mix-blend-mode:soft-light">
<path d="M23.9056 3.27556L26.5365 0H13.571L10.9336 3.27556H23.9056Z" fill="white"/>
</g>
<path d="M10.9334 3.27539L3.7832 12.1839L3.79623 15.8371L3.84832 28.2491L23.9054 3.27539H10.9334Z" fill="#E9EFFD"/>
<g style="mix-blend-mode:soft-light">
<path d="M10.9334 3.27539L3.7832 12.1839L3.79623 15.8371L3.84832 28.2491L23.9054 3.27539H10.9334Z" fill="white"/>
</g>
<path d="M26.6992 3.27556H29.0957L31.7265 0H29.3301L26.6992 3.27556Z" fill="#2D52EA"/>
<g style="mix-blend-mode:soft-light">
<path d="M26.6992 3.27556H29.0957L31.7265 0H29.3301L26.6992 3.27556Z" fill="white"/>
</g>
<path d="M3.86878 31.7139L0.111328 36.383L0.124352 39.359L3.87529 34.6769L3.86878 31.7139Z" fill="#2D52EA"/>
<g style="mix-blend-mode:soft-light">
<path d="M3.86878 31.7139L0.111328 36.383L0.124352 39.359L3.87529 34.6769L3.86878 31.7139Z" fill="white"/>
</g>
<path d="M3.8737 34.6765L29.0949 3.27539H26.6984L3.86719 31.7135L3.8737 34.6765Z" fill="#E9EFFD"/>
<g style="mix-blend-mode:soft-light">
<path d="M3.8737 34.6765L29.0949 3.27539H26.6984L3.86719 31.7135L3.8737 34.6765Z" fill="white"/>
</g>
<path d="M29.6881 10.0287L52.552 11.5395C53.8153 11.6241 54.8116 12.7442 54.8181 14.0857L55.0396 49.4527C55.0461 50.5076 54.2321 51.3346 53.2487 51.2891L27.0247 50.0648C26.0935 50.0192 25.3706 49.1791 25.4097 48.1893L26.888 12.7051C26.9531 11.1227 28.2099 9.92449 29.6946 10.0222L29.6881 10.0287Z" fill="url(#paint0_linear_3763_11002)"/>
<path d="M30.8724 49.7322L27.942 49.4978C26.9587 49.4197 26.1967 48.5015 26.2358 47.4595L26.4312 42.7513C26.4312 42.7122 26.4637 42.6797 26.5028 42.6797C26.5419 42.6797 26.5679 42.7188 26.5679 42.7578L26.3726 47.466C26.3335 48.4298 27.0368 49.2764 27.9485 49.348L30.8789 49.5825C30.918 49.5825 30.944 49.6215 30.944 49.6606C30.944 49.6997 30.9115 49.7322 30.8724 49.7257V49.7322Z" fill="url(#paint1_linear_3763_11002)"/>
<path d="M26.5632 41.3643C26.5241 41.3643 26.498 41.3253 26.498 41.2862L26.5306 40.5243C26.5306 40.4852 26.5632 40.4526 26.6022 40.4526C26.6413 40.4526 26.6674 40.4917 26.6674 40.5308L26.6348 41.2927C26.6348 41.3318 26.6022 41.3643 26.5632 41.3643Z" fill="url(#paint2_linear_3763_11002)"/>
<path d="M29.7719 9.74852C32.8782 10.4062 43.5514 12.5096 52.4599 12.3664C52.8636 12.3664 53.2023 12.7115 53.2088 13.1413L53.5083 48.6711C53.5083 49.1595 53.1437 49.5502 52.6878 49.5502C48.9434 49.5372 33.5359 49.433 28.0723 48.4562C27.7401 48.3976 27.4992 48.0785 27.5122 47.7268L28.8537 10.5169C28.8732 10.009 29.303 9.65084 29.7719 9.74852Z" fill="url(#paint3_linear_3763_11002)"/>
<path opacity="0.6" d="M30.0642 10.6864C33.0532 11.318 43.3293 13.3433 51.8991 13.2065C52.2898 13.2065 52.6155 13.5386 52.6155 13.9554L52.902 48.1502C52.902 48.6191 52.5568 48.9968 52.114 48.9968C48.5129 48.9837 33.6784 48.8795 28.4297 47.9483C28.1106 47.8897 27.8762 47.5902 27.8892 47.245L29.1786 11.4352C29.1981 10.9468 29.6149 10.6017 30.0642 10.6929V10.6864Z" fill="white"/>
<g opacity="0.6">
<path d="M51.6272 16.1953C51.6989 16.1953 51.7575 16.1432 51.751 16.0651V15.8502C51.751 15.772 51.6858 15.7069 51.6142 15.7004L32.0259 14.2417C31.9543 14.2417 31.9283 14.2808 31.9738 14.3459L32.2864 14.8082C32.3255 14.8734 32.4232 14.9255 32.4948 14.932L51.6272 16.1953Z" fill="white"/>
</g>
<g opacity="0.6">
<path d="M31.9732 15.603C31.9016 15.603 31.8755 15.6421 31.9211 15.7072L32.2337 16.1696C32.2728 16.2347 32.3704 16.2868 32.4421 16.2933L51.5745 17.5566C51.6461 17.5566 51.7047 17.5045 51.6982 17.4264V17.2115C51.6982 17.1334 51.6331 17.0682 51.5615 17.0617L31.9732 15.603Z" fill="white"/>
</g>
<path d="M35.1444 24.8562C35.1444 24.8562 35.1444 24.8562 35.1378 24.8562L32.5656 24.7455C32.1944 24.7325 31.8883 24.446 31.8623 24.0878L31.6604 21.7825C31.6474 21.6458 31.693 21.509 31.7776 21.4048C31.8753 21.2876 32.0186 21.216 32.1814 21.2095C32.3963 21.203 32.6958 21.1834 33.0279 21.1639C33.7443 21.1183 34.5583 21.0727 35.0336 21.0792C35.0336 21.0792 35.0402 21.0792 35.0467 21.0792C35.3853 21.0923 35.6783 21.3202 35.7565 21.6458C35.8867 22.1798 35.8607 23.1761 35.8216 24.2441C35.8086 24.5957 35.509 24.8627 35.1509 24.8562H35.1444ZM32.1814 21.4309C32.0837 21.4309 31.986 21.4765 31.9274 21.5546C31.8753 21.6132 31.8558 21.6914 31.8623 21.763L32.0642 24.0683C32.0837 24.3157 32.2986 24.5046 32.5656 24.5176L35.1378 24.6283C35.3853 24.6348 35.5872 24.459 35.6002 24.2311C35.6393 23.1826 35.6588 22.1993 35.5416 21.6979C35.4895 21.4765 35.2681 21.3006 35.0271 21.3072C34.5583 21.3006 33.7117 21.3462 33.0344 21.3853C32.7023 21.4048 32.4028 21.4244 32.1814 21.4309Z" fill="white"/>
<path opacity="0.6" d="M32.4549 21.6719C32.9954 21.6524 34.174 21.5612 34.7341 21.5677C34.9685 21.5677 35.1769 21.7305 35.229 21.9519C35.3332 22.3817 35.3071 23.2218 35.2811 24.0032C35.2746 24.2377 35.0727 24.4135 34.8252 24.407L32.7674 24.3223C32.5135 24.3093 32.3051 24.1204 32.2855 23.8795L32.1227 22.0366C32.1032 21.8477 32.2595 21.6849 32.4549 21.6719Z" fill="white"/>
<g opacity="0.6">
<path d="M37.3464 22.5314C37.2747 22.5314 37.2291 22.5835 37.2487 22.6551L37.5092 23.7687C37.5287 23.8403 37.6003 23.9055 37.672 23.9055L50.8003 24.3222C50.8719 24.3222 50.9305 24.2636 50.9305 24.1855V23.4366C50.924 23.3584 50.8654 23.2933 50.7937 23.2933L37.3464 22.5249V22.5314Z" fill="white"/>
</g>
<path d="M32.5659 22.0367C32.7612 21.926 33.0022 22.0041 33.1064 22.2125L33.6013 23.1958C33.6534 23.2935 33.7836 23.2935 33.8292 23.1958L35.1251 20.2524C35.1902 20.1026 35.3986 20.1612 35.3921 20.324C35.366 21.2357 35.1251 22.9679 33.738 24.3745C33.738 24.3745 32.9891 24.0359 32.3965 22.5967C32.3119 22.3883 32.3835 22.1474 32.5724 22.0367H32.5659Z" fill="url(#paint4_linear_3763_11002)"/>
<g opacity="0.6">
<path d="M37.1823 24.9474C37.1107 24.9474 37.0651 24.9995 37.0846 25.0712L37.3451 26.1847C37.3646 26.2564 37.4363 26.3215 37.5079 26.3215L50.6362 26.7382C50.7078 26.7382 50.7664 26.6796 50.7664 26.6015V25.8526C50.7599 25.7745 50.7013 25.7093 50.6297 25.7093L37.1823 24.9409V24.9474Z" fill="white"/>
</g>
<g opacity="0.6">
<path d="M37.1296 27.4289C37.0579 27.4289 37.0123 27.481 37.0319 27.5526L37.2924 28.6662C37.3119 28.7378 37.3835 28.8029 37.4552 28.8029L50.5835 29.2197C50.6551 29.2197 50.7137 29.1611 50.7137 29.0829V28.334C50.7072 28.2559 50.6486 28.1908 50.577 28.1908L37.1296 27.4224V27.4289Z" fill="white"/>
</g>
<g opacity="0.6">
<path d="M37.071 29.9816C36.9993 29.9816 36.9538 30.0337 36.9733 30.1053L37.2338 31.2189C37.2533 31.2905 37.3249 31.3557 37.3966 31.3557L50.5249 31.7724C50.5965 31.7724 50.6551 31.7138 50.6551 31.6357V30.8868C50.6486 30.8086 50.59 30.7435 50.5184 30.7435L37.071 29.9751V29.9816Z" fill="white"/>
</g>
<path d="M34.6815 37.8806C34.6815 37.8806 34.6815 37.8806 34.6749 37.8806L32.1027 37.7699C31.7315 37.7569 31.4254 37.4704 31.3994 37.1122L31.1975 34.807C31.1845 34.6702 31.2301 34.5334 31.3147 34.4293C31.4124 34.312 31.5557 34.2404 31.7185 34.2339C31.9334 34.2274 32.2329 34.2078 32.565 34.1883C33.2814 34.1427 34.0954 34.0971 34.5708 34.1037C34.5708 34.1037 34.5773 34.1037 34.5838 34.1037C34.9224 34.1167 35.2154 34.3446 35.2936 34.6702C35.4238 35.2042 35.3978 36.2005 35.3587 37.2685C35.3457 37.6202 35.0461 37.8872 34.688 37.8806H34.6815ZM31.725 34.4618C31.6273 34.4618 31.5296 34.5074 31.471 34.5855C31.4189 34.6442 31.3994 34.7223 31.4059 34.7939L31.6078 37.0992C31.6273 37.3467 31.8422 37.5355 32.1092 37.5485L34.6815 37.6592C34.9289 37.6657 35.1308 37.4899 35.1438 37.262C35.1829 36.2136 35.2024 35.2302 35.0852 34.7288C35.0331 34.5074 34.8117 34.3316 34.5708 34.3381C34.1019 34.3316 33.2553 34.3772 32.5781 34.4162C32.246 34.4358 31.9464 34.4553 31.725 34.4618Z" fill="white"/>
<path opacity="0.6" d="M31.9978 34.7032C32.5383 34.6836 33.717 34.5925 34.277 34.599C34.5115 34.599 34.7199 34.7618 34.772 34.9832C34.8762 35.413 34.8501 36.253 34.8241 37.0345C34.8175 37.2689 34.6157 37.4447 34.3682 37.4382L32.3104 37.3536C32.0564 37.3405 31.8481 37.1517 31.8285 36.9107L31.6657 35.0678C31.6462 34.879 31.8025 34.7162 31.9978 34.7032Z" fill="white"/>
<g opacity="0.6">
<path d="M36.8893 35.5627C36.8177 35.5627 36.7721 35.6148 36.7916 35.6864L37.0521 36.8C37.0717 36.8716 37.1433 36.9367 37.2149 36.9367L50.3432 37.3535C50.4149 37.3535 50.4735 37.2949 50.4735 37.2167V36.4678C50.467 36.3897 50.4084 36.3246 50.3367 36.3246L36.8893 35.5562V35.5627Z" fill="white"/>
</g>
<path d="M32.103 35.0611C32.2983 34.9504 32.5393 35.0285 32.6435 35.2369L33.1384 36.2203C33.1905 36.3179 33.3207 36.3179 33.3663 36.2203L34.6622 33.2768C34.7273 33.127 34.9357 33.1856 34.9292 33.3484C34.9031 34.2601 34.6622 35.9923 33.2751 37.3989C33.2751 37.3989 32.5262 37.0603 31.9336 35.6211C31.849 35.4128 31.9206 35.1718 32.1095 35.0611H32.103Z" fill="url(#paint5_linear_3763_11002)"/>
<g opacity="0.6">
<path d="M36.7194 37.9787C36.6478 37.9787 36.6022 38.0308 36.6217 38.1024L36.8822 39.216C36.9017 39.2876 36.9734 39.3527 37.045 39.3527L50.1733 39.7695C50.2449 39.7695 50.3035 39.7109 50.3035 39.6327V38.8839C50.297 38.8057 50.2384 38.7406 50.1668 38.7406L36.7194 37.9722V37.9787Z" fill="white"/>
</g>
<g opacity="0.6">
<path d="M36.4323 40.655C36.3607 40.655 36.3151 40.707 36.3346 40.7787L36.5951 41.8922C36.6146 41.9639 36.6863 42.029 36.7579 42.029L49.8862 42.4458C49.9578 42.4458 50.0164 42.3872 50.0164 42.309V41.5601C50.0099 41.482 49.9513 41.4169 49.8797 41.4169L36.4323 40.6484V40.655Z" fill="white"/>
</g>
<path d="M42.7385 6.06916C41.9375 5.40493 41.2212 5.36586 40.7068 5.4961C40.2379 5.61331 39.9188 6.06265 39.9448 6.5771L40.0555 9.12331L42.6408 9.54008C42.6408 9.54008 44.3079 7.37808 42.7385 6.07567V6.06916ZM41.5142 8.0358C41.1561 8.00975 40.8826 7.68415 40.8956 7.30645C40.9086 6.92875 41.2147 6.63571 41.5729 6.66175C41.931 6.6878 42.2045 7.01341 42.1915 7.3911C42.1785 7.7688 41.8724 8.06185 41.5142 8.0358Z" fill="url(#paint6_linear_3763_11002)"/>
<g style="mix-blend-mode:soft-light">
<path d="M40.3088 8.12695C40.2632 8.10741 40.2306 8.06183 40.2306 8.00322L40.2111 7.59947C40.2111 7.52133 40.2632 7.46272 40.3348 7.45621C40.4064 7.45621 40.465 7.51482 40.4716 7.58645L40.4911 7.9902C40.4911 8.06834 40.439 8.12695 40.3674 8.13346C40.3478 8.13346 40.3283 8.13346 40.3088 8.12044V8.12695ZM40.2762 7.33248C40.2306 7.31294 40.198 7.26736 40.198 7.20875L40.185 6.90268C40.159 6.38172 40.4911 5.91936 40.96 5.80215C41.2856 5.724 41.6112 5.73051 41.9433 5.82168C42.0084 5.84122 42.054 5.91936 42.0345 5.991C42.0149 6.06263 41.9498 6.10821 41.8782 6.08868C41.5916 6.00402 41.3051 5.99751 41.0186 6.06914C40.6669 6.1538 40.4195 6.50545 40.439 6.89617L40.452 7.20224C40.452 7.28038 40.3999 7.33899 40.3283 7.3455C40.3088 7.3455 40.2892 7.3455 40.2697 7.33248H40.2762Z" fill="white"/>
</g>
<path d="M36.4473 10.5233L36.4994 9.25347C36.5189 8.81716 36.8771 8.48505 37.2873 8.52412L45.5251 9.37069C45.8897 9.40976 46.1763 9.73536 46.1828 10.1261L46.2023 11.3504L36.4538 10.5233H36.4473Z" fill="url(#paint7_linear_3763_11002)"/>
<g style="mix-blend-mode:soft-light">
<path d="M39.5867 9.16215L39.235 9.13611C39.196 9.13611 39.1699 9.09703 39.1699 9.05796C39.1699 9.01889 39.2025 8.98633 39.2416 8.98633L39.5932 9.01238C39.6323 9.01238 39.6583 9.05145 39.6583 9.09052C39.6583 9.12959 39.6258 9.16215 39.5867 9.16215Z" fill="white"/>
</g>
<g style="mix-blend-mode:soft-light">
<path d="M36.8653 10.2106C36.8197 10.1911 36.7871 10.1325 36.7871 10.0739L36.8066 9.55943C36.8132 9.35105 36.8978 9.15568 37.0476 9.01242C37.1974 8.86915 37.3862 8.80403 37.5816 8.81706L38.884 8.90171C38.9556 8.90171 39.0077 8.97335 39.0077 9.04498C39.0077 9.12312 38.9426 9.17522 38.871 9.17522L37.5686 9.09056C37.3016 9.07103 37.0736 9.29244 37.0606 9.57897L37.0411 10.0934C37.0411 10.1716 36.976 10.2237 36.9043 10.2237C36.8913 10.2237 36.8718 10.2237 36.8587 10.2106H36.8653Z" fill="white"/>
</g>
<path d="M33.8825 9.88525L48.3067 10.836C48.8277 10.8686 49.251 11.2984 49.3161 11.8454V11.9235C49.3942 12.5226 48.9449 13.0436 48.3784 13.0045L33.583 12.0277C33.2443 12.0082 32.9839 11.6826 33.0164 11.3244L33.075 10.6211C33.1141 10.1848 33.4723 9.8592 33.8825 9.88525Z" fill="url(#paint8_linear_3763_11002)"/>
<path d="M9.77415 20.7996C9.70252 20.7996 9.64391 20.7735 9.59182 20.7214C9.53972 20.6693 9.51367 20.6042 9.51367 20.5261C9.51367 20.513 9.51367 20.487 9.5267 20.4479C9.53972 20.4088 9.55274 20.3763 9.57228 20.3437L11.5519 17.6282L9.74811 15.0755C9.74811 15.0755 9.70903 15.0104 9.69601 14.9778C9.68299 14.9452 9.67647 14.9127 9.67647 14.8801C9.67647 14.8085 9.70252 14.7499 9.76113 14.6978C9.81323 14.6457 9.87835 14.6196 9.94998 14.6196H11.3957C11.4998 14.6196 11.578 14.6457 11.6301 14.6913C11.6822 14.7368 11.7213 14.7824 11.7408 14.8215L12.8413 16.3388L13.9354 14.8345C13.9679 14.7955 14.007 14.7499 14.0591 14.6978C14.1112 14.6457 14.1893 14.6196 14.287 14.6196H15.6741C15.7457 14.6196 15.8043 14.6457 15.8564 14.6978C15.9085 14.7499 15.9346 14.8085 15.9346 14.8801C15.9346 14.9127 15.9346 14.9452 15.9215 14.9778C15.915 15.0104 15.8955 15.0429 15.8759 15.0755L14.0265 17.6282L16.0453 20.3437C16.0453 20.3437 16.0843 20.4088 16.0908 20.4414C16.0974 20.474 16.1039 20.5 16.1039 20.5261C16.1039 20.6042 16.0778 20.6693 16.0257 20.7214C15.9736 20.7735 15.915 20.7996 15.8434 20.7996H14.3261C14.2284 20.7996 14.1633 20.78 14.1112 20.7344C14.0656 20.6889 14.0265 20.6498 13.994 20.6107L12.7957 18.9827L11.5845 20.6107C11.5845 20.6107 11.5129 20.6823 11.4673 20.7279C11.4217 20.7735 11.3501 20.7996 11.2524 20.7996H9.76764H9.77415Z" fill="#282E45"/>
<path d="M17.0997 20.7997C17.015 20.7997 16.9369 20.7736 16.8783 20.7085C16.8197 20.6499 16.7871 20.5782 16.7871 20.5001V19.66C16.7871 19.6079 16.8001 19.5168 16.8327 19.4061C16.8653 19.2954 16.9499 19.1847 17.0802 19.0805L18.3174 17.8692C18.9491 17.3873 19.4701 16.9771 19.8803 16.6385C20.2906 16.2998 20.5901 16.0003 20.7855 15.7398C20.9809 15.4793 21.0851 15.2318 21.0851 15.0039C21.0851 14.7369 21.0134 14.509 20.8767 14.3332C20.7399 14.1574 20.499 14.0662 20.1604 14.0662C19.9324 14.0662 19.7436 14.1183 19.5938 14.216C19.444 14.3136 19.3268 14.4439 19.2422 14.6002C19.1575 14.7565 19.0989 14.9193 19.0728 15.0886C19.0403 15.1928 18.9882 15.2644 18.91 15.3035C18.8319 15.3426 18.7537 15.3621 18.6691 15.3621H17.1843C17.1127 15.3621 17.0541 15.336 17.0085 15.2905C16.9629 15.2449 16.9369 15.1863 16.9369 15.1146C16.9434 14.7369 17.0281 14.3788 17.1778 14.0401C17.3341 13.7015 17.549 13.4085 17.829 13.1545C18.1091 12.9005 18.4477 12.6987 18.8384 12.5554C19.2291 12.4121 19.6719 12.334 20.1604 12.334C20.8311 12.334 21.4042 12.4447 21.873 12.6596C22.3419 12.8745 22.7001 13.1806 22.9475 13.5582C23.195 13.9425 23.3122 14.3918 23.3122 14.9062C23.3122 15.2905 23.2275 15.6551 23.0582 15.9938C22.8889 16.3324 22.648 16.6515 22.3354 16.9575C22.0228 17.2636 21.6516 17.5762 21.2283 17.9018L20.1343 19.0023H23.1819C23.2666 19.0023 23.3447 19.0284 23.4034 19.087C23.462 19.1391 23.4945 19.2107 23.4945 19.3019V20.5001C23.4945 20.5782 23.462 20.6499 23.4034 20.7085C23.3447 20.7671 23.2731 20.7997 23.1819 20.7997H17.0932H17.0997Z" fill="#282E45"/>
</g>
<defs>
<linearGradient id="paint0_linear_3763_11002" x1="51.637" y1="15.1168" x2="14.2195" y2="63.0873" gradientUnits="userSpaceOnUse">
<stop stop-color="#222C4F"/>
<stop offset="1" stop-color="#4B69DE"/>
</linearGradient>
<linearGradient id="paint1_linear_3763_11002" x1="25.2573" y1="46.0123" x2="30.0092" y2="46.2214" gradientUnits="userSpaceOnUse">
<stop stop-color="#DAE3FE"/>
<stop offset="1" stop-color="#E9EFFD"/>
</linearGradient>
<linearGradient id="paint2_linear_3763_11002" x1="25.6072" y1="40.8311" x2="25.7586" y2="40.8378" gradientUnits="userSpaceOnUse">
<stop stop-color="#DAE3FE"/>
<stop offset="1" stop-color="#E9EFFD"/>
</linearGradient>
<linearGradient id="paint3_linear_3763_11002" x1="-27.8291" y1="52.238" x2="3.71715" y2="14.0091" gradientUnits="userSpaceOnUse">
<stop stop-color="#4F52FF"/>
<stop offset="1" stop-color="#4042E2"/>
</linearGradient>
<linearGradient id="paint4_linear_3763_11002" x1="-2.61402" y1="6.68872" x2="-17.7041" y2="29.3223" gradientUnits="userSpaceOnUse">
<stop stop-color="#FF928E"/>
<stop offset="0.72" stop-color="#DB251E"/>
</linearGradient>
<linearGradient id="paint5_linear_3763_11002" x1="-3.33513" y1="19.6918" x2="-18.4317" y2="42.3247" gradientUnits="userSpaceOnUse">
<stop stop-color="#FF928E"/>
<stop offset="0.72" stop-color="#DB251E"/>
</linearGradient>
<linearGradient id="paint6_linear_3763_11002" x1="45.8515" y1="2.67823" x2="33.4654" y2="15.8462" gradientUnits="userSpaceOnUse">
<stop stop-color="#FF8A00"/>
<stop offset="1" stop-color="#FFC700"/>
</linearGradient>
<linearGradient id="paint7_linear_3763_11002" x1="-1.96565" y1="-0.696865" x2="-14.2176" y2="12.5836" gradientUnits="userSpaceOnUse">
<stop stop-color="#FF8A00"/>
<stop offset="1" stop-color="#FFC700"/>
</linearGradient>
<linearGradient id="paint8_linear_3763_11002" x1="-3.35428" y1="0.118911" x2="-12.2107" y2="13.3415" gradientUnits="userSpaceOnUse">
<stop stop-color="#FF8A00"/>
<stop offset="1" stop-color="#FFC700"/>
</linearGradient>
<clipPath id="clip0_3763_11002">
<rect width="55.0399" height="57" fill="white"/>
</clipPath>
</defs>
</svg>
