<?xml version="1.0" encoding="UTF-8"?>
<svg xmlns="http://www.w3.org/2000/svg" xmlns:xlink="http://www.w3.org/1999/xlink" viewBox="0 0 84.52 87.53">
<defs>
    <linearGradient id="Dégradé_sans_nom_163" data-name="Dégradé sans nom 163" x1="45.47" y1="40.29" x2="83.46" y2="11.44" gradientUnits="userSpaceOnUse">
      <stop offset="0" stop-color="#222c4f"/>
      <stop offset="1" stop-color="#4b69de"/>
    </linearGradient>
    <linearGradient id="Dégradé_sans_nom_163-2" data-name="Dégradé sans nom 163" x1="2795.04" y1="-1681.47" x2="2818.6" y2="-1681.47" gradientTransform="translate(1192.82 3094.14) rotate(-79.14)" xlink:href="#Dégradé_sans_nom_163"/>
    <linearGradient id="Dégradé_sans_nom_46" data-name="Dégradé sans nom 46" x1="62.39" y1="41.29" x2="64.98" y2="-1.9" gradientUnits="userSpaceOnUse">
      <stop offset="0" stop-color="#ff928e"/>
      <stop offset="1" stop-color="#db251e"/>
    </linearGradient>
    <linearGradient id="Dégradé_sans_nom_46-2" data-name="Dégradé sans nom 46" x1="762.85" y1="-673.05" x2="747.06" y2="-645.08" gradientTransform="translate(-189.76 999.15) rotate(-34.25)" xlink:href="#Dégradé_sans_nom_46"/>
    <clipPath id="clippath">
      <rect x="0" y="0" width="84.52" height="87.53" style="fill: none; stroke-width: 0px;"/>
    </clipPath>
    <linearGradient id="Dégradé_sans_nom_7" data-name="Dégradé sans nom 7" x1="3176.93" y1="64.25" x2="3185.42" y2="64.25" gradientTransform="translate(3202.57) rotate(-180) scale(1 -1)" gradientUnits="userSpaceOnUse">
      <stop offset="0" stop-color="#222c4f"/>
      <stop offset="1" stop-color="#4b69de"/>
    </linearGradient>
    <linearGradient id="linear-gradient" x1="3187.91" y1="53.83" x2="3179.26" y2="70.79" gradientTransform="translate(3202.57) rotate(-180) scale(1 -1)" gradientUnits="userSpaceOnUse">
      <stop offset="0" stop-color="#ebeff2"/>
      <stop offset=".99" stop-color="#b7c0ce"/>
    </linearGradient>
    <linearGradient id="Dégradé_sans_nom_7-2" data-name="Dégradé sans nom 7" x1="3204.48" y1="59.89" x2="3211.43" y2="59.89" xlink:href="#Dégradé_sans_nom_7"/>
    <linearGradient id="Dégradé_sans_nom_13" data-name="Dégradé sans nom 13" x1="3137.19" y1="63.17" x2="3145.67" y2="63.17" gradientTransform="translate(3202.57) rotate(-180) scale(1 -1)" gradientUnits="userSpaceOnUse">
      <stop offset="0" stop-color="#4b69de"/>
      <stop offset="1" stop-color="#222c4f"/>
    </linearGradient>
    <linearGradient id="Dégradé_sans_nom_13-2" data-name="Dégradé sans nom 13" x1="3152.94" y1="51.63" x2="3143.13" y2="70.88" xlink:href="#Dégradé_sans_nom_13"/>
    <linearGradient id="Dégradé_sans_nom_13-3" data-name="Dégradé sans nom 13" x1="3143.89" y1="63.36" x2="3149.23" y2="63.36" xlink:href="#Dégradé_sans_nom_13"/>
    <linearGradient id="Dégradé_sans_nom_286" data-name="Dégradé sans nom 286" x1="-18.68" y1="28.43" x2="48.49" y2="65.82" gradientUnits="userSpaceOnUse">
      <stop offset="0" stop-color="#ff8a00"/>
      <stop offset="1" stop-color="#ffc700"/>
    </linearGradient>
    <linearGradient id="linear-gradient-2" x1="3155.26" y1="55.44" x2="3150.52" y2="81.94" xlink:href="#linear-gradient"/>
    <linearGradient id="linear-gradient-3" x1="3133.53" y1="56.61" x2="3157.94" y2="56.61" gradientTransform="translate(3202.57) rotate(-180) scale(1 -1)" gradientUnits="userSpaceOnUse">
      <stop offset="0" stop-color="#ff9085"/>
      <stop offset="1" stop-color="#fb6fbb"/>
    </linearGradient>
    <linearGradient id="linear-gradient-4" x1="3134.17" y1="58.65" x2="3156.35" y2="58.65" xlink:href="#linear-gradient-3"/>
    <linearGradient id="linear-gradient-5" x1="13.93" y1="58.43" x2="2.25" y2="53.1" gradientTransform="matrix(1,0,0,1,0,0)" xlink:href="#linear-gradient-3"/>
    <linearGradient id="linear-gradient-6" x1="3190.39" y1="69.56" x2="3212.77" y2="47.49" xlink:href="#linear-gradient-3"/>
    <linearGradient id="Dégradé_sans_nom_163-3" data-name="Dégradé sans nom 163" x1="3142.69" y1="41.76" x2="3212.46" y2="41.76" gradientTransform="translate(3202.57) rotate(-180) scale(1 -1)" xlink:href="#Dégradé_sans_nom_163"/>
    <linearGradient id="Dégradé_sans_nom_163-4" data-name="Dégradé sans nom 163" x1="3191.66" y1="41.44" x2="3203.42" y2="41.44" gradientTransform="translate(3202.57) rotate(-180) scale(1 -1)" xlink:href="#Dégradé_sans_nom_163"/>
    <linearGradient id="Dégradé_sans_nom_8" data-name="Dégradé sans nom 8" x1="3185.41" y1="42.53" x2="3204.84" y2="42.53" gradientTransform="translate(3202.57) rotate(-180) scale(1 -1)" gradientUnits="userSpaceOnUse">
      <stop offset="0" stop-color="#222c4f"/>
      <stop offset=".42" stop-color="#33468b"/>
      <stop offset="1" stop-color="#4b69de"/>
    </linearGradient>
    <linearGradient id="Dégradé_sans_nom_7-3" data-name="Dégradé sans nom 7" x1="3158.14" y1="54.37" x2="3216.71" y2="-3.39" xlink:href="#Dégradé_sans_nom_7"/>
    <linearGradient id="Dégradé_sans_nom_163-5" data-name="Dégradé sans nom 163" x1="3185.69" y1="48.04" x2="3186.28" y2="47.46" gradientTransform="translate(3202.57) rotate(-180) scale(1 -1)" xlink:href="#Dégradé_sans_nom_163"/>
    <linearGradient id="Dégradé_sans_nom_163-6" data-name="Dégradé sans nom 163" x1="3191.84" y1="48.57" x2="3227.41" y2="13.5" gradientTransform="translate(3202.57) rotate(-180) scale(1 -1)" xlink:href="#Dégradé_sans_nom_163"/>
    <linearGradient id="Dégradé_sans_nom_10" data-name="Dégradé sans nom 10" x1="3198.57" y1="45.17" x2="3220.95" y2="23.11" gradientTransform="translate(3202.57) rotate(-180) scale(1 -1)" gradientUnits="userSpaceOnUse">
      <stop offset="0" stop-color="#222c4f"/>
      <stop offset="1" stop-color="#4b69de"/>
    </linearGradient>
    <linearGradient id="Dégradé_sans_nom_286-2" data-name="Dégradé sans nom 286" x1="9.45" y1="46.4" x2="21.06" y2="46.4" xlink:href="#Dégradé_sans_nom_286"/>
  </defs>
  <g style="isolation: isolate;">
    <g id="Calque_1" data-name="Calque 1">
      <g>
        <path d="M4.84,0s0,0-.01,0c0,0,0,0,.01,0h0Z" style="fill: #2d52ea; stroke-width: 0px;"/>
        <path d="M40.31,87.13c-.59.26-1.21.39-1.84.4.7.01,1.41-.12,2.06-.41l3.44-1.52-.07-.03-3.58,1.57Z" style="fill: #2d52ea; stroke-width: 0px;"/>
        <path d="M76.94,4.84c0-.08,0-.16-.01-.25,0,.09.01.17.01.26v-.02Z" style="fill: #2d52ea; stroke-width: 0px;"/>
        <polygon points="76.94 5.03 76.94 4.86 76.94 5.03 76.94 5.03" style="fill: #2d52ea; stroke-width: 0px;"/>
        <polygon points="43.97 85.6 47.85 83.87 47.87 83.83 43.9 85.56 43.97 85.6" style="fill: #e9effd; stroke-width: 0px;"/>
        <polygon points="76.93 9.42 76.94 9.38 76.94 5.03 76.94 5.03 76.93 9.42" style="fill: #e9effd; stroke-width: 0px;"/>
        <path d="M.01,4.6C0,4.68,0,4.76,0,4.84v4.54l.02.04L0,4.86c0-.09,0-.17.01-.26Z" style="fill: #2d52ea; stroke-width: 0px;"/>
        <path d="M29.07,83.83l.02.05,7.32,3.25c.66.29,1.36.43,2.06.41-.63-.01-1.26-.14-1.84-.4l-7.56-3.31Z" style="fill: #2d52ea; stroke-width: 0px;"/>
        <path d="M72.1,0h0s0,0,.01,0c0,0,0,0-.01,0Z" style="fill: #2d52ea; stroke-width: 0px;"/>
        <path d="M5.77,10.22c0-2.86,2.31-5.19,5.17-5.19h5.85L20.84,0H4.84s0,0-.01,0c-.16,0-.32,0-.48.02-.06,0-.12.02-.18.03-.1.01-.2.03-.3.05-.08.02-.16.04-.24.06-.07.02-.15.03-.22.06-.08.02-.15.06-.23.08-.07.03-.15.05-.22.08-.07.03-.14.07-.2.1-.07.04-.15.07-.22.11-.07.04-.13.08-.19.12-.07.04-.14.08-.21.12-.06.04-.12.09-.18.13-.06.05-.13.09-.19.15-.06.05-.11.1-.16.15-.06.05-.12.11-.18.16-.05.05-.1.11-.15.17-.05.06-.11.12-.16.18-.05.06-.09.12-.13.18-.05.06-.1.13-.15.2-.04.06-.08.12-.11.19-.04.07-.09.14-.13.21-.03.06-.06.13-.1.2-.04.07-.08.15-.11.22-.03.07-.05.15-.08.22-.03.07-.06.15-.08.22-.02.08-.04.15-.06.23-.02.08-.04.15-.06.23-.02.08-.02.16-.04.24-.01.08-.03.16-.04.25,0,.08,0,.16-.01.24,0,.09-.01.17-.01.26l.02,4.56.06,16.44,5.74-7.15-.04-8.49Z" style="fill: #2d52ea; stroke-width: 0px;"/>
        <polygon points="41 5.03 45.04 0 40.75 0 36.71 5.03 41 5.03" style="fill: #2d52ea; stroke-width: 0px;"/>
        <polygon points="5.91 43.38 .15 50.55 .17 55.87 5.94 48.7 5.91 43.38" style="fill: #2d52ea; stroke-width: 0px;"/>
        <path d="M43.9,85.56l-17.35-8.19-17.45-8.24c-1.88-.82-3.09-2.67-3.1-4.72l-.05-11.16L.19,60.44l.03,7.61c0,1.92,1.14,3.65,2.9,4.42l25.96,11.36,7.56,3.31c.59.26,1.21.39,1.84.4.63-.01,1.26-.14,1.84-.4l3.58-1.57Z" style="fill: #2d52ea; stroke-width: 0px;"/>
        <path d="M76.94,5.03v-.18c0-.09,0-.17-.01-.26,0-.08,0-.16-.01-.24,0-.08-.02-.16-.04-.25-.01-.08-.02-.16-.04-.24-.02-.08-.04-.15-.06-.23-.02-.08-.04-.16-.06-.23-.02-.08-.05-.15-.08-.22-.03-.07-.05-.15-.08-.22-.03-.08-.07-.15-.11-.22-.03-.07-.06-.13-.1-.2-.04-.07-.09-.14-.13-.21-.04-.06-.07-.13-.11-.19-.05-.07-.1-.13-.15-.2-.04-.06-.09-.12-.13-.18-.05-.06-.11-.12-.16-.17-.05-.06-.1-.12-.15-.17-.06-.06-.12-.11-.18-.16-.06-.05-.11-.1-.17-.15-.06-.05-.13-.1-.19-.15-.06-.04-.12-.09-.18-.13-.07-.04-.14-.08-.21-.12-.06-.04-.13-.08-.19-.12-.07-.04-.15-.07-.22-.11-.07-.03-.13-.07-.2-.1-.07-.03-.14-.05-.22-.08-.08-.03-.15-.06-.23-.08-.07-.02-.15-.04-.22-.06-.08-.02-.16-.05-.24-.06-.1-.02-.2-.03-.3-.05-.06,0-.12-.02-.18-.03-.16-.02-.32-.02-.48-.02,0,0,0,0-.01,0h-23.38l-4.04,5.03h32.26Z" style="fill: #2d52ea; stroke-width: 0px;"/>
        <polygon points="5.91 43.38 5.94 48.7 41 5.03 36.71 5.03 5.91 43.38" style="fill: #eaeeff; stroke-width: 0px;"/>
        <path d="M44.68,5.03L5.95,53.25l.05,11.16c0,2.05,1.22,3.9,3.1,4.72l17.45,8.24,17.35,8.19,3.97-1.74,25.96-11.36c1.76-.77,2.9-2.5,2.9-4.42l.2-58.63v-4.39s-32.25,0-32.25,0Z" style="fill: #eaeeff; stroke-width: 0px;"/>
        <path d="M10.94,5.03c-2.86,0-5.18,2.33-5.17,5.19l.04,8.49,10.98-13.68h-5.85Z" style="fill: #eaeeff; stroke-width: 0px;"/>
        <polygon points="5.83 24.32 5.81 18.71 .07 25.86 .15 50.55 5.91 43.38 5.83 24.32" style="fill: #2d52ea; stroke-width: 0px;"/>
        <polygon points="5.83 24.32 5.81 18.71 .07 25.86 .15 50.55 5.91 43.38 5.83 24.32" style="fill: #fff; mix-blend-mode: soft-light; stroke-width: 0px;"/>
        <polygon points="36.71 5.03 40.75 0 20.84 0 16.79 5.03 36.71 5.03" style="fill: #2d52ea; stroke-width: 0px;"/>
        <polygon points="36.71 5.03 40.75 0 20.84 0 16.79 5.03 36.71 5.03" style="fill: #fff; mix-blend-mode: soft-light; stroke-width: 0px;"/>
        <polygon points="16.79 5.03 5.81 18.71 5.83 24.32 5.91 43.38 36.71 5.03 16.79 5.03" style="fill: #e9effd; stroke-width: 0px;"/>
        <polygon points="16.79 5.03 5.81 18.71 5.83 24.32 5.91 43.38 36.71 5.03 16.79 5.03" style="fill: #fff; mix-blend-mode: soft-light; stroke-width: 0px;"/>
        <polygon points="41 5.03 44.68 5.03 48.72 0 45.04 0 41 5.03" style="fill: #2d52ea; stroke-width: 0px;"/>
        <polygon points="41 5.03 44.68 5.03 48.72 0 45.04 0 41 5.03" style="fill: #fff; mix-blend-mode: soft-light; stroke-width: 0px;"/>
        <polygon points="5.94 48.7 .17 55.87 .19 60.44 5.95 53.25 5.94 48.7" style="fill: #2d52ea; stroke-width: 0px;"/>
        <polygon points="5.94 48.7 .17 55.87 .19 60.44 5.95 53.25 5.94 48.7" style="fill: #fff; mix-blend-mode: soft-light; stroke-width: 0px;"/>
        <polygon points="5.95 53.25 44.68 5.03 41 5.03 5.94 48.7 5.95 53.25" style="fill: #e9effd; stroke-width: 0px;"/>
        <polygon points="5.95 53.25 44.68 5.03 41 5.03 5.94 48.7 5.95 53.25" style="fill: #fff; mix-blend-mode: soft-light; stroke-width: 0px;"/>
      </g>
      <g>
        <path d="M57.22,21.26c-3.59,2.53-8.51,1.57-10.95-2.15-2.45-3.72-1.51-8.8,2.08-11.34,3.59-2.53,8.51-1.57,10.95,2.15,2.45,3.72,1.51,8.8-2.08,11.34ZM48.88,8.57c-3.17,2.23-3.99,6.71-1.83,9.99,2.16,3.28,6.48,4.13,9.65,1.9,3.17-2.23,3.99-6.71,1.83-9.99-2.16-3.28-6.48-4.13-9.65-1.9Z" style="fill: #97a6b7; stroke-width: 0px;"/>
        <g>
          <path d="M56.24,17.97c-1.23,6.62,6.03,13.62,13.77,15.15,7.74,1.54,13.03-2.97,14.26-9.59,1.23-6.62-2.08-12.83-9.82-14.37-7.74-1.54-16.99,2.19-18.21,8.8ZM62.65,16.19l-1.09,5.9c-.25,1.33-2.02,1.48-2.48.21-.47-1.3-.61-2.6-.38-3.83.23-1.23.82-2.39,1.72-3.42.88-1,2.47-.18,2.23,1.14Z" style="fill: url(#Dégradé_sans_nom_163); stroke-width: 0px;"/>
          <path d="M83.88,23.46c-.6,3.22-2.2,5.92-4.53,7.6-2.5,1.8-5.71,2.38-9.28,1.67-3.73-.74-7.39-2.77-10.04-5.56-2.76-2.9-3.97-6.14-3.42-9.12.55-2.98,2.84-5.52,6.44-7.17,3.46-1.58,7.58-2.06,11.32-1.32,3.57.71,6.34,2.47,8.02,5.11,1.56,2.44,2.09,5.57,1.49,8.79ZM58.32,18.39c-.24,1.3-.11,2.66.4,4.05.27.75.95,1.2,1.72,1.13.77-.07,1.36-.62,1.5-1.4l1.09-5.9c.15-.79-.21-1.52-.9-1.88-.69-.36-1.48-.21-2,.39-.96,1.1-1.57,2.31-1.82,3.61Z" style="fill: url(#Dégradé_sans_nom_163-2); stroke-width: 0px;"/>
          <ellipse cx="72.8" cy="21.26" rx="8.14" ry="8.43" style="fill: #fff; mix-blend-mode: soft-light; opacity: .6; stroke-width: 0px;"/>
        </g>
        <g>
          <path d="M68.41,32.31l-3.93,2.77,10.09,15.33c.21.32.48.59.81.81l.77.51c.5.33,1.32.23,2.01-.25h0c.69-.48,1.08-1.23.96-1.84l-.18-.93c-.08-.39-.22-.76-.43-1.07l-10.09-15.33Z" style="fill: #97a6b7; stroke-width: 0px;"/>
          <g style="mix-blend-mode: multiply; opacity: .6;">
            <path d="M70.2,39.35c.54,1.33,2.41.77,3.21,2.44.53,1.12-.12,1.77.64,2.7.71.87,1.45.51,1.98,1.43.49.85,0,1.43.53,2.38.38.69.92.88,1.35,1.19.35.25.7.62.96,1.2.21-.35.29-.72.23-1.05l-.18-.93c-.08-.39-.22-.76-.43-1.07l-7.56-11.49c-.95,1.67-.97,2.63-.73,3.2Z" style="fill: #97a6b7; stroke-width: 0px;"/>
          </g>
          <path d="M71.86,38.64c.13.19.03.48-.21.65-.24.17-.54.15-.66-.04-.13-.19-.03-.48.21-.65.24-.17.54-.15.66.04Z" style="fill: #97a6b7; stroke-width: 0px;"/>
          <path d="M74.97,43.37c.13.19.03.48-.21.65-.24.17-.54.15-.66-.04-.13-.19-.03-.48.21-.65.24-.17.54-.15.66.04Z" style="fill: #97a6b7; stroke-width: 0px;"/>
        </g>
        <path d="M59.37,16.8c-.46,1.44-1.37,2.74-2.67,3.66-.5.35-1.03.63-1.58.83.08.31.17.62.28.93.63-.23,1.25-.55,1.83-.96,1.53-1.08,2.57-2.61,3.08-4.31-.31-.05-.62-.11-.94-.15Z" style="fill: #97a6b7; stroke-width: 0px;"/>
        <path d="M55.69,17.36h0c-4.32,3.05-5.44,9.14-2.5,13.62l5.67,8.62c.66,1,1.98,1.26,2.95.58l12.15-8.56c.97-.68,1.22-2.05.56-3.05l-5.67-8.62c-2.94-4.47-8.83-5.63-13.16-2.59ZM61.34,18.71l-6.5,4.58c-.19.13-.45.05-.53-.17-.3-.81-.03-1.76.69-2.27l4.09-2.88c.72-.51,1.67-.42,2.29.16.17.16.15.44-.04.58Z" style="fill: url(#Dégradé_sans_nom_46); stroke-width: 0px;"/>
        <path d="M55.91,17.69c-4.14,2.92-5.21,8.77-2.39,13.06l5.67,8.62c.54.82,1.62,1.03,2.41.47l12.15-8.56c.79-.56.99-1.67.46-2.49l-5.67-8.62c-2.82-4.28-8.48-5.4-12.61-2.48ZM61.89,18.81l-7.16,5.05c-.18.13-.42.08-.54-.11h0c-.7-1.06-.43-2.51.59-3.23l4.09-2.88c1.03-.72,2.43-.45,3.12.61.12.18.08.44-.1.56Z" style="fill: url(#Dégradé_sans_nom_46-2); stroke-width: 0px;"/>
        <path d="M67.3,25.16l-8.85,6.24c-.41.29-.52.87-.24,1.29l.67,1.01c.88,1.34,2.65,1.69,3.94.77l5.64-3.98c1.29-.91,1.63-2.74.75-4.08l-.67-1.01c-.28-.42-.84-.53-1.25-.24Z" style="fill: #fff; mix-blend-mode: soft-light; stroke-width: 0px;"/>
        <path d="M66.58,24.07l-8.85,6.24c-.41.29-.97.18-1.25-.24l-.67-1.01c-.88-1.34-.55-3.17.75-4.08l5.64-3.98c1.29-.91,3.06-.57,3.94.77l.67,1.01c.28.42.17,1-.24,1.29Z" style="fill: #fff; mix-blend-mode: soft-light; stroke-width: 0px;"/>
        <path d="M56.7,20.46c-1.86,1.31-4.12,1.56-6.1.88-.07.32-.14.63-.22.95,2.23.74,4.76.45,6.84-1.02.19-.13.37-.27.55-.42-.19-.26-.37-.52-.56-.78-.16.14-.33.27-.51.4Z" style="fill: #97a6b7; stroke-width: 0px;"/>
      </g>
      <g style="clip-path: url(#clippath);">
        <g>
          <path d="M25.33,67.27l-9.69-1.8s-.88-7.48,3.45-8.19c4.33-.71,6.66,5.08,6.24,9.99Z" style="fill: #f96e10; mix-blend-mode: multiply; stroke-width: 0px;"/>
          <g>
            <path d="M24.86,58.47s0,0,0,0c.3.03.58.15.86.32.27.13.58.29.58.5h0c1.02,1.07,1.69,3.03,1.7,5.22,0,2.93-1.18,5.29-2.75,5.56,0,0,0,0,0,0-.11.02-1.42.49-5.57.02-.11-1.78-.17-11.86-.17-11.86,0,0,3.31-.17,5.35.24Z" style="fill: url(#Dégradé_sans_nom_7); stroke-width: 0px;"/>
            <g>
              <path d="M16.58,63.95c0,3.35,1.55,6.12,3.43,6.19,1.84.07,3.31-2.5,3.3-5.73,0-3.23-1.47-5.99-3.31-6.17-1.87-.19-3.42,2.37-3.42,5.71Z" style="fill: url(#linear-gradient); stroke-width: 0px;"/>
              <path d="M18.05,64.02c0,2.37,1.03,4.35,2.29,4.41,1.24.06,2.23-1.78,2.23-4.1,0-2.32-1-4.28-2.24-4.4-1.26-.11-2.29,1.72-2.29,4.09Z" style="fill: #fff; stroke-width: 0px;"/>
            </g>
          </g>
          <path d="M-2.44,54.91s0,0,0,0c.25.03.54.13.76.27.22.12.16.25.54.43h0c.64.92,1.31,2.61,1.31,4.5,0,2.52-.99,4.56-2.27,4.79,0,0-.01,0-.01,0-.09.01-1.16.42-4.52.02-.09-1.53-.15-10.22-.15-10.22,0,0,2.68-.15,4.34.2Z" style="fill: url(#Dégradé_sans_nom_7-2); stroke-width: 0px;"/>
          <g>
            <path d="M61.49,56.12h0c.38,0,.66.19,1.01.36.33.13.55.38.67.6h0c1.4,1.14,2.2,3.42,2.2,6.05,0,3.49-1.49,6.38-3.46,6.77,0,0,.02,0,.02,0-.13.02-1.75.64-6.71.27-.13-2.03-.19-13.63-.19-13.63,0,0,3.96-.68,6.46-.43Z" style="fill: url(#Dégradé_sans_nom_13); stroke-width: 0px;"/>
            <g>
              <ellipse cx="55.62" cy="63.38" rx="3.96" ry="6.82" style="fill: url(#Dégradé_sans_nom_13-2); stroke-width: 0px;"/>
              <ellipse cx="56.02" cy="63.36" rx="2.67" ry="4.87" style="fill: url(#Dégradé_sans_nom_13-3); stroke-width: 0px;"/>
            </g>
          </g>
          <path d="M-10.7,56.54c-.14.63.04,1.28.47,1.75l.81.87c.22-2.58,1.55-4.56,3.17-4.56,1.76,0,3.2,2.38,3.2,5.31,0,.7-.08,1.36-.23,1.97l.35.15,19.04,3.53c-.05-.39-.15-.8-.15-1.21,0-.37,0-.74,0-1.1h0c.64-3.04,2.19-5.35,4.33-5.35,2.39,0,4.35,2.89,4.35,6.45,0,.97-.13,1.89-.39,2.72l2.85.53s.01.06.02.07c.09.1.78.7,4.14.7h37.14c1.68,0,2.93-1.47,2.93-3.15v-.14c0-.64-.31-1.23-.89-1.52,0,0,1.03-2.95.21-6.47-.33-1.41-.93-2.91-2.01-4.35-.63-.84-1.41-1.65-2.39-2.42,0,0-4.23-3.51-11.98-4.42,0,0-6.43-4.67-12.31-7.77-2.9-1.53-6.08-2.31-9.36-2.31H11.13c-3.73,0-7.39,1.04-10.57,3l-5.6,3.46s-1.34.8-2.7,2.71c-1.55,2.17-3.13,5.78-2.82,11.28l-.13.26h0Z" style="fill: url(#Dégradé_sans_nom_286); stroke-width: 0px;"/>
          <path d="M27.11,67.6s0,.06.01.07c.26.16.59.96,9.2.7h32.08c1.68,0,2.93-1.47,2.93-3.15v-.14s.05-.07.05-.11c-.04-.6-.37-1.14-.91-1.41l-37.35.35s-3.52-.64-4.73,0c-.17.09-.29.2-.35.35-.51,1.17-1.17,2.8-.94,3.35Z" style="fill: url(#linear-gradient-2); stroke-width: 0px;"/>
          <path d="M62.05,57.16v.49c0,.38.16.74.43,1,.27.26.64.4,1.02.38l4-.17c.96-.04,1.87-.44,2.55-1.12l.66-.66c-.33-1.41-.94-2.91-2.02-4.35-.01,0-.03,0-.04,0l-1.92,1.51c-1.02.8-2.22,1.33-3.5,1.53-.67.11-1.17.69-1.17,1.37Z" style="fill: #fff; stroke-width: 0px;"/>
          <g style="mix-blend-mode: multiply; opacity: .3;">
            <path d="M44.32,56.61c.26.32.7.57.97.57,4.99,0,9.98,0,14.96,0,.27,0,.65-.26.85-.57h0c.2-.31.11-.56-.2-.57h-16.5c-.3,0-.35.25-.08.57h0Z" style="fill: url(#linear-gradient-3); stroke-width: 0px;"/>
            <path d="M46,58.65c.28.33.68.6.9.6,4.06,0,8.11,0,12.16,0,.22,0,.57-.27.78-.6h0c.21-.33.16-.59-.09-.59-4.59,0-9.18,0-13.77,0-.26,0-.25.26.03.59t0,0Z" style="fill: url(#linear-gradient-4); stroke-width: 0px;"/>
          </g>
          <path d="M39.97,59.14c.91-.02,1.64-.68,1.64-1.49v-.49c0-.77-.66-1.41-1.52-1.48l-1.62-.14-9.67-2.55.21,1.22c.32,1.84,1.73,3.39,3.69,4.06l1.44.49c.94.32,1.95.48,2.97.45l2.87-.07Z" style="fill: #fff; stroke-width: 0px;"/>
          <path d="M28.41,63.94l4.03,1.11h39.01c-.04-.64-.39-1.18-.94-1.45l-37.37.35s-3.53-.64-4.74,0Z" style="fill: #fff; mix-blend-mode: soft-light; opacity: .4; stroke-width: 0px;"/>
          <path d="M3.01,61.22h0c.13-.26.23-.18.23-.31,0-.08-.23-7.93,0-11.11.2-2.76.66-3.26.7-3.29.1-.06.15-.19.1-.3-.05-.12-.19-.18-.31-.13-.17.07-.74.53-.97,3.67-.23,3.21,0,11.11,0,11.19,0,.13.11.29.23.29Z" style="fill: url(#linear-gradient-5); mix-blend-mode: multiply; opacity: .3; stroke-width: 0px;"/>
          <path d="M-10.7,56.54l.13-.26c-.31-5.5,1.27-9.11,2.82-11.28.98.06,2.29.54,2.19,2.76-.16,3.5.55,5.31,3.21,6.92,1.26.76,2.65,1.41,3.77,2.38,1,.87,1.47,2.2,2.49,3.02,1.72,1.38,4.07.77,6.07.68,1.83-.08,5.98-.17,5.98,2.49h0c0,.36,0,.73,0,1.1,0,.41.1.82.15,1.21l-19.05-3.53-.35-.15c.15-.61.23-1.27.23-1.97,0-2.93-1.43-5.31-3.2-5.31-1.61,0-2.94,1.98-3.17,4.56l-.81-.87c-.44-.47-.61-1.13-.47-1.75Z" style="fill: url(#linear-gradient-6); mix-blend-mode: multiply; opacity: .3; stroke-width: 0px;"/>
          <g>
            <g>
              <path d="M15.05,37.49s2.51,6.42,3.13,7.36c.06.09.13.22.22.29.87.72,2.99.9,2.99.9h31.26c-6.97-5.36-12.93-8.55-12.93-8.55H15.05Z" style="fill: url(#Dégradé_sans_nom_163-3); stroke-width: 0px;"/>
              <g>
                <path d="M-4.16,42.88s3.33,1.36,7.81,2.65c.15-.69.38-1.56.76-2.51.7-1.76,1.88-3.83,3.88-5.65-1.55.11-3.36.41-5.28,1.08-2.35.82-4.84,2.19-7.17,4.44Z" style="fill: url(#Dégradé_sans_nom_163-4); stroke-width: 0px;"/>
                <path d="M4.8,45.85c2.23.6,4.69,1.16,7.12,1.52,1.39.2,2.77.34,4.09.38.39.01.77.02,1.15.01,0,0,0,0,0,0-.06-.25-2.43-9.99-4.64-10.28-.51-.07-1.31-.15-2.32-.17-2.38,1.76-3.76,3.95-4.55,5.82-.44,1.05-.71,2-.86,2.72Z" style="fill: url(#Dégradé_sans_nom_8); stroke-width: 0px;"/>
              </g>
            </g>
            <path d="M18.41,45.13c.87.72,2.99.9,2.99.9h31.26c-6.97-5.36-12.93-8.55-12.93-8.55h-.44c-.69.26-1.37.87-1.97,1.72-2.42,3.45-15.78.83-18.91,5.92Z" style="fill: url(#Dégradé_sans_nom_7-3); mix-blend-mode: multiply; opacity: .3; stroke-width: 0px;"/>
            <path d="M16.01,47.74c.39.01.77.02,1.15.01,0,0,0,0,0,0-.31,0-.7,0-1.15,0Z" style="fill: url(#Dégradé_sans_nom_163-5); opacity: .3; stroke-width: 0px;"/>
            <path d="M5.66,43.13c-.44,1.05-.71,2-.86,2.72,2.23.6,4.69,1.16,7.12,1.52-.34-.34-.66-.77-.94-1.31-1.21-2.34-3.35-2.74-5.33-2.93Z" style="fill: url(#Dégradé_sans_nom_163-6); mix-blend-mode: multiply; opacity: .3; stroke-width: 0px;"/>
            <path d="M-4.16,42.88s3.33,1.36,7.81,2.65c.15-.69.38-1.56.76-2.51-1.19-.12-2.23-.31-2.82-1.02-1.03-1.25.25-2.65,1.42-3.56-2.35.82-4.84,2.19-7.17,4.44Z" style="fill: url(#Dégradé_sans_nom_10); mix-blend-mode: multiply; opacity: .3; stroke-width: 0px;"/>
          </g>
          <g>
            <path d="M17.25,48.21s-.99-3.91-2.4-4.06c-1.41-.16-5.42-1.3-5.78.62-.36,1.93.36,2.89,2.4,3.01,2.03.12,3.38,0,3.38,0l.94,1s1.51,1.04,1.46-.57Z" style="fill: #f97910; stroke-width: 0px;"/>
            <path d="M17.72,48.21s-.99-3.91-2.4-4.06c-1.41-.16-5.42-1.3-5.78.62-.36,1.93.36,2.89,2.4,3.01,2.03.12,3.38,0,3.38,0l.94,1s1.51,1.04,1.46-.57Z" style="fill: url(#Dégradé_sans_nom_286-2); stroke-width: 0px;"/>
          </g>
        </g>
      </g>
    </g>
  </g>
</svg>