<svg width="67" height="64" viewBox="0 0 67 64" fill="none" xmlns="http://www.w3.org/2000/svg">
<g clip-path="url(#clip0_3763_11196)">
<path d="M28.4244 63.7206C28.0084 63.902 27.5712 63.9927 27.127 63.9997C27.6205 64.0066 28.1212 63.916 28.5795 63.7136L31.0051 62.6533L30.9558 62.6323L28.4314 63.7276L28.4244 63.7206Z" fill="#2D52EA"/>
<path d="M54.2512 6.31308C54.2512 6.25727 54.2512 6.20146 54.2441 6.13867C54.2441 6.20146 54.2512 6.25727 54.2512 6.32005V6.3061V6.31308Z" fill="#2D52EA"/>
<path d="M31.0044 62.6464L33.7403 61.4465L33.7544 61.4116L30.9551 62.6255L31.0044 62.6464Z" fill="#E9EFFD"/>
<path d="M54.2441 9.50139L54.2512 9.47349V6.4458L54.2441 9.50139Z" fill="#E9EFFD"/>
<path d="M0.00705121 6.13867C0 6.19448 0 6.25029 0 6.31308V9.48029L0.0141024 9.50819L0 6.32005C0 6.25727 0 6.20146 0.00705121 6.13867Z" fill="#2D52EA"/>
<path d="M20.498 61.4116L20.5121 61.4465L25.6736 63.7138C26.139 63.9161 26.6326 64.0138 27.1262 63.9998C26.682 63.9928 26.2377 63.9021 25.8288 63.7208L20.498 61.4116Z" fill="#2D52EA"/>
<path d="M4.06736 10.0657C4.06736 8.07055 5.69619 6.44508 7.71283 6.44508H11.8378L14.6865 2.93604H3.4116C3.4116 2.93604 3.41159 2.93604 3.40454 2.93604C3.29172 2.93604 3.17891 2.93604 3.06609 2.94999C3.02378 2.94999 2.98147 2.96394 2.93916 2.97092C2.86865 2.97789 2.79814 2.99184 2.72763 3.0058C2.67122 3.01975 2.61481 3.0337 2.5584 3.04765C2.50904 3.06161 2.45263 3.06858 2.40327 3.08951C2.34686 3.10346 2.2975 3.13137 2.24109 3.14532C2.19174 3.16625 2.13533 3.1802 2.08597 3.20113C2.03661 3.22206 1.98725 3.24997 1.94494 3.27089C1.89558 3.2988 1.83917 3.31973 1.78982 3.34763C1.74046 3.37554 1.69815 3.40344 1.65584 3.43135C1.60648 3.45925 1.55713 3.48716 1.50777 3.51506C1.46546 3.54297 1.42315 3.57785 1.38085 3.60575C1.33854 3.64064 1.28918 3.66854 1.24687 3.7104C1.20457 3.74528 1.16931 3.78016 1.13405 3.81504C1.09175 3.84992 1.04944 3.89178 1.00713 3.92666C0.971875 3.96154 0.936619 4.0034 0.901363 4.04526C0.866107 4.08711 0.8238 4.12897 0.788544 4.17083C0.753288 4.21269 0.725083 4.25454 0.696878 4.2964C0.661622 4.33826 0.626366 4.38709 0.59111 4.43593C0.562905 4.47778 0.5347 4.51964 0.513547 4.56847C0.485342 4.61731 0.450086 4.66614 0.421881 4.71498C0.400727 4.75683 0.379574 4.80567 0.351369 4.8545C0.323164 4.90333 0.294959 4.95914 0.273805 5.00798C0.252652 5.05681 0.238549 5.11262 0.217396 5.16145C0.196242 5.21029 0.175088 5.2661 0.160986 5.31493C0.146884 5.37074 0.132781 5.41958 0.118679 5.47539C0.104576 5.5312 0.0904739 5.58003 0.0763715 5.63584C0.0622691 5.69165 0.0622691 5.74746 0.0481667 5.80327C0.0411154 5.85908 0.027013 5.91489 0.0199618 5.97767C0.0199618 6.03348 0.0199618 6.08929 0.0129106 6.1451C0.0129106 6.20789 0.00585938 6.2637 0.00585938 6.32649L0.0199618 9.50765L0.0622691 20.9766L4.10966 15.9886L4.08146 10.0657H4.06736Z" fill="#2D52EA"/>
<path d="M28.9097 6.44571L31.7584 2.92969H28.7335L25.8848 6.44571H28.9097Z" fill="#2D52EA"/>
<path d="M4.16697 33.1997L0.105469 38.2017L0.119571 41.913L4.18812 36.9041L4.16697 33.1997Z" fill="#2D52EA"/>
<path d="M30.9556 62.6252L18.7218 56.9116L6.4174 51.1632C5.09177 50.5912 4.23857 49.3006 4.23152 47.8704L4.19626 40.085L0.134766 45.0939L0.155919 50.4028C0.155919 51.7423 0.959757 52.9491 2.20077 53.4863L20.5057 61.4113L25.8364 63.7205C26.2525 63.9018 26.6896 63.9925 27.1339 63.9995C27.5781 63.9925 28.0223 63.9018 28.4313 63.7205L30.9556 62.6252Z" fill="#2D52EA"/>
<path d="M54.2511 6.44557V6.32C54.2511 6.25721 54.2511 6.2014 54.2441 6.13862C54.2441 6.08281 54.2441 6.027 54.237 5.97119C54.237 5.91538 54.2229 5.85957 54.2088 5.79678C54.2018 5.74097 54.1947 5.68516 54.1806 5.62935C54.1665 5.57354 54.1524 5.52471 54.1383 5.4689C54.1242 5.41309 54.1101 5.35728 54.096 5.30844C54.0819 5.25263 54.0607 5.2038 54.0396 5.15497C54.0184 5.10613 54.0043 5.05032 53.9832 5.00149C53.962 4.94568 53.9338 4.89685 53.9056 4.84801C53.8845 4.79918 53.8633 4.75732 53.8351 4.70849C53.8069 4.65965 53.7716 4.61082 53.7434 4.56199C53.7152 4.52013 53.6941 4.4713 53.6659 4.42944C53.6306 4.3806 53.5954 4.33875 53.5601 4.28991C53.5319 4.24806 53.4966 4.2062 53.4684 4.16434C53.4332 4.12248 53.3909 4.08063 53.3556 4.04575C53.3204 4.00389 53.2851 3.96203 53.2498 3.92715C53.2075 3.88529 53.1652 3.85041 53.1229 3.81553C53.0806 3.78065 53.0454 3.74577 53.0031 3.71089C52.9607 3.676 52.9114 3.64112 52.8691 3.60624C52.8268 3.57834 52.7845 3.54346 52.7422 3.51555C52.6928 3.48765 52.6434 3.45974 52.5941 3.43184C52.5518 3.40393 52.5024 3.37603 52.4601 3.34812C52.4108 3.32022 52.3543 3.29929 52.305 3.27138C52.2556 3.25045 52.2133 3.22255 52.164 3.20162C52.1146 3.18069 52.0652 3.16674 52.0088 3.14581C51.9524 3.12488 51.9031 3.10395 51.8467 3.09C51.7973 3.07605 51.7409 3.0621 51.6915 3.04814C51.6351 3.03419 51.5787 3.01326 51.5223 3.00629C51.4518 2.99233 51.3813 2.98536 51.3108 2.9714C51.2685 2.9714 51.2261 2.95745 51.1838 2.95048C51.071 2.93652 50.9582 2.93652 50.8454 2.93652C50.8454 2.93652 50.8454 2.93652 50.8383 2.93652H34.3526L31.5039 6.44557H54.2511Z" fill="#2D52EA"/>
<path d="M4.16797 33.1997L4.18912 36.9041L28.9107 6.4458H25.8857L4.16797 33.1997Z" fill="#E9EFFD"/>
<path d="M31.5047 6.44594L4.19531 40.0854L4.23057 47.8708C4.23057 49.301 5.09082 50.5916 6.41645 51.1636L18.7208 56.912L30.9547 62.6256L33.754 61.4117L52.059 53.4867C53.3 52.9495 54.1038 51.7426 54.1038 50.4032L54.2448 9.50153V6.43896H31.5047V6.44594Z" fill="#E9EFFD"/>
<path d="M7.71386 6.4458C5.69721 6.4458 4.06133 8.07126 4.06838 10.0665L4.09659 15.9893L11.8388 6.4458H7.71386Z" fill="#E9EFFD"/>
<path d="M4.11033 19.8961L4.09622 15.9824L0.0488281 20.9704L0.105238 38.2017L4.16674 33.1998L4.11033 19.8961Z" fill="#2D52EA"/>
<g style="mix-blend-mode:soft-light">
<path d="M4.11033 19.8961L4.09622 15.9824L0.0488281 20.9704L0.105238 38.2017L4.16674 33.1998L4.11033 19.8961Z" fill="white"/>
</g>
<path d="M25.8859 6.44571L28.7345 2.92969H14.6956L11.8398 6.44571H25.8859Z" fill="#2D52EA"/>
<g style="mix-blend-mode:soft-light">
<path d="M25.8859 6.44571L28.7345 2.92969H14.6956L11.8398 6.44571H25.8859Z" fill="white"/>
</g>
<path d="M11.8399 6.4458L4.09766 15.9823L4.11176 19.896L4.16817 33.1997L25.8859 6.4458H11.8399Z" fill="#E9EFFD"/>
<g style="mix-blend-mode:soft-light">
<path d="M11.8399 6.4458L4.09766 15.9823L4.11176 19.896L4.16817 33.1997L25.8859 6.4458H11.8399Z" fill="white"/>
</g>
<path d="M28.9102 6.44571H31.505L34.3537 2.92969H31.7588L28.9102 6.44571Z" fill="#2D52EA"/>
<g style="mix-blend-mode:soft-light">
<path d="M28.9102 6.44571H31.505L34.3537 2.92969H31.7588L28.9102 6.44571Z" fill="white"/>
</g>
<path d="M4.18769 36.9038L0.119141 41.9127L0.133243 45.0939L4.19474 40.085L4.18769 36.9038Z" fill="#2D52EA"/>
<g style="mix-blend-mode:soft-light">
<path d="M4.18769 36.9038L0.119141 41.9127L0.133243 45.0939L4.19474 40.085L4.18769 36.9038Z" fill="white"/>
</g>
<path d="M4.19455 40.0852L31.5039 6.4458H28.9091L4.1875 36.9041L4.19455 40.0852Z" fill="#E9EFFD"/>
<g style="mix-blend-mode:soft-light">
<path d="M4.19455 40.0852L31.5039 6.4458H28.9091L4.1875 36.9041L4.19455 40.0852Z" fill="white"/>
</g>
<path d="M38.3867 43.0014C38.4643 43.0153 38.5418 43.0293 38.6194 43.0363C50.4372 44.885 61.557 36.7995 63.4467 24.9748L41.8066 21.5913L38.3867 42.9944V43.0014Z" fill="url(#paint0_linear_3763_11196)"/>
<path d="M41.9126 21.5703L27.373 37.7831C30.3275 40.3852 34.0294 42.22 38.2108 42.9316C38.3447 42.9525 38.4717 42.9734 38.6056 42.9943L41.9126 21.5703Z" fill="url(#paint1_linear_3763_11196)"/>
<path d="M41.8064 21.5912L20.3425 17.252C20.3143 17.3845 20.2861 17.517 20.265 17.6496C18.8195 25.3862 21.7246 32.9276 27.2668 37.8039L41.8064 21.5912Z" fill="#91B3FA"/>
<path d="M44.4866 19.8124L65.7319 23.8865C67.6569 14.0779 62.5659 4.53445 53.9282 0.320801L44.4091 19.645C44.3738 19.7147 44.4161 19.7915 44.4937 19.8054L44.4866 19.8124Z" fill="url(#paint2_linear_3763_11196)"/>
<path d="M41.8909 21.6401L50.9728 1.96016C49.2382 1.14394 47.694 0.69048 45.7126 0.341668C36.4826 -1.28379 27.5698 3.0624 23.043 10.5898L41.8838 21.6471L41.8909 21.6401Z" fill="#7D97F4"/>
<path d="M23.0577 10.3945C21.7885 12.4665 20.8507 14.7756 20.3359 17.2801L41.7928 21.6472L23.0577 10.4015V10.3945Z" fill="#BDD0FB"/>
<path d="M26.8075 7.20615C26.7652 7.20615 26.7159 7.1922 26.6876 7.15732C26.6171 7.08756 26.6171 6.98291 26.6876 6.91315C29.0075 4.62494 31.8773 2.87391 34.9728 1.84143C38.1741 0.781038 41.6433 0.501989 45.0067 1.02521C45.3099 1.07404 45.6131 1.12287 45.9093 1.18566C46.0009 1.20659 46.0644 1.29728 46.0432 1.38797C46.0221 1.47866 45.9304 1.54145 45.8388 1.52052C45.5426 1.46471 45.2464 1.4089 44.9503 1.36007C38.3786 0.334559 31.6447 2.49719 26.9274 7.15034C26.8921 7.18522 26.8498 7.19918 26.8075 7.19918V7.20615Z" fill="#91B3FA"/>
<path d="M27.1958 37.0577C27.1535 37.0577 27.1112 37.0438 27.0759 37.0089C22.7677 32.9557 20.3632 27.284 20.4619 21.4379C20.4619 21.3472 20.5395 21.2705 20.6382 21.2705C20.7369 21.2705 20.8074 21.3472 20.8074 21.4449C20.7087 27.1933 23.0779 32.7813 27.3157 36.7647C27.3862 36.8275 27.3862 36.9391 27.3157 37.0089C27.2804 37.0438 27.2381 37.0647 27.1888 37.0647L27.1958 37.0577Z" fill="white"/>
<path d="M46.9256 42.1294C46.8481 42.1294 46.7775 42.0806 46.7564 42.0038C46.7352 41.9131 46.7917 41.8155 46.8833 41.7945C51.0788 40.7272 54.7877 38.432 57.6012 35.1601C57.6646 35.0904 57.7704 35.0764 57.848 35.1392C57.9185 35.202 57.9326 35.3066 57.8691 35.3834C55.0063 38.7111 51.2339 41.0411 46.9679 42.1224C46.9538 42.1224 46.9397 42.1224 46.9256 42.1224V42.1294Z" fill="url(#paint3_linear_3763_11196)"/>
<path d="M49.5695 11.4617C49.5695 11.4617 49.5202 11.4617 49.492 11.4408C49.4074 11.399 49.3721 11.2943 49.4144 11.2106L54.3714 1.29736L54.5336 1.39503C56.1624 2.37868 57.6643 3.51581 59.2579 4.97384C59.3284 5.03663 59.3355 5.14825 59.265 5.21801C59.2015 5.28777 59.0887 5.29475 59.0182 5.22498C57.4951 3.83671 56.0567 2.74144 54.5054 1.7857L49.7106 11.3641C49.6824 11.4269 49.6189 11.4617 49.5554 11.4617H49.5695Z" fill="#91B3FA"/>
<path d="M56.938 21.4027C56.938 21.4027 56.9169 21.4027 56.9028 21.4027L45.7195 19.3378C45.6349 19.3238 45.5715 19.275 45.5362 19.1982C45.501 19.1215 45.501 19.0378 45.5362 18.968L46.5445 16.9519C46.5868 16.8682 46.6926 16.8333 46.7772 16.8752C46.8618 16.917 46.8971 17.0217 46.8548 17.1054L45.8958 19.0238L56.9733 21.0679C57.0649 21.0818 57.1284 21.1725 57.1143 21.2702C57.1002 21.3539 57.0226 21.4097 56.9451 21.4097L56.938 21.4027Z" fill="#91B3FA"/>
<path style="mix-blend-mode:soft-light" d="M23.0645 62.5702L25.6734 63.7143C26.0471 63.8748 26.4349 63.9655 26.8298 63.9934C27.0554 60.2332 27.3586 56.4381 27.7465 54.1011C27.7465 54.1011 25.5394 57.9241 23.0645 62.5702Z" fill="url(#paint4_linear_3763_11196)"/>
<path d="M25.6811 45.6666C24.5388 47.32 21.8382 54.3032 19.3984 60.9306L20.4984 61.405L20.5125 61.4399L23.0651 62.5631C25.54 57.9239 27.7471 54.0939 27.7471 54.0939C27.3593 56.424 27.0561 60.2191 26.8304 63.9862C26.9291 63.9862 27.0279 64.0002 27.1266 63.9932C27.6202 64.0002 28.1208 63.9095 28.5791 63.7072L31.0047 62.6468L31.0611 62.6189C32.3163 54.7637 33.6912 46.2527 33.6912 46.2527L25.6881 45.6597L25.6811 45.6666Z" fill="url(#paint5_linear_3763_11196)"/>
<path style="mix-blend-mode:soft-light" d="M25.6811 45.6666C24.5388 47.32 21.8382 54.3032 19.3984 60.9306L20.4984 61.405L20.5125 61.4399L23.0651 62.5631C25.54 57.9239 27.7471 54.0939 27.7471 54.0939C27.3593 56.424 27.0561 60.2191 26.8304 63.9862C26.9291 63.9862 27.0279 64.0002 27.1266 63.9932C27.6202 64.0002 28.1208 63.9095 28.5791 63.7072L31.0047 62.6468L31.0611 62.6189C32.3163 54.7637 33.6912 46.2527 33.6912 46.2527L25.6881 45.6597L25.6811 45.6666Z" fill="url(#paint6_linear_3763_11196)"/>
<path d="M27.9383 53.9262C27.9383 53.9262 27.8959 53.9262 27.8748 53.9053C27.8184 53.8704 27.8043 53.8006 27.8395 53.7448L29.6023 50.9543C29.6023 50.9543 29.6446 50.9055 29.6799 50.8985L30.9773 50.6404C31.0408 50.6264 31.1042 50.6683 31.1183 50.7311C31.1325 50.7939 31.0901 50.8566 31.0267 50.8706L29.7786 51.1217L28.044 53.8704C28.0229 53.9053 27.9806 53.9262 27.9453 53.9262H27.9383Z" fill="url(#paint7_linear_3763_11196)"/>
<path d="M35.4262 26.0631C35.1089 25.9515 34.7775 25.8887 34.4391 25.8678C32.5987 25.7631 26.5276 25.5678 21.5071 27.2072C20.4495 27.556 19.5963 28.3234 19.152 29.328C17.7911 32.4115 15.5912 39.4366 21.6975 42.9805C22.1699 41.8294 22.7058 40.9016 23.1712 40.2179C22.1911 38.5785 21.895 36.3321 23.6437 33.4161C24.9129 36.8135 25.5122 41.7736 25.6391 43.9711C25.6815 44.6966 25.5545 45.4152 25.2654 46.0849L25.2372 46.1547C25.1738 46.2942 25.2584 46.4616 25.4135 46.4965C28.8545 47.2639 32.4295 47.0546 33.4942 46.9639C33.6846 46.95 33.8468 46.8104 33.8891 46.6291C35.5602 39.6598 35.5673 34.909 35.1583 31.9022C36.7237 32.251 38.8954 27.2351 35.4333 26.0492L35.4262 26.0631Z" fill="url(#paint8_linear_3763_11196)"/>
<path d="M26.6687 21.8149C26.6687 21.8149 26.3231 25.4496 26.0129 26.5309C25.9635 26.6913 26.0411 26.8657 26.1892 26.9495C26.711 27.2425 27.952 27.7238 29.6584 26.8936C29.9334 26.7611 30.1026 26.4751 30.0885 26.1751L29.9404 22.6591L26.6687 21.8149Z" fill="url(#paint9_linear_3763_11196)"/>
<path d="M30.0187 17.1616C30.0187 17.1616 31.1328 19.687 31.2033 21.0195C31.2809 22.345 31.57 23.21 30.0187 23.4751C28.4675 23.7402 27.163 22.9798 26.4508 21.6543C26.4508 21.6543 25.3438 19.6173 25.5906 18.7871C25.8374 17.9499 30.0117 17.1686 30.0117 17.1686L30.0187 17.1616Z" fill="url(#paint10_linear_3763_11196)"/>
<path d="M26.9796 20.6986L27.0712 20.6567C27.1841 20.6079 27.2334 20.4753 27.177 20.3707C26.9584 19.9521 26.5354 18.9964 27.0854 18.7731C27.7975 18.4871 30.6039 17.9151 31.2103 16.9314C31.7956 15.9826 31.2738 14.7618 30.4981 14.413C30.4488 14.3921 30.3853 14.413 30.3571 14.4549L30.2937 14.5734C30.2513 14.6572 30.1244 14.6432 30.0962 14.5525C30.068 14.4688 29.9552 14.4479 29.9058 14.5246C29.7225 14.8176 29.2148 15.299 27.868 15.5431C25.9572 15.892 24.6879 16.6593 24.6597 17.9639C24.6597 18.0476 24.5681 18.0965 24.4976 18.0476C24.3565 17.9639 24.1309 17.922 23.8277 18.1732C23.2989 18.6127 23.5174 19.7428 24.6668 20.6777C24.7232 20.7195 24.7232 20.8032 24.6668 20.8451C24.4552 20.9776 24.145 21.2985 24.9559 21.7241C25.7879 22.1636 26.4155 22.1287 26.6552 22.0869C26.7116 22.0799 26.7539 22.0171 26.7398 21.9613L26.486 20.8102C26.4719 20.7474 26.5213 20.6846 26.5918 20.6846H26.9937L26.9796 20.6986Z" fill="url(#paint11_linear_3763_11196)"/>
<path d="M27.029 20.9429C27.029 20.9429 26.606 19.3314 25.8726 19.7779C25.1393 20.2313 26.2534 21.5847 26.8386 21.6475L27.029 20.9429Z" fill="url(#paint12_linear_3763_11196)"/>
<path d="M26.9998 45.4711L32.0202 45.3664C32.0202 45.3664 27.6414 44.1456 27.3735 44.4735C27.3735 44.4735 24.6588 42.7085 23.171 40.2319C22.7056 40.9156 22.1697 41.8365 21.6973 42.9945C23.0299 43.7689 24.7786 45.1153 26.9998 45.4781V45.4711Z" fill="url(#paint13_linear_3763_11196)"/>
<path d="M26.8521 44.6133C26.8521 44.6133 26.7464 46.5945 29.3765 46.3015C30.8008 46.1481 33.1066 44.8295 33.1066 44.8295C33.1066 44.8295 27.106 44.8156 26.8521 44.6133Z" fill="url(#paint14_linear_3763_11196)"/>
<path d="M28.1208 45.1084C28.1208 45.1084 28.1349 45.1084 28.1419 45.1084L38.4296 45.0944C38.6835 45.0944 38.888 44.8921 38.888 44.641C38.888 44.3898 38.6835 44.1875 38.4296 44.1875L28.1419 44.2015C27.8881 44.2015 27.6836 44.4038 27.6836 44.6549C27.6836 44.8991 27.881 45.0944 28.1208 45.1014V45.1084Z" fill="url(#paint15_linear_3763_11196)"/>
<path d="M47.6885 35.9624H39.1213C38.4867 35.9624 37.9155 36.3182 37.6405 36.8763L33.6777 45.1013H44.3251C44.734 45.1013 45.1007 44.8571 45.2488 44.4874L48.3231 36.8763C48.4994 36.4368 48.168 35.9624 47.6885 35.9624Z" fill="url(#paint16_linear_3763_11196)"/>
<path d="M41.6445 40.1761C41.4612 40.7412 41.5951 41.2923 41.9477 41.4039C42.3003 41.5155 42.7445 41.1458 42.9278 40.5807C43.1112 40.0156 42.9772 39.4645 42.6246 39.3529C42.2721 39.2413 41.8349 39.611 41.6445 40.1761Z" fill="url(#paint17_linear_3763_11196)"/>
<path d="M45.8488 31.6514C41.8508 31.8188 39.9329 28.9237 38.1842 27.2284C35.8784 24.996 33.4316 25.9029 33.4316 25.9029L35.2861 31.8955C38.8963 36.0673 43.3809 35.0488 46.1097 34.114C46.2578 33.1373 46.0815 32.2862 45.8418 31.6514H45.8488Z" fill="url(#paint18_linear_3763_11196)"/>
<path d="M51.6316 29.9214L50.2496 30.4795C48.5855 31.2538 47.1259 31.6027 45.8496 31.6585C46.0894 32.3003 46.2656 33.1444 46.1176 34.1211C47.8522 33.5281 48.9945 32.7049 48.9945 32.7049C52.1393 31.2748 51.6316 29.9214 51.6316 29.9214Z" fill="url(#paint19_linear_3763_11196)"/>
<path d="M55.275 32.1464C55.2186 31.8604 55.0353 31.6163 54.7815 31.4767L52.2501 30.1443C52.2501 30.1443 52.2501 29.8024 52.8706 29.642C53.4981 29.4745 53.4276 28.7979 53.4276 28.7979C53.4276 28.7979 52.5674 29.0769 51.3052 29.5373C50.586 29.8024 50.1347 30.3466 49.8809 30.7721L50.4661 31.7279C52.0456 32.3836 53.6815 32.6557 55.3738 32.6418L55.2821 32.1464H55.275Z" fill="url(#paint20_linear_3763_11196)"/>
<path d="M33.9316 27.6816C33.9316 27.6816 34.7496 28.9583 35.1515 31.9651L33.9316 27.6816Z" fill="url(#paint21_linear_3763_11196)"/>
</g>
<defs>
<linearGradient id="paint0_linear_3763_11196" x1="62.375" y1="-7.96003" x2="44.6877" y2="50.6622" gradientUnits="userSpaceOnUse">
<stop stop-color="#FF8A00"/>
<stop offset="1" stop-color="#FFC700"/>
</linearGradient>
<linearGradient id="paint1_linear_3763_11196" x1="27.366" y1="32.2788" x2="41.9126" y2="32.2788" gradientUnits="userSpaceOnUse">
<stop stop-color="#FF8A00"/>
<stop offset="1" stop-color="#FFC700"/>
</linearGradient>
<linearGradient id="paint2_linear_3763_11196" x1="48.3225" y1="29.5582" x2="64.0897" y2="5.12664" gradientUnits="userSpaceOnUse">
<stop stop-color="#4F52FF"/>
<stop offset="1" stop-color="#4042E2"/>
</linearGradient>
<linearGradient id="paint3_linear_3763_11196" x1="53.0602" y1="32.1534" x2="55.2694" y2="12.245" gradientUnits="userSpaceOnUse">
<stop stop-color="#FF8A00"/>
<stop offset="1" stop-color="#FFC700"/>
</linearGradient>
<linearGradient id="paint4_linear_3763_11196" x1="23.0645" y1="59.0403" x2="27.7465" y2="59.0403" gradientUnits="userSpaceOnUse">
<stop stop-color="#4F52FF"/>
<stop offset="1" stop-color="#4042E2"/>
</linearGradient>
<linearGradient id="paint5_linear_3763_11196" x1="33.1765" y1="46.3503" x2="11.5593" y2="82.1416" gradientUnits="userSpaceOnUse">
<stop stop-color="#4F52FF"/>
<stop offset="1" stop-color="#4042E2"/>
</linearGradient>
<linearGradient id="paint6_linear_3763_11196" x1="19.3984" y1="54.8334" x2="33.6912" y2="54.8334" gradientUnits="userSpaceOnUse">
<stop stop-color="#4F52FF"/>
<stop offset="1" stop-color="#4042E2"/>
</linearGradient>
<linearGradient id="paint7_linear_3763_11196" x1="32.9094" y1="16.1917" x2="31.4182" y2="32.1633" gradientUnits="userSpaceOnUse">
<stop stop-color="#4F52FF"/>
<stop offset="1" stop-color="#4042E2"/>
</linearGradient>
<linearGradient id="paint8_linear_3763_11196" x1="30.9769" y1="27.9048" x2="20.9555" y2="51.0331" gradientUnits="userSpaceOnUse">
<stop stop-color="#FF928E"/>
<stop offset="0.72" stop-color="#DB251E"/>
</linearGradient>
<linearGradient id="paint9_linear_3763_11196" x1="27.2327" y1="30.005" x2="28.3241" y2="24.2105" gradientUnits="userSpaceOnUse">
<stop stop-color="#FEBBBA"/>
<stop offset="1" stop-color="#FF928E"/>
</linearGradient>
<linearGradient id="paint10_linear_3763_11196" x1="30.2444" y1="19.387" x2="23.9416" y2="24.2657" gradientUnits="userSpaceOnUse">
<stop stop-color="#FEBBBA"/>
<stop offset="1" stop-color="#FF928E"/>
</linearGradient>
<linearGradient id="paint11_linear_3763_11196" x1="25.7738" y1="15.5711" x2="31.618" y2="23.1799" gradientUnits="userSpaceOnUse">
<stop stop-color="#09005D"/>
<stop offset="1" stop-color="#1A0F91"/>
</linearGradient>
<linearGradient id="paint12_linear_3763_11196" x1="29.4617" y1="18.3687" x2="23.1518" y2="23.2474" gradientUnits="userSpaceOnUse">
<stop stop-color="#FEBBBA"/>
<stop offset="1" stop-color="#FF928E"/>
</linearGradient>
<linearGradient id="paint13_linear_3763_11196" x1="34.3119" y1="20.9008" x2="41.0267" y2="-0.529705" gradientUnits="userSpaceOnUse">
<stop stop-color="#FEBBBA"/>
<stop offset="1" stop-color="#FF928E"/>
</linearGradient>
<linearGradient id="paint14_linear_3763_11196" x1="-91.1993" y1="-333.464" x2="-97.9211" y2="-354.895" gradientUnits="userSpaceOnUse">
<stop stop-color="#FEBBBA"/>
<stop offset="1" stop-color="#FF928E"/>
</linearGradient>
<linearGradient id="paint15_linear_3763_11196" x1="26.3829" y1="42.4107" x2="34.5358" y2="45.1109" gradientUnits="userSpaceOnUse">
<stop stop-color="#09005D"/>
<stop offset="1" stop-color="#1A0F91"/>
</linearGradient>
<linearGradient id="paint16_linear_3763_11196" x1="37.6194" y1="37.1693" x2="43.3989" y2="43.3491" gradientUnits="userSpaceOnUse">
<stop stop-color="#09005D"/>
<stop offset="1" stop-color="#1A0F91"/>
</linearGradient>
<linearGradient id="paint17_linear_3763_11196" x1="41.165" y1="38.6971" x2="43.7701" y2="42.6644" gradientUnits="userSpaceOnUse">
<stop stop-color="#53D8FF"/>
<stop offset="1" stop-color="#3840F7"/>
</linearGradient>
<linearGradient id="paint18_linear_3763_11196" x1="46.279" y1="49.4338" x2="39.6054" y2="28.3242" gradientUnits="userSpaceOnUse">
<stop stop-color="#DB251E"/>
<stop offset="1" stop-color="#FF928E"/>
</linearGradient>
<linearGradient id="paint19_linear_3763_11196" x1="319.321" y1="-55.3654" x2="328.828" y2="-58.4988" gradientUnits="userSpaceOnUse">
<stop stop-color="#FEBBBA"/>
<stop offset="1" stop-color="#FF928E"/>
</linearGradient>
<linearGradient id="paint20_linear_3763_11196" x1="319.499" y1="-54.8764" x2="329.006" y2="-58.0098" gradientUnits="userSpaceOnUse">
<stop stop-color="#FEBBBA"/>
<stop offset="1" stop-color="#FF928E"/>
</linearGradient>
<linearGradient id="paint21_linear_3763_11196" x1="33.9316" y1="29.8233" x2="35.1515" y2="29.8233" gradientUnits="userSpaceOnUse">
<stop stop-color="#E1473D"/>
<stop offset="1" stop-color="#E9605A"/>
</linearGradient>
<clipPath id="clip0_3763_11196">
<rect width="66.1333" height="64" fill="white"/>
</clipPath>
</defs>
</svg>
