<svg width="57" height="60" viewBox="0 0 57 60" fill="none" xmlns="http://www.w3.org/2000/svg">
<g clip-path="url(#clip0_3763_11464)">
<path d="M27.6324 59.7256C27.2279 59.9038 26.8029 59.9929 26.3711 59.9998C26.8509 60.0066 27.3376 59.9175 27.7832 59.7187L30.1412 58.6768L30.0932 58.6562L27.6392 59.7325L27.6324 59.7256Z" fill="#2D52EA"/>
<path d="M52.7412 3.31785C52.7412 3.26302 52.7412 3.20818 52.7344 3.14648C52.7344 3.20818 52.7412 3.26302 52.7412 3.32471V3.311V3.31785Z" fill="#2D52EA"/>
<path d="M30.1398 58.6772L32.7994 57.4913L32.8131 57.4639L30.0918 58.6497L30.1398 58.6772Z" fill="#E9EFFD"/>
<path d="M52.7344 6.45701L52.7412 6.42959V3.44775L52.7344 6.45701Z" fill="#E9EFFD"/>
<path d="M0.00685479 3.15332C0 3.20816 0 3.263 0 3.31784V6.42991L0.0137096 6.45733L0 3.33155C0 3.26985 0 3.21501 0.00685479 3.15332Z" fill="#2D52EA"/>
<path d="M19.9277 57.4639L19.9414 57.4981L24.9592 59.7259C25.4116 59.9247 25.8914 60.0207 26.3712 60.007C25.9394 60.0001 25.5075 59.911 25.11 59.7328L19.9277 57.4639Z" fill="#2D52EA"/>
<path d="M3.95617 7.0056C3.95617 5.04513 5.53963 3.44796 7.5001 3.44796H11.5102L14.2863 0H3.31868C3.31868 0 3.31868 0 3.31182 0C3.20215 0 3.09247 0 2.98279 0.0137096C2.94166 0.0137096 2.90053 0.0274192 2.85941 0.034274C2.79086 0.0411288 2.72231 0.0548383 2.65376 0.0685479C2.59892 0.0822575 2.54409 0.0959671 2.48925 0.109677C2.44126 0.123386 2.38643 0.130241 2.33844 0.150805C2.2836 0.164515 2.23562 0.191934 2.18078 0.205644C2.1328 0.226208 2.07796 0.239918 2.02998 0.260482C1.98199 0.281046 1.93401 0.308466 1.89288 0.32903C1.8449 0.356449 1.79006 0.377014 1.74208 0.404433C1.69409 0.431852 1.65296 0.459271 1.61183 0.48669C1.56385 0.514109 1.51587 0.541529 1.46788 0.568948C1.42675 0.596367 1.38563 0.630641 1.3445 0.65806C1.30337 0.692334 1.25538 0.719753 1.21426 0.760882C1.17313 0.795156 1.13885 0.82943 1.10458 0.863704C1.06345 0.897978 1.02232 0.939107 0.981193 0.97338C0.946919 1.00765 0.912645 1.04878 0.878371 1.08991C0.844097 1.13104 0.802969 1.17217 0.768695 1.2133C0.734421 1.25443 0.707001 1.29556 0.679582 1.33668C0.645308 1.37781 0.611034 1.4258 0.57676 1.47378C0.549341 1.51491 0.521922 1.55604 0.501358 1.60402C0.473938 1.652 0.439664 1.69999 0.412245 1.74797C0.391681 1.7891 0.371117 1.83708 0.343697 1.88507C0.316278 1.93305 0.288859 1.98789 0.268295 2.03587C0.24773 2.08386 0.234021 2.1387 0.213456 2.18668C0.192892 2.23466 0.172328 2.2895 0.158618 2.33748C0.144908 2.39232 0.131199 2.44031 0.117489 2.49514C0.10378 2.54998 0.09007 2.59797 0.0763604 2.6528C0.0626508 2.70764 0.0626508 2.76248 0.0489413 2.81732C0.0420865 2.87216 0.0283769 2.927 0.0215221 2.98869C0.0215221 3.04353 0.0215221 3.09837 0.0146673 3.1532C0.0146673 3.2149 0.0078125 3.26974 0.0078125 3.33143L0.0215221 6.45721L0.0626508 17.7265L3.9973 12.8253L3.96988 7.0056H3.95617Z" fill="#2D52EA"/>
<path d="M28.1048 3.44796L30.8741 0H27.9334L25.1641 3.44796H28.1048Z" fill="#2D52EA"/>
<path d="M4.05188 29.7363L0.103516 34.6512L0.117225 38.298L4.07244 33.3831L4.05188 29.7363Z" fill="#2D52EA"/>
<path d="M30.0932 58.6498L18.2001 53.0357L6.23848 47.3874C4.94978 46.8253 4.12035 45.5571 4.11349 44.1519L4.07922 36.502L0.130859 41.4305L0.151424 46.647C0.151424 47.9632 0.93287 49.149 2.13931 49.6769L19.9344 57.4639L25.1166 59.7328C25.521 59.9111 25.946 60.0002 26.3779 60.007C26.8097 60.0002 27.2416 59.9111 27.6391 59.7328L30.0932 58.6566V58.6498Z" fill="#2D52EA"/>
<path d="M52.7405 3.44796V3.32457C52.7405 3.26288 52.7405 3.20804 52.7337 3.14635C52.7337 3.09151 52.7337 3.03667 52.7268 2.98183C52.7268 2.927 52.7131 2.87216 52.6994 2.81047C52.6925 2.75563 52.6857 2.70079 52.672 2.64595C52.6583 2.59111 52.6445 2.54313 52.6308 2.48829C52.6171 2.43345 52.6034 2.37861 52.5897 2.33063C52.576 2.27579 52.5554 2.22781 52.5349 2.17982C52.5143 2.13184 52.5006 2.077 52.48 2.02902C52.4595 1.97418 52.432 1.9262 52.4046 1.87821C52.3841 1.83023 52.3635 1.7891 52.3361 1.74112C52.3087 1.69313 52.2744 1.64515 52.247 1.59717C52.2196 1.55604 52.199 1.50805 52.1716 1.46693C52.1373 1.41894 52.103 1.37781 52.0687 1.32983C52.0413 1.2887 52.0071 1.24757 51.9796 1.20644C51.9454 1.16531 51.9042 1.12419 51.87 1.08991C51.8357 1.04878 51.8014 1.00765 51.7671 0.973381C51.726 0.932252 51.6849 0.897978 51.6437 0.863704C51.6026 0.82943 51.5683 0.795156 51.5272 0.760882C51.4861 0.726608 51.4381 0.692334 51.397 0.65806C51.3558 0.630641 51.3147 0.596367 51.2736 0.568948C51.2256 0.541529 51.1776 0.514109 51.1296 0.48669C51.0885 0.459271 51.0405 0.431852 50.9994 0.404433C50.9514 0.377014 50.8966 0.356449 50.8486 0.32903C50.8006 0.308466 50.7595 0.281047 50.7115 0.260482C50.6635 0.239918 50.6155 0.226208 50.5607 0.205644C50.5059 0.185079 50.4579 0.164515 50.403 0.150805C50.355 0.137096 50.3002 0.123386 50.2522 0.109677C50.1974 0.0959671 50.1425 0.0754027 50.0877 0.0685479C50.0192 0.0548383 49.9506 0.0479835 49.8821 0.034274C49.8409 0.034274 49.7998 0.0205644 49.7587 0.0137096C49.649 0 49.5393 0 49.4296 0C49.4296 0 49.4296 0 49.4228 0H33.3963L30.627 3.44796H52.7405Z" fill="#2D52EA"/>
<path d="M4.05078 29.7359L4.07135 33.3826L28.1042 3.44775H25.1635L4.05078 29.7359Z" fill="#E9EFFD"/>
<path d="M30.6267 3.44777L4.07812 36.5016L4.1124 44.1515C4.1124 45.5568 4.94868 46.8249 6.23739 47.387L18.199 53.0353L30.0921 58.6494L32.8134 57.4567L50.6085 49.6696C51.8149 49.1418 52.5963 47.9559 52.5963 46.6398L52.7334 6.45017V3.44092H30.6267V3.44777Z" fill="#E9EFFD"/>
<path d="M7.49903 3.44775C5.53856 3.44775 3.94825 5.04492 3.9551 7.00539L3.98252 12.8251L11.5091 3.44775H7.49903Z" fill="#E9EFFD"/>
<path d="M3.99719 16.6707L3.98348 12.8252L0.0488281 17.7264L0.103666 34.6509L4.05203 29.736L3.99719 16.6707Z" fill="#2D52EA"/>
<g style="mix-blend-mode:soft-light">
<path d="M3.99719 16.6707L3.98348 12.8252L0.0488281 17.7264L0.103666 34.6509L4.05203 29.736L3.99719 16.6707Z" fill="white"/>
</g>
<path d="M25.1645 3.44796L27.9338 0H14.286L11.5098 3.44796H25.1645Z" fill="#2D52EA"/>
<g style="mix-blend-mode:soft-light">
<path d="M25.1645 3.44796L27.9338 0H14.286L11.5098 3.44796H25.1645Z" fill="white"/>
</g>
<path d="M11.509 3.44775L3.98242 12.8251L3.99613 16.6706L4.05097 29.7359L25.1637 3.44775H11.509Z" fill="#E9EFFD"/>
<g style="mix-blend-mode:soft-light">
<path d="M11.509 3.44775L3.98242 12.8251L3.99613 16.6706L4.05097 29.7359L25.1637 3.44775H11.509Z" fill="white"/>
</g>
<path d="M28.1055 3.44796H30.628L33.3974 0H30.8748L28.1055 3.44796Z" fill="#2D52EA"/>
<g style="mix-blend-mode:soft-light">
<path d="M28.1055 3.44796H30.628L33.3974 0H30.8748L28.1055 3.44796Z" fill="white"/>
</g>
<path d="M4.0724 33.3828L0.117188 38.2977L0.130897 41.4303L4.07926 36.5017L4.0724 33.3828Z" fill="#2D52EA"/>
<g style="mix-blend-mode:soft-light">
<path d="M4.0724 33.3828L0.117188 38.2977L0.130897 41.4303L4.07926 36.5017L4.0724 33.3828Z" fill="white"/>
</g>
<path d="M4.07912 36.5016L30.6277 3.44775H28.1052L4.07227 33.3826L4.07912 36.5016Z" fill="#E9EFFD"/>
<g style="mix-blend-mode:soft-light">
<path d="M4.07912 36.5016L30.6277 3.44775H28.1052L4.07227 33.3826L4.07912 36.5016Z" fill="white"/>
</g>
<path d="M10.2899 19.1661C10.2008 19.1661 10.1254 19.1319 10.0637 19.0702C10.002 19.0085 9.97461 18.9331 9.97461 18.8508V10.7348C9.97461 10.6456 10.002 10.5702 10.0637 10.5085C10.1254 10.4469 10.194 10.4194 10.2899 10.4194H13.6899C14.773 10.4194 15.623 10.6662 16.2399 11.1598C16.8568 11.6533 17.1653 12.3593 17.1653 13.2642C17.1653 13.8537 17.0213 14.3541 16.7403 14.7654C16.4592 15.1767 16.0822 15.4783 15.6161 15.6908L17.3298 18.7617C17.3572 18.8097 17.3641 18.8577 17.3641 18.8988C17.3641 18.9674 17.3367 19.0291 17.2818 19.077C17.227 19.1319 17.1653 19.1593 17.1036 19.1593H15.4447C15.2871 19.1593 15.1705 19.1182 15.0951 19.0428C15.0197 18.9605 14.9649 18.892 14.9306 18.8234L13.5048 16.0746H12.2298V18.844C12.2298 18.9262 12.1956 19.0016 12.1339 19.0633C12.0722 19.125 11.9968 19.1593 11.9008 19.1593H10.2899V19.1661ZM12.2298 14.3061H13.6693C14.0601 14.3061 14.3548 14.2101 14.5468 14.0182C14.7455 13.8263 14.8415 13.5658 14.8415 13.2436C14.8415 12.9214 14.7455 12.6541 14.5605 12.4553C14.3754 12.2565 14.0738 12.1537 13.6693 12.1537H12.2298V14.2992V14.3061Z" fill="#282E45"/>
<path d="M18.9208 19.1661C18.8317 19.1661 18.7563 19.1319 18.6946 19.0702C18.6329 19.0085 18.6055 18.9331 18.6055 18.8508V10.7348C18.6055 10.6456 18.6329 10.5702 18.6946 10.5085C18.7563 10.4469 18.8248 10.4194 18.9208 10.4194H22.17C22.9857 10.4194 23.678 10.5497 24.2538 10.8102C24.8296 11.0706 25.2683 11.4545 25.5768 11.9618C25.8853 12.469 26.0498 13.0859 26.0772 13.8263C26.084 14.1896 26.0909 14.5117 26.0909 14.7859C26.0909 15.0601 26.0909 15.3755 26.0772 15.7319C26.0429 16.5065 25.8784 17.1508 25.5836 17.6581C25.2889 18.1654 24.857 18.5424 24.2949 18.7891C23.7329 19.0359 23.0405 19.1593 22.2248 19.1593H18.9139L18.9208 19.1661ZM20.8607 17.3633H22.17C22.5264 17.3633 22.828 17.3085 23.0611 17.192C23.2941 17.0754 23.4792 16.9041 23.5958 16.6642C23.7123 16.4242 23.7808 16.1089 23.7877 15.7182C23.8014 15.4783 23.8151 15.2589 23.822 15.067C23.822 14.875 23.822 14.6831 23.822 14.4912C23.822 14.2992 23.8083 14.0867 23.7877 13.8537C23.774 13.2847 23.6232 12.8734 23.3421 12.613C23.0611 12.3525 22.6498 12.2222 22.1014 12.2222H20.8538V17.3702L20.8607 17.3633Z" fill="#282E45"/>
<path d="M29.779 19.1661C29.6351 19.1661 29.5254 19.1318 29.4431 19.0564C29.3609 18.981 29.2992 18.8919 29.2649 18.796L26.7149 10.8033C26.7012 10.7621 26.6875 10.721 26.6875 10.6936C26.6875 10.625 26.7149 10.5633 26.7698 10.5154C26.8246 10.4605 26.8863 10.4331 26.9617 10.4331H28.5109C28.6411 10.4331 28.7508 10.4674 28.8262 10.5428C28.9016 10.6182 28.9496 10.6867 28.9633 10.7553L30.7387 16.527L32.5004 10.7553C32.5278 10.6867 32.5758 10.6182 32.6443 10.5428C32.7129 10.4674 32.8157 10.4331 32.9528 10.4331H34.5157C34.5842 10.4331 34.6459 10.4605 34.6939 10.5154C34.7487 10.5702 34.7762 10.6319 34.7762 10.6936C34.7762 10.7279 34.7693 10.7621 34.7487 10.8033L32.1988 18.796C32.1713 18.8988 32.1165 18.981 32.0342 19.0564C31.952 19.1318 31.8355 19.1661 31.6846 19.1661H29.7722H29.779Z" fill="#282E45"/>
<path d="M20.0097 47.6886C20.5444 42.3282 21.8742 29.0162 22.1621 27.0694C22.5254 24.6222 25.521 25.1638 25.521 25.1638L26.1653 49.9164H21.9839C21.4218 49.9164 20.8871 49.6765 20.5101 49.2515C20.1331 48.8265 19.948 48.2644 20.0097 47.6955V47.6886Z" fill="url(#paint0_linear_3763_11464)"/>
<path d="M53.8174 50.5335C55.1198 50.5061 56.1549 49.4231 56.1274 48.1207L55.7025 28.0293C55.6819 26.9188 54.7908 26.0277 53.6803 25.9934L24.5131 25.1297C23.6426 25.1023 22.9297 25.8015 22.9297 26.672L22.9982 49.711C22.9982 50.5267 23.67 51.1779 24.4857 51.1642L53.8037 50.5404L53.8174 50.5335Z" fill="url(#paint1_linear_3763_11464)"/>
<path d="M55.6961 48.8471C56.1142 48.8471 56.4295 48.4632 56.361 48.0519C55.9291 45.3169 54.5787 35.9052 55.0106 28.0908C55.0311 27.7343 54.7569 27.4327 54.4005 27.419L25.1031 26.4868C24.6987 26.473 24.3628 26.7884 24.3491 27.1859C24.2257 30.4694 23.7596 44.0008 24.3696 48.8128C24.4039 49.1076 24.6576 49.3201 24.9523 49.3201L55.6961 48.8471Z" fill="url(#paint2_linear_3763_11464)"/>
<path d="M54.9564 48.5386C55.3608 48.5386 55.6624 48.1753 55.6007 47.7778C55.1894 45.1455 53.887 36.0903 54.3052 28.5638C54.3257 28.221 54.0584 27.9263 53.7156 27.9194L25.5219 27.0214C25.138 27.0077 24.809 27.3093 24.7953 27.7001C24.6787 30.8601 24.2263 43.8842 24.8158 48.5112C24.8501 48.7923 25.0969 49.0048 25.3779 48.9979L54.9632 48.5455L54.9564 48.5386Z" fill="url(#paint3_linear_3763_11464)"/>
<g style="mix-blend-mode:overlay">
<path d="M54.9564 48.5386C55.3608 48.5386 55.6624 48.1753 55.6007 47.7778C55.1894 45.1455 53.887 36.0903 54.3052 28.5638C54.3257 28.221 54.0584 27.9263 53.7156 27.9194L25.5219 27.0214C25.138 27.0077 24.809 27.3093 24.7953 27.7001C24.6787 30.8601 24.2263 43.8842 24.8158 48.5112C24.8501 48.7923 25.0969 49.0048 25.3779 48.9979L54.9632 48.5455L54.9564 48.5386Z" fill="white"/>
</g>
<path opacity="0.72" d="M37.6328 32.6971L37.674 34.7261C37.674 35.0346 37.434 35.2882 37.1187 35.295L35.0349 35.3088C34.7333 35.3088 34.4865 35.0688 34.4796 34.7672L34.4316 32.6354C34.4316 32.3132 34.6921 32.0527 35.0143 32.0664L37.0982 32.1555C37.3929 32.1693 37.6191 32.4092 37.626 32.6971H37.6328Z" fill="white"/>
<path opacity="0.72" d="M44.9126 35.2816L42.8288 35.2953C42.5272 35.2953 42.2804 35.0554 42.2735 34.7538L42.2324 32.9372C42.2324 32.6151 42.486 32.3614 42.8082 32.3683L44.8921 32.4437C45.1868 32.4574 45.4199 32.6905 45.4268 32.9852L45.461 34.7126C45.461 35.0211 45.2211 35.2747 44.9058 35.2816H44.9126Z" fill="white"/>
<path opacity="0.72" d="M43.0897 44.3228L45.0707 44.3022C45.3997 44.3022 45.6739 44.5627 45.6808 44.8986L45.7219 46.7563C45.7288 47.0853 45.4683 47.3595 45.1393 47.3732L43.1582 47.4555C42.8223 47.4692 42.5344 47.2018 42.5276 46.8659L42.4865 44.9466C42.4796 44.6107 42.7469 44.3297 43.0897 44.3297V44.3228Z" fill="white"/>
<path opacity="0.72" d="M46.4221 46.7084L46.381 44.8919C46.3741 44.5628 46.6415 44.2886 46.9705 44.2818L48.9721 44.2612C49.3011 44.2612 49.5685 44.5149 49.5753 44.8439L49.6096 46.5919C49.6165 46.914 49.3628 47.1882 49.0406 47.2019L47.039 47.2842C46.7032 47.2979 46.429 47.0374 46.4153 46.7015L46.4221 46.7084Z" fill="white"/>
<path opacity="0.72" d="M46.2434 38.5167L46.2091 37.0293C46.2022 36.6728 46.4901 36.3712 46.8535 36.378H48.7659C49.1155 36.378 49.3966 36.6591 49.4034 37.0087L49.4309 38.4345C49.4377 38.7841 49.1635 39.0788 48.8139 39.0857L46.9014 39.1474C46.545 39.1611 46.2502 38.88 46.2365 38.5236L46.2434 38.5167Z" fill="white"/>
<path opacity="0.72" d="M46.3391 42.8489L46.2912 40.5731C46.2843 40.2441 46.5379 39.9768 46.867 39.9631L48.8206 39.9014C49.177 39.8877 49.4718 40.1687 49.4855 40.5251L49.5335 42.8215C49.5403 43.1574 49.273 43.4316 48.9371 43.4316H46.9355C46.6133 43.4316 46.346 43.1711 46.3391 42.8489Z" fill="white"/>
<path opacity="0.72" d="M41.0201 35.3021L38.9362 35.3158C38.6346 35.3158 38.3878 35.0759 38.381 34.7742L38.3398 32.7932C38.3398 32.471 38.5935 32.2174 38.9156 32.2243L40.9995 32.2997C41.2943 32.3134 41.5273 32.5464 41.5342 32.8412L41.5753 34.7331C41.5753 35.0416 41.3354 35.2952 41.0201 35.3021Z" fill="white"/>
<path opacity="0.72" d="M42.4446 42.8354L42.3966 40.7035C42.3898 40.3745 42.6502 40.0935 42.9793 40.0866L44.9603 40.0249C45.2962 40.0112 45.5772 40.2785 45.5841 40.6144L45.6321 42.808C45.6389 43.1507 45.3647 43.4249 45.0289 43.4249H43.0478C42.7188 43.4249 42.4515 43.1644 42.4446 42.8354Z" fill="white"/>
<path opacity="0.72" d="M38.8802 36.3644H41.156C41.4028 36.3644 41.6084 36.5701 41.6152 36.8168L41.6564 38.8664C41.6564 39.12 41.4644 39.3257 41.2108 39.3325L38.935 39.4079C38.6814 39.4148 38.4689 39.216 38.462 38.9555L38.4141 36.8305C38.4141 36.5701 38.6197 36.3576 38.8733 36.3644H38.8802Z" fill="white"/>
<path opacity="0.72" d="M37.7228 36.9264L37.7639 38.88C37.7639 39.1953 37.524 39.4558 37.2087 39.4695L35.1728 39.538C34.8506 39.5517 34.5833 39.2913 34.5764 38.9759L34.5353 36.9538C34.5284 36.6316 34.7889 36.3643 35.1111 36.3643H37.147C37.4623 36.3643 37.7159 36.6179 37.7228 36.9332V36.9264Z" fill="white"/>
<path opacity="0.72" d="M45.1044 39.2023L42.8286 39.2777C42.5749 39.2846 42.3624 39.0858 42.3556 38.8253L42.3145 36.8305C42.3145 36.5701 42.5201 36.3576 42.7737 36.3644H45.0495C45.2963 36.3644 45.5019 36.5701 45.5088 36.8168L45.5499 38.7293C45.5499 38.983 45.358 39.1886 45.1044 39.1954V39.2023Z" fill="white"/>
<path opacity="0.72" d="M39.0926 40.217L41.0736 40.1553C41.4095 40.1416 41.6905 40.4089 41.6974 40.7448L41.7385 42.8149C41.7454 43.1577 41.4712 43.4319 41.1353 43.4319H39.1542C38.8252 43.4319 38.5579 43.1714 38.551 42.8424L38.5099 40.8408C38.503 40.5117 38.7635 40.2307 39.0926 40.2238V40.217Z" fill="white"/>
<path opacity="0.72" d="M35.1313 40.347L37.2494 40.2785C37.551 40.2716 37.7978 40.5047 37.8047 40.8063L37.8458 42.8901C37.8458 43.1918 37.6127 43.4385 37.3111 43.4385H35.193C34.8982 43.4385 34.6652 43.2055 34.6583 42.9107L34.6172 40.8954C34.6172 40.6006 34.8434 40.3607 35.1382 40.347H35.1313Z" fill="white"/>
<path opacity="0.72" d="M48.5125 35.2336H46.9291C46.5109 35.2473 46.1613 34.9114 46.1545 34.4864L46.1271 33.184C46.1202 32.7933 46.4424 32.4711 46.84 32.4848L48.6016 32.5465C48.9992 32.5602 49.3214 32.8824 49.3282 33.2868L49.3488 34.3767C49.3557 34.8497 48.9855 35.2336 48.5125 35.2336Z" fill="white"/>
<path opacity="0.72" d="M50.2744 44.9055C50.2676 44.5491 50.5555 44.2543 50.9119 44.2543H51.5974C52.1184 44.2406 52.5502 44.5902 52.5571 45.022L52.5845 46.2833C52.5914 46.7152 52.1869 47.0785 51.666 47.099L50.9256 47.1333C50.5898 47.147 50.3156 46.8865 50.3018 46.5507L50.2676 44.9124L50.2744 44.9055Z" fill="white"/>
<path opacity="0.72" d="M28.1336 44.4668L29.4908 44.4531C29.8199 44.4531 30.0941 44.7136 30.1009 45.0495L30.1489 47.4144C30.1557 47.7434 29.8953 48.0176 29.5662 48.0313L28.2158 48.0862C27.6812 48.1067 27.2287 47.7571 27.215 47.3116L27.1739 45.2826C27.1671 44.837 27.5921 44.4737 28.1267 44.4668H28.1336Z" fill="white"/>
<path opacity="0.72" d="M51.541 43.4317H50.8692C50.5196 43.4317 50.2386 43.1507 50.2317 42.8079L50.1837 40.491C50.1769 40.1414 50.4511 39.8466 50.8007 39.8398L51.4793 39.8192C52.0139 39.7987 52.4595 40.1483 52.4664 40.5938L52.5075 42.6228C52.5143 43.0684 52.0825 43.4386 51.541 43.4386V43.4317Z" fill="white"/>
<path opacity="0.72" d="M51.4872 38.9969L50.644 39.0243C50.3767 39.0312 50.1505 38.8187 50.1437 38.5514L50.1094 36.8788C50.1094 36.6046 50.3219 36.3853 50.5961 36.3853H51.4529C51.9739 36.3853 52.392 36.7348 52.3989 37.1667L52.4194 38.1881C52.4263 38.6268 52.015 38.9901 51.494 39.0038L51.4872 38.9969Z" fill="white"/>
<path opacity="0.72" d="M27.9198 31.806L29.2771 31.854C29.5856 31.8677 29.8255 32.1145 29.8323 32.4161L29.8803 34.7467C29.8803 35.0689 29.6267 35.3362 29.3045 35.3362H27.9061C27.3852 35.3499 26.9602 35.0003 26.9533 34.5685L26.9122 32.6149C26.9053 32.1556 27.3646 31.7786 27.9198 31.7991V31.806Z" fill="white"/>
<path opacity="0.72" d="M39.1893 44.3638L41.1703 44.3433C41.4994 44.3433 41.7735 44.6037 41.7804 44.9396L41.8215 46.9207C41.8284 47.2497 41.5679 47.5239 41.2389 47.5376L39.2578 47.6199C38.922 47.6336 38.634 47.3662 38.6272 47.0303L38.5861 44.9808C38.5792 44.6449 38.8465 44.3638 39.1893 44.3638Z" fill="white"/>
<path opacity="0.72" d="M27.9744 36.3438H29.3522C29.6676 36.3438 29.9212 36.5974 29.928 36.9127L29.976 39.1337C29.976 39.449 29.7361 39.7095 29.4208 39.7232L28.0361 39.7711C27.5014 39.7917 27.0559 39.4421 27.049 38.9966L27.0079 37.1663C27.001 36.7208 27.4329 36.3506 27.9744 36.3506V36.3438Z" fill="white"/>
<path opacity="0.72" d="M28.0231 40.5804L29.4626 40.5324C29.7643 40.5255 30.011 40.7586 30.0179 41.0602L30.059 42.8904C30.059 43.192 29.8259 43.4388 29.5243 43.4388H28.078C27.557 43.4388 27.1389 43.0961 27.1252 42.6642L27.0977 41.4029C27.0909 40.9642 27.5022 40.6009 28.0231 40.5872V40.5804Z" fill="white"/>
<path opacity="0.72" d="M33.9121 40.9298L33.9532 42.8834C33.9532 43.1851 33.7202 43.4318 33.4185 43.4318H31.3004C31.0057 43.4318 30.7726 43.1988 30.7657 42.904L30.7246 41.0189C30.7246 40.7242 30.9508 40.4843 31.2456 40.4706L33.3637 40.402C33.6653 40.3951 33.9121 40.6282 33.9189 40.9298H33.9121Z" fill="white"/>
<path opacity="0.72" d="M31.4022 44.4395L33.3832 44.4189C33.7122 44.4189 33.9864 44.6794 33.9933 45.0153L34.0413 47.25C34.0481 47.579 33.7876 47.8532 33.4586 47.8669L31.4776 47.9492C31.1348 47.9629 30.8538 47.6955 30.8469 47.3528L30.799 45.0564C30.7921 44.7206 31.0594 44.4395 31.4022 44.4395Z" fill="white"/>
<path opacity="0.72" d="M51.3777 35.2197H50.5483C50.281 35.2197 50.0685 35.014 50.0616 34.7467L50.0273 33.1084C50.0273 32.8273 50.2535 32.6011 50.5277 32.6148L51.4052 32.6491C51.9056 32.6697 52.3031 33.0056 52.31 33.4237L52.3305 34.3971C52.3374 34.8427 51.9056 35.2128 51.3709 35.2128L51.3777 35.2197Z" fill="white"/>
<path opacity="0.72" d="M35.2958 44.3985L37.2425 44.3779C37.5921 44.3779 37.88 44.6521 37.8869 45.0017L37.928 47.0787C37.9348 47.4077 37.6744 47.6819 37.3453 47.6957L35.3643 47.7779C35.0216 47.7916 34.7405 47.5243 34.7337 47.1815L34.6857 45.0086C34.6788 44.6727 34.9462 44.3916 35.2889 44.3916L35.2958 44.3985Z" fill="white"/>
<path opacity="0.72" d="M33.7335 32.5598L33.7815 34.7328C33.7815 35.055 33.5279 35.3223 33.2057 35.3223L31.1698 35.336C30.8545 35.336 30.594 35.0893 30.5872 34.7739L30.5392 32.5187C30.5323 32.1897 30.8065 31.9155 31.1356 31.9292L33.1783 32.0046C33.4868 32.0183 33.7267 32.2651 33.7335 32.5667V32.5598Z" fill="white"/>
<path opacity="0.72" d="M33.8214 36.9195L33.8625 39.0034C33.8625 39.3187 33.6226 39.5792 33.3073 39.5929L31.2714 39.6614C30.9493 39.6751 30.6819 39.4147 30.6751 39.0993L30.6271 36.9469C30.6202 36.6248 30.8807 36.3574 31.2029 36.3574H33.2388C33.5541 36.3574 33.8077 36.611 33.8146 36.9264L33.8214 36.9195Z" fill="white"/>
<path d="M51.6044 30.8876L51.5085 31.5731C51.481 31.7925 51.296 31.957 51.0698 31.9638H51.0355C50.7887 31.9638 50.5762 31.7719 50.5762 31.5251L50.5625 30.8191C50.5625 30.5449 50.7956 30.3324 51.0629 30.3598L51.2068 30.3735C51.4605 30.4009 51.6387 30.634 51.6044 30.8808V30.8876Z" fill="white"/>
<path d="M48.4091 30.7094L48.3132 31.3949C48.2857 31.6142 48.1006 31.7788 47.8744 31.7856H47.8402C47.5934 31.7856 47.3878 31.5937 47.3809 31.3469L47.3672 30.6409C47.3672 30.3667 47.6003 30.1542 47.8676 30.1816L48.0115 30.1953C48.2652 30.2227 48.4434 30.4558 48.4091 30.7025V30.7094Z" fill="white"/>
<path d="M44.4872 30.7641L44.3913 31.4496C44.3639 31.6689 44.1788 31.8334 43.9526 31.8403H43.9183C43.6715 31.8403 43.4659 31.6484 43.459 31.4016L43.4453 30.6955C43.4453 30.4213 43.6784 30.2089 43.9457 30.2363L44.0897 30.25C44.3433 30.2774 44.5215 30.5105 44.4872 30.7572V30.7641Z" fill="white"/>
<path d="M40.6572 30.5927L40.5612 31.2782C40.5338 31.4975 40.3487 31.6621 40.1225 31.6689H40.0882C39.8414 31.6689 39.6289 31.477 39.6289 31.2302L39.6152 30.5242C39.6152 30.25 39.8483 30.0375 40.1156 30.0649L40.2596 30.0786C40.5132 30.106 40.6914 30.3391 40.6572 30.5858V30.5927Z" fill="white"/>
<path d="M36.7294 30.0922L36.6335 30.7777C36.606 30.997 36.421 31.1616 36.1948 31.1684H36.1605C35.9137 31.1684 35.7081 30.9765 35.7012 30.7297L35.6875 30.0237C35.6875 29.7495 35.9206 29.537 36.1879 29.5644L36.3318 29.5781C36.5855 29.6055 36.7637 29.8386 36.7294 30.0854V30.0922Z" fill="white"/>
<path d="M32.5673 30.1816L32.4714 30.8671C32.4439 31.0864 32.2589 31.2509 32.0326 31.2578H31.9984C31.7516 31.2578 31.546 31.0658 31.5391 30.8191L31.5254 30.113C31.5254 29.8388 31.7585 29.6263 32.0258 29.6538L32.1697 29.6675C32.4234 29.6949 32.6016 29.9279 32.5673 30.1747V30.1816Z" fill="white"/>
<path d="M29.0517 30.1127L28.9557 30.7982C28.9283 31.0176 28.7432 31.1821 28.517 31.1889H28.4827C28.236 31.1889 28.0303 30.997 28.0235 30.7502L28.0098 30.0442C28.0098 29.77 28.2428 29.5575 28.5102 29.5849L28.6541 29.5986C28.9077 29.626 29.086 29.8591 29.0517 30.1059V30.1127Z" fill="white"/>
<path d="M41.9648 34.2325C41.9717 34.0817 42.1294 34.02 42.2459 34.1091C42.5681 34.3627 42.6983 34.7603 42.856 35.1236C43.041 35.5555 43.2193 35.9873 43.3769 36.426C43.5414 36.8922 43.6854 37.3651 43.7951 37.845C44.0076 37.2692 44.2612 36.7139 44.5765 36.1861C44.6588 36.0422 44.8987 36.1244 44.8507 36.2958C44.5765 37.2692 44.2406 38.2151 43.987 39.1954C43.8979 39.5381 43.4249 39.4559 43.3906 39.1268C43.2947 38.222 43.0753 37.3583 42.7669 36.5014C42.6229 36.097 42.4584 35.6994 42.287 35.3019C42.1362 34.9523 41.9511 34.6232 41.9717 34.2325H41.9648Z" fill="url(#paint4_linear_3763_11464)"/>
<path d="M41.52 34.9523C41.801 34.8975 41.9039 35.2608 41.6434 35.3705C39.9365 36.1176 39.7172 38.2358 40.9442 39.5108C41.5131 40.1003 42.2672 40.5595 42.9869 40.9571C43.7135 41.3547 44.5224 41.6632 45.3655 41.5809C47.3191 41.3821 47.5865 39.4011 46.997 37.8656C46.4349 36.3918 45.2353 35.2539 43.7615 34.7055C43.5696 34.637 43.645 34.3285 43.8369 34.3971C45.2147 34.8906 46.3937 35.8709 47.1204 37.1458C47.7921 38.3249 48.1897 39.9837 47.3123 41.1628C46.4075 42.3829 44.6801 42.4035 43.3845 41.8962C41.9587 41.3341 40.1833 40.2991 39.6144 38.791C39.018 37.2144 39.7515 35.2813 41.5063 34.9523H41.52Z" fill="url(#paint5_linear_3763_11464)"/>
<path d="M50.8156 29.77C51.251 29.77 51.6039 29.417 51.6039 28.9817C51.6039 28.5463 51.251 28.1934 50.8156 28.1934C50.3803 28.1934 50.0273 28.5463 50.0273 28.9817C50.0273 29.417 50.3803 29.77 50.8156 29.77Z" fill="#7D97F4"/>
<path d="M44.3371 29.7084C44.7725 29.7084 45.1254 29.3555 45.1254 28.9201C45.1254 28.4848 44.7725 28.1318 44.3371 28.1318C43.9018 28.1318 43.5488 28.4848 43.5488 28.9201C43.5488 29.3555 43.9018 29.7084 44.3371 29.7084Z" fill="#7D97F4"/>
<path d="M37.8039 29.496C38.2393 29.496 38.5922 29.1431 38.5922 28.7077C38.5922 28.2724 38.2393 27.9194 37.8039 27.9194C37.3686 27.9194 37.0156 28.2724 37.0156 28.7077C37.0156 29.1431 37.3686 29.496 37.8039 29.496Z" fill="#7D97F4"/>
<path d="M31.3274 29.1943C31.7627 29.1943 32.1157 28.8413 32.1157 28.406C32.1157 27.9706 31.7627 27.6177 31.3274 27.6177C30.892 27.6177 30.5391 27.9706 30.5391 28.406C30.5391 28.8413 30.892 29.1943 31.3274 29.1943Z" fill="#7D97F4"/>
<path d="M30.7244 22.9291C32.0543 23.217 31.9309 26.7198 31.8212 28.1387C31.7938 28.4746 31.5196 28.7282 31.1837 28.7282C31.0877 28.7282 30.9986 28.6871 30.9369 28.6185C30.8753 28.55 30.8478 28.454 30.8547 28.3649C30.9712 27.2887 31.2111 24.1972 30.2378 24.0327C30.2378 24.0327 29.5386 23.9093 29.4152 25.2666H28.6543C28.6543 25.2666 29.0519 22.5589 30.7244 22.9222V22.9291Z" fill="url(#paint6_linear_3763_11464)"/>
<path d="M37.203 23.1073C38.5328 23.3952 38.4094 26.898 38.2997 28.3169C38.2723 28.6528 37.9981 28.9064 37.6622 28.9064C37.5663 28.9064 37.4772 28.8653 37.4155 28.7968C37.3538 28.7282 37.3263 28.6323 37.3332 28.5431C37.4497 27.4669 37.6897 24.3754 36.7163 24.2109C36.7163 24.2109 36.0171 24.1149 35.8937 25.4448H35.1328C35.1328 25.4448 35.5304 22.7371 37.203 23.1004V23.1073Z" fill="url(#paint7_linear_3763_11464)"/>
<path d="M43.6795 23.2926C45.0094 23.5805 44.886 27.0833 44.7763 28.5022C44.7489 28.8381 44.4747 29.0986 44.1388 29.0986C44.0428 29.0986 43.9537 29.0575 43.892 28.9889C43.8303 28.9204 43.8029 28.8244 43.8098 28.7353C43.9263 27.6591 44.1662 24.5676 43.1928 24.3962C43.1928 24.3962 42.4936 24.3139 42.3703 25.6575L41.6094 25.6301C41.6094 25.6301 42.007 22.9224 43.6795 23.2926Z" fill="url(#paint8_linear_3763_11464)"/>
<path d="M50.158 23.498C51.4879 23.7859 51.3645 27.2887 51.2548 28.7145C51.2274 29.0504 50.9532 29.3108 50.6173 29.3108C50.5213 29.3108 50.4322 29.2697 50.3705 29.2012C50.3088 29.1326 50.2814 29.0367 50.2883 28.9475C50.4048 27.8713 50.6447 24.773 49.6713 24.6085C49.6713 24.6085 48.9722 24.5056 48.8488 25.8355H48.0879C48.0879 25.8355 48.4855 23.1347 50.158 23.498Z" fill="url(#paint9_linear_3763_11464)"/>
</g>
<defs>
<linearGradient id="paint0_linear_3763_11464" x1="23.0807" y1="23.8134" x2="23.0807" y2="62.0837" gradientUnits="userSpaceOnUse">
<stop stop-color="#222C4F"/>
<stop offset="1" stop-color="#4B69DE"/>
</linearGradient>
<linearGradient id="paint1_linear_3763_11464" x1="54.6386" y1="25.4865" x2="13.4722" y2="58.2242" gradientUnits="userSpaceOnUse">
<stop stop-color="#222C4F"/>
<stop offset="1" stop-color="#4B69DE"/>
</linearGradient>
<linearGradient id="paint2_linear_3763_11464" x1="24.068" y1="37.9068" x2="56.3747" y2="37.9068" gradientUnits="userSpaceOnUse">
<stop stop-color="#4042E2"/>
<stop offset="1" stop-color="#4F52FF"/>
</linearGradient>
<linearGradient id="paint3_linear_3763_11464" x1="24.5211" y1="38.0097" x2="55.6076" y2="38.0097" gradientUnits="userSpaceOnUse">
<stop stop-color="#4F52FF"/>
<stop offset="1" stop-color="#4042E2"/>
</linearGradient>
<linearGradient id="paint4_linear_3763_11464" x1="49.0321" y1="42.0538" x2="41.0189" y2="34.9797" gradientUnits="userSpaceOnUse">
<stop stop-color="#FF928E"/>
<stop offset="0.72" stop-color="#DB251E"/>
</linearGradient>
<linearGradient id="paint5_linear_3763_11464" x1="48.553" y1="42.5954" x2="40.5398" y2="35.5281" gradientUnits="userSpaceOnUse">
<stop stop-color="#FF928E"/>
<stop offset="0.72" stop-color="#DB251E"/>
</linearGradient>
<linearGradient id="paint6_linear_3763_11464" x1="30.1555" y1="31.9363" x2="30.2994" y2="24.6633" gradientUnits="userSpaceOnUse">
<stop stop-color="#FF8A00"/>
<stop offset="1" stop-color="#FFC700"/>
</linearGradient>
<linearGradient id="paint7_linear_3763_11464" x1="36.634" y1="32.0596" x2="36.778" y2="24.7867" gradientUnits="userSpaceOnUse">
<stop stop-color="#FF8A00"/>
<stop offset="1" stop-color="#FFC700"/>
</linearGradient>
<linearGradient id="paint8_linear_3763_11464" x1="43.1106" y1="32.1901" x2="43.2545" y2="24.9172" gradientUnits="userSpaceOnUse">
<stop stop-color="#FF8A00"/>
<stop offset="1" stop-color="#FFC700"/>
</linearGradient>
<linearGradient id="paint9_linear_3763_11464" x1="49.5891" y1="32.3201" x2="49.733" y2="25.0472" gradientUnits="userSpaceOnUse">
<stop stop-color="#FF8A00"/>
<stop offset="1" stop-color="#FFC700"/>
</linearGradient>
<clipPath id="clip0_3763_11464">
<rect width="56.3738" height="60" fill="white"/>
</clipPath>
</defs>
</svg>
