<?xml version="1.0" encoding="UTF-8"?>
<svg xmlns="http://www.w3.org/2000/svg" xmlns:xlink="http://www.w3.org/1999/xlink" viewBox="0 0 95.63 87.53">
  <defs>
    <linearGradient id="Dégradé_sans_nom_96" data-name="Dégradé sans nom 96" x1="39.02" y1="14.04" x2="68.46" y2="14.04" gradientUnits="userSpaceOnUse">
      <stop offset="0" stop-color="#222c4f"/>
      <stop offset="1" stop-color="#4b69de"/>
    </linearGradient>
    <linearGradient id="linear-gradient" x1="18.18" y1="21.07" x2="50.86" y2="21.07" gradientUnits="userSpaceOnUse">
      <stop offset="0" stop-color="#dae3fe"/>
      <stop offset="1" stop-color="#e9effd"/>
    </linearGradient>
    <linearGradient id="linear-gradient-2" x1="18.57" y1="24.93" x2="40.54" y2="24.93" xlink:href="#linear-gradient"/>
    <linearGradient id="linear-gradient-3" x1="17.67" y1="30.37" x2="50.35" y2="30.37" xlink:href="#linear-gradient"/>
    <linearGradient id="linear-gradient-4" x1="18.06" y1="34.23" x2="40.03" y2="34.23" xlink:href="#linear-gradient"/>
    <linearGradient id="linear-gradient-5" x1="39.27" y1="34.39" x2="27.92" y2="56.06" gradientUnits="userSpaceOnUse">
      <stop offset="0" stop-color="#09005d"/>
      <stop offset="1" stop-color="#1a0f91"/>
    </linearGradient>
    <linearGradient id="linear-gradient-6" x1="45.52" y1="43.02" x2="48.41" y2="43.02" xlink:href="#linear-gradient-5"/>
    <linearGradient id="linear-gradient-7" x1="-73.42" y1="82.47" x2="-66.62" y2="82.47" gradientTransform="translate(5.41) rotate(-180) scale(1 -1)" xlink:href="#linear-gradient-5"/>
    <linearGradient id="linear-gradient-8" x1="78.39" y1="77.49" x2="75.33" y2="82.54" gradientUnits="userSpaceOnUse">
      <stop offset="0" stop-color="#4f52ff"/>
      <stop offset="1" stop-color="#4042e2"/>
    </linearGradient>
    <linearGradient id="linear-gradient-9" x1="-72.79" y1="79.28" x2="-70.88" y2="79.28" gradientTransform="translate(5.41) rotate(-180) scale(1 -1)" gradientUnits="userSpaceOnUse">
      <stop offset="0" stop-color="#febbba"/>
      <stop offset="1" stop-color="#ff928e"/>
    </linearGradient>
    <linearGradient id="linear-gradient-10" x1="-86.97" y1="82.32" x2="-84.36" y2="82.32" gradientTransform="translate(5.41) rotate(-180) scale(1 -1)" xlink:href="#linear-gradient-5"/>
    <linearGradient id="linear-gradient-11" x1="93.61" y1="72.12" x2="89.89" y2="81.82" xlink:href="#linear-gradient-8"/>
    <linearGradient id="linear-gradient-12" x1="-84.96" y1="77.68" x2="-82.67" y2="77.68" xlink:href="#linear-gradient-9"/>
    <linearGradient id="linear-gradient-13" x1="85.71" y1="51.99" x2="76.35" y2="79.81" xlink:href="#linear-gradient-5"/>
    <linearGradient id="Dégradé_sans_nom_286" data-name="Dégradé sans nom 286" x1="87.03" y1="10.09" x2="68.84" y2="54.5" gradientUnits="userSpaceOnUse">
      <stop offset="0" stop-color="#ff8a00"/>
      <stop offset="1" stop-color="#ffc700"/>
    </linearGradient>
    <linearGradient id="linear-gradient-14" x1="79.6" y1="50.27" x2="74.21" y2="62" xlink:href="#linear-gradient-8"/>
    <linearGradient id="linear-gradient-15" x1="-50.57" y1="-111.05" x2="-48.49" y2="-123.22" xlink:href="#linear-gradient-9"/>
    <linearGradient id="Dégradé_sans_nom_286-2" data-name="Dégradé sans nom 286" x1="92.27" y1="12.23" x2="74.08" y2="56.65" xlink:href="#Dégradé_sans_nom_286"/>
    <linearGradient id="Dégradé_sans_nom_286-3" data-name="Dégradé sans nom 286" x1="81.02" y1="7.62" x2="62.83" y2="52.04" xlink:href="#Dégradé_sans_nom_286"/>
    <linearGradient id="linear-gradient-16" x1="190.43" y1="-93.42" x2="197.17" y2="-93.42" gradientTransform="translate(274.34 89.19) rotate(165.82) scale(1 -1)" xlink:href="#linear-gradient-9"/>
    <linearGradient id="linear-gradient-17" x1="-65.45" y1="27.87" x2="-65.52" y2="39.85" xlink:href="#linear-gradient-9"/>
    <linearGradient id="linear-gradient-18" x1="-510.02" y1="1741.75" x2="-515.91" y2="1749.55" gradientTransform="translate(-189.07 -1770.74) rotate(-171.79) scale(1 -1)" xlink:href="#linear-gradient-9"/>
    <linearGradient id="linear-gradient-19" x1="-514.52" y1="1743.63" x2="-507.48" y2="1743.63" gradientTransform="translate(-189.07 -1770.74) rotate(-171.79) scale(1 -1)" xlink:href="#linear-gradient-5"/>
    <linearGradient id="linear-gradient-20" x1="-518.65" y1="1747.93" x2="-513.92" y2="1743.08" gradientTransform="translate(-189.07 -1770.74) rotate(-171.79) scale(1 -1)" xlink:href="#linear-gradient-9"/>
    <linearGradient id="linear-gradient-21" x1="465.33" y1="-463.95" x2="396.08" y2="-413.43" gradientTransform="translate(691.16 132.17) rotate(142.25) scale(1 -1)" xlink:href="#linear-gradient-5"/>
    <linearGradient id="linear-gradient-22" x1="467.76" y1="-452.71" x2="476.88" y2="-460.64" gradientTransform="translate(691.16 132.17) rotate(142.25) scale(1 -1)" xlink:href="#linear-gradient-5"/>
    <linearGradient id="linear-gradient-23" x1="475.73" y1="-464.35" x2="441.96" y2="-429.64" gradientTransform="translate(691.16 132.17) rotate(142.25) scale(1 -1)" xlink:href="#linear-gradient-9"/>
    <linearGradient id="linear-gradient-24" x1="-46.8" y1="-110.41" x2="-44.72" y2="-122.58" xlink:href="#linear-gradient-9"/>
    <linearGradient id="linear-gradient-25" x1="-57.39" y1="47.94" x2="-55.09" y2="47.94" xlink:href="#linear-gradient-9"/>
    <linearGradient id="Dégradé_sans_nom_46" data-name="Dégradé sans nom 46" x1="76.21" y1="-17.52" x2="61.08" y2="5.18" gradientUnits="userSpaceOnUse">
      <stop offset="0" stop-color="#ff928e"/>
      <stop offset="1" stop-color="#db251e"/>
    </linearGradient>
    <linearGradient id="Dégradé_sans_nom_46-2" data-name="Dégradé sans nom 46" x1="77.65" y1="-16.57" x2="62.51" y2="6.14" xlink:href="#Dégradé_sans_nom_46"/>
  </defs>
  <g style="isolation: isolate;">
    <g id="Calque_1" data-name="Calque 1">
      <g>
        <g>
          <path d="M4.84,0s0,0-.01,0c0,0,0,0,.01,0h0Z" style="fill: #2d52ea; stroke-width: 0px;"/>
          <path d="M40.31,87.13c-.59.26-1.21.39-1.84.4.7.01,1.41-.12,2.06-.41l3.44-1.52-.07-.03-3.58,1.57Z" style="fill: #2d52ea; stroke-width: 0px;"/>
          <path d="M76.94,4.84c0-.08,0-.16-.01-.25,0,.09.01.17.01.26v-.02Z" style="fill: #2d52ea; stroke-width: 0px;"/>
          <polygon points="76.94 5.03 76.94 4.86 76.94 5.03 76.94 5.03" style="fill: #2d52ea; stroke-width: 0px;"/>
          <polygon points="43.97 85.6 47.85 83.87 47.87 83.83 43.9 85.56 43.97 85.6" style="fill: #e9effd; stroke-width: 0px;"/>
          <polygon points="76.93 9.42 76.94 9.38 76.94 5.03 76.94 5.03 76.93 9.42" style="fill: #e9effd; stroke-width: 0px;"/>
          <path d="M.01,4.6c0,.08-.01.16-.01.25v4.54l.02.04L0,4.86c0-.09,0-.17.01-.26Z" style="fill: #2d52ea; stroke-width: 0px;"/>
          <path d="M29.07,83.83l.02.05,7.32,3.25c.66.29,1.36.43,2.06.41-.63-.01-1.26-.14-1.84-.4l-7.56-3.31Z" style="fill: #2d52ea; stroke-width: 0px;"/>
          <path d="M72.1,0h0s0,0,.01,0c0,0,0,0-.01,0Z" style="fill: #2d52ea; stroke-width: 0px;"/>
          <path d="M5.77,10.22c0-2.86,2.31-5.19,5.17-5.19h5.85L20.84,0H4.84s0,0-.01,0c-.16,0-.32,0-.48.02-.06,0-.12.02-.18.03-.1.01-.2.03-.3.05-.08.02-.16.04-.24.06-.07.02-.15.03-.22.06-.08.02-.15.06-.23.08-.07.03-.15.05-.22.08-.07.03-.14.07-.2.1-.07.04-.15.07-.22.11-.07.04-.13.08-.19.12-.07.04-.14.08-.21.12-.06.04-.12.09-.18.13-.06.05-.13.09-.19.15-.06.05-.11.1-.16.15-.06.05-.12.11-.18.16-.05.05-.1.11-.15.17-.05.06-.11.12-.16.18-.05.06-.09.12-.13.18-.05.06-.1.13-.15.2-.04.06-.08.12-.11.19-.04.07-.09.14-.13.21-.03.06-.06.13-.1.2-.04.07-.08.15-.11.22-.03.07-.05.15-.08.22-.03.07-.06.15-.08.22-.02.08-.04.15-.06.23-.02.08-.04.15-.06.23-.02.08-.02.16-.04.24-.01.08-.03.16-.04.25,0,.08,0,.16-.01.24,0,.09-.01.17-.01.26l.02,4.56.06,16.44,5.74-7.15-.04-8.49Z" style="fill: #2d52ea; stroke-width: 0px;"/>
          <polygon points="41 5.03 45.04 0 40.75 0 36.71 5.03 41 5.03" style="fill: #2d52ea; stroke-width: 0px;"/>
          <polygon points="5.91 43.38 .15 50.55 .17 55.87 5.94 48.7 5.91 43.38" style="fill: #2d52ea; stroke-width: 0px;"/>
          <path d="M43.9,85.56l-17.35-8.19-17.45-8.24c-1.88-.82-3.09-2.67-3.1-4.72l-.05-11.16L.19,60.44l.03,7.61c0,1.92,1.14,3.65,2.9,4.42l25.96,11.36,7.56,3.31c.59.26,1.21.39,1.84.4.63-.01,1.26-.14,1.84-.4l3.58-1.57Z" style="fill: #2d52ea; stroke-width: 0px;"/>
          <path d="M76.94,5.03v-.18c0-.09,0-.17-.01-.26,0-.08,0-.16-.01-.24,0-.08-.02-.16-.04-.25-.01-.08-.02-.16-.04-.24-.02-.08-.04-.15-.06-.23-.02-.08-.04-.16-.06-.23-.02-.08-.05-.15-.08-.22-.03-.07-.05-.15-.08-.22-.03-.08-.07-.15-.11-.22-.03-.07-.06-.13-.1-.2-.04-.07-.09-.14-.13-.21-.04-.06-.07-.13-.11-.19-.05-.07-.1-.13-.15-.2-.04-.06-.09-.12-.13-.18-.05-.06-.11-.12-.16-.17-.05-.06-.1-.12-.15-.17-.06-.06-.12-.11-.18-.16-.06-.05-.11-.1-.17-.15-.06-.05-.13-.1-.19-.15-.06-.04-.12-.09-.18-.13-.07-.04-.14-.08-.21-.12-.06-.04-.13-.08-.19-.12-.07-.04-.15-.07-.22-.11-.07-.03-.13-.07-.2-.1-.07-.03-.14-.05-.22-.08-.08-.03-.15-.06-.23-.08-.07-.02-.15-.04-.22-.06-.08-.02-.16-.05-.24-.06-.1-.02-.2-.03-.3-.05-.06,0-.12-.02-.18-.03-.16-.02-.32-.02-.48-.02,0,0,0,0-.01,0h-23.38l-4.04,5.03h32.26Z" style="fill: #2d52ea; stroke-width: 0px;"/>
          <polygon points="5.91 43.38 5.94 48.7 41 5.03 36.71 5.03 5.91 43.38" style="fill: #e9effd; stroke-width: 0px;"/>
          <path d="M44.68,5.03L5.95,53.25l.05,11.16c0,2.05,1.22,3.9,3.1,4.72l17.45,8.24,17.35,8.19,3.97-1.74,25.96-11.36c1.76-.77,2.9-2.5,2.9-4.42l.2-58.63v-4.39s-32.25,0-32.25,0Z" style="fill: #e9effd; stroke-width: 0px;"/>
          <path d="M10.94,5.03c-2.86,0-5.18,2.33-5.17,5.19l.04,8.49,10.98-13.68h-5.85Z" style="fill: #e9effd; stroke-width: 0px;"/>
          <polygon points="5.83 24.32 5.81 18.71 .07 25.86 .15 50.55 5.91 43.38 5.83 24.32" style="fill: #2d52ea; stroke-width: 0px;"/>
          <polygon points="5.83 24.32 5.81 18.71 .07 25.86 .15 50.55 5.91 43.38 5.83 24.32" style="fill: #fff; mix-blend-mode: soft-light; stroke-width: 0px;"/>
          <polygon points="36.71 5.03 40.75 0 20.84 0 16.79 5.03 36.71 5.03" style="fill: #2d52ea; stroke-width: 0px;"/>
          <polygon points="36.71 5.03 40.75 0 20.84 0 16.79 5.03 36.71 5.03" style="fill: #fff; mix-blend-mode: soft-light; stroke-width: 0px;"/>
          <polygon points="16.79 5.03 5.81 18.71 5.83 24.32 5.91 43.38 36.71 5.03 16.79 5.03" style="fill: #e9effd; stroke-width: 0px;"/>
          <polygon points="16.79 5.03 5.81 18.71 5.83 24.32 5.91 43.38 36.71 5.03 16.79 5.03" style="fill: #fff; mix-blend-mode: soft-light; stroke-width: 0px;"/>
          <polygon points="41 5.03 44.68 5.03 48.72 0 45.04 0 41 5.03" style="fill: #2d52ea; stroke-width: 0px;"/>
          <polygon points="41 5.03 44.68 5.03 48.72 0 45.04 0 41 5.03" style="fill: #fff; mix-blend-mode: soft-light; stroke-width: 0px;"/>
          <polygon points="5.94 48.7 .17 55.87 .19 60.44 5.95 53.25 5.94 48.7" style="fill: #2d52ea; stroke-width: 0px;"/>
          <polygon points="5.94 48.7 .17 55.87 .19 60.44 5.95 53.25 5.94 48.7" style="fill: #fff; mix-blend-mode: soft-light; stroke-width: 0px;"/>
          <polygon points="5.95 53.25 44.68 5.03 41 5.03 5.94 48.7 5.95 53.25" style="fill: #e9effd; stroke-width: 0px;"/>
          <polygon points="5.95 53.25 44.68 5.03 41 5.03 5.94 48.7 5.95 53.25" style="fill: #fff; mix-blend-mode: soft-light; stroke-width: 0px;"/>
        </g>
        <g>
          <g>
            <path d="M50.72,10.15l-37.79-.23c-1.24,0-2.24,1.03-2.17,2.27l2.53,52.26c.04.8.7,1.43,1.5,1.43h39.19c.8,0,1.46-.63,1.5-1.43l2.27-46.53-7.02-7.76Z" style="fill: #7d97f4; stroke-width: 0px;"/>
            <path d="M52.29,17.67c-1.23-.04-2.18-1.1-2.08-2.33l.41-5.13,7.13,7.66-5.46-.2Z" style="fill: url(#Dégradé_sans_nom_96); stroke-width: 0px;"/>
            <g>
              <g>
                <path d="M19.32,19.8c5.24.15,25.34.69,30.42.83.64.02,1.15.43,1.12.91h0c-.02.46-.52.81-1.13.79l-30.4-.72c-.59-.01-1.07-.36-1.13-.8v-.11c-.07-.5.45-.92,1.12-.9Z" style="fill: url(#linear-gradient); stroke-width: 0px;"/>
                <path d="M18.72,25.11h0c.08.12.24.19.42.2l20.86.73c.26,0,.48-.14.49-.34l.05-1.03c.01-.2-.21-.38-.48-.39l-20.29-.47c-.9-.02-1.48.69-1.05,1.3Z" style="fill: url(#linear-gradient-2); stroke-width: 0px;"/>
              </g>
              <g>
                <path d="M18.81,29.11c5.24.15,25.34.69,30.42.83.64.02,1.15.43,1.12.91h0c-.02.46-.52.81-1.13.79l-30.4-.72c-.59-.01-1.07-.36-1.13-.8v-.11c-.07-.5.45-.92,1.12-.9Z" style="fill: url(#linear-gradient-3); stroke-width: 0px;"/>
                <path d="M18.21,34.42h0c.08.12.24.19.42.2l20.86.73c.26,0,.48-.14.49-.34l.05-1.03c.01-.2-.21-.38-.48-.39l-20.29-.47c-.9-.02-1.48.69-1.05,1.3Z" style="fill: url(#linear-gradient-4); stroke-width: 0px;"/>
              </g>
              <path d="M20.71,51.33c.18-2.27.95-4.5,2.16-6.46.61-.98,1.32-1.89,2.14-2.71.21-.2.41-.4.63-.6.22-.19.44-.38.66-.56.23-.17.46-.35.7-.52l.36-.24.18-.12.09-.06s.08-.05.12-.07c.64-.35,1.55-.37,2.17.25.15.15.26.33.33.5.04.09.07.18.09.27.03.09.04.17.06.26.05.34.04.66,0,.97-.02.15-.04.31-.07.45l-.08.42c-.05.28-.12.56-.18.83-.12.55-.26,1.1-.41,1.65-.59,2.19-1.38,4.33-2.34,6.37l-.37.76c-.13.25-.26.51-.39.76l-.2.37-.1.19-.11.2c-.15.26-.32.51-.52.75-.2.24-.43.47-.71.66-.28.19-.63.35-1.02.37-.1,0-.19,0-.29-.01-.1,0-.19-.04-.28-.06-.19-.05-.36-.14-.51-.25-.31-.22-.53-.52-.67-.85-.13-.32-.19-.66-.19-.99,0-.33.05-.64.11-.94.07-.3.15-.57.25-.84l.14-.41.16-.4c.42-1.07.98-2.09,1.63-3.04.65-.95,1.41-1.82,2.26-2.59l.16-.15.16-.14.33-.28c.11-.09.23-.18.34-.26.11-.09.23-.18.34-.26.24-.16.47-.33.71-.48l.18-.11.09-.06s.03-.02.05-.03l.06-.03c.16-.09.34-.14.52-.16.36-.04.76.07,1.04.32.15.13.26.31.32.5.06.19.05.37.04.54-.02.17-.05.32-.09.46l-.11.41-.23.81c-.3,1.08-.61,2.15-.92,3.23h0s-.47-.08-.47-.08c.04-.36.13-.73.33-1.06.1-.16.23-.31.38-.44.16-.13.34-.22.53-.27.19-.05.4-.07.6-.04.1.02.2.05.3.09.05.02.09.05.14.08l.1.06c.23.13.52.15.76.05.06-.02.11-.06.17-.1.02-.02.05-.04.07-.06l.04-.03.04-.05.34-.37.69-.73.69-.73.34-.37c.08-.09.21-.17.34-.19.13-.03.27,0,.39.04.12.05.22.14.29.26.07.12.1.26.09.39,0,.03,0,.07-.02.1,0,.03-.02.07-.02.08l-.04.12-.08.23c-.1.31-.19.63-.26.95-.07.32-.13.64-.17.97,0,.04-.01.08-.01.12v.1s0,.07,0,.1c0,.03,0,.07.02.1.03.13.09.24.18.34.08.1.2.17.32.23.06.03.12.04.19.06.07,0,.13.02.19,0,.13-.01.26-.04.37-.12l.04-.02.04-.03.08-.06.18-.17c.47-.47.93-.95,1.36-1.46.86-1.01,1.63-2.1,2.29-3.25l.24-.43.12-.22.06-.11v-.03s.01,0,.01,0c0,0,0,0,0,0,0,.02,0,.02,0,.02,0,0,0,0,.01,0,0,0,.02,0,.02,0,0,0,0,0,0,0l-.02.02-.04.04s-.06.06-.08.09c-.06.06-.11.12-.16.18-.21.24-.4.51-.57.78-.08.14-.16.28-.24.42-.04.07-.07.14-.11.22l-.05.11-.02.06-.02.05c-.1.26-.1.55.02.79.12.24.33.45.58.55.13.06.26.07.4.07.13-.01.27-.03.39-.1l.09-.04.11-.06c.07-.04.14-.08.21-.13.14-.09.28-.17.42-.26,1.1-.73,2.08-1.63,2.9-2.66h0c.08-.1.23-.12.34-.04.1.08.12.23.04.34-.85,1.07-1.87,2.01-3.01,2.76-.14.09-.29.19-.43.27-.07.05-.15.09-.22.13l-.11.06-.13.06c-.18.09-.38.13-.58.14-.2,0-.4-.02-.59-.1-.37-.14-.68-.43-.85-.79-.17-.36-.17-.8-.04-1.16l.02-.07.03-.06.05-.12c.04-.08.07-.16.11-.24.08-.16.16-.31.26-.46.18-.3.39-.58.62-.84.06-.07.12-.13.18-.19.03-.03.06-.06.09-.09l.05-.05.02-.02s.03-.03.05-.04c.07-.05.16-.09.25-.09.09,0,.18.02.25.06.14.08.25.25.24.44,0,.04-.01.09-.03.13,0,.02-.02.04-.02.06l-.02.03-.06.11-.12.22-.25.44c-.68,1.17-1.47,2.29-2.34,3.32-.44.52-.9,1.01-1.39,1.49l-.18.18-.12.1-.06.05-.07.04c-.17.11-.38.17-.58.19-.1.01-.21,0-.31-.01-.1-.02-.2-.04-.29-.09-.19-.08-.36-.19-.49-.35-.13-.16-.24-.34-.28-.54-.02-.05-.02-.1-.03-.15,0-.05-.01-.1,0-.15v-.15s.02-.13.02-.13c.04-.34.1-.68.18-1.01.07-.33.16-.67.27-.99l.08-.24.04-.12s0-.03.01-.04c0,0,0-.02,0-.03,0-.03,0-.06-.02-.09-.02-.03-.05-.05-.08-.07-.07-.03-.12-.02-.18.04l-.34.37-.69.73-.69.73-.34.37-.04.05-.05.05s-.08.07-.12.1c-.08.06-.17.12-.27.15-.38.17-.83.13-1.18-.07l-.12-.07s-.05-.03-.08-.04c-.06-.03-.12-.04-.18-.05-.13-.02-.26,0-.39.03-.26.07-.48.25-.63.5-.15.25-.23.54-.26.85l-.47-.08h0c.27-1.09.54-2.18.81-3.26l.21-.81.1-.4c.03-.13.05-.25.06-.36,0-.11,0-.22-.02-.29-.03-.08-.07-.14-.13-.19-.14-.12-.33-.17-.52-.14-.1.01-.19.05-.27.09l-.03.02-.04.03-.09.06-.17.11c-.23.15-.45.31-.67.47-.11.08-.22.17-.32.25-.11.09-.21.17-.32.26l-.31.27-.15.14-.15.14c-.79.75-1.5,1.59-2.1,2.49-.6.91-1.11,1.87-1.49,2.89l-.14.38-.12.39c-.09.26-.16.52-.21.77-.11.5-.11.98.06,1.37.08.19.21.34.36.45.08.05.15.09.24.11.09.02.17.04.26.03.17,0,.35-.08.53-.2.18-.12.35-.3.51-.49.16-.19.3-.4.43-.63l.09-.17.1-.18.19-.37c.13-.25.25-.49.37-.74l.36-.75c.92-2.01,1.68-4.09,2.25-6.22.14-.53.27-1.07.39-1.61.06-.27.12-.54.17-.81l.08-.41c.02-.13.04-.25.06-.38.03-.25.03-.49,0-.7-.03-.21-.1-.38-.2-.47-.04-.05-.11-.09-.17-.12-.08-.03-.16-.06-.24-.06-.17-.02-.36.02-.52.11-.02.01-.04.02-.06.04l-.08.06-.17.11-.34.22c-.22.15-.43.32-.66.47-.21.16-.42.34-.63.51-.2.18-.4.36-.6.55-.78.75-1.48,1.58-2.09,2.49-1.22,1.8-2.05,3.87-2.42,6.04-.02.13-.15.22-.28.2-.12-.02-.21-.13-.2-.26Z" style="fill: url(#linear-gradient-5); stroke-width: 0px;"/>
              <path d="M45.76,44.01c-.08,0-.16-.04-.2-.11-.07-.11-.04-.26.08-.33l2.41-1.51c.11-.07.26-.04.33.08.07.11.04.26-.08.33l-2.41,1.51s-.08.04-.13.04Z" style="fill: url(#linear-gradient-6); stroke-width: 0px;"/>
            </g>
          </g>
          <g>
            <g>
              <g>
                <path d="M72.23,82.14c1.16.1,3.19.26,4.78.33.96.04,1.51-.05,1.83-.18,0,.04,0,.07,0,.1,0,.17-.14.3-.31.31-3.01.17-5.4.06-6.26,0-.18-.01-.28-.2-.19-.35.05-.08.1-.15.16-.22Z" style="fill: url(#linear-gradient-7); stroke-width: 0px;"/>
                <path d="M77.01,82.47c-1.59-.07-3.61-.23-4.78-.33,1.14-1.4,4.78-2.35,4.78-2.35h1.03c.71,1.02.81,1.99.8,2.51-.32.13-.87.22-1.83.18Z" style="fill: url(#linear-gradient-8); stroke-width: 0px;"/>
                <path d="M78.2,78.11l-.1,1.9c-.01.21-.16.38-.37.41-.21.03-.48.03-.77-.06-.18-.06-.31-.21-.35-.39l-.33-1.85h1.91Z" style="fill: url(#linear-gradient-9); stroke-width: 0px;"/>
              </g>
              <g>
                <g>
                  <path d="M91.53,82.46c.5-.07.73-.33.83-.61,0,0,0,0,0,0,.07.3-.1.6-.44.75-.42.18-.87.21-1.22.19-.38-.02-.73-.17-.92-.42h0c.38.18.91.21,1.76.09Z" style="fill: url(#linear-gradient-10); stroke-width: 0px;"/>
                  <path d="M89.15,78.1h.85c1.29-.03,2.1,2.69,2.36,3.75-.1.28-.32.54-.83.61-.84.12-1.38.1-1.76-.09-.7-.92-1.04-2.26-1.21-3.04-.19-.89.58-1.22.58-1.22Z" style="fill: url(#linear-gradient-11); stroke-width: 0px;"/>
                </g>
                <path d="M89.89,76.34l.47,1.87c.06.23-.05.47-.26.57-.26.13-.63.28-.97.24-.16-.02-.29-.13-.35-.28l-.69-1.97,1.8-.43Z" style="fill: url(#linear-gradient-12); stroke-width: 0px;"/>
              </g>
              <path d="M90.45,76.88c-.58.52-2.49.59-2.49.59-6.85-16.44-9.65-18.78-9.65-18.78.99,6.21.16,19.94.16,19.94-1.13.5-2.59,0-2.59,0-.09-10.16-1.65-19.02-3.5-26.01,4.63-.1,7.09-1.69,7.9-2.32,3.86,6.22,10.17,26.58,10.17,26.58Z" style="fill: url(#linear-gradient-13); stroke-width: 0px;"/>
              <path d="M79.11,31.39c.88,4.37.56,12.2.36,15.76-.06,1,.64,2.39,1.21,3.34.09.15.03.34-.12.42-.95.49-4.16,2-7.88,2.18-.25.01-.47-.16-.53-.4-2.76-10.3-5.97-16.89-5.97-16.89,3.54-5.65,12.93-4.42,12.93-4.42Z" style="fill: url(#Dégradé_sans_nom_286); stroke-width: 0px;"/>
              <path d="M77.84,58.3s.08-.01.11-.03c.1-.06.14-.2.07-.3-.04-.06-.92-1.49-2.72-2.36-.11-.05-.24,0-.29.1-.05.11,0,.24.1.29,1.67.81,2.52,2.18,2.53,2.19.04.07.11.11.19.11Z" style="fill: url(#linear-gradient-14); stroke-width: 0px;"/>
              <g>
                <path d="M84.6,43.94c-.28,2.04-1.11,4.26-2.78,6.62l-.63-.52s.73-2.96.32-6.32c1.03-.2,2.24,0,3.09.22Z" style="fill: url(#linear-gradient-15); stroke-width: 0px;"/>
                <path d="M78.13,36.79l.98-5.39s6.54,5,5.5,12.55c-.86-.22-2.07-.42-3.09-.22-.3-2.42-1.19-5.05-3.38-6.93Z" style="fill: url(#Dégradé_sans_nom_286-2); stroke-width: 0px;"/>
              </g>
              <g>
                <path d="M66.07,35.86l3.78,4.65c.41,3.28-.95,5.09-2.66,6.08-.48-1.42-1.14-2.5-1.69-3.23,1.74-3.03.57-7.51.57-7.51Z" style="fill: url(#Dégradé_sans_nom_286-3); stroke-width: 0px;"/>
                <path d="M65.5,43.37c.55.72,1.21,1.8,1.69,3.23-4.44,3.15-6.66,1.2-6.66,1.2v-.62c0-.55.37-1.04.9-1.18,1.78-.47,3.43-1.52,4.07-2.62Z" style="fill: url(#linear-gradient-16); stroke-width: 0px;"/>
              </g>
              <path d="M68.5,29.11l1.22,4.48c.14.5.68.77,1.17.58.52-.21,1.19-.49,1.76-.8.61-.33.8-1.11.41-1.69l-2.53-3.78-2.02,1.21Z" style="fill: url(#linear-gradient-17); stroke-width: 0px;"/>
            </g>
            <g>
              <path d="M65.83,25.7c-.01.08,1.02,5.11,1.02,5.11l2.86-.65-.26-4.92s-3.43-.84-3.61.45Z" style="fill: url(#linear-gradient-18); stroke-width: 0px;"/>
              <path d="M68.8,26.34l.34,2.58s0,.07,0,.1c-.03.2-.18.89-.87.69-.63-.18-1.21-.33-1.61-.21-.18.05-.29.24-.25.42.09.46.32,1.48.66,2.35.07.17.26.27.44.21.54-.16,1.68-.52,2.52-1.03.11-.07.18-.19.18-.33-.03-.65-.1-2.63-.04-3.18.06-.52.7-.83.98-.94.09-.04.16-.11.2-.2.13-.32.31-1.07-.63-1.37-.2-.06-.3-.28-.23-.47.14-.39.2-.98-.53-1.3-.74-.33-1.29.06-1.59.38-.12.13-.31.15-.46.05-.09-.05-.19-.07-.33.01-.18.11-.41.04-.51-.15-.18-.36-.54-.75-1.26-.63-1.28.22-1.43,1.64-1.09,2.47.34.83,1.72.52,2.41.1.53-.32,1.21.02,1.5.19.09.06.16.15.17.26Z" style="fill: url(#linear-gradient-19); stroke-width: 0px;"/>
              <path d="M70.29,28.88s-.53-1.48.01-1.84c.54-.36,1.34-.17,1.17.9-.22,1.33-1.18.94-1.18.94Z" style="fill: url(#linear-gradient-20); stroke-width: 0px;"/>
            </g>
            <g>
              <g>
                <path d="M91.51,37.95l-48.15,15.8,2.3,7.09,48.42-15.42c1.03-.33,1.67-1.35,1.53-2.42-.15-1.1-.64-2.61-1.99-4.4-.49-.65-1.34-.92-2.12-.66Z" style="fill: url(#linear-gradient-21); stroke-width: 0px;"/>
                <g>
                  <path d="M30.57,61.36l5.71-3.4c.55.72,1.03,1.83,1.06,3.51l-6.58.5c-.35.03-.5-.44-.19-.62Z" style="fill: url(#linear-gradient-22); stroke-width: 0px;"/>
                  <path d="M43.36,53.75c2.93,3.29,2.3,7.09,2.3,7.09l-8.31.63c-.03-1.68-.51-2.79-1.06-3.51l7.08-4.21Z" style="fill: url(#linear-gradient-23); stroke-width: 0px;"/>
                </g>
              </g>
              <path d="M92.35,40.01s.07-.1.05-.15c-.02-.07-.1-.11-.18-.09l-46,15.2c-.07.02-.11.1-.09.18.02.07.1.11.18.09l46-15.2s.03-.01.04-.02Z" style="fill: #91b3fa; stroke-width: 0px;"/>
              <path d="M93.42,42.67s.07-.1.05-.15c-.02-.07-.1-.11-.18-.09l-46,15.2c-.07.02-.11.1-.09.18.02.07.1.11.18.09l46-15.2s.03-.01.04-.02Z" style="fill: #91b3fa; stroke-width: 0px;"/>
            </g>
            <path d="M81.45,49.95l-2.95-.24-1.28,1.18s.3.42,1.25.18c.95-.24,2.24-.3,2.24-.3,0,0,1.31.59,1.32-.51l-.58-.3Z" style="fill: url(#linear-gradient-24); stroke-width: 0px;"/>
            <path d="M62.49,49.03c-.26.2-1.13-.22-1.67-.5-.26-.14-.39-.45-.3-.73.13-.41.34-.93.61-1,.44-.11,2.41,1.41,1.36,2.23Z" style="fill: url(#linear-gradient-25); stroke-width: 0px;"/>
          </g>
        </g>
        <g>
          <path d="M49.11,22.61c-.02-.32-.35-.46-.6-.26-.7.55-.98,1.4-1.33,2.2-.4.93-.79,1.86-1.13,2.82-.36,1-.67,2.02-.9,3.06-.46-1.24-1-2.45-1.68-3.59-.18-.3-.69-.13-.59.23.59,2.1,1.32,4.16,1.87,6.27.2.74,1.21.57,1.29-.15.21-1.95.68-3.82,1.35-5.67.32-.88.67-1.74,1.04-2.6.33-.76.72-1.47.68-2.31Z" style="fill: url(#Dégradé_sans_nom_46); stroke-width: 0px;"/>
          <path d="M50.07,24.17c-.61-.11-.83.66-.27.91,3.68,1.62,4.17,6.19,1.5,8.96-1.23,1.28-2.86,2.27-4.41,3.13-1.57.87-3.32,1.53-5.14,1.34-4.22-.42-4.79-4.72-3.53-8.03,1.21-3.19,3.81-5.65,6.99-6.83.41-.15.25-.82-.17-.67-2.99,1.07-5.53,3.18-7.1,5.95-1.45,2.54-2.32,6.13-.42,8.68,1.96,2.64,5.68,2.69,8.49,1.59,3.09-1.21,6.93-3.46,8.16-6.72,1.29-3.42-.3-7.59-4.1-8.3Z" style="fill: url(#Dégradé_sans_nom_46-2); stroke-width: 0px;"/>
        </g>
      </g>
    </g>
  </g>
</svg>