<svg width="65" height="60" viewBox="0 0 65 60" fill="none" xmlns="http://www.w3.org/2000/svg">
<g clip-path="url(#clip0_3759_9402)">
<path d="M27.5894 59.7256C27.1856 59.9038 26.7613 59.9929 26.3301 59.9998C26.8092 60.0066 27.2951 59.9175 27.74 59.7187L30.0944 58.6768L30.0465 58.6562L27.5963 59.7325L27.5894 59.7256Z" fill="#2D52EA"/>
<path d="M52.6592 3.31785C52.6592 3.26302 52.6592 3.20818 52.6523 3.14648C52.6523 3.20818 52.6592 3.26302 52.6592 3.32471V3.311V3.31785Z" fill="#2D52EA"/>
<path d="M30.0948 58.6772L32.7504 57.4913L32.764 57.4639L30.0469 58.6497L30.0948 58.6772Z" fill="#E9EFFD"/>
<path d="M52.6523 6.45701L52.6592 6.42959V3.44775L52.6523 6.45701Z" fill="#E9EFFD"/>
<path d="M0.00684427 3.15332C0.00684427 3.20816 0 3.263 0 3.32469V6.43677L0.0136885 6.46419L0 3.33155C0 3.26985 0 3.21501 0.00684427 3.15332Z" fill="#2D52EA"/>
<path d="M19.8965 57.4639L19.9102 57.4981L24.9202 59.7259C25.3719 59.9247 25.851 60.0207 26.3301 60.007C25.8989 60.0001 25.4677 59.911 25.0708 59.7328L19.8965 57.4639Z" fill="#2D52EA"/>
<path d="M3.95011 7.0056C3.95011 5.04513 5.53114 3.44796 7.4886 3.44796H11.4925L14.2644 0H3.31359C3.31359 0 3.31359 0 3.30675 0C3.19724 0 3.08773 0 2.97822 0.0137096C2.93716 0.0137096 2.89609 0.0274192 2.85503 0.034274C2.78658 0.0411288 2.71814 0.0548384 2.6497 0.068548C2.59495 0.0822576 2.54019 0.0959672 2.48544 0.109677C2.43753 0.123386 2.38277 0.130241 2.33486 0.150806C2.28011 0.164515 2.2322 0.191934 2.17745 0.205644C2.12954 0.226208 2.07478 0.239918 2.02687 0.260482C1.97896 0.281047 1.93105 0.308466 1.88999 0.32903C1.84208 0.356449 1.78732 0.377014 1.73941 0.404433C1.6915 0.431852 1.65044 0.459271 1.60937 0.486691C1.56146 0.51411 1.51355 0.541529 1.46564 0.568948C1.42458 0.596367 1.38351 0.630641 1.34244 0.65806C1.30138 0.692334 1.25347 0.719754 1.2124 0.760882C1.17134 0.795156 1.13712 0.82943 1.1029 0.863704C1.06183 0.897978 1.02076 0.939107 0.979698 0.973381C0.945477 1.00766 0.911256 1.04878 0.877034 1.08991C0.842813 1.13104 0.801747 1.17217 0.767526 1.2133C0.733305 1.25443 0.705928 1.29556 0.678551 1.33669C0.644329 1.37781 0.610108 1.4258 0.575887 1.47378C0.54851 1.51491 0.521133 1.55604 0.5006 1.60402C0.473223 1.65201 0.439001 1.69999 0.411624 1.74797C0.391091 1.7891 0.370559 1.83709 0.343182 1.88507C0.315805 1.93305 0.288427 1.98789 0.267895 2.03587C0.247362 2.08386 0.233673 2.1387 0.213141 2.18668C0.192608 2.23466 0.172075 2.2895 0.158386 2.33749C0.144698 2.39232 0.131009 2.44031 0.117321 2.49515C0.103632 2.54998 0.0899437 2.59797 0.0762552 2.65281C0.0625666 2.70764 0.0625666 2.76248 0.0488781 2.81732C0.0420338 2.87216 0.0283453 2.927 0.021501 2.98869C0.021501 3.04353 0.021501 3.09837 0.0146568 3.15321C0.0146568 3.2149 0.0078125 3.26974 0.0078125 3.33143L0.021501 6.45722L0.0625666 17.7265L3.99118 12.8253L3.9638 7.0056H3.95011Z" fill="#2D52EA"/>
<path d="M28.0612 3.44796L30.8263 0H27.8901L25.125 3.44796H28.0612Z" fill="#2D52EA"/>
<path d="M4.04581 29.7363L0.103516 34.6512L0.117204 38.298L4.06635 33.3831L4.04581 29.7363Z" fill="#2D52EA"/>
<path d="M30.0472 58.6498L18.1723 53.0357L6.2291 47.3874C4.94238 46.8253 4.11422 45.5571 4.10738 44.1519L4.07316 36.502L0.130859 41.4305L0.151392 46.647C0.151392 47.9632 0.931638 49.149 2.13623 49.6769L19.9039 57.4639L25.0782 59.7328C25.482 59.9111 25.9064 60.0002 26.3376 60.007C26.7687 60.0002 27.1999 59.9111 27.5969 59.7328L30.0472 58.6566V58.6498Z" fill="#2D52EA"/>
<path d="M52.6597 3.44796V3.32457C52.6597 3.26288 52.6597 3.20804 52.6528 3.14635C52.6528 3.09151 52.6528 3.03667 52.646 2.98184C52.646 2.927 52.6323 2.87216 52.6186 2.81047C52.6118 2.75563 52.6049 2.70079 52.5912 2.64595C52.5775 2.59111 52.5639 2.54313 52.5502 2.48829C52.5365 2.43345 52.5228 2.37861 52.5091 2.33063C52.4954 2.27579 52.4749 2.22781 52.4544 2.17982C52.4338 2.13184 52.4201 2.077 52.3996 2.02902C52.3791 1.97418 52.3517 1.9262 52.3243 1.87821C52.3038 1.83023 52.2832 1.7891 52.2559 1.74112C52.2285 1.69313 52.1943 1.64515 52.1669 1.59717C52.1395 1.55604 52.119 1.50805 52.0916 1.46693C52.0574 1.41894 52.0232 1.37781 51.9889 1.32983C51.9616 1.2887 51.9273 1.24757 51.9 1.20644C51.8657 1.16531 51.8247 1.12419 51.7905 1.08991C51.7562 1.04878 51.722 1.00765 51.6878 0.973381C51.6467 0.932252 51.6057 0.897978 51.5646 0.863704C51.5235 0.82943 51.4893 0.795156 51.4482 0.760882C51.4072 0.726608 51.3593 0.692334 51.3182 0.65806C51.2771 0.630641 51.2361 0.596367 51.195 0.568948C51.1471 0.541529 51.0992 0.514109 51.0513 0.48669C51.0102 0.459271 50.9623 0.431852 50.9212 0.404433C50.8733 0.377014 50.8186 0.356449 50.7707 0.32903C50.7228 0.308466 50.6817 0.281047 50.6338 0.260482C50.5859 0.239918 50.538 0.226208 50.4832 0.205644C50.4285 0.185079 50.3805 0.164515 50.3258 0.150805C50.2779 0.137096 50.2231 0.123386 50.1752 0.109677C50.1205 0.0959671 50.0657 0.0754027 50.011 0.0685479C49.9425 0.0548383 49.8741 0.0479836 49.8056 0.034274C49.7646 0.034274 49.7235 0.0205644 49.6824 0.0137096C49.5729 0 49.4634 0 49.3539 0C49.3539 0 49.3539 0 49.3471 0H33.3452L30.5801 3.44796H52.6597Z" fill="#2D52EA"/>
<path d="M4.04492 29.7359L4.06545 33.3826L28.0615 3.44775H25.1253L4.04492 29.7359Z" fill="#E9EFFD"/>
<path d="M30.5801 3.44777L4.07227 36.5016L4.10649 44.1515C4.10649 45.5568 4.94149 46.8249 6.22821 47.387L18.1715 53.0353L30.0463 58.6494L32.7634 57.4567L50.5312 49.6696C51.7357 49.1418 52.516 47.9559 52.516 46.6398L52.6529 6.45017V3.44092H30.5801V3.44777Z" fill="#E9EFFD"/>
<path d="M7.48773 3.44775C5.53027 3.44775 3.9424 5.04492 3.94924 7.00539L3.97662 12.8251L11.4916 3.44775H7.48773Z" fill="#E9EFFD"/>
<path d="M3.99113 16.6707L3.97744 12.8252L0.0488281 17.7264L0.103582 34.6508L4.04588 29.736L3.99113 16.6707Z" fill="#2D52EA"/>
<g style="mix-blend-mode:soft-light">
<path d="M3.99113 16.6707L3.97744 12.8252L0.0488281 17.7264L0.103582 34.6508L4.04588 29.736L3.99113 16.6707Z" fill="white"/>
</g>
<path d="M25.126 3.44796L27.891 0H14.2641L11.4922 3.44796H25.126Z" fill="#2D52EA"/>
<g style="mix-blend-mode:soft-light">
<path d="M25.126 3.44796L27.891 0H14.2641L11.4922 3.44796H25.126Z" fill="white"/>
</g>
<path d="M11.4916 3.44775L3.97656 12.8251L3.99025 16.6706L4.04501 29.7359L25.1253 3.44775H11.4916Z" fill="#E9EFFD"/>
<g style="mix-blend-mode:soft-light">
<path d="M11.4916 3.44775L3.97656 12.8251L3.99025 16.6706L4.04501 29.7359L25.1253 3.44775H11.4916Z" fill="white"/>
</g>
<path d="M28.0605 3.44796H30.5792L33.3443 0H30.8256L28.0605 3.44796Z" fill="#2D52EA"/>
<g style="mix-blend-mode:soft-light">
<path d="M28.0605 3.44796H30.5792L33.3443 0H30.8256L28.0605 3.44796Z" fill="white"/>
</g>
<path d="M4.06633 33.3828L0.117188 38.2977L0.130876 41.4303L4.07317 36.5017L4.06633 33.3828Z" fill="#2D52EA"/>
<g style="mix-blend-mode:soft-light">
<path d="M4.06633 33.3828L0.117188 38.2977L0.130876 41.4303L4.07317 36.5017L4.06633 33.3828Z" fill="white"/>
</g>
<path d="M4.07325 36.5016L30.5811 3.44775H28.0624L4.06641 33.3826L4.07325 36.5016Z" fill="#E9EFFD"/>
<g style="mix-blend-mode:soft-light">
<path d="M4.07325 36.5016L30.5811 3.44775H28.0624L4.06641 33.3826L4.07325 36.5016Z" fill="white"/>
</g>
<path d="M10.6293 23.0113C10.5403 23.0113 10.4582 22.9771 10.3966 22.9154C10.335 22.8537 10.3008 22.7783 10.3008 22.696V21.8117C10.3008 21.7569 10.3145 21.6609 10.3487 21.5444C10.3829 21.421 10.4719 21.3113 10.6088 21.2017L11.9092 19.9267C12.5731 19.4194 13.1206 18.9876 13.5518 18.6311C13.983 18.2747 14.2978 17.9662 14.5032 17.6852C14.7085 17.411 14.818 17.1505 14.818 16.9106C14.818 16.6295 14.7427 16.3896 14.599 16.2045C14.4553 16.0194 14.202 15.9235 13.8461 15.9235C13.6066 15.9235 13.4081 15.9783 13.2507 16.0811C13.0932 16.184 12.97 16.321 12.8811 16.4856C12.7921 16.6501 12.7305 16.8214 12.7031 16.9997C12.6689 17.1094 12.6141 17.1848 12.532 17.2259C12.4499 17.267 12.3677 17.2876 12.2788 17.2876H10.7183C10.643 17.2876 10.5814 17.2602 10.5335 17.2122C10.4856 17.1642 10.4582 17.1025 10.4582 17.0271C10.465 16.6295 10.554 16.2525 10.7114 15.8961C10.8689 15.5396 11.1016 15.2311 11.3959 14.9638C11.6902 14.6965 12.0461 14.484 12.4567 14.3332C12.8674 14.1824 13.3328 14.1001 13.8461 14.1001C14.5511 14.1001 15.1534 14.2166 15.6462 14.4428C16.1389 14.669 16.5154 14.9912 16.7755 15.3888C17.0355 15.7864 17.1587 16.2662 17.1587 16.8077C17.1587 17.219 17.0698 17.596 16.8918 17.9525C16.7139 18.3089 16.4606 18.6448 16.1321 18.967C15.8036 19.2892 15.4134 19.6182 14.9686 19.9609L13.8187 21.1194H17.0219C17.1108 21.1194 17.193 21.1468 17.2546 21.2085C17.3162 21.2634 17.3504 21.3388 17.3504 21.4347V22.696C17.3504 22.7783 17.3162 22.8537 17.2546 22.9154C17.193 22.9771 17.1177 23.0113 17.0219 23.0113H10.6225H10.6293Z" fill="#282E45"/>
<path d="M22.1274 23.1414C21.532 23.1414 21.0118 23.0592 20.5738 22.8878C20.1357 22.7164 19.773 22.4834 19.4855 22.1818C19.1912 21.8802 18.9722 21.5306 18.8216 21.133C18.6711 20.7354 18.5821 20.3036 18.5615 19.8443C18.5547 19.6181 18.5479 19.3644 18.541 19.0765C18.541 18.7886 18.541 18.5007 18.541 18.1991C18.541 17.9044 18.5547 17.637 18.5615 17.404C18.5889 16.9447 18.6779 16.5197 18.8285 16.1221C18.979 15.7246 19.2049 15.3818 19.4992 15.0871C19.7935 14.7923 20.1631 14.5592 20.5943 14.3947C21.0255 14.2302 21.5388 14.1479 22.1206 14.1479C22.7023 14.1479 23.2225 14.2302 23.6605 14.3947C24.0986 14.5592 24.4613 14.7923 24.7488 15.0871C25.0362 15.3818 25.2621 15.7314 25.4195 16.1221C25.5769 16.5197 25.6659 16.9447 25.6933 17.404C25.7001 17.637 25.707 17.9044 25.7138 18.1991C25.7138 18.4939 25.7138 18.7886 25.7138 19.0765C25.7138 19.3644 25.7001 19.6181 25.6933 19.8443C25.6659 20.3036 25.5769 20.7286 25.4263 21.133C25.2758 21.5306 25.0499 21.8802 24.7625 22.1818C24.475 22.4834 24.1122 22.7164 23.6742 22.8878C23.2362 23.0592 22.716 23.1414 22.1069 23.1414H22.1274ZM22.1274 21.3249C22.5586 21.3249 22.8734 21.1878 23.0719 20.9068C23.2704 20.6257 23.3662 20.2487 23.3799 19.7757C23.3936 19.5358 23.4073 19.2822 23.4141 19.0149C23.4141 18.7475 23.4141 18.4802 23.4141 18.2128C23.4141 17.9455 23.4004 17.6987 23.3799 17.4725C23.3731 17.0133 23.2704 16.6431 23.0719 16.362C22.8734 16.081 22.5654 15.9302 22.1274 15.9233C21.7031 15.9302 21.3951 16.0741 21.1966 16.362C20.9981 16.6431 20.8954 17.0133 20.8818 17.4725C20.8818 17.6987 20.8818 17.9455 20.8818 18.2128C20.8818 18.4802 20.8818 18.7475 20.8818 19.0149C20.8818 19.2822 20.8818 19.5358 20.8818 19.7757C20.8954 20.2487 21.005 20.6257 21.2034 20.9068C21.4019 21.1878 21.7099 21.3249 22.1274 21.3249Z" fill="#282E45"/>
<path d="M27.4242 23.0112C27.3352 23.0112 27.2599 22.977 27.1984 22.9153C27.1368 22.8536 27.1094 22.7782 27.1094 22.6959V14.4496C27.1094 14.3605 27.1368 14.2851 27.1984 14.2234C27.2599 14.1617 27.3284 14.1343 27.4242 14.1343H28.8684C28.9505 14.1343 29.0258 14.1617 29.0874 14.2234C29.149 14.2782 29.1832 14.3536 29.1832 14.4496V18.631L30.9148 16.7185C30.9627 16.6637 31.0175 16.6089 31.079 16.5677C31.1406 16.5266 31.2228 16.506 31.3254 16.506H32.9954C33.0707 16.506 33.1323 16.5335 33.1871 16.5883C33.2418 16.6431 33.2692 16.7048 33.2692 16.7802C33.2692 16.8145 33.2692 16.8488 33.2487 16.8899C33.235 16.931 33.2076 16.9653 33.1665 16.9927L30.9216 19.4193L33.4814 22.5314C33.5498 22.5999 33.5841 22.6616 33.5841 22.7165C33.5841 22.7987 33.5567 22.8673 33.5019 22.9221C33.4472 22.977 33.3787 23.0044 33.2966 23.0044H31.5855C31.4623 23.0044 31.3665 22.9838 31.3118 22.9358C31.257 22.8878 31.2022 22.8399 31.1475 22.7919L29.1763 20.4201V22.6959C29.1763 22.7782 29.1421 22.8536 29.0805 22.9153C29.0189 22.977 28.9436 23.0112 28.8615 23.0112H27.4174H27.4242Z" fill="#282E45"/>
<path d="M64.911 18.6448L55.3906 6.69006C55.2401 6.49812 54.9526 6.48441 54.7815 6.66264L43.3311 18.4186C43.0847 18.6722 43.2626 19.1041 43.6185 19.1109L45.7608 19.1315V49.7519H62.5292C62.6866 49.7519 62.8167 49.6216 62.8167 49.464V19.2823L64.603 19.296C64.9452 19.296 65.1369 18.9053 64.9247 18.638L64.911 18.6448Z" fill="url(#paint0_linear_3759_9402)"/>
<path d="M38.3066 23.2446H53.7952C54.2264 23.2446 54.5754 23.5942 54.5754 24.0261V49.5122C54.5754 49.6699 54.4454 49.8001 54.288 49.8001H37.5195V24.0329C37.5195 23.6011 37.8686 23.2515 38.2998 23.2515L38.3066 23.2446Z" fill="url(#paint1_linear_3759_9402)"/>
<path d="M29.3213 31.4839H42.6197C43.0509 31.4839 43.3999 31.8335 43.3999 32.2653V49.793H28.541V32.2653C28.541 31.8335 28.8901 31.4839 29.3213 31.4839Z" fill="url(#paint2_linear_3759_9402)"/>
<path d="M20.3281 36.8652H31.5664C31.9976 36.8652 32.3466 37.2148 32.3466 37.6467V49.8002H19.8285C19.6711 49.8002 19.541 49.67 19.541 49.5123V37.6467C19.541 37.2148 19.8901 36.8652 20.3213 36.8652H20.3281Z" fill="url(#paint3_linear_3759_9402)"/>
</g>
<defs>
<linearGradient id="paint0_linear_3759_9402" x1="54.1039" y1="51.726" x2="54.1039" y2="7.85537" gradientUnits="userSpaceOnUse">
<stop stop-color="#FF8A00"/>
<stop offset="1" stop-color="#FFC700"/>
</linearGradient>
<linearGradient id="paint1_linear_3759_9402" x1="46.0475" y1="59.3351" x2="46.0475" y2="24.2249" gradientUnits="userSpaceOnUse">
<stop stop-color="#222C4F"/>
<stop offset="1" stop-color="#4B69DE"/>
</linearGradient>
<linearGradient id="paint2_linear_3759_9402" x1="35.9739" y1="51.7261" x2="35.9739" y2="7.85542" gradientUnits="userSpaceOnUse">
<stop stop-color="#FF8A00"/>
<stop offset="1" stop-color="#FFC700"/>
</linearGradient>
<linearGradient id="paint3_linear_3759_9402" x1="25.9472" y1="59.3352" x2="25.9472" y2="24.225" gradientUnits="userSpaceOnUse">
<stop stop-color="#222C4F"/>
<stop offset="1" stop-color="#4B69DE"/>
</linearGradient>
<clipPath id="clip0_3759_9402">
<rect width="65" height="60" fill="white"/>
</clipPath>
</defs>
</svg>
