<svg width="58" height="60" viewBox="0 0 58 60" fill="none" xmlns="http://www.w3.org/2000/svg">
<g clip-path="url(#clip0_3763_11372)">
<path d="M27.6324 59.7256C27.2279 59.9038 26.8029 59.9929 26.3711 59.9998C26.8509 60.0066 27.3376 59.9175 27.7832 59.7187L30.1412 58.6768L30.0932 58.6562L27.6392 59.7325L27.6324 59.7256Z" fill="#2D52EA"/>
<path d="M52.7412 3.31785C52.7412 3.26302 52.7412 3.20818 52.7344 3.14648C52.7344 3.20818 52.7412 3.26302 52.7412 3.32471V3.311V3.31785Z" fill="#2D52EA"/>
<path d="M30.1398 58.6772L32.7994 57.4913L32.8131 57.4639L30.0918 58.6497L30.1398 58.6772Z" fill="#E9EFFD"/>
<path d="M52.7344 6.45701L52.7412 6.42959V3.44775L52.7344 6.45701Z" fill="#E9EFFD"/>
<path d="M0.00685479 3.15332C0.00685479 3.20816 0 3.263 0 3.32469V6.43677L0.0137096 6.46419L0 3.33155C0 3.26985 0 3.21501 0.00685479 3.15332Z" fill="#2D52EA"/>
<path d="M19.9277 57.4639L19.9414 57.4981L24.9592 59.7259C25.4116 59.9247 25.8914 60.0207 26.3712 60.007C25.9394 60.0001 25.5075 59.911 25.11 59.7328L19.9277 57.4639Z" fill="#2D52EA"/>
<path d="M3.95617 7.0056C3.95617 5.04513 5.53963 3.44796 7.5001 3.44796H11.5102L14.2863 0H3.31868C3.31868 0 3.31868 0 3.31182 0C3.20215 0 3.09247 0 2.98279 0.0137096C2.94166 0.0137096 2.90053 0.0274192 2.85941 0.034274C2.79086 0.0411288 2.72231 0.0548383 2.65376 0.0685479C2.59892 0.0822575 2.54409 0.0959671 2.48925 0.109677C2.44126 0.123386 2.38643 0.130241 2.33844 0.150805C2.2836 0.164515 2.23562 0.191934 2.18078 0.205644C2.1328 0.226208 2.07796 0.239918 2.02998 0.260482C1.98199 0.281046 1.93401 0.308466 1.89288 0.32903C1.8449 0.356449 1.79006 0.377014 1.74208 0.404433C1.69409 0.431852 1.65296 0.459271 1.61183 0.48669C1.56385 0.514109 1.51587 0.541529 1.46788 0.568948C1.42675 0.596367 1.38563 0.630641 1.3445 0.65806C1.30337 0.692334 1.25538 0.719753 1.21426 0.760882C1.17313 0.795156 1.13885 0.82943 1.10458 0.863704C1.06345 0.897978 1.02232 0.939107 0.981193 0.97338C0.946919 1.00765 0.912645 1.04878 0.878371 1.08991C0.844097 1.13104 0.802969 1.17217 0.768695 1.2133C0.734421 1.25443 0.707001 1.29556 0.679582 1.33668C0.645308 1.37781 0.611034 1.4258 0.57676 1.47378C0.549341 1.51491 0.521922 1.55604 0.501358 1.60402C0.473938 1.652 0.439664 1.69999 0.412245 1.74797C0.391681 1.7891 0.371117 1.83708 0.343697 1.88507C0.316278 1.93305 0.288859 1.98789 0.268295 2.03587C0.24773 2.08386 0.234021 2.1387 0.213456 2.18668C0.192892 2.23466 0.172328 2.2895 0.158618 2.33748C0.144908 2.39232 0.131199 2.44031 0.117489 2.49514C0.10378 2.54998 0.09007 2.59797 0.0763604 2.6528C0.0626508 2.70764 0.0626508 2.76248 0.0489413 2.81732C0.0420865 2.87216 0.0283769 2.927 0.0215221 2.98869C0.0215221 3.04353 0.0215221 3.09837 0.0146673 3.1532C0.0146673 3.2149 0.0078125 3.26974 0.0078125 3.33143L0.0215221 6.45721L0.0626508 17.7265L3.9973 12.8253L3.96988 7.0056H3.95617Z" fill="#2D52EA"/>
<path d="M28.1048 3.44796L30.8741 0H27.9334L25.1641 3.44796H28.1048Z" fill="#2D52EA"/>
<path d="M4.05188 29.7363L0.103516 34.6512L0.117225 38.298L4.07244 33.3831L4.05188 29.7363Z" fill="#2D52EA"/>
<path d="M30.0932 58.6498L18.2001 53.0357L6.23848 47.3874C4.94978 46.8253 4.12035 45.5571 4.11349 44.1519L4.07922 36.502L0.130859 41.4305L0.151424 46.647C0.151424 47.9632 0.93287 49.149 2.13931 49.6769L19.9344 57.4639L25.1166 59.7328C25.521 59.9111 25.946 60.0002 26.3779 60.007C26.8097 60.0002 27.2416 59.9111 27.6391 59.7328L30.0932 58.6566V58.6498Z" fill="#2D52EA"/>
<path d="M52.7405 3.44796V3.32457C52.7405 3.26288 52.7405 3.20804 52.7337 3.14635C52.7337 3.09151 52.7337 3.03667 52.7268 2.98183C52.7268 2.927 52.7131 2.87216 52.6994 2.81047C52.6925 2.75563 52.6857 2.70079 52.672 2.64595C52.6583 2.59111 52.6445 2.54313 52.6308 2.48829C52.6171 2.43345 52.6034 2.37861 52.5897 2.33063C52.576 2.27579 52.5554 2.22781 52.5349 2.17982C52.5143 2.13184 52.5006 2.077 52.48 2.02902C52.4595 1.97418 52.432 1.9262 52.4046 1.87821C52.3841 1.83023 52.3635 1.7891 52.3361 1.74112C52.3087 1.69313 52.2744 1.64515 52.247 1.59717C52.2196 1.55604 52.199 1.50805 52.1716 1.46693C52.1373 1.41894 52.103 1.37781 52.0687 1.32983C52.0413 1.2887 52.0071 1.24757 51.9796 1.20644C51.9454 1.16531 51.9042 1.12419 51.87 1.08991C51.8357 1.04878 51.8014 1.00765 51.7671 0.973381C51.726 0.932252 51.6849 0.897978 51.6437 0.863704C51.6026 0.82943 51.5683 0.795156 51.5272 0.760882C51.4861 0.726608 51.4381 0.692334 51.397 0.65806C51.3558 0.630641 51.3147 0.596367 51.2736 0.568948C51.2256 0.541529 51.1776 0.514109 51.1296 0.48669C51.0885 0.459271 51.0405 0.431852 50.9994 0.404433C50.9514 0.377014 50.8966 0.356449 50.8486 0.32903C50.8006 0.308466 50.7595 0.281047 50.7115 0.260482C50.6635 0.239918 50.6155 0.226208 50.5607 0.205644C50.5059 0.185079 50.4579 0.164515 50.403 0.150805C50.355 0.137096 50.3002 0.123386 50.2522 0.109677C50.1974 0.0959671 50.1425 0.0754027 50.0877 0.0685479C50.0192 0.0548383 49.9506 0.0479835 49.8821 0.034274C49.8409 0.034274 49.7998 0.0205644 49.7587 0.0137096C49.649 0 49.5393 0 49.4296 0C49.4296 0 49.4296 0 49.4228 0H33.3963L30.627 3.44796H52.7405Z" fill="#2D52EA"/>
<path d="M4.05078 29.7359L4.07135 33.3826L28.1042 3.44775H25.1635L4.05078 29.7359Z" fill="#E9EFFD"/>
<path d="M30.6267 3.44777L4.07812 36.5016L4.1124 44.1515C4.1124 45.5568 4.94868 46.8249 6.23739 47.387L18.199 53.0353L30.0921 58.6494L32.8134 57.4567L50.6085 49.6696C51.8149 49.1418 52.5963 47.9559 52.5963 46.6398L52.7334 6.45017V3.44092H30.6267V3.44777Z" fill="#E9EFFD"/>
<path d="M7.49903 3.44775C5.53856 3.44775 3.94825 5.04492 3.9551 7.00539L3.98252 12.8251L11.5091 3.44775H7.49903Z" fill="#E9EFFD"/>
<path d="M3.99719 16.6707L3.98348 12.8252L0.0488281 17.7264L0.103666 34.6509L4.05203 29.736L3.99719 16.6707Z" fill="#2D52EA"/>
<g style="mix-blend-mode:soft-light">
<path d="M3.99719 16.6707L3.98348 12.8252L0.0488281 17.7264L0.103666 34.6509L4.05203 29.736L3.99719 16.6707Z" fill="white"/>
</g>
<path d="M25.1645 3.44796L27.9338 0H14.286L11.5098 3.44796H25.1645Z" fill="#2D52EA"/>
<g style="mix-blend-mode:soft-light">
<path d="M25.1645 3.44796L27.9338 0H14.286L11.5098 3.44796H25.1645Z" fill="white"/>
</g>
<path d="M11.509 3.44775L3.98242 12.8251L3.99613 16.6706L4.05097 29.7359L25.1637 3.44775H11.509Z" fill="#E9EFFD"/>
<g style="mix-blend-mode:soft-light">
<path d="M11.509 3.44775L3.98242 12.8251L3.99613 16.6706L4.05097 29.7359L25.1637 3.44775H11.509Z" fill="white"/>
</g>
<path d="M28.1055 3.44796H30.628L33.3974 0H30.8748L28.1055 3.44796Z" fill="#2D52EA"/>
<g style="mix-blend-mode:soft-light">
<path d="M28.1055 3.44796H30.628L33.3974 0H30.8748L28.1055 3.44796Z" fill="white"/>
</g>
<path d="M4.0724 33.3828L0.117188 38.2977L0.130897 41.4303L4.07926 36.5017L4.0724 33.3828Z" fill="#2D52EA"/>
<g style="mix-blend-mode:soft-light">
<path d="M4.0724 33.3828L0.117188 38.2977L0.130897 41.4303L4.07926 36.5017L4.0724 33.3828Z" fill="white"/>
</g>
<path d="M4.07912 36.5016L30.6277 3.44775H28.1052L4.07227 33.3826L4.07912 36.5016Z" fill="#E9EFFD"/>
<g style="mix-blend-mode:soft-light">
<path d="M4.07912 36.5016L30.6277 3.44775H28.1052L4.07227 33.3826L4.07912 36.5016Z" fill="white"/>
</g>
<path d="M11.3103 18.8985C11.1663 18.8985 11.0566 18.8643 10.9744 18.7889C10.8921 18.7135 10.8304 18.6243 10.7962 18.5284L8.24617 10.5357C8.23246 10.4946 8.21875 10.4534 8.21875 10.426C8.21875 10.3575 8.24617 10.3026 8.30101 10.2478C8.35585 10.1929 8.41754 10.1655 8.49294 10.1655H10.0421C10.1724 10.1655 10.282 10.1998 10.3574 10.2752C10.4328 10.3506 10.4808 10.4192 10.4945 10.4877L12.2699 16.2594L14.0316 10.4877C14.059 10.4192 14.107 10.3506 14.1756 10.2752C14.2441 10.1998 14.3469 10.1655 14.484 10.1655H16.0469C16.1155 10.1655 16.1772 10.1929 16.2251 10.2478C16.2731 10.3026 16.3074 10.3643 16.3074 10.426C16.3074 10.4603 16.3006 10.4946 16.28 10.5357L13.73 18.5284C13.7026 18.6312 13.6477 18.7135 13.5655 18.7889C13.4832 18.8643 13.3667 18.8985 13.2159 18.8985H11.3034H11.3103Z" fill="#282E45"/>
<path d="M16.28 18.8986C16.2115 18.8986 16.1498 18.8711 16.1018 18.8163C16.0538 18.7615 16.0195 18.6998 16.0195 18.6381C16.0195 18.5969 16.0195 18.5558 16.0332 18.5284L18.9671 10.5083C18.9945 10.4192 19.0425 10.3369 19.1248 10.2615C19.207 10.193 19.3167 10.1587 19.4538 10.1587H21.3046C21.4485 10.1587 21.5582 10.193 21.6336 10.2615C21.7159 10.3301 21.7638 10.4123 21.7913 10.5083L24.7114 18.5284C24.7114 18.5284 24.7388 18.5969 24.7388 18.6381C24.7388 18.7066 24.7114 18.7683 24.6566 18.8163C24.6017 18.8711 24.54 18.8986 24.4646 18.8986H22.9292C22.8058 18.8986 22.7098 18.8711 22.6481 18.8026C22.5864 18.7409 22.5453 18.6861 22.5316 18.6312L22.0449 17.3562H18.7135L18.2405 18.6312C18.2268 18.6792 18.1856 18.7409 18.1308 18.8026C18.076 18.8643 17.9731 18.8986 17.8292 18.8986H16.2937H16.28ZM19.2139 15.5671H21.5376L20.3792 12.27L19.2207 15.5671H19.2139Z" fill="#282E45"/>
<path d="M26.0341 18.8986C25.945 18.8986 25.8696 18.8712 25.8079 18.8026C25.753 18.7409 25.7188 18.6655 25.7188 18.5833V10.4672C25.7188 10.3781 25.7462 10.3027 25.8079 10.241C25.8696 10.1793 25.9381 10.1519 26.0341 10.1519H29.2832C30.099 10.1519 30.7913 10.2821 31.3671 10.5426C31.9429 10.8031 32.3816 11.1869 32.6901 11.6942C32.9985 12.2014 33.1631 12.8184 33.1905 13.5587C33.1973 13.9288 33.2042 14.2442 33.2042 14.5184C33.2042 14.7926 33.2042 15.1079 33.1905 15.4643C33.1562 16.2389 32.9917 16.8833 32.6969 17.3905C32.4022 17.8978 31.9703 18.2748 31.4082 18.5216C30.8461 18.7683 30.1538 18.8917 29.3381 18.8917H26.0272L26.0341 18.8986ZM27.9671 17.1026H29.2764C29.6328 17.1026 29.9344 17.0478 30.1675 16.9312C30.4006 16.8147 30.5857 16.6433 30.7022 16.4034C30.8256 16.1635 30.8873 15.8482 30.8941 15.4575C30.9078 15.2175 30.9215 14.9982 30.9284 14.8063C30.9284 14.6143 30.9284 14.4224 30.9284 14.2305C30.9284 14.0385 30.9147 13.826 30.8941 13.593C30.8804 13.024 30.7296 12.6127 30.4486 12.3522C30.1675 12.0918 29.7562 11.9615 29.2078 11.9615H27.9603V17.1095L27.9671 17.1026Z" fill="#282E45"/>
<path d="M25.5397 30.6205C24.1276 30.7028 24.0796 29.0645 24.1619 28.1459C24.1893 27.8923 23.922 27.7072 23.6889 27.8169L21.5845 28.8246C21.5845 28.8246 21.4885 31.2512 23.9083 32.108C24.5184 32.3274 25.0804 32.3342 25.574 32.2314C25.3615 31.6145 25.4026 31.0661 25.5329 30.6274L25.5397 30.6205Z" fill="url(#paint0_linear_3763_11372)"/>
<path d="M29.2478 29.7019C28.5349 29.2015 27.7192 29.7019 27.7192 29.7019C26.7595 30.3257 26.0535 30.593 25.5325 30.6273C25.4091 31.066 25.368 31.6144 25.5736 32.2313C26.643 31.9982 27.4107 31.2237 27.7466 30.8261C27.8631 30.6821 28.0756 30.6547 28.2264 30.7712C28.3772 30.8878 28.5212 31.0523 28.4938 31.2168C28.4389 31.5527 28.8297 31.6555 28.8571 31.539C28.8845 31.4156 28.7268 30.6958 28.7268 30.6958C28.7268 30.6958 29.5014 31.4773 29.803 31.7789C30.1047 32.0805 30.4885 31.7789 30.4885 31.7789C30.4885 31.7789 29.9607 30.1954 29.241 29.7019H29.2478Z" fill="url(#paint1_linear_3763_11372)"/>
<path d="M26.6504 32.5807L27.2262 32.5053L28.9673 32.3271C29.1798 32.3065 29.3855 32.3682 29.55 32.5053L30.8935 33.609L26.8697 33.088L26.6504 32.5807Z" fill="url(#paint2_linear_3763_11372)"/>
<path d="M28.818 52.1647C27.3922 52.1647 26.7615 52.0413 26.4805 51.9316C26.5353 52.1647 26.741 52.3498 27.0083 52.3498H32.0534C32.2248 52.3498 32.3276 52.1853 32.2865 52.0413C31.7107 52.0893 30.4905 52.1647 28.818 52.1647Z" fill="url(#paint3_linear_3763_11372)"/>
<path d="M32.2855 52.0415C32.2855 52.0415 32.2649 51.9798 32.2444 51.9523C31.8605 51.4588 31.0859 50.6911 30.0371 50.7048C28.5017 50.7253 27.9601 50.8899 26.7674 50.7116L26.4864 51.6439C26.4589 51.7398 26.4589 51.8358 26.4795 51.9249C26.7605 52.0346 27.3912 52.158 28.817 52.158C30.4896 52.158 31.7097 52.0826 32.2855 52.0346V52.0415Z" fill="url(#paint4_linear_3763_11372)"/>
<path d="M27.1162 49.7109L26.7734 50.89C26.7734 50.89 27.5412 51.2396 28.2129 50.9585L28.3432 49.9371L27.1162 49.7109Z" fill="url(#paint5_linear_3763_11372)"/>
<path d="M37.5708 51.4242C36.4604 52.3153 35.8914 52.6169 35.6035 52.7061C35.7954 52.85 36.0696 52.8637 36.2753 52.7061L40.2099 49.546C40.3402 49.4363 40.3265 49.2444 40.2031 49.1553C39.7849 49.5529 38.8801 50.3754 37.5777 51.4242H37.5708Z" fill="url(#paint6_linear_3763_11372)"/>
<path d="M40.1957 49.1554C40.1957 49.1554 40.1409 49.1212 40.1066 49.1143C39.5034 48.9772 38.4204 48.8607 37.6115 49.5325C36.4256 50.5127 36.1103 50.9788 35.0684 51.5889L35.4317 52.4937C35.4659 52.5828 35.5276 52.6582 35.5962 52.7131C35.8841 52.624 36.453 52.3224 37.5635 51.4312C38.8659 50.3824 39.7707 49.5599 40.1889 49.1623L40.1957 49.1554Z" fill="url(#paint7_linear_3763_11372)"/>
<path d="M19.7135 36.2959C19.7135 36.2959 28.2477 36.9951 30.0025 37.8177C31.7505 38.6402 28.5767 50.1974 28.5767 50.1974C28.5767 50.1974 28.0969 50.4236 27.0412 50.0946C27.0412 50.0946 28.1312 41.5672 27.3223 39.7233L18.082 38.2084L19.7272 36.2959H19.7135Z" fill="url(#paint8_linear_3763_11372)"/>
<path d="M34.2246 49.9579C34.3069 50.0333 35.0746 51.5825 35.0746 51.5825C35.0746 51.5825 35.9315 51.3974 36.1028 50.8559L35.3351 49.4575L34.2246 49.9579Z" fill="url(#paint9_linear_3763_11372)"/>
<path d="M14.5725 36.2277C14.5725 36.2277 14.2915 36.8995 14.3052 37.7837C14.3189 39.0107 15.3128 40.0115 16.5398 40.0732L26.6301 40.5325C26.8426 40.5393 27.0208 40.6902 27.0757 40.8958C27.3156 41.8143 28.474 44.6317 34.1361 50.2526C34.2869 50.4034 34.52 50.4308 34.6982 50.3143L35.507 49.807C35.5893 49.7522 35.6167 49.6425 35.5687 49.5534L29.6942 39.518C29.3857 39.0107 28.8922 38.6406 28.3095 38.4966L19.508 35.1104L14.5657 36.2277H14.5725Z" fill="url(#paint10_linear_3763_11372)"/>
<path d="M21.7566 19.4194C21.7566 19.4194 21.0162 21.4827 20.084 22.5863L22.5449 23.4569C22.5449 23.4569 22.7094 21.3731 23.765 20.5916L21.7566 19.4194Z" fill="url(#paint11_linear_3763_11372)"/>
<path d="M14.4352 36.6528C14.4352 36.6528 17.232 36.8447 19.686 35.7548C19.686 35.7548 20.2823 31.7859 21.3997 30.2504C21.3997 30.2504 20.961 36.1661 27.9597 33.2117C27.7678 33.1157 27.7678 33.054 27.7129 32.8689C27.6924 32.7867 27.7267 32.4097 27.6444 32.4097C26.7396 32.4714 22.8803 33.1568 24.1553 27.9952C24.6557 25.9593 23.3053 23.4847 22.0852 22.9501C21.3243 22.6142 20.8581 22.3743 20.6182 22.244C20.488 22.1686 20.3235 22.1892 20.2138 22.2851C19.1719 23.1968 14.3324 27.8924 14.4352 36.6459V36.6528Z" fill="url(#paint12_linear_3763_11372)"/>
<path d="M23.6139 16.8833C23.6139 16.8833 24.4708 18.7341 24.553 19.7075C24.6353 20.6809 24.8615 21.3184 23.7305 21.5446C22.5994 21.7708 21.6329 21.2292 21.0914 20.2696C21.0914 20.2696 20.2414 18.7821 20.4059 18.1651C20.5704 17.5414 23.6139 16.8833 23.6139 16.8833Z" fill="url(#paint13_linear_3763_11372)"/>
<path d="M21.4622 19.5567H21.6062C21.6062 19.5567 20.9824 18.3571 21.4965 18.1309C22.0106 17.9047 24.0533 17.4317 24.4783 16.6914C24.8896 15.9785 24.4783 15.0805 23.9094 14.8406C23.8751 14.8269 23.834 14.8406 23.8134 14.8817L23.7654 14.9708C23.738 15.0325 23.642 15.0257 23.6215 14.9571C23.6009 14.8954 23.5186 14.8817 23.4844 14.9366C23.3541 15.1559 22.9977 15.5192 22.0174 15.7317C20.6259 16.0265 19.7142 16.616 19.7142 17.5825C19.7142 17.6442 19.6525 17.6785 19.5977 17.6511C19.4949 17.5894 19.3235 17.5619 19.111 17.7539C18.734 18.0898 18.9122 18.9192 19.7759 19.591C19.8171 19.6252 19.8171 19.6869 19.7759 19.7143C19.6251 19.8172 19.4058 20.0571 20.0021 20.3587C20.6122 20.6672 20.9687 20.6192 21.1058 20.5849C21.14 20.5781 21.1674 20.5438 21.1606 20.5026L21.0852 19.6458C21.0852 19.6047 21.1126 19.5635 21.1606 19.5635H21.4691L21.4622 19.5567Z" fill="url(#paint14_linear_3763_11372)"/>
<path d="M21.5037 19.7348C21.5037 19.7348 21.1609 18.5489 20.64 18.8985C20.1121 19.2481 20.9484 20.2283 21.3803 20.2626L21.5037 19.7348Z" fill="url(#paint15_linear_3763_11372)"/>
<path d="M19.5914 42.5132H18.6797V52.3498H19.5914V42.5132Z" fill="#91B3FA"/>
<path d="M15.2042 51.5894H23.0667C23.0667 51.5894 23.1215 51.6099 23.1215 51.6442V52.5422H15.1562V51.6442C15.1562 51.6442 15.1768 51.5894 15.2111 51.5894H15.2042Z" fill="#91B3FA"/>
<path d="M23.3198 39.9497H15.2654C14.724 39.9497 14.2852 40.3886 14.2852 40.9299V41.8074C14.2852 42.3487 14.724 42.7876 15.2654 42.7876H23.3198C23.8611 42.7876 24.3 42.3487 24.3 41.8074V40.9299C24.3 40.3886 23.8611 39.9497 23.3198 39.9497Z" fill="#91B3FA"/>
<path d="M50.9722 42.8218H50.0605V52.6584H50.9722V42.8218Z" fill="#91B3FA"/>
<path d="M46.5851 51.8979H54.4475C54.4475 51.8979 54.5024 51.9185 54.5024 51.9528V52.8508H46.5371V51.9528C46.5371 51.9528 46.5577 51.8979 46.5919 51.8979H46.5851Z" fill="#91B3FA"/>
<path d="M54.6948 40.2583H46.6404C46.099 40.2583 45.6602 40.6972 45.6602 41.2385V42.1159C45.6602 42.6573 46.099 43.0962 46.6404 43.0962H54.6948C55.2361 43.0962 55.675 42.6573 55.675 42.1159V41.2385C55.675 40.6972 55.2361 40.2583 54.6948 40.2583Z" fill="#91B3FA"/>
<path d="M43.7955 35.9053C43.7955 35.9053 42.4451 36.1178 40.9233 37.1323C40.6834 37.2899 40.5532 37.571 40.5875 37.8589C40.7725 39.2984 41.5197 43.9665 43.9874 48.5249C44.1177 48.7649 44.1519 49.0459 44.0971 49.3132L43.6653 51.308L42.8701 52.0552H44.9197L46.2838 48.3673L45.7011 48.1822C45.2487 48.0383 44.9402 47.627 44.9334 47.1471L44.8648 43.1919C44.9265 41.4302 43.7818 40.2101 43.7818 40.2101L47.0515 40.0524L43.7955 35.9121V35.9053Z" fill="url(#paint16_linear_3763_11372)"/>
<path d="M42.0755 52.4048C41.8904 52.6516 44.0839 52.9737 45.1875 52.4391C45.1875 52.4391 46.723 49.7657 46.723 48.3879C46.723 48.3879 46.5996 48.1068 45.7017 48.1685C45.7017 48.1685 45.1875 51.3354 44.6392 51.685C44.0976 52.0415 43.1174 51.7193 43.1174 51.7193C43.1174 51.7193 42.3497 52.0346 42.0755 52.3979V52.4048Z" fill="url(#paint17_linear_3763_11372)"/>
<path d="M46.6411 40.2581L43.1177 39.84C43.1177 39.84 43.2342 40.9025 42.8709 42.3694C42.5145 43.8363 37.3665 50.1907 37.3665 50.1907L37.9081 51.8976C36.2424 52.4802 34.5972 52.5693 32.9863 52.1923L36.3315 50.1839C36.3315 50.1839 39.4573 39.5247 41.3766 37.6259L44.8863 36.4126L46.6342 40.2581H46.6411Z" fill="url(#paint18_linear_3763_11372)"/>
<path d="M54.4955 34.0547C54.4955 34.0547 56.5108 37.0571 56.6822 38.4281C56.8467 39.799 56.1269 40.3543 54.0088 40.4434C51.8907 40.5325 46.2355 40.5325 46.2355 40.5325L41.8895 36.8172C41.677 36.6321 41.7387 36.2894 42.0061 36.1934C43.048 35.8232 45.1661 35.0624 45.8448 34.795C46.7564 34.4386 54.4955 34.0479 54.4955 34.0479V34.0547Z" fill="url(#paint19_linear_3763_11372)"/>
<path d="M37.7089 51.3218C37.7089 51.3218 38.2916 51.8839 37.894 52.5077C37.894 52.5077 33.2944 53.3234 32.0469 52.9532C32.0469 52.9532 32.3074 52.3637 33.7126 51.6851L33.6098 51.7673C33.4795 51.8702 33.5549 52.0758 33.7194 52.0689C34.6448 52.0141 36.5642 51.8496 37.7089 51.3218Z" fill="url(#paint20_linear_3763_11372)"/>
<path d="M51.7401 28.05C53.0288 29.4415 54.338 31.635 54.338 31.635L56.5453 30.9495C54.578 25.4451 49.5671 22.196 49.5671 22.196C49.5671 22.196 47.024 22.1754 46.8937 22.6004C46.8115 22.8746 45.9067 24.6568 45.3925 26.3774C45.1115 27.3165 45.3034 28.3379 45.9067 29.1124C46.8663 30.3463 48.6897 32.1217 49.1695 32.5878L49.6082 33.8697C49.9304 34.8019 50.8627 35.3777 51.8429 35.2475L54.9755 34.8225C54.6397 33.9039 54.2901 33.0402 53.9268 32.2177L51.7195 28.0431L51.7401 28.05Z" fill="url(#paint21_linear_3763_11372)"/>
<path d="M46.25 20.0641C46.2774 20.1532 47.2782 22.5181 47.3331 22.5661C47.3879 22.6141 48.7931 22.6895 49.4512 22.2371L48.0322 18.4053L46.25 20.071V20.0641Z" fill="url(#paint22_linear_3763_11372)"/>
<path d="M46.2151 15.6565C46.2151 15.6565 44.9059 16.0267 43.8297 17.7404C42.7535 19.4541 43.2744 20.3726 44.049 20.592C44.8236 20.8113 46.0095 20.9416 47.4079 19.9271C48.8062 18.9126 47.9014 15.2384 46.2151 15.6565Z" fill="url(#paint23_linear_3763_11372)"/>
<path d="M46.5856 18.7686C46.5856 18.7686 47.7166 16.3283 45.4819 16.0884L44.9336 16.4243C44.9336 16.4243 44.6594 14.8477 46.0715 14.3062C47.4835 13.7646 49.8347 15.2864 50.2392 17.1509C50.6436 19.0223 48.5529 20.4892 48.1896 20.2356C48.0456 20.1327 47.5452 19.1182 47.5452 19.1182C47.5452 19.1182 47.6069 19.269 47.4356 18.8166C47.2642 18.3642 46.7295 18.844 46.7295 18.844L46.5993 18.7618L46.5856 18.7686Z" fill="url(#paint24_linear_3763_11372)"/>
<path d="M50.1238 19.0359C49.8359 18.7411 50.0209 18.2407 50.4322 18.179C51.7483 17.9734 53.7568 18.179 54.6068 20.9963C55.5596 24.1701 56.1834 25.7604 56.8209 26.0346C57.239 26.2197 57.2664 26.7955 56.8483 26.9806C56.5398 27.1177 56.1011 27.1657 55.4705 27.0286C50.6104 25.9661 51.8237 20.7564 50.1238 19.029V19.0359Z" fill="url(#paint25_linear_3763_11372)"/>
<path d="M45.125 32.4235L46.7153 30.8948L48.9088 31.8202C48.9088 31.8202 51.0955 32.1561 52.35 31.8202L53.6044 31.4843L56.4354 30.6069L56.881 31.8614C56.9906 32.1767 56.881 32.5331 56.6068 32.7319C56.36 32.9033 56.0721 33.0952 55.8939 33.1775C55.5237 33.342 46.7153 33.0678 46.7153 33.0678L45.1387 32.4372L45.125 32.4235Z" fill="url(#paint26_linear_3763_11372)"/>
<path d="M52.1914 34.103C52.2188 33.9796 52.1846 33.8493 52.0886 33.7465C51.9926 33.6506 51.8555 33.5889 51.7047 33.5889H18.6235C18.4247 33.5889 18.2465 33.678 18.1368 33.8151C18.0271 33.9522 18.0203 34.1373 18.1025 34.2881L18.6509 35.3094C18.7743 35.5425 19.0485 35.6933 19.3433 35.6933H51.3551C51.6293 35.6933 51.8692 35.5219 51.9241 35.2889L52.1914 34.0961V34.103Z" fill="#7D97F4"/>
<path d="M20.9202 53.3923C20.8516 53.3923 20.7762 53.3855 20.7077 53.3649C20.4335 53.2826 20.3101 53.0633 20.4266 52.8782L31.7233 34.6924C31.8399 34.5005 32.1552 34.4183 32.4294 34.5005C32.7036 34.5828 32.827 34.8021 32.7104 34.9872L21.4137 53.173C21.3246 53.3169 21.1258 53.3992 20.9202 53.3992V53.3923Z" fill="#7D97F4"/>
<path d="M33.6427 53.3923C33.437 53.3923 33.2382 53.3101 33.1491 53.1661L21.8524 34.9804C21.7359 34.7884 21.8593 34.5691 22.1335 34.4937C22.4077 34.4114 22.723 34.4937 22.8395 34.6856L34.1362 52.8714C34.2527 53.0633 34.1293 53.2827 33.8552 53.3581C33.7866 53.3786 33.7112 53.3855 33.6427 53.3855V53.3923Z" fill="#7D97F4"/>
<path d="M35.8564 53.5911C35.781 53.5911 35.7056 53.5842 35.6302 53.5636C35.3423 53.4814 35.2052 53.262 35.3286 53.0769L47.2834 34.8912C47.4068 34.6992 47.7426 34.617 48.0305 34.6992C48.3184 34.7815 48.4555 35.0009 48.3322 35.1859L36.3774 53.3717C36.2814 53.5156 36.0758 53.5979 35.8564 53.5979V53.5911Z" fill="#7D97F4"/>
<path d="M49.319 53.5911C49.0996 53.5911 48.8871 53.5088 48.798 53.3649L36.8433 35.1791C36.7199 34.9872 36.8501 34.7678 37.1449 34.6924C37.4328 34.6101 37.7687 34.6924 37.892 34.8843L49.8468 53.0701C49.9702 53.262 49.84 53.4814 49.5452 53.5568C49.4698 53.5774 49.3944 53.5842 49.319 53.5842V53.5911Z" fill="#7D97F4"/>
</g>
<defs>
<linearGradient id="paint0_linear_3763_11372" x1="25.2998" y1="28.1665" x2="32.8058" y2="17.8295" gradientUnits="userSpaceOnUse">
<stop stop-color="#FF8A00"/>
<stop offset="1" stop-color="#FFC700"/>
</linearGradient>
<linearGradient id="paint1_linear_3763_11372" x1="25.4365" y1="30.8535" x2="30.4954" y2="30.8535" gradientUnits="userSpaceOnUse">
<stop stop-color="#FEBBBA"/>
<stop offset="1" stop-color="#FF928E"/>
</linearGradient>
<linearGradient id="paint2_linear_3763_11372" x1="26.6346" y1="32.5402" x2="30.939" y2="33.0877" gradientUnits="userSpaceOnUse">
<stop stop-color="#FEBBBA"/>
<stop offset="1" stop-color="#FF928E"/>
</linearGradient>
<linearGradient id="paint3_linear_3763_11372" x1="26.4873" y1="52.1373" x2="32.3002" y2="52.1373" gradientUnits="userSpaceOnUse">
<stop stop-color="#09005D"/>
<stop offset="1" stop-color="#1A0F91"/>
</linearGradient>
<linearGradient id="paint4_linear_3763_11372" x1="30.9625" y1="40.9573" x2="29.3722" y2="51.9386" gradientUnits="userSpaceOnUse">
<stop stop-color="#09005D"/>
<stop offset="1" stop-color="#1A0F91"/>
</linearGradient>
<linearGradient id="paint5_linear_3763_11372" x1="26.7734" y1="50.3896" x2="28.3432" y2="50.3896" gradientUnits="userSpaceOnUse">
<stop stop-color="#FEBBBA"/>
<stop offset="1" stop-color="#FF928E"/>
</linearGradient>
<linearGradient id="paint6_linear_3763_11372" x1="35.6035" y1="50.9855" x2="40.2991" y2="50.9855" gradientUnits="userSpaceOnUse">
<stop stop-color="#09005D"/>
<stop offset="1" stop-color="#1A0F91"/>
</linearGradient>
<linearGradient id="paint7_linear_3763_11372" x1="38.8316" y1="42.095" x2="37.2482" y2="53.0764" gradientUnits="userSpaceOnUse">
<stop stop-color="#09005D"/>
<stop offset="1" stop-color="#1A0F91"/>
</linearGradient>
<linearGradient id="paint8_linear_3763_11372" x1="18.0752" y1="43.2878" x2="30.5303" y2="43.2878" gradientUnits="userSpaceOnUse">
<stop stop-color="#09005D"/>
<stop offset="1" stop-color="#1A0F91"/>
</linearGradient>
<linearGradient id="paint9_linear_3763_11372" x1="34.2246" y1="50.52" x2="36.1028" y2="50.52" gradientUnits="userSpaceOnUse">
<stop stop-color="#FEBBBA"/>
<stop offset="1" stop-color="#FF928E"/>
</linearGradient>
<linearGradient id="paint10_linear_3763_11372" x1="40.8949" y1="28.2213" x2="39.2635" y2="29.743" gradientUnits="userSpaceOnUse">
<stop stop-color="#09005D"/>
<stop offset="1" stop-color="#1A0F91"/>
</linearGradient>
<linearGradient id="paint11_linear_3763_11372" x1="21.6988" y1="23.3191" x2="22.2154" y2="20.8587" gradientUnits="userSpaceOnUse">
<stop stop-color="#FEBBBA"/>
<stop offset="1" stop-color="#FF928E"/>
</linearGradient>
<linearGradient id="paint12_linear_3763_11372" x1="12.2143" y1="37.7016" x2="25.3069" y2="26.7339" gradientUnits="userSpaceOnUse">
<stop stop-color="#FF8A00"/>
<stop offset="1" stop-color="#FFC700"/>
</linearGradient>
<linearGradient id="paint13_linear_3763_11372" x1="23.6062" y1="18.5823" x2="19.0495" y2="22.2556" gradientUnits="userSpaceOnUse">
<stop stop-color="#FEBBBA"/>
<stop offset="1" stop-color="#FF928E"/>
</linearGradient>
<linearGradient id="paint14_linear_3763_11372" x1="20.2675" y1="15.8549" x2="24.6182" y2="21.1694" gradientUnits="userSpaceOnUse">
<stop stop-color="#09005D"/>
<stop offset="1" stop-color="#1A0F91"/>
</linearGradient>
<linearGradient id="paint15_linear_3763_11372" x1="23.0126" y1="17.8428" x2="18.4491" y2="21.5163" gradientUnits="userSpaceOnUse">
<stop stop-color="#FEBBBA"/>
<stop offset="1" stop-color="#FF928E"/>
</linearGradient>
<linearGradient id="paint16_linear_3763_11372" x1="53.7829" y1="30.49" x2="41.5197" y2="46.3794" gradientUnits="userSpaceOnUse">
<stop stop-color="#FEBBBA"/>
<stop offset="1" stop-color="#FF928E"/>
</linearGradient>
<linearGradient id="paint17_linear_3763_11372" x1="44.5432" y1="48.1891" x2="43.5904" y2="62.7761" gradientUnits="userSpaceOnUse">
<stop stop-color="#09005D"/>
<stop offset="1" stop-color="#1A0F91"/>
</linearGradient>
<linearGradient id="paint18_linear_3763_11372" x1="40.6294" y1="47.0649" x2="49.6298" y2="61.7959" gradientUnits="userSpaceOnUse">
<stop stop-color="#FEBBBA"/>
<stop offset="1" stop-color="#FF928E"/>
</linearGradient>
<linearGradient id="paint19_linear_3763_11372" x1="46.3383" y1="48.4429" x2="48.7923" y2="39.4014" gradientUnits="userSpaceOnUse">
<stop stop-color="#09005D"/>
<stop offset="1" stop-color="#1A0F91"/>
</linearGradient>
<linearGradient id="paint20_linear_3763_11372" x1="35.3646" y1="47.5928" x2="34.4118" y2="62.1798" gradientUnits="userSpaceOnUse">
<stop stop-color="#09005D"/>
<stop offset="1" stop-color="#1A0F91"/>
</linearGradient>
<linearGradient id="paint21_linear_3763_11372" x1="48.203" y1="34.1918" x2="53.0905" y2="24.4238" gradientUnits="userSpaceOnUse">
<stop stop-color="#FF928E"/>
<stop offset="1" stop-color="#DB251E"/>
</linearGradient>
<linearGradient id="paint22_linear_3763_11372" x1="48.6697" y1="26.3911" x2="47.6347" y2="19.7557" gradientUnits="userSpaceOnUse">
<stop stop-color="#FEBBBA"/>
<stop offset="1" stop-color="#FF928E"/>
</linearGradient>
<linearGradient id="paint23_linear_3763_11372" x1="43.8536" y1="21.0515" x2="46.4398" y2="17.8209" gradientUnits="userSpaceOnUse">
<stop stop-color="#FEBBBA"/>
<stop offset="1" stop-color="#FF928E"/>
</linearGradient>
<linearGradient id="paint24_linear_3763_11372" x1="54.6116" y1="10.9456" x2="44.7974" y2="19.43" gradientUnits="userSpaceOnUse">
<stop stop-color="#09005D"/>
<stop offset="1" stop-color="#1A0F91"/>
</linearGradient>
<linearGradient id="paint25_linear_3763_11372" x1="59.4252" y1="16.4967" x2="49.6731" y2="26.6709" gradientUnits="userSpaceOnUse">
<stop stop-color="#09005D"/>
<stop offset="1" stop-color="#1A0F91"/>
</linearGradient>
<linearGradient id="paint26_linear_3763_11372" x1="52.4665" y1="31.9162" x2="64.2567" y2="31.9162" gradientUnits="userSpaceOnUse">
<stop stop-color="#FEBBBA"/>
<stop offset="1" stop-color="#FF928E"/>
</linearGradient>
<clipPath id="clip0_3763_11372">
<rect width="57.1416" height="60" fill="white"/>
</clipPath>
</defs>
</svg>
