<svg width="54" height="60" viewBox="0 0 54 60" fill="none" xmlns="http://www.w3.org/2000/svg">
<g clip-path="url(#clip0_3763_11268)">
<path d="M27.6324 59.7256C27.2279 59.9038 26.8029 59.9929 26.3711 59.9998C26.8509 60.0066 27.3376 59.9175 27.7832 59.7187L30.1412 58.6768L30.0932 58.6562L27.6392 59.7325L27.6324 59.7256Z" fill="#2D52EA"/>
<path d="M52.7412 3.31785C52.7412 3.26302 52.7412 3.20818 52.7344 3.14648C52.7344 3.20818 52.7412 3.26302 52.7412 3.32471V3.311V3.31785Z" fill="#2D52EA"/>
<path d="M30.1398 58.6772L32.7994 57.4913L32.8131 57.4639L30.0918 58.6497L30.1398 58.6772Z" fill="#E9EFFD"/>
<path d="M52.7344 6.45701L52.7412 6.42959V3.44775L52.7344 6.45701Z" fill="#E9EFFD"/>
<path d="M0.00685479 3.15332C0.00685479 3.20816 0 3.263 0 3.32469V6.43677L0.0137096 6.46419L0 3.33155C0 3.26985 0 3.21501 0.00685479 3.15332Z" fill="#2D52EA"/>
<path d="M19.9277 57.4639L19.9414 57.4981L24.9592 59.7259C25.4116 59.9247 25.8914 60.0207 26.3712 60.007C25.9394 60.0001 25.5075 59.911 25.11 59.7328L19.9277 57.4639Z" fill="#2D52EA"/>
<path d="M3.95422 7.0056C3.95422 5.04513 5.53768 3.44796 7.49815 3.44796H11.5082L14.2844 0H3.31672C3.31672 0 3.31672 0 3.30987 0C3.20019 0 3.09052 0 2.98084 0.0137096C2.93971 0.0137096 2.89858 0.0274192 2.85745 0.034274C2.7889 0.0411288 2.72036 0.0548383 2.65181 0.0685479C2.59697 0.0822575 2.54213 0.0959671 2.48729 0.109677C2.43931 0.123386 2.38447 0.130241 2.33649 0.150805C2.28165 0.164515 2.23367 0.191934 2.17883 0.205644C2.13085 0.226208 2.07601 0.239918 2.02802 0.260482C1.98004 0.281046 1.93206 0.308466 1.89093 0.32903C1.84294 0.356449 1.78811 0.377014 1.74012 0.404433C1.69214 0.431852 1.65101 0.459271 1.60988 0.48669C1.5619 0.514109 1.51391 0.541529 1.46593 0.568948C1.4248 0.596367 1.38367 0.630641 1.34254 0.65806C1.30142 0.692334 1.25343 0.719753 1.2123 0.760882C1.17117 0.795156 1.1369 0.82943 1.10263 0.863704C1.0615 0.897978 1.02037 0.939106 0.97924 0.97338C0.944966 1.00765 0.910692 1.04878 0.876418 1.08991C0.842144 1.13104 0.801015 1.17217 0.766741 1.2133C0.732467 1.25443 0.705048 1.29556 0.677629 1.33668C0.643355 1.37781 0.609081 1.4258 0.574807 1.47378C0.547388 1.51491 0.519969 1.55604 0.499404 1.60402C0.471985 1.652 0.437711 1.69999 0.410292 1.74797C0.389728 1.7891 0.369163 1.83708 0.341744 1.88507C0.314325 1.93305 0.286906 1.98789 0.266341 2.03587C0.245777 2.08386 0.232068 2.1387 0.211503 2.18668C0.190939 2.23466 0.170374 2.2895 0.156665 2.33748C0.142955 2.39232 0.129246 2.44031 0.115536 2.49514C0.101826 2.54998 0.0881169 2.59797 0.0744073 2.6528C0.0606977 2.70764 0.0606977 2.76248 0.0469881 2.81732C0.0401333 2.87216 0.0264238 2.927 0.019569 2.98869C0.019569 3.04353 0.019569 3.09837 0.0127142 3.1532C0.0127142 3.2149 0.00585938 3.26974 0.00585938 3.33143L0.019569 6.45721L0.0606977 17.7265L3.99535 12.8253L3.96793 7.0056H3.95422Z" fill="#2D52EA"/>
<path d="M28.1048 3.44796L30.8741 0H27.9334L25.1641 3.44796H28.1048Z" fill="#2D52EA"/>
<path d="M4.05188 29.7363L0.103516 34.6512L0.117225 38.298L4.07244 33.3831L4.05188 29.7363Z" fill="#2D52EA"/>
<path d="M30.0932 58.6498L18.2001 53.0357L6.23848 47.3874C4.94978 46.8253 4.12035 45.5571 4.11349 44.1519L4.07922 36.502L0.130859 41.4305L0.151424 46.647C0.151424 47.9632 0.93287 49.149 2.13931 49.6769L19.9344 57.4639L25.1166 59.7328C25.521 59.9111 25.946 60.0002 26.3779 60.007C26.8097 60.0002 27.2416 59.9111 27.6391 59.7328L30.0932 58.6566V58.6498Z" fill="#2D52EA"/>
<path d="M52.7405 3.44796V3.32457C52.7405 3.26288 52.7405 3.20804 52.7337 3.14635C52.7337 3.09151 52.7337 3.03667 52.7268 2.98183C52.7268 2.927 52.7131 2.87216 52.6994 2.81047C52.6925 2.75563 52.6857 2.70079 52.672 2.64595C52.6583 2.59111 52.6445 2.54313 52.6308 2.48829C52.6171 2.43345 52.6034 2.37861 52.5897 2.33063C52.576 2.27579 52.5554 2.22781 52.5349 2.17982C52.5143 2.13184 52.5006 2.077 52.48 2.02902C52.4595 1.97418 52.432 1.9262 52.4046 1.87821C52.3841 1.83023 52.3635 1.7891 52.3361 1.74112C52.3087 1.69313 52.2744 1.64515 52.247 1.59717C52.2195 1.55604 52.199 1.50805 52.1716 1.46693C52.1373 1.41894 52.103 1.37781 52.0687 1.32983C52.0413 1.2887 52.0071 1.24757 51.9796 1.20644C51.9454 1.16531 51.9042 1.12419 51.87 1.08991C51.8357 1.04878 51.8014 1.00765 51.7671 0.973381C51.726 0.932252 51.6849 0.897978 51.6437 0.863704C51.6026 0.82943 51.5683 0.795156 51.5272 0.760882C51.4861 0.726608 51.4381 0.692334 51.397 0.65806C51.3558 0.630641 51.3147 0.596367 51.2736 0.568948C51.2256 0.541529 51.1776 0.514109 51.1296 0.48669C51.0885 0.459271 51.0405 0.431852 50.9994 0.404433C50.9514 0.377014 50.8966 0.356449 50.8486 0.32903C50.8006 0.308466 50.7595 0.281047 50.7115 0.260482C50.6635 0.239918 50.6155 0.226208 50.5607 0.205644C50.5059 0.185079 50.4579 0.164515 50.403 0.150805C50.355 0.137096 50.3002 0.123386 50.2522 0.109677C50.1974 0.0959671 50.1425 0.0754027 50.0877 0.0685479C50.0192 0.0548383 49.9506 0.0479835 49.8821 0.034274C49.8409 0.034274 49.7998 0.0205644 49.7587 0.0137096C49.649 0 49.5393 0 49.4296 0C49.4296 0 49.4296 0 49.4228 0H33.3963L30.627 3.44796H52.7405Z" fill="#2D52EA"/>
<path d="M4.05078 29.7359L4.07135 33.3826L28.1042 3.44775H25.1635L4.05078 29.7359Z" fill="#E9EFFD"/>
<path d="M7.49903 3.44775C5.53856 3.44775 3.94825 5.04492 3.9551 7.00539L3.98252 12.8251L11.5091 3.44775H7.49903Z" fill="#E9EFFD"/>
<path d="M3.99719 16.6707L3.98348 12.8252L0.0488281 17.7264L0.103666 34.6509L4.05203 29.736L3.99719 16.6707Z" fill="#2D52EA"/>
<g style="mix-blend-mode:soft-light">
<path d="M3.99719 16.6707L3.98348 12.8252L0.0488281 17.7264L0.103666 34.6509L4.05203 29.736L3.99719 16.6707Z" fill="white"/>
</g>
<path d="M25.1645 3.44796L27.9338 0H14.286L11.5098 3.44796H25.1645Z" fill="#2D52EA"/>
<g style="mix-blend-mode:soft-light">
<path d="M25.1645 3.44796L27.9338 0H14.286L11.5098 3.44796H25.1645Z" fill="white"/>
</g>
<path d="M11.509 3.44775L3.98242 12.8251L3.99613 16.6706L4.05097 29.7359L25.1637 3.44775H11.509Z" fill="#E9EFFD"/>
<g style="mix-blend-mode:soft-light">
<path d="M11.509 3.44775L3.98242 12.8251L3.99613 16.6706L4.05097 29.7359L25.1637 3.44775H11.509Z" fill="white"/>
</g>
<path d="M28.1055 3.44796H30.628L33.3974 0H30.8748L28.1055 3.44796Z" fill="#2D52EA"/>
<g style="mix-blend-mode:soft-light">
<path d="M28.1055 3.44796H30.628L33.3974 0H30.8748L28.1055 3.44796Z" fill="white"/>
</g>
<path d="M4.0724 33.3828L0.117188 38.2977L0.130897 41.4303L4.07926 36.5017L4.0724 33.3828Z" fill="#2D52EA"/>
<g style="mix-blend-mode:soft-light">
<path d="M4.0724 33.3828L0.117188 38.2977L0.130897 41.4303L4.07926 36.5017L4.0724 33.3828Z" fill="white"/>
</g>
<path d="M4.07912 36.5016L30.6277 3.44775H28.1052L4.07227 33.3826L4.07912 36.5016Z" fill="#E9EFFD"/>
<g style="mix-blend-mode:soft-light">
<path d="M4.07912 36.5016L30.6277 3.44775H28.1052L4.07227 33.3826L4.07912 36.5016Z" fill="white"/>
</g>
<path d="M38.6891 53.6869C38.0447 53.591 37.5375 53.1043 37.4004 52.4736C37.4004 52.4736 37.8254 53.6595 37.8048 55.2841L40.8826 53.9406C40.0121 53.872 39.2512 53.776 38.6891 53.6938V53.6869Z" fill="#282E45"/>
<path d="M30.6267 3.44775L4.07812 36.5016L4.1124 44.1515C4.1124 45.5568 4.94868 46.8249 6.23738 47.387L18.199 53.0353L30.0921 58.6494L32.8134 57.4567L37.8037 55.2768C37.8243 53.6591 37.3993 52.4664 37.3993 52.4664C36.3094 47.4007 33.1973 36.2137 33.1973 36.2137C30.2566 35.8778 27.83 35.0552 25.8284 33.9516C27.3296 32.1762 28.0288 29.9278 28.3235 28.598C30.4554 29.2355 32.6078 29.5714 34.4654 29.5234C40.4771 29.3657 47.1262 30.9835 47.1262 30.9835C48.4355 38.2221 48.1819 46.2354 47.9077 50.4785C47.9008 50.6156 47.8871 50.7458 47.8802 50.8692L48.2093 50.7253L50.6085 49.6765C51.8149 49.1487 52.5963 47.9628 52.5963 46.6467L52.7334 6.45701V3.44775H30.6267Z" fill="#E9EFFD"/>
<path d="M47.1201 30.9836C47.1201 30.9836 40.471 29.3659 34.4593 29.5235C32.6085 29.5715 30.4493 29.2425 28.3174 28.5981C28.0158 29.928 27.3235 32.1763 25.8223 33.9517C27.8239 35.0554 30.2505 35.8779 33.1912 36.2138C33.1912 36.2138 36.3032 47.394 37.3932 52.4665L47.9015 50.4786C48.1826 46.2355 48.4362 38.2223 47.1201 30.9836Z" fill="#E9EFFD"/>
<path d="M38.6891 53.6866C39.2512 53.7688 40.0121 53.8648 40.8826 53.9333L47.8814 50.8692C47.8882 50.7459 47.9019 50.6156 47.9088 50.4785L37.4004 52.4664C37.5375 53.097 38.0516 53.5837 38.6891 53.6797V53.6866Z" fill="#282E45"/>
<path d="M16.623 20.8386C17.2057 20.1188 17.7541 20.1531 17.7541 20.1531C18.6726 23.8821 23.5464 27.1655 28.3242 28.6051C28.0226 29.9349 27.3302 32.1833 25.829 33.9586C17.8775 29.5853 16.623 20.8454 16.623 20.8454V20.8386Z" fill="url(#paint0_linear_3763_11268)"/>
<path d="M9.12391 18.8986C9.0348 18.8986 8.9594 18.8712 8.89771 18.8026C8.84287 18.7409 8.80859 18.6655 8.80859 18.5833V10.4672C8.80859 10.3781 8.83601 10.3027 8.89771 10.241C8.9594 10.1793 9.02795 10.1519 9.12391 10.1519H14.8682C14.9573 10.1519 15.0327 10.1793 15.0944 10.241C15.1561 10.3027 15.1835 10.3712 15.1835 10.4672V11.7285C15.1835 11.8176 15.1561 11.893 15.0944 11.9547C15.0396 12.0164 14.9642 12.0438 14.8682 12.0438H11.009V13.8809H14.6215C14.7106 13.8809 14.786 13.9083 14.8477 13.9768C14.9025 14.0385 14.9368 14.1139 14.9368 14.2099V15.4575C14.9368 15.5397 14.9094 15.6151 14.8477 15.6768C14.786 15.7385 14.7174 15.7728 14.6215 15.7728H11.009V18.597C11.009 18.6792 10.9816 18.7546 10.9199 18.8163C10.8582 18.878 10.7896 18.9123 10.6937 18.9123H9.11706L9.12391 18.8986Z" fill="#282E45"/>
<path d="M19.3994 19.0218C18.7482 19.0218 18.1861 18.919 17.7063 18.7133C17.2264 18.5077 16.8563 18.2129 16.5958 17.8291C16.3353 17.4452 16.2051 16.9859 16.2051 16.4581C16.2051 16.1017 16.2736 15.7795 16.4176 15.4984C16.5615 15.2174 16.7603 14.9569 17.0139 14.7239C17.2676 14.4908 17.5623 14.2783 17.8914 14.0864C17.576 13.7368 17.3498 13.4146 17.2127 13.1198C17.0756 12.8251 17.0071 12.5235 17.0071 12.2287C17.0071 11.838 17.1099 11.4747 17.3087 11.1457C17.5075 10.8166 17.8091 10.5493 18.2204 10.3436C18.6248 10.138 19.1252 10.0283 19.7216 10.0283C20.2768 10.0283 20.7498 10.1311 21.1337 10.3299C21.5175 10.5287 21.8123 10.7961 22.0111 11.1251C22.2167 11.4541 22.3196 11.8106 22.3196 12.1944C22.3196 12.5303 22.2442 12.8251 22.1002 13.0924C21.9562 13.3598 21.7506 13.5997 21.497 13.8259C21.2365 14.0452 20.9349 14.2577 20.5853 14.4565L22.0728 15.944C22.1276 15.8343 22.2236 15.663 22.3538 15.4299C22.4841 15.1968 22.6006 14.8884 22.7103 14.5045C22.7377 14.388 22.82 14.3263 22.9708 14.3263H24.232C24.3074 14.3263 24.3691 14.3468 24.4103 14.3948C24.4582 14.4428 24.4788 14.4976 24.4788 14.5662C24.472 14.7239 24.4308 14.9089 24.3554 15.1214C24.28 15.3339 24.1772 15.5601 24.0538 15.7932C23.9304 16.0331 23.7933 16.2593 23.6425 16.4718C23.4917 16.6912 23.3478 16.89 23.2038 17.0682L24.6022 18.4803C24.657 18.5488 24.6913 18.6105 24.6913 18.6654C24.6913 18.7339 24.6707 18.7887 24.6296 18.8299C24.5885 18.871 24.5268 18.8916 24.4514 18.8916H22.7514C22.6691 18.8916 22.6006 18.8779 22.5526 18.8504C22.5046 18.823 22.4635 18.7956 22.4292 18.7682L21.8671 18.2335C21.5244 18.5077 21.1542 18.7065 20.7498 18.8367C20.3454 18.967 19.8998 19.0218 19.4063 19.0218H19.3994ZM19.3994 17.4384C19.6393 17.4384 19.8724 17.4041 20.0917 17.3287C20.3111 17.2533 20.5099 17.1367 20.6881 16.9791L19.0293 15.3202C18.803 15.4368 18.6111 15.5876 18.4466 15.7658C18.2821 15.944 18.1998 16.1497 18.1998 16.3827C18.1998 16.6158 18.2547 16.8009 18.378 16.9585C18.4946 17.1162 18.6454 17.2396 18.8305 17.3218C19.0155 17.4041 19.2075 17.4452 19.4063 17.4452L19.3994 17.4384ZM19.5159 13.3049C19.7079 13.2021 19.8792 13.1061 20.0301 13.0033C20.1809 12.9005 20.2974 12.7908 20.3934 12.6674C20.4825 12.544 20.5305 12.4069 20.5305 12.2561C20.5305 12.0299 20.455 11.8517 20.2974 11.7146C20.1397 11.5775 19.9478 11.509 19.7147 11.509C19.5091 11.509 19.3172 11.5775 19.1526 11.7077C18.9881 11.838 18.9059 12.0299 18.9059 12.2698C18.9059 12.3727 18.9264 12.4686 18.9607 12.5714C18.995 12.6743 19.0635 12.7839 19.1526 12.9005C19.2418 13.0239 19.3651 13.1541 19.5159 13.3049Z" fill="#282E45"/>
<path d="M29.0572 19.0218C28.2278 19.0218 27.5355 18.9053 26.9871 18.6654C26.4387 18.4254 26.0206 18.117 25.7395 17.7331C25.4585 17.3492 25.3077 16.9448 25.2871 16.5061C25.2871 16.4376 25.3145 16.3759 25.3694 16.3279C25.4242 16.273 25.4859 16.2456 25.5613 16.2456H27.1379C27.2544 16.2456 27.3435 16.2662 27.4052 16.3073C27.4669 16.3484 27.5218 16.4033 27.5766 16.4718C27.6452 16.5952 27.7343 16.7186 27.8577 16.8351C27.981 16.9517 28.1387 17.0476 28.3375 17.1162C28.5363 17.1847 28.7762 17.2259 29.0641 17.2259C29.5439 17.2259 29.9141 17.1505 30.154 16.9996C30.4008 16.8488 30.5242 16.6432 30.5242 16.3896C30.5242 16.1976 30.4556 16.0468 30.3254 15.9303C30.1951 15.8138 29.9758 15.7041 29.681 15.615C29.3863 15.519 28.9887 15.423 28.502 15.3202C27.8714 15.19 27.3298 15.0118 26.8843 14.7993C26.4387 14.5868 26.096 14.3057 25.8698 13.963C25.6367 13.6202 25.5202 13.1884 25.5202 12.6674C25.5202 12.1465 25.6641 11.7077 25.952 11.3033C26.2399 10.9057 26.6375 10.5904 27.1585 10.3642C27.6726 10.138 28.2895 10.0283 28.9956 10.0283C29.5714 10.0283 30.0786 10.1037 30.5105 10.2545C30.9423 10.4053 31.3125 10.6041 31.6141 10.8578C31.9157 11.1045 32.1419 11.3719 32.2927 11.6529C32.4435 11.934 32.5258 12.2013 32.5326 12.4686C32.5326 12.5372 32.5121 12.5989 32.4641 12.6469C32.4161 12.6948 32.3544 12.7291 32.2721 12.7291H30.6201C30.531 12.7291 30.4488 12.7154 30.3802 12.6811C30.3117 12.6469 30.2568 12.592 30.2089 12.5166C30.1609 12.3315 30.0306 12.1739 29.8181 12.0368C29.6056 11.8997 29.3314 11.8311 28.9887 11.8311C28.6254 11.8311 28.3375 11.8928 28.1318 12.0231C27.9262 12.1533 27.8234 12.3521 27.8234 12.6194C27.8234 12.7839 27.8782 12.9348 27.9948 13.0581C28.1044 13.1815 28.2964 13.2912 28.5568 13.3803C28.8173 13.4694 29.1806 13.5654 29.6399 13.6682C30.4008 13.8122 31.0109 13.9835 31.477 14.196C31.9431 14.4085 32.2859 14.6827 32.5052 15.0186C32.7246 15.3545 32.8342 15.7795 32.8342 16.2867C32.8342 16.8557 32.6697 17.3424 32.3475 17.7468C32.0254 18.1512 31.5798 18.4666 31.0177 18.6928C30.4556 18.9121 29.8044 19.0218 29.0641 19.0218H29.0572Z" fill="#282E45"/>
<path d="M16.7667 21.0235C16.7051 21.2222 17.4248 21.5101 17.8361 20.7081C17.8498 20.3243 18.0623 18.6723 17.8361 18.3569C16.5954 16.6981 14.1962 14.6279 14.1962 14.6279C13.7986 15.0255 14.1345 15.4162 14.1345 15.4162L15.2998 16.609C15.0599 17.0477 14.772 17.4178 14.6418 17.9456C14.5389 18.3432 14.6075 18.7682 14.8131 19.1315C15.0188 19.4948 15.2998 19.9678 15.5672 20.3311C16.0676 21.0303 16.7736 21.0235 16.7736 21.0235H16.7667Z" fill="url(#paint1_linear_3763_11268)"/>
<path d="M15.8063 17.3765L16.8619 18.2539L17.1978 19.1381L16.2724 20.1869C16.2724 20.1869 15.9434 18.4321 15.7035 18.0551C15.4635 17.6781 15.5869 17.493 15.7994 17.3765H15.8063Z" fill="url(#paint2_linear_3763_11268)"/>
<path d="M53.7418 39.5727C52.7753 34.7469 47.1201 30.9836 47.1201 30.9836C47.1201 30.9836 40.471 29.3659 34.4593 29.5235C32.6085 29.5715 30.4493 29.2425 28.3174 28.5981C28.0158 29.928 27.3235 32.1763 25.8223 33.9517C27.8239 35.0554 30.2505 35.8779 33.1912 36.2138C33.1912 36.2138 36.3032 47.394 37.3932 52.4665C37.5302 53.0972 38.0444 53.5839 38.6819 53.6798C39.2439 53.7621 40.0048 53.8581 40.8754 53.9266L47.8741 50.8625C47.881 50.7391 47.8947 50.6089 47.9015 50.4718C48.0729 47.8327 48.2374 43.7335 48.0181 39.2711C48.4362 39.7783 48.7584 40.3335 48.8681 40.9231C50.7463 39.9497 52.6793 39.6549 53.735 39.5658L53.7418 39.5727Z" fill="url(#paint3_linear_3763_11268)"/>
<path d="M40.0189 42.3558C40.0189 42.3558 46.3596 45.8586 48.4571 42.7945C48.8958 42.157 48.9918 41.5264 48.8753 40.93C50.7535 39.9566 52.6865 39.6619 53.7422 39.5728C54.0369 41.026 53.8998 42.582 53.0567 44.1586C49.3962 51.0134 39.1895 43.9118 39.1895 43.9118L40.012 42.3489L40.0189 42.3558Z" fill="url(#paint4_linear_3763_11268)"/>
<path d="M40.5048 24.5884L42.4722 30.0996C42.5064 30.1887 42.4722 30.2916 42.3831 30.3396C41.8621 30.6343 39.9907 31.4843 37.7149 30.0722C37.475 29.9283 37.3174 29.6815 37.2762 29.4073L36.6113 24.6227L40.5048 24.5884Z" fill="url(#paint5_linear_3763_11268)"/>
<path d="M36.2971 19.5088C36.2971 19.5088 34.2338 23.4846 34.5217 25.0749C34.8096 26.672 37.4076 26.5281 39.6696 25.212L41.2188 20.9277L36.3039 19.5088H36.2971Z" fill="url(#paint6_linear_3763_11268)"/>
<path d="M39.5468 23.1142C39.4508 23.0731 39.4166 22.9634 39.4714 22.8743C39.6359 22.6138 39.9444 22.086 40.0472 21.6267C40.0472 21.6267 40.4242 21.38 39.0807 21.0715C37.7371 20.763 35.7355 20.2832 35.3105 19.1522C34.8924 18.0417 35.9412 15.2381 37.6754 17.4522C37.744 17.5344 37.8674 17.5344 37.9359 17.4522C38.2101 17.082 38.9436 16.3143 39.9787 16.7667C40.9452 17.1917 41.0549 17.8909 41.048 18.2473C41.048 18.3501 41.1371 18.4324 41.2399 18.4118C41.7266 18.3159 42.8919 18.2268 43.4472 19.4126C43.9065 20.3929 43.6186 20.955 43.3581 21.2292C43.2758 21.3183 43.3101 21.4622 43.4335 21.4965C43.7557 21.5925 44.1669 21.8598 44.1327 22.607C44.0847 23.642 42.9262 23.5598 42.5972 23.5187C42.5424 23.5118 42.4875 23.5324 42.4532 23.5735C42.1722 23.8888 40.9178 25.2255 39.54 25.3969C39.4234 25.4106 39.3275 25.2941 39.3686 25.1844L39.9444 23.4501C39.9718 23.3679 39.9307 23.2787 39.8553 23.2513L39.5605 23.1211L39.5468 23.1142Z" fill="url(#paint7_linear_3763_11268)"/>
<path d="M39.3059 23.3611C39.3059 23.3611 40.7934 22.3192 40.91 23.1829C41.0265 24.0466 39.5733 24.4442 38.8535 24.1288L39.3059 23.3542V23.3611Z" fill="url(#paint8_linear_3763_11268)"/>
<path d="M41.3141 47.8878L37.8593 35.8302C37.8181 35.6931 37.7016 35.5903 37.5645 35.5766C36.9407 35.5011 35.1242 35.2955 33.0335 35.1241C30.5109 34.9116 27.5839 34.7403 25.836 34.8842C25.5892 34.9048 25.4384 35.1653 25.5481 35.3915C26.542 37.4068 30.6343 45.5914 32.6839 48.2716C32.7525 48.3607 32.8553 48.4156 32.9718 48.4087L40.9851 48.3333C41.2181 48.3333 41.3826 48.1071 41.3209 47.8809L41.3141 47.8878Z" fill="url(#paint9_linear_3763_11268)"/>
<path d="M40.4785 44.9747C40.4785 44.9747 40.9584 42.9936 40.7664 42.2945C40.5745 41.5953 40.1975 40.6904 38.9431 40.8892C37.6886 41.088 36.2148 41.6158 36.2148 41.6158C36.2148 41.6158 36.2902 42.5275 37.2431 42.2328L36.6536 42.692C36.6536 42.692 36.7358 43.4255 37.5447 43.0348L36.9963 43.638C36.9963 43.638 37.339 44.2412 37.9354 43.8505C38.5249 43.4666 38.8128 45.2077 40.4922 44.9678L40.4785 44.9747Z" fill="url(#paint10_linear_3763_11268)"/>
<path d="M33.2595 38.723C33.2595 39.2851 32.8071 39.7375 32.245 39.7375C31.6829 39.7375 31.2305 39.2851 31.2305 38.723C31.2305 38.1609 31.6829 37.7085 32.245 37.7085C32.8071 37.7085 33.2595 38.1609 33.2595 38.723Z" fill="#91B3FA"/>
<path d="M37.4688 39.3878L36.7628 37.0024C36.6737 36.7076 36.4406 36.4883 36.1459 36.4266C33.9455 35.9673 27.9133 35.8713 27.8516 35.8713V35.604C28.1052 35.604 33.9729 35.7 36.2007 36.1661C36.5914 36.2484 36.9067 36.5363 37.0164 36.927L37.7225 39.3124L37.462 39.3878H37.4688Z" fill="#BDD0FB"/>
</g>
<defs>
<linearGradient id="paint0_linear_3763_11268" x1="15.3481" y1="22.1204" x2="39.7717" y2="41.4098" gradientUnits="userSpaceOnUse">
<stop stop-color="#FEBBBA"/>
<stop offset="1" stop-color="#FF928E"/>
</linearGradient>
<linearGradient id="paint1_linear_3763_11268" x1="19.3825" y1="25.0254" x2="27.3502" y2="42.705" gradientUnits="userSpaceOnUse">
<stop stop-color="#FEBBBA"/>
<stop offset="1" stop-color="#FF928E"/>
</linearGradient>
<linearGradient id="paint2_linear_3763_11268" x1="17.0096" y1="18.7646" x2="13.7065" y2="13.7915" gradientUnits="userSpaceOnUse">
<stop stop-color="#FEBBBA"/>
<stop offset="1" stop-color="#FF928E"/>
</linearGradient>
<linearGradient id="paint3_linear_3763_11268" x1="43.4939" y1="24.9514" x2="35.9468" y2="48.9774" gradientUnits="userSpaceOnUse">
<stop stop-color="#FF8A00"/>
<stop offset="1" stop-color="#FFC700"/>
</linearGradient>
<linearGradient id="paint4_linear_3763_11268" x1="41.2802" y1="47.0376" x2="56.7651" y2="37.2901" gradientUnits="userSpaceOnUse">
<stop stop-color="#FEBBBA"/>
<stop offset="1" stop-color="#FF928E"/>
</linearGradient>
<linearGradient id="paint5_linear_3763_11268" x1="42.8094" y1="27.1184" x2="36.9899" y2="27.1733" gradientUnits="userSpaceOnUse">
<stop stop-color="#FEBBBA"/>
<stop offset="1" stop-color="#FF928E"/>
</linearGradient>
<linearGradient id="paint6_linear_3763_11268" x1="35.1474" y1="24.0414" x2="41.5059" y2="20.0789" gradientUnits="userSpaceOnUse">
<stop stop-color="#FEBBBA"/>
<stop offset="1" stop-color="#FF928E"/>
</linearGradient>
<linearGradient id="paint7_linear_3763_11268" x1="44.8511" y1="15.937" x2="36.6517" y2="22.5426" gradientUnits="userSpaceOnUse">
<stop stop-color="#09005D"/>
<stop offset="1" stop-color="#1A0F91"/>
</linearGradient>
<linearGradient id="paint8_linear_3763_11268" x1="36.8404" y1="25.4787" x2="42.5649" y2="21.9177" gradientUnits="userSpaceOnUse">
<stop stop-color="#FEBBBA"/>
<stop offset="1" stop-color="#FF928E"/>
</linearGradient>
<linearGradient id="paint9_linear_3763_11268" x1="35.2476" y1="33.9794" x2="27.1247" y2="67.8146" gradientUnits="userSpaceOnUse">
<stop stop-color="#09005D"/>
<stop offset="1" stop-color="#1A0F91"/>
</linearGradient>
<linearGradient id="paint10_linear_3763_11268" x1="40.8076" y1="42.932" x2="36.208" y2="42.932" gradientUnits="userSpaceOnUse">
<stop stop-color="#FEBBBA"/>
<stop offset="1" stop-color="#FF928E"/>
</linearGradient>
<clipPath id="clip0_3763_11268">
<rect width="53.8855" height="60" fill="white"/>
</clipPath>
</defs>
</svg>
