<svg width="63" height="57" viewBox="0 0 63 57" fill="none" xmlns="http://www.w3.org/2000/svg">
<g clip-path="url(#clip0_3763_10917)">
<path d="M26.251 56.7395C25.8667 56.9088 25.463 56.9935 25.0527 57C25.5086 57.0065 25.9709 56.9219 26.3942 56.733L28.6344 55.7432L28.5888 55.7236L26.2575 56.746L26.251 56.7395Z" fill="#2D52EA"/>
<path d="M50.1042 3.15206C50.1042 3.09996 50.1042 3.04787 50.0977 2.98926C50.0977 3.04787 50.1042 3.09996 50.1042 3.15857V3.14555V3.15206Z" fill="#2D52EA"/>
<path d="M28.6335 55.743L31.1601 54.6164L31.1732 54.5903L28.5879 55.7169L28.6335 55.743Z" fill="#E9EFFD"/>
<path d="M50.0977 6.13418L50.1042 6.10813V3.27539L50.0977 6.13418Z" fill="#E9EFFD"/>
<path d="M0.00651205 2.99561C0.00651205 3.0477 0 3.0998 0 3.15841V6.11488L0.0130241 6.14093L0 3.16492C0 3.10631 0 3.05421 0.00651205 2.99561Z" fill="#2D52EA"/>
<path d="M18.9297 54.5903L18.9427 54.6229L23.7095 56.7393C24.1393 56.9282 24.5952 57.0193 25.051 57.0063C24.6408 56.9998 24.2305 56.9151 23.8528 56.7458L18.9297 54.5903Z" fill="#2D52EA"/>
<path d="M3.7568 6.65532C3.7568 4.79287 5.26109 3.27556 7.12353 3.27556H10.9331L13.5705 0H3.15118C3.15118 0 3.15118 0 3.14467 0C3.04048 0 2.93628 0 2.83209 0.0130241C2.79302 0.0130241 2.75395 0.0260482 2.71487 0.0325603C2.64975 0.0390723 2.58463 0.0520964 2.51951 0.0651205C2.46742 0.0781446 2.41532 0.0911687 2.36322 0.104193C2.31764 0.117217 2.26554 0.123729 2.21996 0.143265C2.16786 0.156289 2.12228 0.182337 2.07018 0.195362C2.0246 0.214898 1.9725 0.227922 1.92692 0.247458C1.88133 0.266994 1.83575 0.293042 1.79667 0.312579C1.75109 0.338627 1.69899 0.358163 1.65341 0.384211C1.60782 0.410259 1.56875 0.436308 1.52968 0.462356C1.4841 0.488404 1.43851 0.514452 1.39293 0.5405C1.35385 0.566549 1.31478 0.599109 1.27571 0.625157C1.23664 0.657717 1.19105 0.683766 1.15198 0.722838C1.11291 0.755398 1.08035 0.787958 1.04779 0.820519C1.00872 0.853079 0.969643 0.892151 0.930571 0.924712C0.898011 0.957272 0.86545 0.996344 0.83289 1.03542C0.80033 1.07449 0.761258 1.11356 0.728697 1.15263C0.696137 1.19171 0.670089 1.23078 0.644041 1.26985C0.61148 1.30892 0.57892 1.35451 0.54636 1.40009C0.520312 1.43916 0.494263 1.47824 0.474727 1.52382C0.448679 1.5694 0.416119 1.61499 0.390071 1.66057C0.370534 1.69965 0.350998 1.74523 0.32495 1.79081C0.298902 1.8364 0.272854 1.8885 0.253317 1.93408C0.233781 1.97966 0.220757 2.03176 0.201221 2.07734C0.181685 2.12293 0.162149 2.17503 0.149125 2.22061C0.1361 2.27271 0.123076 2.31829 0.110052 2.37039C0.0970281 2.42248 0.084004 2.46807 0.0709799 2.52016C0.0579558 2.57226 0.0579558 2.62436 0.0449317 2.67645C0.0384196 2.72855 0.0253955 2.78065 0.0188835 2.83926C0.0188835 2.89135 0.0188835 2.94345 0.0123714 2.99554C0.0123714 3.05415 0.00585938 3.10625 0.00585938 3.16486L0.0188835 6.13435L0.0579558 16.8402L3.79587 12.1841L3.76983 6.65532H3.7568Z" fill="#2D52EA"/>
<path d="M26.6999 3.27556L29.3308 0H26.5371L23.9062 3.27556H26.6999Z" fill="#2D52EA"/>
<path d="M3.8486 28.2495L0.0976562 32.9187L0.11068 36.3831L3.86813 31.7139L3.8486 28.2495Z" fill="#2D52EA"/>
<path d="M28.5872 55.7172L17.2888 50.3838L5.92529 45.0179C4.70102 44.4839 3.91306 43.2792 3.90655 41.9442L3.87399 34.6768L0.123047 39.3589L0.142583 44.3146C0.142583 45.5649 0.884957 46.6915 2.03108 47.1929L18.9364 54.5906L23.8595 56.7461C24.2437 56.9154 24.6474 57.0001 25.0577 57.0066C25.468 57.0001 25.8782 56.9154 26.2559 56.7461L28.5872 55.7237V55.7172Z" fill="#2D52EA"/>
<path d="M50.1036 3.27556V3.15835C50.1036 3.09974 50.1036 3.04764 50.0971 2.98903C50.0971 2.93694 50.0971 2.88484 50.0906 2.83274C50.0906 2.78065 50.0775 2.72855 50.0645 2.66994C50.058 2.61785 50.0515 2.56575 50.0385 2.51365C50.0254 2.46156 50.0124 2.41597 49.9994 2.36388C49.9864 2.31178 49.9733 2.25968 49.9603 2.2141C49.9473 2.162 49.9278 2.11642 49.9082 2.07083C49.8887 2.02525 49.8757 1.97315 49.8561 1.92757C49.8366 1.87547 49.8105 1.82989 49.7845 1.7843C49.765 1.73872 49.7454 1.69965 49.7194 1.65406C49.6933 1.60848 49.6608 1.56289 49.6347 1.51731C49.6087 1.47824 49.5891 1.43265 49.5631 1.39358C49.5305 1.348 49.498 1.30892 49.4654 1.26334C49.4394 1.22427 49.4068 1.18519 49.3807 1.14612C49.3482 1.10705 49.3091 1.06798 49.2766 1.03542C49.244 0.996344 49.2114 0.957272 49.1789 0.924712C49.1398 0.885639 49.1007 0.853079 49.0617 0.820519C49.0226 0.787958 48.99 0.755398 48.951 0.722838C48.9119 0.690278 48.8663 0.657717 48.8272 0.625157C48.7882 0.599109 48.7491 0.566549 48.71 0.5405C48.6644 0.514452 48.6188 0.488404 48.5733 0.462356C48.5342 0.436308 48.4886 0.410259 48.4495 0.384211C48.4039 0.358163 48.3518 0.338627 48.3063 0.312579C48.2607 0.293042 48.2216 0.266994 48.176 0.247458C48.1304 0.227922 48.0849 0.214898 48.0328 0.195362C47.9807 0.175825 47.9351 0.156289 47.883 0.143265C47.8374 0.130241 47.7853 0.117217 47.7397 0.104193C47.6876 0.0911687 47.6355 0.0716326 47.5834 0.0651205C47.5183 0.0520964 47.4532 0.0455844 47.3881 0.0325603C47.349 0.0325603 47.3099 0.0195362 47.2708 0.0130241C47.1666 0 47.0625 0 46.9583 0C46.9583 0 46.9583 0 46.9518 0H31.7266L29.0957 3.27556H50.1036Z" fill="#2D52EA"/>
<path d="M3.84766 28.2491L3.86719 31.7135L26.6985 3.27539H23.9048L3.84766 28.2491Z" fill="#E9EFFD"/>
<path d="M29.0962 3.27556L3.875 34.6767L3.90756 41.9441C3.90756 43.2791 4.70203 44.4838 5.9263 45.0178L17.2898 50.3838L28.5882 55.7171L31.1735 54.584L48.0788 47.1863C49.2249 46.6849 49.9673 45.5583 49.9673 44.308L50.0976 6.12783V3.26904H29.0962V3.27556Z" fill="#E9EFFD"/>
<path d="M7.12456 3.27539C5.26212 3.27539 3.75132 4.7927 3.75783 6.65515L3.78388 12.1839L10.9341 3.27539H7.12456Z" fill="#E9EFFD"/>
<path d="M3.79586 15.8373L3.78284 12.1841L0.0449219 16.8402L0.0970183 32.9185L3.84796 28.2493L3.79586 15.8373Z" fill="#2D52EA"/>
<g style="mix-blend-mode:soft-light">
<path d="M3.79586 15.8373L3.78284 12.1841L0.0449219 16.8402L0.0970183 32.9185L3.84796 28.2493L3.79586 15.8373Z" fill="white"/>
</g>
<path d="M23.9056 3.27556L26.5365 0H13.571L10.9336 3.27556H23.9056Z" fill="#2D52EA"/>
<g style="mix-blend-mode:soft-light">
<path d="M23.9056 3.27556L26.5365 0H13.571L10.9336 3.27556H23.9056Z" fill="white"/>
</g>
<path d="M10.9334 3.27539L3.7832 12.1839L3.79623 15.8371L3.84832 28.2491L23.9054 3.27539H10.9334Z" fill="#E9EFFD"/>
<g style="mix-blend-mode:soft-light">
<path d="M10.9334 3.27539L3.7832 12.1839L3.79623 15.8371L3.84832 28.2491L23.9054 3.27539H10.9334Z" fill="white"/>
</g>
<path d="M26.6992 3.27556H29.0957L31.7265 0H29.3301L26.6992 3.27556Z" fill="#2D52EA"/>
<g style="mix-blend-mode:soft-light">
<path d="M26.6992 3.27556H29.0957L31.7265 0H29.3301L26.6992 3.27556Z" fill="white"/>
</g>
<path d="M3.86878 31.7139L0.111328 36.383L0.124352 39.359L3.87529 34.6769L3.86878 31.7139Z" fill="#2D52EA"/>
<g style="mix-blend-mode:soft-light">
<path d="M3.86878 31.7139L0.111328 36.383L0.124352 39.359L3.87529 34.6769L3.86878 31.7139Z" fill="white"/>
</g>
<path d="M3.8737 34.6765L29.0949 3.27539H26.6984L3.86719 31.7135L3.8737 34.6765Z" fill="#E9EFFD"/>
<g style="mix-blend-mode:soft-light">
<path d="M3.8737 34.6765L29.0949 3.27539H26.6984L3.86719 31.7135L3.8737 34.6765Z" fill="white"/>
</g>
<path d="M26.2631 17.6803C26.1784 17.6803 26.1068 17.6477 26.0482 17.5891C25.9895 17.5305 25.9635 17.4589 25.9635 17.3808V15.2122H23.8536C23.7689 15.2122 23.6908 15.1862 23.6322 15.1276C23.5736 15.0755 23.541 15.0039 23.541 14.9127V14.0466C23.541 13.9619 23.5736 13.8838 23.6322 13.8252C23.6908 13.7666 23.7624 13.734 23.8536 13.734H25.9635V11.6306C25.9635 11.546 25.9895 11.4743 26.0482 11.4157C26.1068 11.3571 26.1719 11.3311 26.2631 11.3311H27.2333C27.3115 11.3311 27.3831 11.3571 27.4417 11.4157C27.5003 11.4743 27.5329 11.5394 27.5329 11.6306V13.734H29.6363C29.721 13.734 29.7926 13.7601 29.8512 13.8252C29.9033 13.8838 29.9359 13.9554 29.9359 14.0466V14.9127C29.9359 14.9973 29.9098 15.069 29.8512 15.1276C29.7926 15.1797 29.7275 15.2122 29.6363 15.2122H27.5329V17.3808C27.5329 17.4589 27.5003 17.5305 27.4417 17.5891C27.3831 17.6477 27.3115 17.6803 27.2333 17.6803H26.2631Z" fill="#282E45"/>
<path d="M33.3804 18.0711C33.3022 18.0711 33.2306 18.0385 33.172 17.9799C33.1134 17.9213 33.0808 17.8497 33.0808 17.7715V12.1256L31.4528 13.3694C31.3812 13.4215 31.3096 13.4475 31.2314 13.428C31.1533 13.415 31.0881 13.3694 31.0361 13.2978L30.3393 12.3861C30.2937 12.3144 30.2741 12.2363 30.2872 12.1516C30.3002 12.067 30.3458 12.0019 30.4239 11.9563L33.1525 9.84638C33.1981 9.81382 33.2436 9.79428 33.2892 9.78126C33.3348 9.76823 33.3804 9.76172 33.439 9.76172H34.9237C35.0084 9.76172 35.08 9.78777 35.1386 9.84638C35.1973 9.90498 35.2233 9.9701 35.2233 10.0613V17.7715C35.2233 17.8497 35.1973 17.9213 35.1386 17.9799C35.08 18.0385 35.0149 18.0711 34.9237 18.0711H33.3804Z" fill="#282E45"/>
<path d="M27.9487 32.5342C27.9487 32.5342 27.4473 31.2187 26.8612 31.3359C26.2751 31.4597 25.637 31.9025 25.637 31.9025L24.6992 33.1723C24.6992 33.1723 27.3366 34.2078 28.2613 33.6152C28.2613 33.6152 30.9573 34.0775 34.3566 33.524C33.8617 32.4821 33.5686 31.4467 33.3993 30.6392C31.6801 31.616 29.8242 32.3453 27.9487 32.5342Z" fill="url(#paint0_linear_3763_10917)"/>
<path d="M42.2171 22.981C42.2171 22.981 38.3619 27.8389 33.4062 30.6456C33.5756 31.4531 33.8751 32.4951 34.3635 33.5305C36.9358 33.1072 39.9118 32.1043 42.4385 29.8642L42.2236 22.981H42.2171Z" fill="url(#paint1_linear_3763_10917)"/>
<path d="M47.0223 44.5037C46.2669 40.9221 45.5115 38.8513 42.9913 32.0592C42.1969 29.9233 41.474 27.7612 41.8257 25.5081L42.2164 22.9814C42.2164 22.9814 47.12 21.3208 52.5641 22.9098C52.5641 22.9098 59.9813 26.1332 54.941 42.0487C52.6682 44.5884 50.0113 45.3112 47.0223 44.4972V44.5037Z" fill="url(#paint2_linear_3763_10917)"/>
<path d="M43.0508 19.751L44.3206 22.8052C44.3988 23.0005 44.5746 23.1373 44.783 23.1698C45.5188 23.2936 47.2901 23.4889 48.4558 22.727C48.5925 22.6359 48.6316 22.447 48.5339 22.3103L46.1831 18.937L43.0508 19.751Z" fill="url(#paint3_linear_3763_10917)"/>
<path d="M44.3645 15.0757C44.3124 15.1278 42.1113 19.4518 42.1113 19.4518L44.6054 20.6565L47.3014 16.8665C47.3014 16.8665 45.2632 14.2356 44.3645 15.0757Z" fill="url(#paint4_linear_3763_10917)"/>
<path d="M46.1691 17.3222L44.9253 19.3996C44.9253 19.3996 44.8862 19.4582 44.8601 19.4842C44.7104 19.621 44.2024 20.0247 43.8117 19.4777C43.4796 19.0154 43.167 18.5921 42.8284 18.4162C42.633 18.3121 42.3921 18.3967 42.2944 18.5921C42.0925 18.9958 41.6953 19.8294 41.4413 20.6108C41.3762 20.8062 41.4804 21.0211 41.6692 21.0992C42.1772 21.3011 43.1735 21.6723 44.0592 21.796C44.2024 21.8155 44.3457 21.7569 44.4369 21.6332C44.8211 21.1122 45.8956 19.6535 46.2602 19.2889C46.5989 18.9502 47.2305 19.0805 47.5105 19.1586C47.6212 19.1912 47.732 19.1716 47.8296 19.1195C48.1162 18.9437 48.6176 18.5139 48.1617 17.7846C48.0445 17.6022 48.1031 17.3613 48.2855 17.2441C48.6046 17.0357 48.9562 16.6385 48.6241 15.9938C48.2855 15.3426 47.6864 15.2839 47.2826 15.336C47.1003 15.3556 46.9179 15.2644 46.8463 15.0951C46.8138 15.0235 46.7551 14.9583 46.6379 14.9323C46.423 14.8867 46.2863 14.6913 46.3253 14.4765C46.397 14.1118 46.3449 13.6299 45.7588 13.3108C44.6843 12.7182 43.7401 13.682 43.4991 14.496C43.2582 15.31 44.4629 15.8831 45.2183 15.9807C45.7718 16.0524 46.0779 16.658 46.2016 16.9771C46.2472 17.0943 46.2342 17.218 46.1691 17.3287V17.3222Z" fill="url(#paint5_linear_3763_10917)"/>
<path d="M45.7324 19.9073C45.7324 19.9073 46.2664 18.6505 46.8785 18.696C47.4907 18.7481 47.9726 19.3603 47.2172 20.044C46.2729 20.8971 45.7324 19.9073 45.7324 19.9073Z" fill="url(#paint6_linear_3763_10917)"/>
<path d="M55.1362 54.6688L52.6812 49.9671C52.9156 51.4519 53.0458 52.6761 53.1175 54.9163C51.8802 54.6558 50.4801 54.8512 49.0344 55.4177C48.4353 50.8593 47.7125 47.2451 46.8398 43.937C51.5546 43.8328 54.1138 42.8039 54.9278 42.1592C56.4451 44.6077 59.903 54.0958 59.903 54.0958L55.1362 54.6753V54.6688Z" fill="url(#paint7_linear_3763_10917)"/>
<path d="M45.6484 48.6123L46.5145 54.0043C46.6643 54.9421 47.5369 55.5998 48.4877 55.4826L61.4662 53.9001C62.0979 53.822 62.5798 53.2945 62.5928 52.6563C62.6189 51.2627 62.5668 48.7817 61.9807 46.522L45.6484 48.6123Z" fill="url(#paint8_linear_3763_10917)"/>
<path d="M48.442 55.1506C48.3378 55.1506 48.2336 55.1311 48.1294 55.105C48.1099 55.105 48.0969 55.079 48.1034 55.0594C48.1034 55.0399 48.1294 55.0269 48.149 55.0334C48.2467 55.0594 48.3443 55.0725 48.4485 55.079C48.4681 55.079 48.4876 55.0985 48.4876 55.118C48.4876 55.1376 48.4681 55.1571 48.4485 55.1571L48.442 55.1506ZM49.1583 55.0855C49.1583 55.0855 49.1258 55.0725 49.1193 55.0529C49.1193 55.0334 49.1323 55.0139 49.1518 55.0073L49.4579 54.9683C49.4579 54.9683 49.497 54.9813 49.5035 55.0008C49.5035 55.0204 49.4905 55.0399 49.4709 55.0464L49.1649 55.0855H49.1583ZM50.1742 54.9618C50.1742 54.9618 50.1417 54.9487 50.1352 54.9292C50.1352 54.9097 50.1482 54.8901 50.1677 54.8836L50.4738 54.8445C50.4738 54.8445 50.5129 54.8576 50.5194 54.8771C50.5194 54.8966 50.5063 54.9162 50.4868 54.9227L50.1807 54.9618H50.1742ZM51.1901 54.838C51.1901 54.838 51.1575 54.825 51.151 54.8055C51.151 54.7859 51.1641 54.7664 51.1836 54.7599L51.4897 54.7208C51.4897 54.7208 51.5287 54.7338 51.5352 54.7534C51.5352 54.7729 51.5222 54.7924 51.5027 54.799L51.1966 54.838H51.1901ZM47.4978 54.7924C47.4978 54.7924 47.4782 54.7924 47.4717 54.7859C47.3871 54.7208 47.3089 54.6492 47.2438 54.571C47.2308 54.558 47.2308 54.532 47.2438 54.5189C47.2568 54.5059 47.2829 54.5059 47.2959 54.5189C47.361 54.5906 47.4392 54.6622 47.5173 54.7208C47.5368 54.7338 47.5368 54.7599 47.5238 54.7729C47.5173 54.7794 47.5043 54.7859 47.4913 54.7859L47.4978 54.7924ZM52.2125 54.7143C52.2125 54.7143 52.1799 54.7013 52.1734 54.6817C52.1734 54.6622 52.1864 54.6427 52.206 54.6362L52.5121 54.5971C52.5121 54.5971 52.5511 54.6101 52.5576 54.6296C52.5576 54.6492 52.5446 54.6687 52.5251 54.6752L52.219 54.7143H52.2125ZM53.2284 54.5906C53.2284 54.5906 53.1958 54.5775 53.1893 54.558C53.1893 54.5385 53.2023 54.5189 53.2219 54.5124L53.5279 54.4734C53.5279 54.4734 53.567 54.4864 53.5735 54.5059C53.5735 54.5254 53.5605 54.545 53.541 54.5515L53.2349 54.5906H53.2284ZM54.2443 54.4668C54.2443 54.4668 54.2117 54.4538 54.2052 54.4343C54.2052 54.4147 54.2182 54.3952 54.2377 54.3887L54.5438 54.3496C54.5438 54.3496 54.5829 54.3626 54.5894 54.3822C54.5894 54.4017 54.5764 54.4213 54.5568 54.4278L54.2508 54.4668H54.2443ZM55.2667 54.3431C55.2667 54.3431 55.2341 54.3301 55.2276 54.3105C55.2276 54.291 55.2406 54.2715 55.2601 54.265L55.5662 54.2259C55.5662 54.2259 55.6053 54.2389 55.6118 54.2585C55.6118 54.278 55.5988 54.2975 55.5792 54.304L55.2732 54.3431H55.2667ZM56.2825 54.2194C56.2825 54.2194 56.25 54.2064 56.2435 54.1868C56.2435 54.1673 56.2565 54.1477 56.276 54.1412L56.5821 54.1022C56.5821 54.1022 56.6212 54.1152 56.6277 54.1347C56.6277 54.1543 56.6146 54.1738 56.5951 54.1803L56.289 54.2194H56.2825ZM57.2984 54.0957C57.2984 54.0957 57.2659 54.0826 57.2593 54.0631C57.2593 54.0436 57.2724 54.024 57.2919 54.0175L57.598 53.9784C57.598 53.9784 57.637 53.9915 57.6435 54.011C57.6435 54.0305 57.6305 54.0501 57.611 54.0566L57.3049 54.0957H57.2984ZM58.3208 53.9719C58.3208 53.9719 58.2882 53.9589 58.2817 53.9394C58.2817 53.9198 58.2948 53.9003 58.3143 53.8938L58.6204 53.8547C58.6204 53.8547 58.6594 53.8677 58.6659 53.8873C58.6659 53.9068 58.6529 53.9263 58.6334 53.9328L58.3273 53.9719H58.3208ZM46.9247 53.9654C46.9247 53.9654 46.8922 53.9524 46.8856 53.9394C46.8596 53.8612 46.8466 53.7831 46.8335 53.7049L46.8205 53.6333C46.8205 53.6333 46.8335 53.5942 46.8531 53.5877C46.8726 53.5877 46.8921 53.6007 46.8987 53.6203L46.9117 53.6919C46.9247 53.77 46.9442 53.8417 46.9638 53.9198C46.9638 53.9394 46.9638 53.9589 46.9377 53.9654C46.9377 53.9654 46.9312 53.9654 46.9247 53.9654ZM59.3367 53.8482C59.3367 53.8482 59.3041 53.8352 59.2976 53.8156C59.2976 53.7961 59.3106 53.7766 59.3302 53.77L59.6362 53.731C59.6362 53.731 59.6753 53.744 59.6818 53.7635C59.6818 53.7831 59.6688 53.8026 59.6493 53.8091L59.3432 53.8482H59.3367ZM60.3526 53.7245C60.3526 53.7245 60.32 53.7114 60.3135 53.6919C60.3135 53.6724 60.3265 53.6528 60.3461 53.6463L60.6521 53.6072C60.6521 53.6072 60.6912 53.6203 60.6977 53.6398C60.6977 53.6593 60.6847 53.6789 60.6651 53.6854L60.3591 53.7245H60.3526ZM61.3684 53.5682C61.3684 53.5682 61.3359 53.5617 61.3294 53.5421C61.3229 53.5226 61.3294 53.5031 61.3554 53.49C61.4466 53.4575 61.5378 53.4119 61.6224 53.3533C61.6419 53.3403 61.6615 53.3468 61.6745 53.3663C61.6875 53.3858 61.681 53.4054 61.6615 53.4184C61.5768 53.477 61.4792 53.5291 61.3815 53.5617C61.3815 53.5617 61.375 53.5617 61.3684 53.5617V53.5682ZM46.7424 52.956C46.7424 52.956 46.7098 52.943 46.7033 52.9235L46.6577 52.6174C46.6577 52.6174 46.6707 52.5783 46.6903 52.5718C46.7098 52.5718 46.7293 52.5849 46.7359 52.6044L46.7814 52.9105C46.7814 52.9105 46.7684 52.9495 46.7489 52.956H46.7424ZM62.0848 52.8779C62.0848 52.8779 62.0783 52.8779 62.0717 52.8779C62.0522 52.8714 62.0457 52.8453 62.0522 52.8258C62.0913 52.7346 62.1173 52.637 62.1304 52.5393C62.1304 52.5197 62.1499 52.5002 62.1759 52.5067C62.1955 52.5067 62.215 52.5262 62.2085 52.5523C62.1955 52.6565 62.1694 52.7607 62.1304 52.8584C62.1304 52.8714 62.1108 52.8844 62.0978 52.8844L62.0848 52.8779ZM46.5796 51.9402C46.5796 51.9402 46.547 51.9271 46.5405 51.9076L46.4884 51.6015C46.4884 51.6015 46.5014 51.5625 46.521 51.5559C46.5405 51.5559 46.56 51.569 46.5666 51.5885L46.6186 51.8946C46.6186 51.8946 46.6056 51.9337 46.5861 51.9402H46.5796ZM62.1759 51.862C62.1759 51.862 62.1369 51.8425 62.1369 51.8229C62.1369 51.7253 62.1369 51.6211 62.1369 51.5169C62.1369 51.4973 62.1564 51.4778 62.1759 51.4778C62.1955 51.4778 62.215 51.4973 62.215 51.5169C62.215 51.6211 62.215 51.7253 62.215 51.8229C62.215 51.8425 62.1955 51.862 62.1759 51.862ZM46.4168 50.9308C46.4168 50.9308 46.3842 50.9178 46.3777 50.8982L46.3256 50.5922C46.3256 50.5922 46.3386 50.5531 46.3582 50.5466C46.3777 50.5466 46.3972 50.5596 46.4037 50.5791L46.4558 50.8852C46.4558 50.8852 46.4428 50.9243 46.4233 50.9308H46.4168ZM62.1564 50.8396C62.1564 50.8396 62.1173 50.8266 62.1173 50.8006C62.1173 50.7029 62.1108 50.5987 62.1043 50.4945C62.1043 50.4749 62.1173 50.4554 62.1434 50.4554C62.1629 50.4554 62.1825 50.4684 62.1825 50.4945C62.1825 50.5987 62.189 50.7029 62.1955 50.8006C62.1955 50.8201 62.1824 50.8396 62.1564 50.8396ZM46.254 49.9149C46.254 49.9149 46.2214 49.9019 46.2149 49.8824L46.1693 49.5763C46.1693 49.5763 46.1823 49.5372 46.2019 49.5307C46.2214 49.5307 46.2409 49.5437 46.2475 49.5633L46.293 49.8693C46.293 49.8693 46.28 49.9084 46.2605 49.9149H46.254ZM62.0978 49.8107C62.0978 49.8107 62.0587 49.7977 62.0587 49.7782C62.0522 49.674 62.0392 49.5763 62.0327 49.4721C62.0327 49.4526 62.0457 49.433 62.0652 49.433C62.0848 49.433 62.1043 49.446 62.1043 49.4656C62.1108 49.5698 62.1238 49.674 62.1304 49.7716C62.1304 49.7912 62.1173 49.8107 62.0978 49.8107ZM46.0912 48.9055C46.0912 48.9055 46.0586 48.8925 46.0521 48.873L46 48.5669C46 48.5669 46.013 48.5278 46.0326 48.5213C46.0521 48.5213 46.0716 48.5344 46.0781 48.5539L46.1302 48.86C46.1302 48.86 46.1172 48.899 46.0977 48.9055H46.0912ZM61.9936 48.7948C61.9936 48.7948 61.961 48.7818 61.9545 48.7623C61.9415 48.6581 61.9285 48.5604 61.9155 48.4562C61.9155 48.4367 61.9285 48.4171 61.948 48.4106C61.9676 48.4106 61.9871 48.4237 61.9936 48.4432C62.0066 48.5474 62.0197 48.6451 62.0327 48.7493C62.0327 48.7688 62.0196 48.7883 62.0001 48.7948H61.9936ZM46.1954 48.5799C46.1954 48.5799 46.1628 48.5669 46.1563 48.5474C46.1563 48.5278 46.1693 48.5083 46.1889 48.5018L46.4949 48.4627C46.4949 48.4627 46.534 48.4757 46.5405 48.4953C46.5405 48.5148 46.5275 48.5344 46.5079 48.5409L46.2019 48.5799H46.1954ZM47.2112 48.4497C47.2112 48.4497 47.1787 48.4367 47.1722 48.4171C47.1722 48.3976 47.1852 48.3781 47.2047 48.3716L47.5108 48.3325C47.5108 48.3325 47.5499 48.3455 47.5564 48.365C47.5564 48.3846 47.5434 48.4041 47.5238 48.4106L47.2178 48.4497H47.2112ZM48.2271 48.3195C48.2271 48.3195 48.1946 48.3064 48.1881 48.2869C48.1881 48.2674 48.2011 48.2478 48.2206 48.2413L48.5267 48.2022C48.5267 48.2022 48.5657 48.2153 48.5723 48.2348C48.5723 48.2543 48.5592 48.2739 48.5397 48.2804L48.2336 48.3195H48.2271ZM49.243 48.1892C49.243 48.1892 49.2104 48.1762 49.2039 48.1567C49.2039 48.1371 49.217 48.1176 49.2365 48.1111L49.5426 48.072C49.5426 48.072 49.5816 48.085 49.5881 48.1046C49.5881 48.1241 49.5751 48.1436 49.5556 48.1501L49.2495 48.1892H49.243ZM50.2589 48.059C50.2589 48.059 50.2263 48.046 50.2198 48.0264C50.2198 48.0069 50.2328 47.9873 50.2524 47.9808L50.5584 47.9418C50.5584 47.9418 50.5975 47.9548 50.604 47.9743C50.604 47.9939 50.591 48.0134 50.5715 48.0199L50.2654 48.059H50.2589ZM51.2813 47.9287C51.2813 47.9287 51.2487 47.9157 51.2422 47.8962C51.2422 47.8766 51.2552 47.8571 51.2748 47.8506L51.5808 47.8115C51.5808 47.8115 51.6199 47.8245 51.6264 47.8441C51.6264 47.8636 51.6134 47.8832 51.5939 47.8897L51.2878 47.9287H51.2813ZM52.2972 47.7985C52.2972 47.7985 52.2646 47.7855 52.2581 47.7659C52.2581 47.7464 52.2711 47.7269 52.2906 47.7203L52.5967 47.6813C52.5967 47.6813 52.6358 47.6943 52.6423 47.7138C52.6423 47.7334 52.6293 47.7529 52.6097 47.7594L52.3037 47.7985H52.2972ZM61.8373 47.779C61.8373 47.779 61.8048 47.7659 61.7982 47.7464C61.7787 47.6487 61.7592 47.5445 61.7396 47.4468C61.7396 47.4273 61.7461 47.4078 61.7722 47.4013C61.7917 47.4013 61.8113 47.4078 61.8178 47.4338C61.8373 47.538 61.8568 47.6357 61.8764 47.7399C61.8764 47.7594 61.8634 47.779 61.8438 47.7855C61.8438 47.7855 61.8438 47.7855 61.8373 47.7855V47.779ZM53.313 47.6683C53.313 47.6683 53.2805 47.6552 53.274 47.6357C53.274 47.6162 53.287 47.5966 53.3065 47.5901L53.6126 47.551C53.6126 47.551 53.6517 47.5641 53.6582 47.5836C53.6582 47.6031 53.6451 47.6227 53.6256 47.6292L53.3195 47.6683H53.313ZM54.3289 47.538C54.3289 47.538 54.2964 47.525 54.2898 47.5055C54.2898 47.4859 54.3029 47.4664 54.3224 47.4599L54.6285 47.4208C54.6285 47.4208 54.6675 47.4338 54.6741 47.4534C54.6741 47.4729 54.661 47.4924 54.6415 47.4989L54.3354 47.538H54.3289ZM55.3448 47.4078C55.3448 47.4078 55.3122 47.3947 55.3057 47.3752C55.3057 47.3557 55.3188 47.3361 55.3383 47.3296L55.6443 47.2906C55.6443 47.2906 55.6834 47.3036 55.6899 47.3231C55.6899 47.3427 55.6769 47.3622 55.6574 47.3687L55.3513 47.4078H55.3448ZM56.3672 47.2775C56.3672 47.2775 56.3346 47.2645 56.3281 47.245C56.3281 47.2254 56.3411 47.2059 56.3607 47.1994L56.6667 47.1603C56.6667 47.1603 56.7058 47.1733 56.7123 47.1929C56.7123 47.2124 56.6993 47.2319 56.6798 47.2385L56.3737 47.2775H56.3672ZM57.3831 47.1473C57.3831 47.1473 57.3505 47.1343 57.344 47.1147C57.344 47.0952 57.357 47.0757 57.3766 47.0691L57.6826 47.0301C57.6826 47.0301 57.7217 47.0431 57.7282 47.0626C57.7282 47.0822 57.7152 47.1017 57.6956 47.1082L57.3896 47.1473H57.3831ZM58.3989 47.017C58.3989 47.017 58.3664 47.004 58.3599 46.9845C58.3599 46.965 58.3729 46.9454 58.3924 46.9389L58.6985 46.8998C58.6985 46.8998 58.7376 46.9129 58.7441 46.9324C58.7441 46.9519 58.7311 46.9715 58.7115 46.978L58.4055 47.017H58.3989ZM59.4148 46.8868C59.4148 46.8868 59.3823 46.8738 59.3758 46.8542C59.3758 46.8347 59.3888 46.8152 59.4083 46.8087L59.7144 46.7696C59.7144 46.7696 59.7535 46.7826 59.76 46.8022C59.76 46.8217 59.7469 46.8412 59.7274 46.8477L59.4213 46.8868H59.4148ZM61.6289 46.7761C61.6289 46.7761 61.5964 46.7631 61.5899 46.7501C61.5768 46.7045 61.5703 46.6654 61.5573 46.6198L61.4531 46.6328C61.4531 46.6328 61.414 46.6198 61.4075 46.6003C61.4075 46.5807 61.4205 46.5612 61.4401 46.5547L61.6094 46.5352V46.5677C61.6289 46.6198 61.6485 46.6784 61.6615 46.7305C61.6615 46.7501 61.655 46.7696 61.6354 46.7761C61.6354 46.7761 61.6354 46.7761 61.6289 46.7761ZM60.4307 46.7566C60.4307 46.7566 60.3981 46.7435 60.3916 46.724C60.3916 46.7045 60.4047 46.6849 60.4242 46.6784L60.7303 46.6394C60.7303 46.6394 60.7693 46.6524 60.7759 46.6719C60.7759 46.6914 60.7628 46.711 60.7433 46.7175L60.4372 46.7566H60.4307Z" fill="white"/>
<path d="M48.9447 44.1973L48.9316 43.774C48.9642 43.6698 49.0423 43.5852 49.1531 43.5526C49.5503 43.4354 50.5336 43.1944 51.0676 43.494L51.2043 43.9694L48.9512 44.1908L48.9447 44.1973Z" fill="url(#paint9_linear_3763_10917)"/>
<path d="M50.1551 43.6308C50.0639 43.6633 49.9728 43.6764 49.8751 43.6633C49.7579 43.6503 49.6667 43.5591 49.6537 43.4419L49.4844 42.133L50.1486 42.0483L50.3179 43.3573C50.3309 43.4745 50.2658 43.5852 50.1551 43.6308Z" fill="url(#paint10_linear_3763_10917)"/>
<path d="M55.3919 43.3702L55.3789 42.9469C55.4115 42.8427 55.4896 42.758 55.6003 42.7255C55.9975 42.6082 56.9809 42.3673 57.5149 42.6669L57.6516 43.1422L55.3984 43.3636L55.3919 43.3702Z" fill="url(#paint11_linear_3763_10917)"/>
<path d="M56.6017 42.81C56.5106 42.8426 56.4194 42.8556 56.3217 42.8426C56.2045 42.8295 56.1133 42.7384 56.1003 42.6212L55.918 41.1755L56.5822 41.0908L56.7645 42.5365C56.7776 42.6537 56.7124 42.7644 56.6017 42.81Z" fill="url(#paint12_linear_3763_10917)"/>
<path d="M49.4589 42.4716L56.5831 41.319C56.7459 41.2929 56.8696 41.1562 56.8761 40.9934C56.8891 40.7654 56.8761 40.4268 56.7849 40.0817C56.6742 39.6909 56.2965 39.4435 55.8928 39.4826C54.5513 39.6193 51.152 40.0556 49.3742 41.0389C49.1854 41.1431 49.0616 41.332 49.0356 41.5404C49.0161 41.7422 49.0161 42.0092 49.1137 42.2697C49.1658 42.4065 49.3091 42.4911 49.4524 42.4651L49.4589 42.4716Z" fill="url(#paint13_linear_3763_10917)"/>
<path d="M49.2827 42.1852C49.2371 42.1852 49.1915 42.1527 49.185 42.1071C49.185 42.0941 49.1199 41.8206 49.159 41.534C49.1915 41.3061 49.3413 41.1042 49.5562 41.0131C49.9404 40.8437 50.6828 40.5442 51.3145 40.4465C51.3731 40.44 51.4252 40.4791 51.4317 40.5312C51.4382 40.5898 51.3991 40.6419 51.347 40.6484C50.7219 40.7461 49.9469 41.0652 49.6409 41.2019C49.4911 41.267 49.3869 41.4038 49.3674 41.5601C49.3348 41.801 49.3934 42.055 49.3934 42.055C49.4064 42.1071 49.3739 42.1657 49.3153 42.1787C49.3087 42.1787 49.3022 42.1787 49.2892 42.1787L49.2827 42.1852Z" fill="#BDD0FB"/>
<path d="M45.6034 44.4578C47.9087 44.1322 57.8982 42.7451 60.8481 42.7256C61.1021 42.7256 61.33 42.8819 61.4147 43.1163C61.6882 43.8717 62.2612 45.63 62.4501 47.4208C62.4761 47.6617 62.3264 47.8896 62.0919 47.9678L55.6189 50.0712L53.2616 50.3707L46.0137 49.8693C45.7597 49.8498 45.5448 49.6674 45.4992 49.4135C45.3364 48.5213 44.9978 46.4179 45.0629 45.0309C45.0759 44.7378 45.2973 44.4904 45.5904 44.4513L45.6034 44.4578Z" fill="url(#paint14_linear_3763_10917)"/>
<path d="M53.2552 49.8368L52.9426 49.8172C52.9426 49.8172 52.9035 49.7977 52.91 49.7782C52.91 49.7586 52.9296 49.7391 52.9491 49.7456L53.2552 49.7651H53.2877C53.2877 49.7651 53.3268 49.7717 53.3333 49.7912C53.3333 49.8107 53.3203 49.8303 53.3008 49.8368H53.2617H53.2552ZM52.2263 49.7651L51.9202 49.7456C51.9202 49.7456 51.8811 49.7261 51.8876 49.7065C51.8876 49.687 51.9072 49.6675 51.9267 49.674L52.2328 49.6935C52.2328 49.6935 52.2719 49.713 52.2653 49.7326C52.2653 49.7521 52.2458 49.7651 52.2263 49.7651ZM53.9976 49.7391C53.9976 49.7391 53.965 49.7261 53.9585 49.7065C53.9585 49.687 53.9715 49.6675 53.991 49.6609L54.2971 49.6219C54.2971 49.6219 54.3362 49.6349 54.3427 49.6544C54.3427 49.674 54.3297 49.6935 54.3101 49.7L54.0041 49.7391H53.9976ZM51.2039 49.6935L50.8978 49.674C50.8978 49.674 50.8587 49.6544 50.8653 49.6349C50.8653 49.6154 50.8848 49.5958 50.9043 49.6023L51.2104 49.6219C51.2104 49.6219 51.2495 49.6414 51.243 49.6609C51.243 49.6805 51.2234 49.6935 51.2039 49.6935ZM50.1815 49.6284L49.8754 49.6089C49.8754 49.6089 49.8364 49.5893 49.8429 49.5698C49.8429 49.5502 49.8624 49.5307 49.8819 49.5372L50.188 49.5568C50.188 49.5568 50.2271 49.5763 50.2206 49.5958C50.2206 49.6154 50.201 49.6284 50.1815 49.6284ZM55.0134 49.6089C55.0134 49.6089 54.9809 49.5958 54.9744 49.5763C54.9744 49.5568 54.9874 49.5372 55.0069 49.5307L55.313 49.4916C55.313 49.4916 55.3521 49.5047 55.3586 49.5242C55.3586 49.5437 55.3455 49.5633 55.326 49.5698L55.0199 49.6089H55.0134ZM49.1526 49.5568L48.8465 49.5372C48.8465 49.5372 48.8074 49.5177 48.814 49.4981C48.814 49.4786 48.8335 49.4591 48.853 49.4656L49.1591 49.4851C49.1591 49.4851 49.1982 49.5047 49.1917 49.5242C49.1917 49.5437 49.1721 49.5568 49.1526 49.5568ZM48.1302 49.4851L47.8241 49.4656C47.8241 49.4656 47.7851 49.4461 47.7916 49.4265C47.7916 49.407 47.8111 49.3874 47.8306 49.394L48.1367 49.4135C48.1367 49.4135 48.1758 49.433 48.1693 49.4526C48.1693 49.4721 48.1497 49.4851 48.1302 49.4851ZM47.1078 49.4135L46.8017 49.394C46.8017 49.394 46.7627 49.3744 46.7692 49.3549C46.7692 49.3353 46.7887 49.3158 46.8082 49.3223L47.1143 49.3419C47.1143 49.3419 47.1534 49.3614 47.1469 49.3809C47.1469 49.4005 47.1273 49.4135 47.1078 49.4135ZM56.0098 49.3809C56.0098 49.3809 55.9772 49.3679 55.9707 49.3549C55.9642 49.3353 55.9707 49.3158 55.9968 49.3093L56.2898 49.2116C56.2898 49.2116 56.3289 49.2116 56.3354 49.2377C56.3419 49.2572 56.3354 49.2767 56.3093 49.2832L56.0163 49.3809C56.0163 49.3809 56.0098 49.3809 56.0033 49.3809H56.0098ZM46.0854 49.3419H46.0398V49.3093C46.0268 49.2246 46.0073 49.127 45.9877 49.0228C45.9877 49.0032 46.0008 48.9837 46.0203 48.9772C46.0398 48.9772 46.0594 48.9902 46.0659 49.0097C46.0854 49.1074 46.0984 49.1921 46.1115 49.2702C46.1245 49.2767 46.131 49.2898 46.131 49.3093C46.131 49.3288 46.1115 49.3419 46.0919 49.3419H46.0854ZM56.9866 49.0683C56.9866 49.0683 56.954 49.0553 56.9475 49.0423C56.941 49.0228 56.9475 49.0032 56.9736 48.9967L57.2666 48.899C57.2666 48.899 57.3057 48.899 57.3122 48.9251C57.3187 48.9446 57.3122 48.9642 57.2861 48.9707L56.9931 49.0683C56.9931 49.0683 56.9866 49.0683 56.9801 49.0683H56.9866ZM57.9634 48.7493C57.9634 48.7493 57.9308 48.7362 57.9243 48.7232C57.9178 48.7037 57.9243 48.6841 57.9504 48.6776L58.2434 48.5799C58.2434 48.5799 58.2825 48.5799 58.289 48.606C58.2955 48.6255 58.289 48.6451 58.2629 48.6516L57.9699 48.7493C57.9699 48.7493 57.9634 48.7493 57.9569 48.7493H57.9634ZM58.9337 48.4302C58.9337 48.4302 58.9011 48.4171 58.8946 48.4041C58.8881 48.3846 58.8946 48.3651 58.9207 48.3585L59.2137 48.2609C59.2137 48.2609 59.2528 48.2609 59.2593 48.2869C59.2658 48.3064 59.2593 48.326 59.2332 48.3325L58.9402 48.4302C58.9402 48.4302 58.9337 48.4302 58.9272 48.4302H58.9337ZM45.9031 48.3455C45.9031 48.3455 45.8705 48.3325 45.864 48.313C45.851 48.2153 45.8314 48.1111 45.8184 48.0069C45.8184 47.9874 45.8314 47.9678 45.851 47.9613C45.8705 47.9613 45.89 47.9743 45.8966 47.9939C45.9096 48.0981 45.9291 48.2022 45.9421 48.2999C45.9421 48.3195 45.9291 48.339 45.9096 48.3455H45.9031ZM59.9105 48.1176C59.9105 48.1176 59.8779 48.1046 59.8714 48.0915C59.8649 48.072 59.8714 48.0525 59.8975 48.046L60.1905 47.9483C60.1905 47.9483 60.2296 47.9483 60.2361 47.9743C60.2426 47.9939 60.2361 48.0134 60.2101 48.0199L59.917 48.1176C59.917 48.1176 59.9105 48.1176 59.904 48.1176H59.9105ZM60.8873 47.7985C60.8873 47.7985 60.8547 47.7855 60.8482 47.7725C60.8417 47.7529 60.8482 47.7334 60.8743 47.7269L61.1673 47.6292C61.1673 47.6292 61.2064 47.6292 61.2129 47.6552C61.2194 47.6748 61.2129 47.6943 61.1869 47.7008L60.8938 47.7985C60.8938 47.7985 60.8873 47.7985 60.8808 47.7985H60.8873ZM61.8641 47.4794C61.8641 47.4794 61.8316 47.4664 61.825 47.4534C61.825 47.4403 61.825 47.4273 61.8316 47.4143C61.8185 47.3231 61.812 47.2385 61.799 47.1473C61.799 47.1278 61.812 47.1082 61.8316 47.1017C61.8511 47.1017 61.8706 47.1147 61.8771 47.1343C61.8902 47.232 61.9032 47.3296 61.9097 47.4273V47.4599L61.8706 47.4729C61.8706 47.4729 61.8641 47.4729 61.8576 47.4729L61.8641 47.4794ZM45.7663 47.3296C45.7663 47.3296 45.7272 47.3166 45.7272 47.2971C45.7142 47.1929 45.7012 47.0952 45.6947 46.991C45.6947 46.9715 45.7077 46.9519 45.7272 46.9519C45.7468 46.9519 45.7663 46.965 45.7663 46.9845C45.7793 47.0887 45.7859 47.1864 45.7989 47.2906C45.7989 47.3101 45.7859 47.3296 45.7663 47.3361V47.3296ZM61.7274 46.4766C61.7274 46.4766 61.6948 46.4635 61.6883 46.444C61.6688 46.3398 61.6492 46.2421 61.6297 46.1444C61.6297 46.1249 61.6362 46.1054 61.6622 46.0989C61.6818 46.0989 61.7013 46.1054 61.7078 46.1314C61.7274 46.2291 61.7469 46.3333 61.7664 46.4375C61.7664 46.457 61.7534 46.4766 61.7339 46.4831C61.7339 46.4831 61.7339 46.4831 61.7274 46.4831V46.4766ZM45.6686 46.3072C45.6686 46.3072 45.6296 46.2942 45.6296 46.2747C45.6231 46.1705 45.6165 46.0663 45.61 45.9686C45.61 45.9491 45.6231 45.9295 45.6491 45.9295C45.6491 45.9295 45.6882 45.9426 45.6882 45.9686C45.6882 46.0663 45.7012 46.1705 45.7077 46.2747C45.7077 46.2942 45.6947 46.3138 45.6751 46.3138L45.6686 46.3072ZM61.5125 45.4737C61.5125 45.4737 61.4799 45.4607 61.4734 45.4411C61.4473 45.3369 61.4213 45.2393 61.3952 45.1416C61.3952 45.122 61.4018 45.1025 61.4213 45.096C61.4408 45.096 61.4604 45.1025 61.4669 45.122C61.4929 45.2197 61.519 45.3174 61.545 45.4216C61.545 45.4411 61.5385 45.4607 61.519 45.4672C61.519 45.4672 61.519 45.4672 61.5125 45.4672V45.4737ZM45.6426 45.2783C45.6426 45.2783 45.6035 45.2588 45.6035 45.2393C45.6035 45.1807 45.6035 45.122 45.6035 45.0634C45.6035 45.0244 45.6361 44.9918 45.6686 44.9853L45.7468 44.9723C45.7468 44.9723 45.7859 44.9853 45.7924 45.0048C45.7924 45.0244 45.7793 45.0439 45.7598 45.0504L45.6817 45.0634C45.6817 45.122 45.6751 45.1807 45.6751 45.2393C45.6751 45.2588 45.6556 45.2783 45.6361 45.2783H45.6426ZM46.4696 44.9592C46.4696 44.9592 46.4371 44.9462 46.4305 44.9267C46.4305 44.9071 46.4436 44.8876 46.4631 44.8811L46.7692 44.842C46.7692 44.842 46.8082 44.8551 46.8148 44.8746C46.8148 44.8941 46.8017 44.9137 46.7822 44.9202L46.4761 44.9592H46.4696ZM47.4855 44.816C47.4855 44.816 47.4529 44.803 47.4464 44.7834C47.4464 44.7639 47.4595 44.7443 47.479 44.7378L47.7851 44.6988C47.7851 44.6988 47.8241 44.7118 47.8306 44.7313C47.8306 44.7509 47.8176 44.7704 47.7981 44.7769L47.492 44.816H47.4855ZM48.5014 44.6792C48.5014 44.6792 48.4688 44.6662 48.4623 44.6467C48.4623 44.6271 48.4753 44.6076 48.4949 44.6011L48.8009 44.562C48.8009 44.562 48.84 44.575 48.8465 44.5946C48.8465 44.6141 48.8335 44.6336 48.814 44.6402L48.5079 44.6792H48.5014ZM49.5173 44.5425C49.5173 44.5425 49.4847 44.5294 49.4782 44.5099C49.4782 44.4904 49.4912 44.4708 49.5107 44.4643L49.8168 44.4253C49.8168 44.4253 49.8559 44.4383 49.8624 44.4578C49.8624 44.4774 49.8494 44.4969 49.8298 44.5034L49.5238 44.5425H49.5173ZM61.2455 44.4839C61.2455 44.4839 61.2129 44.4708 61.2064 44.4578C61.1738 44.3536 61.1478 44.2559 61.1152 44.1648C61.1152 44.1452 61.1152 44.1257 61.1413 44.1192C61.1608 44.1192 61.1803 44.1192 61.1869 44.1452C61.2129 44.2364 61.2455 44.3406 61.278 44.4383C61.278 44.4578 61.278 44.4774 61.252 44.4839C61.252 44.4839 61.2455 44.4839 61.239 44.4839H61.2455ZM50.5397 44.4122C50.5397 44.4122 50.5071 44.3992 50.5006 44.3797C50.5006 44.3601 50.5136 44.3406 50.5331 44.3341L50.8392 44.295C50.8392 44.295 50.8783 44.308 50.8848 44.3276C50.8913 44.3471 50.8718 44.3666 50.8522 44.3732L50.5462 44.4122H50.5397ZM51.5555 44.2755C51.5555 44.2755 51.523 44.2625 51.5165 44.2429C51.5165 44.2234 51.5295 44.2038 51.549 44.1973L51.8551 44.1583C51.8551 44.1583 51.8942 44.1713 51.9007 44.1908C51.9007 44.2104 51.8876 44.2299 51.8681 44.2364L51.562 44.2755H51.5555ZM52.5714 44.1518C52.5714 44.1518 52.5389 44.1387 52.5323 44.1192C52.5323 44.0997 52.5454 44.0801 52.5649 44.0736L52.871 44.0345C52.871 44.0345 52.91 44.0476 52.9166 44.0671C52.9166 44.0866 52.9035 44.1062 52.884 44.1127L52.5779 44.1518H52.5714ZM53.5873 44.0215C53.5873 44.0215 53.5547 44.0085 53.5482 43.989C53.5482 43.9694 53.5612 43.9499 53.5808 43.9434L53.8868 43.9043C53.8868 43.9043 53.9259 43.9173 53.9324 43.9369C53.9324 43.9564 53.9194 43.9759 53.8999 43.9824L53.5938 44.0215H53.5873ZM54.6097 43.9043C54.6097 43.9043 54.5706 43.8913 54.5706 43.8717C54.5706 43.8522 54.5836 43.8327 54.6032 43.8262L54.9092 43.7936C54.9092 43.7936 54.9483 43.8066 54.9548 43.8262C54.9548 43.8457 54.9418 43.8652 54.9223 43.8717L54.6162 43.9043H54.6097ZM55.6256 43.7871C55.6256 43.7871 55.5865 43.7741 55.5865 43.7545C55.5865 43.735 55.5995 43.7154 55.6191 43.7089L55.9251 43.6764C55.9251 43.6764 55.9642 43.6894 55.9707 43.7089C55.9707 43.7285 55.9577 43.748 55.9381 43.7545L55.6321 43.7871H55.6256ZM56.648 43.6699C56.648 43.6699 56.6089 43.6568 56.6089 43.6373C56.6089 43.6178 56.6219 43.5982 56.6414 43.5982L56.9475 43.5657C56.9475 43.5657 56.9866 43.5787 56.9866 43.5982C56.9866 43.6178 56.9736 43.6373 56.954 43.6373L56.648 43.6699ZM57.6638 43.5657C57.6638 43.5657 57.6248 43.5526 57.6248 43.5331C57.6248 43.5136 57.6378 43.494 57.6573 43.494C57.7615 43.481 57.8657 43.4745 57.9634 43.4615C57.9829 43.4615 58.0025 43.4745 58.0025 43.494C58.0025 43.5136 57.9894 43.5331 57.9699 43.5331C57.8722 43.5396 57.768 43.5526 57.6638 43.5657ZM60.9264 43.5071C60.9264 43.5071 60.8938 43.494 60.8873 43.481C60.8678 43.4289 60.8547 43.3833 60.8417 43.3443C60.8092 43.3443 60.7701 43.3443 60.731 43.3443C60.7115 43.3443 60.6919 43.3247 60.6919 43.3052C60.6919 43.2856 60.7115 43.2661 60.731 43.2661C60.7701 43.2661 60.8157 43.2661 60.8547 43.2661C60.8808 43.2661 60.9003 43.2791 60.9134 43.3052C60.9329 43.3508 60.9459 43.4029 60.9655 43.455C60.972 43.4745 60.9655 43.494 60.9394 43.5071C60.9394 43.5071 60.9329 43.5071 60.9264 43.5071ZM58.6862 43.4745C58.6862 43.4745 58.6472 43.4615 58.6472 43.4419C58.6472 43.4224 58.6602 43.4029 58.6797 43.4029C58.7839 43.3964 58.8881 43.3833 58.9858 43.3768C59.0118 43.3768 59.0249 43.3898 59.0249 43.4094C59.0249 43.4289 59.0118 43.4484 58.9923 43.4484C58.8946 43.455 58.7904 43.468 58.6862 43.4745ZM59.7086 43.3898C59.7086 43.3898 59.6695 43.3768 59.6695 43.3508C59.6695 43.3312 59.6826 43.3117 59.7021 43.3117C59.8063 43.3052 59.9105 43.2987 60.0082 43.2922C60.0342 43.2922 60.0472 43.3052 60.0472 43.3312C60.0472 43.3508 60.0342 43.3703 60.0082 43.3703C59.9105 43.3703 59.8063 43.3833 59.7021 43.3898H59.7086Z" fill="white"/>
<path d="M55.5273 51.0936L53.463 51.3606C53.1895 51.3931 52.942 51.2238 52.8704 50.9568L52.3755 49.0032C52.2973 48.6906 52.5122 48.3846 52.8313 48.339L55.3124 48.0199C55.625 47.9808 55.905 48.2152 55.918 48.5278L55.9962 50.5335C56.0092 50.8136 55.8008 51.048 55.5273 51.0871V51.0936Z" fill="url(#paint15_linear_3763_10917)"/>
<path d="M55.2209 50.7615L53.6515 50.9634C53.4431 50.9894 53.2543 50.8592 53.2022 50.6573L52.8245 49.1661C52.7659 48.9316 52.9287 48.6907 53.1696 48.6646L55.0581 48.4237C55.2991 48.3911 55.5075 48.5735 55.5205 48.8144L55.5791 50.3447C55.5856 50.5531 55.4293 50.7355 55.2209 50.768V50.7615Z" fill="url(#paint16_linear_3763_10917)"/>
<path d="M53.9969 34.9375C54.4853 36.9497 54.4984 38.9164 54.4202 39.6327C54.3942 39.8997 54.1728 40.1146 53.9058 40.1341C53.5997 40.1537 53.1764 40.1862 52.8052 40.2058C52.395 40.2318 51.9391 39.9713 51.6331 39.7499C51.4768 39.6392 51.2749 39.8085 51.3595 39.9844C51.5093 40.2774 51.7698 40.5118 52.0303 40.7072C52.1866 40.8244 52.701 41.0328 52.6685 41.2672C52.6554 41.3389 52.6099 41.404 52.5643 41.4626C52.2777 41.8077 51.8414 41.9901 51.4116 42.1203C51.3595 42.1398 51.3009 42.1529 51.2619 42.1985C51.2488 42.4785 52.1019 42.7845 52.3233 42.8562C52.6554 42.9669 53.0006 43.0125 53.3522 42.9734C54.2118 42.8822 55.0063 42.2896 55.4687 41.5733C56.7059 39.6653 57.3441 37.3535 57.5786 35.5887C56.4259 34.4361 54.6937 34.7291 53.9969 34.931V34.9375Z" fill="url(#paint17_linear_3763_10917)"/>
<path d="M57.5781 35.771C58.4963 28.8422 53.1564 23.5088 53.1564 23.5088L49.9785 27.2141C52.388 30.2227 53.5406 32.9773 54.0616 35.1393C54.7584 34.9374 56.432 34.6184 57.5781 35.7645V35.771Z" fill="url(#paint18_linear_3763_10917)"/>
<path d="M53.983 35.1132C53.8918 35.1132 53.8137 35.0546 53.7942 34.9635C53.1495 32.2935 51.7884 29.6561 49.7502 27.1164C49.685 27.0318 49.6981 26.9081 49.7827 26.8429C49.8674 26.7778 49.9911 26.7908 50.0562 26.8755C52.1336 29.4608 53.5206 32.1568 54.1784 34.8788C54.2044 34.983 54.1393 35.0937 54.0351 35.1132C54.0221 35.1132 54.0025 35.1132 53.9895 35.1132H53.983Z" fill="url(#paint19_linear_3763_10917)"/>
<path d="M4.72071 44.9919C4.53837 44.9268 4.40813 44.7575 4.38859 44.5686C4.14764 42.2634 3.00152 27.9629 10.269 22.076C10.269 22.076 10.6857 20.9885 14.1111 23.6649C17.5364 26.3479 15.7 29.1546 14.8795 33.0293C13.8897 37.718 12.1444 41.5536 12.9194 44.4384C12.9715 44.6403 12.8673 44.8487 12.6719 44.9203C10.0085 45.9036 7.35809 45.9362 4.72071 44.9984V44.9919Z" fill="url(#paint20_linear_3763_10917)"/>
<path d="M13.1016 17.7912C13.1016 17.9931 10.1973 22.1152 10.1973 22.1152C10.1973 22.1152 10.7182 23.1441 13.2058 23.9711L15.3548 19.5559L13.1082 17.7847L13.1016 17.7912Z" fill="url(#paint21_linear_3763_10917)"/>
<path d="M15.3862 15.4272C15.3862 15.4272 16.4216 17.7976 16.4867 19.0414C16.5584 20.2852 16.8254 21.0927 15.3862 21.3467C13.947 21.5942 12.7358 20.8778 12.0781 19.6405C12.0781 19.6405 11.0492 17.7325 11.2771 16.9446C11.505 16.1566 15.3862 15.4272 15.3862 15.4272Z" fill="url(#paint22_linear_3763_10917)"/>
<path d="M12.5671 18.7484L12.6517 18.7093C12.7559 18.6637 12.8015 18.54 12.7494 18.4358C12.5475 18.0451 12.1503 17.1464 12.6647 16.9381C13.3225 16.6711 15.9338 16.1371 16.4938 15.2124C17.0343 14.3202 16.5524 13.1741 15.8361 12.8485C15.7905 12.8289 15.7319 12.8485 15.7059 12.8876L15.6473 12.9983C15.6082 13.0764 15.491 13.0634 15.4649 12.9787C15.4389 12.9006 15.3347 12.881 15.2891 12.9527C15.1133 13.2327 14.6509 13.682 13.4006 13.9099C11.6228 14.2356 10.4506 14.9584 10.4246 16.1827C10.4246 16.2608 10.3399 16.3064 10.2748 16.2608C10.1446 16.1827 9.93619 16.1436 9.65617 16.378C9.16777 16.7883 9.36964 17.8497 10.4376 18.7289C10.4897 18.7679 10.4897 18.8526 10.4376 18.8852C10.2423 19.0089 9.95573 19.3084 10.7046 19.7122C11.4795 20.129 12.0591 20.0899 12.2805 20.0573C12.3391 20.0508 12.3717 19.9922 12.3587 19.9401L12.1242 18.8591C12.1112 18.8005 12.1568 18.7419 12.2219 18.7419H12.5931L12.5671 18.7484Z" fill="url(#paint23_linear_3763_10917)"/>
<path d="M12.6121 18.9762C12.6121 18.9762 12.2214 17.4589 11.5377 17.8887C10.8604 18.312 11.8893 19.5883 12.4363 19.6404L12.6121 18.9762Z" fill="url(#paint24_linear_3763_10917)"/>
<path d="M15.2109 24.9087L15.4128 30.2811C15.9794 30.4765 16.5199 30.6263 17.0343 30.7435C17.3534 29.7081 18.0632 28.4317 18.6493 27.4875C16.5133 26.7321 15.2109 24.9087 15.2109 24.9087Z" fill="url(#paint25_linear_3763_10917)"/>
<path d="M25.872 24.8174C22.9416 27.9822 20.5712 28.1646 18.6501 27.4873C18.0706 28.4316 17.3608 29.7079 17.0352 30.7434C24.8561 32.469 26.699 25.2797 26.699 25.2797L25.872 24.8174Z" fill="url(#paint26_linear_3763_10917)"/>
<path d="M26.4629 24.4789C26.4629 24.4789 26.8015 24.1142 27.4267 24.2314C28.0518 24.3421 28.6054 24.5635 28.9961 24.2314C29.3868 23.8993 29.5236 24.3421 29.5236 24.3421L28.3579 25.2278L26.4694 24.4789H26.4629Z" fill="url(#paint27_linear_3763_10917)"/>
<path d="M25.7676 25.0976C25.7676 25.0976 25.9955 24.1338 26.6923 24.2641C27.3891 24.3943 28.9715 25.2539 29.3753 25.0976C29.7855 24.9413 30.3065 24.5571 30.5735 24.6939L30.1046 25.2799C30.1046 25.2799 31.3158 24.5831 31.5242 25.0129L29.512 26.146C29.512 26.146 26.562 25.853 25.7676 25.0976Z" fill="url(#paint28_linear_3763_10917)"/>
<path d="M11.9629 31.9416C11.9629 31.9416 17.4656 36.5522 23.4111 34.5399C23.7823 34.4162 24.186 34.4423 24.5246 34.6246L26.2308 35.5298C26.9471 35.9075 27.8393 35.66 28.256 34.9632C28.4905 34.566 28.6989 34.1101 28.7379 33.6803L25.3907 32.3258L25.6382 31.9156C25.6382 31.9156 24.0037 31.7788 23.5804 32.9445C23.5804 32.9445 20.4676 34.2404 15.2254 28.4707C15.2254 28.4707 12.8485 30.496 11.9629 31.9416Z" fill="url(#paint29_linear_3763_10917)"/>
<path d="M11.6619 31.8898C11.6619 31.8898 11.6229 31.8898 11.6099 31.8768C9.29156 30.3074 8.20405 27.7807 8.19102 27.7547C8.17149 27.7091 8.19102 27.6505 8.24312 27.631C8.28871 27.6114 8.34731 27.631 8.36685 27.6831C8.37987 27.7091 9.44785 30.1837 11.7206 31.7205C11.7661 31.7466 11.7727 31.8052 11.7466 31.8508C11.7271 31.8768 11.701 31.8898 11.6685 31.8898H11.6619Z" fill="#FF8A00"/>
<path d="M15.1196 28.3863C15.1196 28.3863 15.061 28.3733 15.0415 28.3407C15.035 28.3277 14.3251 27.2271 12.9771 24.8112C12.5604 24.0688 12.0199 23.5999 11.3556 23.4111C10.2616 23.105 9.20667 23.6911 9.20016 23.6976C9.15457 23.7237 9.09596 23.7106 9.06992 23.665C9.04387 23.6195 9.05689 23.5608 9.10248 23.5348C9.14806 23.5088 10.2291 22.9031 11.4012 23.2287C12.111 23.4241 12.6971 23.9255 13.1399 24.7135C14.4879 27.1229 15.1912 28.2235 15.1978 28.23C15.2238 28.2756 15.2108 28.3342 15.1717 28.3602C15.1587 28.3733 15.1391 28.3733 15.1196 28.3733V28.3863Z" fill="#FF8A00"/>
<path d="M4.98779 42.2437C4.98779 42.2437 4.37565 46.5807 4.36914 47.1082C4.36914 47.4728 4.36914 47.8505 4.36914 48.2217L13.6814 52.2983C13.0692 47.3751 12.6199 44.2884 12.6199 44.2884L4.98127 42.2502L4.98779 42.2437Z" fill="url(#paint30_linear_3763_10917)"/>
</g>
<defs>
<linearGradient id="paint0_linear_3763_10917" x1="37.3196" y1="27.331" x2="26.2751" y2="35.4646" gradientUnits="userSpaceOnUse">
<stop stop-color="#FEBBBA"/>
<stop offset="1" stop-color="#FF928E"/>
</linearGradient>
<linearGradient id="paint1_linear_3763_10917" x1="48.5728" y1="6.11474" x2="34.2398" y2="38.5838" gradientUnits="userSpaceOnUse">
<stop stop-color="#FF928E"/>
<stop offset="1" stop-color="#DB251E"/>
</linearGradient>
<linearGradient id="paint2_linear_3763_10917" x1="58.3272" y1="10.4262" x2="44.0007" y2="42.8888" gradientUnits="userSpaceOnUse">
<stop stop-color="#FF928E"/>
<stop offset="1" stop-color="#DB251E"/>
</linearGradient>
<linearGradient id="paint3_linear_3763_10917" x1="46.3068" y1="22.5642" x2="44.7569" y2="17.9211" gradientUnits="userSpaceOnUse">
<stop stop-color="#FEBBBA"/>
<stop offset="1" stop-color="#FF928E"/>
</linearGradient>
<linearGradient id="paint4_linear_3763_10917" x1="42.6909" y1="16.8665" x2="48.2587" y2="19.289" gradientUnits="userSpaceOnUse">
<stop stop-color="#FEBBBA"/>
<stop offset="1" stop-color="#FF928E"/>
</linearGradient>
<linearGradient id="paint5_linear_3763_10917" x1="46.5621" y1="20.2388" x2="42.0048" y2="15.3976" gradientUnits="userSpaceOnUse">
<stop stop-color="#09005D"/>
<stop offset="1" stop-color="#1A0F91"/>
</linearGradient>
<linearGradient id="paint6_linear_3763_10917" x1="42.3462" y1="17.6606" x2="47.9074" y2="20.0831" gradientUnits="userSpaceOnUse">
<stop stop-color="#FEBBBA"/>
<stop offset="1" stop-color="#FF928E"/>
</linearGradient>
<linearGradient id="paint7_linear_3763_10917" x1="52.7593" y1="40.7396" x2="53.8012" y2="54.9228" gradientUnits="userSpaceOnUse">
<stop stop-color="#09005D"/>
<stop offset="1" stop-color="#1A0F91"/>
</linearGradient>
<linearGradient id="paint8_linear_3763_10917" x1="54.1206" y1="57.5208" x2="54.1206" y2="50.4097" gradientUnits="userSpaceOnUse">
<stop stop-color="#4F52FF"/>
<stop offset="1" stop-color="#4042E2"/>
</linearGradient>
<linearGradient id="paint9_linear_3763_10917" x1="145.383" y1="-151.855" x2="142.748" y2="-146.442" gradientUnits="userSpaceOnUse">
<stop stop-color="#4F52FF"/>
<stop offset="1" stop-color="#4042E2"/>
</linearGradient>
<linearGradient id="paint10_linear_3763_10917" x1="144.835" y1="-152.133" x2="142.194" y2="-146.713" gradientUnits="userSpaceOnUse">
<stop stop-color="#4F52FF"/>
<stop offset="1" stop-color="#4042E2"/>
</linearGradient>
<linearGradient id="paint11_linear_3763_10917" x1="150.27" y1="-149.48" x2="147.636" y2="-144.061" gradientUnits="userSpaceOnUse">
<stop stop-color="#4F52FF"/>
<stop offset="1" stop-color="#4042E2"/>
</linearGradient>
<linearGradient id="paint12_linear_3763_10917" x1="149.687" y1="-149.767" x2="147.045" y2="-144.354" gradientUnits="userSpaceOnUse">
<stop stop-color="#4F52FF"/>
<stop offset="1" stop-color="#4042E2"/>
</linearGradient>
<linearGradient id="paint13_linear_3763_10917" x1="146.699" y1="-151.216" x2="144.057" y2="-145.802" gradientUnits="userSpaceOnUse">
<stop stop-color="#4F52FF"/>
<stop offset="1" stop-color="#4042E2"/>
</linearGradient>
<linearGradient id="paint14_linear_3763_10917" x1="53.685" y1="41.2512" x2="54.1456" y2="63.5535" gradientUnits="userSpaceOnUse">
<stop stop-color="#4F52FF"/>
<stop offset="1" stop-color="#4042E2"/>
</linearGradient>
<linearGradient id="paint15_linear_3763_10917" x1="70.9479" y1="28.7572" x2="59.3043" y2="43.3117" gradientUnits="userSpaceOnUse">
<stop stop-color="#09005D"/>
<stop offset="1" stop-color="#1A0F91"/>
</linearGradient>
<linearGradient id="paint16_linear_3763_10917" x1="66.2458" y1="30.6067" x2="55.833" y2="47.1213" gradientUnits="userSpaceOnUse">
<stop stop-color="#4F52FF"/>
<stop offset="1" stop-color="#4042E2"/>
</linearGradient>
<linearGradient id="paint17_linear_3763_10917" x1="61.5639" y1="14.392" x2="53.0136" y2="42.8952" gradientUnits="userSpaceOnUse">
<stop stop-color="#FEBBBA"/>
<stop offset="1" stop-color="#FF928E"/>
</linearGradient>
<linearGradient id="paint18_linear_3763_10917" x1="62.3058" y1="12.1778" x2="47.9728" y2="44.6469" gradientUnits="userSpaceOnUse">
<stop stop-color="#FF928E"/>
<stop offset="1" stop-color="#DB251E"/>
</linearGradient>
<linearGradient id="paint19_linear_3763_10917" x1="76.7296" y1="1.44594" x2="51.4303" y2="31.5642" gradientUnits="userSpaceOnUse">
<stop stop-color="#FF928E"/>
<stop offset="1" stop-color="#DB251E"/>
</linearGradient>
<linearGradient id="paint20_linear_3763_10917" x1="15.6414" y1="47.994" x2="5.82124" y2="25.306" gradientUnits="userSpaceOnUse">
<stop stop-color="#FF8A00"/>
<stop offset="1" stop-color="#FFC700"/>
</linearGradient>
<linearGradient id="paint21_linear_3763_10917" x1="11.1285" y1="25.3256" x2="13.1407" y2="19.8295" gradientUnits="userSpaceOnUse">
<stop stop-color="#FEBBBA"/>
<stop offset="1" stop-color="#FF928E"/>
</linearGradient>
<linearGradient id="paint22_linear_3763_10917" x1="15.256" y1="21.3532" x2="12.4949" y2="14.5611" gradientUnits="userSpaceOnUse">
<stop stop-color="#FEBBBA"/>
<stop offset="1" stop-color="#FF928E"/>
</linearGradient>
<linearGradient id="paint23_linear_3763_10917" x1="24.3929" y1="-20.3955" x2="16.3571" y2="5.21636" gradientUnits="userSpaceOnUse">
<stop stop-color="#09005D"/>
<stop offset="1" stop-color="#1A0F91"/>
</linearGradient>
<linearGradient id="paint24_linear_3763_10917" x1="13.361" y1="22.1215" x2="10.5999" y2="15.3294" gradientUnits="userSpaceOnUse">
<stop stop-color="#FEBBBA"/>
<stop offset="1" stop-color="#FF928E"/>
</linearGradient>
<linearGradient id="paint25_linear_3763_10917" x1="10.7762" y1="34.0646" x2="19.2875" y2="24.1338" gradientUnits="userSpaceOnUse">
<stop stop-color="#FF8A00"/>
<stop offset="1" stop-color="#FFC700"/>
</linearGradient>
<linearGradient id="paint26_linear_3763_10917" x1="29.7337" y1="24.3615" x2="17.0742" y2="30.6652" gradientUnits="userSpaceOnUse">
<stop stop-color="#FEBBBA"/>
<stop offset="1" stop-color="#FF928E"/>
</linearGradient>
<linearGradient id="paint27_linear_3763_10917" x1="29.5496" y1="22.7857" x2="25.2191" y2="27.3051" gradientUnits="userSpaceOnUse">
<stop stop-color="#FEBBBA"/>
<stop offset="1" stop-color="#FF928E"/>
</linearGradient>
<linearGradient id="paint28_linear_3763_10917" x1="29.7985" y1="24.2901" x2="17.1326" y2="30.5873" gradientUnits="userSpaceOnUse">
<stop stop-color="#FEBBBA"/>
<stop offset="1" stop-color="#FF928E"/>
</linearGradient>
<linearGradient id="paint29_linear_3763_10917" x1="27.1816" y1="36.3763" x2="9.71623" y2="27.4157" gradientUnits="userSpaceOnUse">
<stop stop-color="#FEBBBA"/>
<stop offset="1" stop-color="#FF928E"/>
</linearGradient>
<linearGradient id="paint30_linear_3763_10917" x1="4.36914" y1="47.2644" x2="13.6879" y2="47.2644" gradientUnits="userSpaceOnUse">
<stop stop-color="#09005D"/>
<stop offset="1" stop-color="#1A0F91"/>
</linearGradient>
<clipPath id="clip0_3763_10917">
<rect width="62.6004" height="57" fill="white"/>
</clipPath>
</defs>
</svg>
