<svg width="68" height="60" viewBox="0 0 68 60" fill="none" xmlns="http://www.w3.org/2000/svg">
<g clip-path="url(#clip0_3763_11558)">
<path d="M27.6324 59.7256C27.2279 59.9038 26.8029 59.9929 26.3711 59.9998C26.8509 60.0066 27.3376 59.9175 27.7832 59.7187L30.1412 58.6768L30.0932 58.6562L27.6392 59.7325L27.6324 59.7256Z" fill="#2D52EA"/>
<path d="M52.7412 3.31785C52.7412 3.26302 52.7412 3.20818 52.7344 3.14648C52.7344 3.20818 52.7412 3.26302 52.7412 3.32471V3.311V3.31785Z" fill="#2D52EA"/>
<path d="M30.1398 58.6772L32.7994 57.4913L32.8131 57.4639L30.0918 58.6497L30.1398 58.6772Z" fill="#E9EFFD"/>
<path d="M52.7344 6.45701L52.7412 6.42959V3.44775L52.7344 6.45701Z" fill="#E9EFFD"/>
<path d="M0.00685479 3.15332C0 3.20816 0 3.263 0 3.31784V6.42991L0.0137096 6.45733L0 3.33155C0 3.26985 0 3.21501 0.00685479 3.15332Z" fill="#2D52EA"/>
<path d="M19.9277 57.4639L19.9414 57.4981L24.9592 59.7259C25.4116 59.9247 25.8914 60.0207 26.3712 60.007C25.9394 60.0001 25.5075 59.911 25.11 59.7328L19.9277 57.4639Z" fill="#2D52EA"/>
<path d="M3.95422 7.0056C3.95422 5.04513 5.53768 3.44796 7.49815 3.44796H11.5082L14.2844 0H3.31672C3.31672 0 3.31672 0 3.30987 0C3.20019 0 3.09052 0 2.98084 0.0137096C2.93971 0.0137096 2.89858 0.0274192 2.85745 0.034274C2.7889 0.0411288 2.72036 0.0548383 2.65181 0.0685479C2.59697 0.0822575 2.54213 0.0959671 2.48729 0.109677C2.43931 0.123386 2.38447 0.130241 2.33649 0.150805C2.28165 0.164515 2.23367 0.191934 2.17883 0.205644C2.13085 0.226208 2.07601 0.239918 2.02802 0.260482C1.98004 0.281046 1.93206 0.308466 1.89093 0.32903C1.84294 0.356449 1.78811 0.377014 1.74012 0.404433C1.69214 0.431852 1.65101 0.459271 1.60988 0.48669C1.5619 0.514109 1.51391 0.541529 1.46593 0.568948C1.4248 0.596367 1.38367 0.630641 1.34254 0.65806C1.30142 0.692334 1.25343 0.719753 1.2123 0.760882C1.17117 0.795156 1.1369 0.82943 1.10263 0.863704C1.0615 0.897978 1.02037 0.939106 0.97924 0.97338C0.944966 1.00765 0.910692 1.04878 0.876418 1.08991C0.842144 1.13104 0.801015 1.17217 0.766741 1.2133C0.732467 1.25443 0.705048 1.29556 0.677629 1.33668C0.643355 1.37781 0.609081 1.4258 0.574807 1.47378C0.547388 1.51491 0.519969 1.55604 0.499404 1.60402C0.471985 1.652 0.437711 1.69999 0.410292 1.74797C0.389728 1.7891 0.369163 1.83708 0.341744 1.88507C0.314325 1.93305 0.286906 1.98789 0.266341 2.03587C0.245777 2.08386 0.232068 2.1387 0.211503 2.18668C0.190939 2.23466 0.170374 2.2895 0.156665 2.33748C0.142955 2.39232 0.129246 2.44031 0.115536 2.49514C0.101826 2.54998 0.0881169 2.59797 0.0744073 2.6528C0.0606977 2.70764 0.0606977 2.76248 0.0469881 2.81732C0.0401333 2.87216 0.0264238 2.927 0.019569 2.98869C0.019569 3.04353 0.019569 3.09837 0.0127142 3.1532C0.0127142 3.2149 0.00585938 3.26974 0.00585938 3.33143L0.019569 6.45721L0.0606977 17.7265L3.99535 12.8253L3.96793 7.0056H3.95422Z" fill="#2D52EA"/>
<path d="M28.1048 3.44796L30.8741 0H27.9334L25.1641 3.44796H28.1048Z" fill="#2D52EA"/>
<path d="M4.05188 29.7363L0.103516 34.6512L0.117225 38.298L4.07244 33.3831L4.05188 29.7363Z" fill="#2D52EA"/>
<path d="M30.0932 58.6498L18.2001 53.0357L6.23848 47.3874C4.94978 46.8253 4.12035 45.5571 4.11349 44.1519L4.07922 36.502L0.130859 41.4305L0.151424 46.647C0.151424 47.9632 0.93287 49.149 2.13931 49.6769L19.9344 57.4639L25.1166 59.7328C25.521 59.9111 25.946 60.0002 26.3779 60.007C26.8097 60.0002 27.2416 59.9111 27.6391 59.7328L30.0932 58.6566V58.6498Z" fill="#2D52EA"/>
<path d="M52.7405 3.44796V3.32457C52.7405 3.26288 52.7405 3.20804 52.7337 3.14635C52.7337 3.09151 52.7337 3.03667 52.7268 2.98183C52.7268 2.927 52.7131 2.87216 52.6994 2.81047C52.6925 2.75563 52.6857 2.70079 52.672 2.64595C52.6583 2.59111 52.6445 2.54313 52.6308 2.48829C52.6171 2.43345 52.6034 2.37861 52.5897 2.33063C52.576 2.27579 52.5554 2.22781 52.5349 2.17982C52.5143 2.13184 52.5006 2.077 52.48 2.02902C52.4595 1.97418 52.432 1.9262 52.4046 1.87821C52.3841 1.83023 52.3635 1.7891 52.3361 1.74112C52.3087 1.69313 52.2744 1.64515 52.247 1.59717C52.2195 1.55604 52.199 1.50805 52.1716 1.46693C52.1373 1.41894 52.103 1.37781 52.0687 1.32983C52.0413 1.2887 52.0071 1.24757 51.9796 1.20644C51.9454 1.16531 51.9042 1.12419 51.87 1.08991C51.8357 1.04878 51.8014 1.00765 51.7671 0.973381C51.726 0.932252 51.6849 0.897978 51.6437 0.863704C51.6026 0.82943 51.5683 0.795156 51.5272 0.760882C51.4861 0.726608 51.4381 0.692334 51.397 0.65806C51.3558 0.630641 51.3147 0.596367 51.2736 0.568948C51.2256 0.541529 51.1776 0.514109 51.1296 0.48669C51.0885 0.459271 51.0405 0.431852 50.9994 0.404433C50.9514 0.377014 50.8966 0.356449 50.8486 0.32903C50.8006 0.308466 50.7595 0.281047 50.7115 0.260482C50.6635 0.239918 50.6155 0.226208 50.5607 0.205644C50.5059 0.185079 50.4579 0.164515 50.403 0.150805C50.355 0.137096 50.3002 0.123386 50.2522 0.109677C50.1974 0.0959671 50.1425 0.0754027 50.0877 0.0685479C50.0192 0.0548383 49.9506 0.0479835 49.8821 0.034274C49.8409 0.034274 49.7998 0.0205644 49.7587 0.0137096C49.649 0 49.5393 0 49.4296 0C49.4296 0 49.4296 0 49.4228 0H33.3963L30.627 3.44796H52.7405Z" fill="#2D52EA"/>
<path d="M4.05078 29.7359L4.07135 33.3826L28.1042 3.44775H25.1635L4.05078 29.7359Z" fill="#EAEEFF"/>
<path d="M30.6267 3.44777L4.07812 36.5016L4.1124 44.1515C4.1124 45.5568 4.94868 46.8249 6.23739 47.387L18.199 53.0354L30.0921 58.6494L32.8134 57.4567L50.6085 49.6696C51.8149 49.1418 52.5963 47.9559 52.5963 46.6398L52.7334 6.45017V3.44092H30.6267V3.44777Z" fill="#EAEEFF"/>
<path d="M7.49903 3.44775C5.53856 3.44775 3.94825 5.04492 3.9551 7.00539L3.98252 12.8251L11.5091 3.44775H7.49903Z" fill="#EAEEFF"/>
<path d="M3.99719 16.6707L3.98348 12.8252L0.0488281 17.7264L0.103666 34.6509L4.05203 29.736L3.99719 16.6707Z" fill="#2D52EA"/>
<g style="mix-blend-mode:soft-light">
<path d="M3.99719 16.6707L3.98348 12.8252L0.0488281 17.7264L0.103666 34.6509L4.05203 29.736L3.99719 16.6707Z" fill="white"/>
</g>
<path d="M25.1645 3.44796L27.9338 0H14.286L11.5098 3.44796H25.1645Z" fill="#2D52EA"/>
<g style="mix-blend-mode:soft-light">
<path d="M25.1645 3.44796L27.9338 0H14.286L11.5098 3.44796H25.1645Z" fill="white"/>
</g>
<path d="M11.509 3.44775L3.98242 12.8251L3.99613 16.6706L4.05097 29.7359L25.1637 3.44775H11.509Z" fill="#E9EFFD"/>
<g style="mix-blend-mode:soft-light">
<path d="M11.509 3.44775L3.98242 12.8251L3.99613 16.6706L4.05097 29.7359L25.1637 3.44775H11.509Z" fill="white"/>
</g>
<path d="M28.1055 3.44796H30.628L33.3974 0H30.8748L28.1055 3.44796Z" fill="#2D52EA"/>
<g style="mix-blend-mode:soft-light">
<path d="M28.1055 3.44796H30.628L33.3974 0H30.8748L28.1055 3.44796Z" fill="white"/>
</g>
<path d="M4.0724 33.3828L0.117188 38.2977L0.130897 41.4303L4.07926 36.5017L4.0724 33.3828Z" fill="#2D52EA"/>
<g style="mix-blend-mode:soft-light">
<path d="M4.0724 33.3828L0.117188 38.2977L0.130897 41.4303L4.07926 36.5017L4.0724 33.3828Z" fill="white"/>
</g>
<path d="M4.07912 36.5016L30.6277 3.44775H28.1052L4.07227 33.3826L4.07912 36.5016Z" fill="#E9EFFD"/>
<g style="mix-blend-mode:soft-light">
<path d="M4.07912 36.5016L30.6277 3.44775H28.1052L4.07227 33.3826L4.07912 36.5016Z" fill="white"/>
</g>
<path d="M59.8686 21.9219L63.5016 20.9828C63.5016 20.9828 65.9282 20.7429 66.2573 23.1352C66.5863 25.5275 66.4903 39.7101 66.3875 42.6302C66.2847 45.5572 66.5315 47.8056 68.0121 48.2443L57.2227 48.4499L59.8686 21.9219Z" fill="url(#paint0_linear_3763_11558)"/>
<path d="M52.4855 22.1136C52.4855 22.1136 59.0935 22.5181 63.4943 20.9826C63.4943 20.9826 60.5673 20.7633 60.5673 28.2555C60.5673 33.9861 61.335 44.9195 60.6633 46.9897C59.9915 49.0667 57.4964 51.8566 53.9113 49.4574C50.3262 47.0582 52.4786 22.1136 52.4786 22.1136H52.4855Z" fill="url(#paint1_linear_3763_11558)"/>
<g style="mix-blend-mode:soft-light">
<path d="M59.7114 38.4898C59.6497 38.4898 59.6017 38.435 59.6017 38.3664C59.6017 38.3664 59.6017 37.9757 59.5605 36.639C59.5605 36.5705 59.6085 36.5156 59.6702 36.5156C59.7319 36.5156 59.7799 36.5705 59.7868 36.6322C59.821 37.9688 59.8279 38.3527 59.8279 38.3596C59.8279 38.4281 59.7799 38.4829 59.7182 38.4829L59.7114 38.4898Z" fill="white"/>
</g>
<g style="mix-blend-mode:soft-light">
<path d="M59.6282 35.2406C59.5665 35.2406 59.5186 35.1858 59.5186 35.1241C59.498 34.2535 59.4569 33.3007 59.4157 32.2862C59.3609 30.9152 59.3061 29.4963 59.2786 28.1322C59.2032 24.5266 59.7379 23.1419 60.204 22.6141C60.4577 22.3262 60.6702 22.3193 60.6907 22.3193C60.7524 22.3193 60.8004 22.3742 60.8004 22.4427C60.8004 22.5113 60.7524 22.5661 60.6907 22.5661C60.6633 22.5661 59.3883 22.7238 59.5048 28.1253C59.5323 29.4894 59.5871 30.9084 59.6419 32.2793C59.6831 33.2939 59.7173 34.2535 59.7448 35.1241C59.7448 35.1926 59.6968 35.2475 59.6351 35.2543L59.6282 35.2406Z" fill="white"/>
</g>
<g style="mix-blend-mode:overlay">
<path d="M52.4855 22.1136C52.4855 22.1136 59.0935 22.5181 63.4943 20.9826C63.4943 20.9826 60.5673 20.7633 60.5673 28.2555C60.5673 33.9861 61.335 44.9195 60.6633 46.9897C59.9915 49.0667 57.4964 51.8566 53.9113 49.4574C50.3262 47.0582 52.4786 22.1136 52.4786 22.1136H52.4855Z" fill="white"/>
</g>
<path d="M50.7324 10.8788C50.7324 10.8788 58.0259 11.7631 58.965 10.3921C58.965 10.3921 58.2179 7.92441 55.9969 8.08893C53.776 8.25344 50.7324 10.8788 50.7324 10.8788Z" fill="url(#paint2_linear_3763_11558)"/>
<path d="M27.014 13.6548C27.6515 21.5858 28.9882 38.3526 29.564 46.5235C29.6942 48.3469 31.0103 49.7864 32.6555 49.9029C38.5095 50.3211 51.6844 51.13 56.7363 50.3759C55.5779 49.7453 54.8513 48.4292 54.8581 46.9965L55.1255 10.3371C55.1323 9.04153 56.2976 8.10928 57.3944 8.56855C58.0799 8.85645 58.6077 9.46653 58.9642 10.3919C58.4843 8.8496 57.7372 7.71855 55.996 8.08871C55.996 8.08871 38.9893 8.28065 30.743 8.84274C28.5015 9.0004 26.8152 11.1734 27.014 13.6548Z" fill="url(#paint3_linear_3763_11558)"/>
<path d="M31.2161 9.89135L54.0631 8.91797C53.124 16.657 53.5216 32.4231 53.878 47.956C53.8986 48.8746 54.3853 49.704 55.1393 50.1016C55.1393 50.1016 39.9011 50.2935 33.3548 49.7794C31.8125 49.656 30.558 48.3604 30.325 46.6673C29.427 40.0113 27.2746 22.8195 27.7202 13.7163C27.823 11.6325 29.3379 9.97361 31.2161 9.8982V9.89135Z" fill="url(#paint4_linear_3763_11558)"/>
<g style="mix-blend-mode:overlay">
<path d="M31.2161 9.89135L54.0631 8.91797C53.124 16.657 53.5216 32.4231 53.878 47.956C53.8986 48.8746 54.3853 49.704 55.1393 50.1016C55.1393 50.1016 39.9011 50.2935 33.3548 49.7794C31.8125 49.656 30.558 48.3604 30.325 46.6673C29.427 40.0113 27.2746 22.8195 27.7202 13.7163C27.823 11.6325 29.3379 9.97361 31.2161 9.8982V9.89135Z" fill="white"/>
</g>
<path d="M31.3529 18.4462C34.5678 18.364 46.8927 18.0144 50.0116 17.9321C50.4023 17.9184 50.7314 18.1926 50.7314 18.5285C50.7314 18.8507 50.4366 19.1112 50.0596 19.1249L31.4146 19.7144C31.0581 19.7281 30.7428 19.5019 30.7017 19.1934L30.688 19.118C30.6331 18.7684 30.9416 18.46 31.3529 18.4462Z" fill="url(#paint5_linear_3763_11558)"/>
<path d="M31.1542 22.189C31.209 22.2644 31.305 22.3124 31.4147 22.3124L44.2194 22.0725C44.3771 22.0725 44.5073 21.956 44.5073 21.8189V21.0991C44.5073 20.9552 44.3702 20.8386 44.1988 20.8455L31.7505 21.2431C31.1953 21.2636 30.8663 21.7778 31.1473 22.189H31.1542Z" fill="url(#paint6_linear_3763_11558)"/>
<path d="M32.4909 45.1939C34.9175 45.2213 44.2263 45.3104 46.5775 45.331C46.8723 45.331 47.1054 45.612 47.0985 45.9479C47.0848 46.2701 46.8517 46.5237 46.5707 46.5168L32.4909 46.4551C32.2168 46.4551 31.9974 46.2152 31.97 45.9136V45.8382C31.9357 45.4886 32.1825 45.187 32.4909 45.187V45.1939Z" fill="#BDD0FB"/>
<path opacity="0.72" d="M51.0738 42.4521H31.9763C31.7296 42.4521 31.5308 42.2396 31.5034 41.9654L30.0844 25.5962C30.057 25.2808 30.2695 25.0067 30.5437 24.9998L50.3266 24.5405C50.5802 24.5405 50.7996 24.7599 50.8065 25.0546L51.5331 41.8832C51.5468 42.1916 51.3274 42.4521 51.0601 42.4521H51.0738Z" fill="white"/>
<path d="M51.0739 42.541H31.9765C31.6886 42.541 31.4486 42.2942 31.4212 41.972L30.0023 25.6028C29.9886 25.4246 30.0366 25.2463 30.1462 25.1161C30.2491 24.9858 30.393 24.9104 30.5438 24.9104L50.3267 24.4512C50.6284 24.4512 50.8751 24.7048 50.8957 25.0544L51.6223 41.8829C51.6292 42.0543 51.5743 42.2325 51.4646 42.3559C51.3618 42.4793 51.2179 42.5478 51.0671 42.5478L51.0739 42.541ZM50.3473 24.6294C50.3473 24.6294 50.3473 24.6294 50.3405 24.6294L30.5575 25.0887C30.4478 25.0887 30.3519 25.1435 30.2765 25.2326C30.2011 25.3286 30.1668 25.452 30.1737 25.5822L31.5926 41.9515C31.6132 42.1845 31.7777 42.3559 31.9833 42.3559H51.0808C51.1836 42.3559 51.2864 42.3079 51.3618 42.2188C51.4372 42.1297 51.4783 42.0063 51.4715 41.8829L50.7449 25.0544C50.7312 24.8145 50.5667 24.6294 50.3542 24.6294H50.3473Z" fill="url(#paint7_linear_3763_11558)"/>
<path d="M46.5978 42.4038C46.5566 42.4038 46.5224 42.3695 46.5155 42.3215L45.4941 24.9309C45.4941 24.8829 45.5284 24.835 45.5695 24.835C45.6175 24.835 45.6518 24.8692 45.6587 24.9172L46.68 42.3078C46.68 42.3558 46.6457 42.4038 46.6046 42.4038H46.5978Z" fill="url(#paint8_linear_3763_11558)"/>
<path d="M30.4896 27.4332C30.4279 27.4332 30.3799 27.3784 30.373 27.3098C30.373 27.2413 30.421 27.1796 30.4827 27.1796L50.7181 26.6792C50.7798 26.6792 50.8346 26.734 50.8346 26.8026C50.8346 26.8711 50.7866 26.9328 50.7249 26.9328L30.4896 27.4332Z" fill="url(#paint9_linear_3763_11558)"/>
<path d="M30.4885 30.1612C30.4474 30.1612 30.4062 30.12 30.4062 30.0721C30.4062 30.0241 30.4405 29.983 30.4885 29.9761L50.8952 29.4346C50.9432 29.4346 50.9775 29.4757 50.9775 29.5237C50.9775 29.5717 50.9432 29.6128 50.8952 29.6197L30.4885 30.1612Z" fill="url(#paint10_linear_3763_11558)"/>
<path d="M30.6819 32.8552C30.6407 32.8552 30.5996 32.814 30.5996 32.7661C30.5996 32.7181 30.6339 32.6769 30.6819 32.6769L51.1434 32.252C51.1914 32.252 51.2257 32.2931 51.2257 32.3411C51.2257 32.389 51.1914 32.4302 51.1434 32.4302L30.6819 32.8552Z" fill="url(#paint11_linear_3763_11558)"/>
<path d="M30.9553 35.3296C30.9073 35.3296 30.873 35.2885 30.873 35.2405C30.873 35.1926 30.9073 35.1514 30.9553 35.1514L51.2661 34.9526C51.314 34.9526 51.3483 34.9938 51.3483 35.0417C51.3483 35.0897 51.314 35.1309 51.2661 35.1309L30.9553 35.3296Z" fill="url(#paint12_linear_3763_11558)"/>
<path d="M31.2092 38.2225C31.1612 38.2225 31.127 38.1814 31.127 38.1334C31.127 38.0854 31.1612 38.0443 31.2092 38.0443L51.1429 37.7358C51.1841 37.7358 51.2252 37.777 51.2252 37.825C51.2252 37.8729 51.1909 37.9141 51.1429 37.9141L31.2092 38.2225Z" fill="url(#paint13_linear_3763_11558)"/>
<path d="M31.4221 40.5601C31.381 40.5601 31.3398 40.519 31.3398 40.471C31.3398 40.423 31.3741 40.3819 31.4221 40.3819L51.2667 40.0049C51.3147 40.0049 51.349 40.046 51.349 40.094C51.349 40.142 51.3147 40.1831 51.2667 40.1831L31.4221 40.5601Z" fill="url(#paint14_linear_3763_11558)"/>
<path d="M51.3342 35.0692C51.3342 35.0692 51.3479 35.0487 51.3479 35.035C51.3479 35.0213 51.341 35.0076 51.3342 35.0007L51.2177 32.3616C51.2177 32.3616 51.2245 32.3479 51.2245 32.341C51.2245 32.3273 51.2177 32.3205 51.2108 32.3136L50.8955 25.0544C50.8818 24.7117 50.635 24.4512 50.3265 24.4512L30.5436 24.9104C30.3928 24.9104 30.2488 24.9858 30.146 25.1161C30.0432 25.2463 29.9884 25.4246 30.0021 25.6028L30.619 32.7043C30.619 32.7043 30.5916 32.7455 30.5916 32.7729C30.5916 32.8003 30.6053 32.8277 30.6259 32.8414L31.421 41.9789C31.4484 42.3011 31.6884 42.5478 31.9763 42.5478H51.0737C51.2245 42.5478 51.3685 42.4793 51.4713 42.3559C51.581 42.2325 51.6358 42.0611 51.6289 41.8829L51.3342 35.0692ZM31.2634 38.2225L46.2616 37.9894L46.385 40.0938L31.4484 40.3749L31.2634 38.2225ZM31.2496 38.0442L31.0166 35.3297L46.104 35.1789L46.2616 37.8112L31.2565 38.0442H31.2496ZM31.0029 35.1447L30.8041 32.8483L45.9463 32.533L46.0903 34.9938L31.0029 35.1447ZM51.0463 32.2519L46.0971 32.3547L45.9463 29.7499L50.9023 29.6197C50.9023 29.6197 50.9229 29.6128 50.9366 29.606L51.0531 32.2588L51.0463 32.2519ZM45.9326 32.3547L30.7835 32.6701L30.5642 30.1544L45.7818 29.7499L45.9326 32.3547ZM46.1108 32.533L51.06 32.4302L51.1697 34.9459L46.2548 34.9938L46.1108 32.533ZM50.9298 29.4483C50.9298 29.4483 50.9092 29.4346 50.8955 29.4346L45.9326 29.5648L45.7887 27.056L50.731 26.9326C50.7652 26.9326 50.7927 26.912 50.8132 26.8778L50.9229 29.4415L50.9298 29.4483ZM30.2694 25.2395C30.3448 25.1504 30.4408 25.0955 30.5505 25.0955L50.3334 24.6363C50.3334 24.6363 50.3334 24.6363 50.3402 24.6363C50.5527 24.6363 50.7241 24.8213 50.731 25.0613L50.7995 26.7201C50.7995 26.7201 50.7515 26.679 50.7173 26.679L45.7612 26.8024L45.6516 24.9173C45.6516 24.8693 45.6104 24.8282 45.5625 24.835C45.5145 24.835 45.4802 24.883 45.4871 24.931L45.5967 26.8092L30.4751 27.1862C30.4134 27.1862 30.3585 27.2479 30.3654 27.3165C30.3654 27.385 30.4202 27.4399 30.4819 27.4399L45.6104 27.0628L45.7544 29.5717L30.5368 29.9761L30.1529 25.5891C30.1392 25.4588 30.1803 25.3354 30.2557 25.2395H30.2694ZM31.5924 41.9515L31.469 40.5599L46.3987 40.2789L46.5153 42.3216C46.5153 42.3216 46.5221 42.349 46.5358 42.3627H31.9763C31.7706 42.3627 31.6061 42.1914 31.5855 41.9583L31.5924 41.9515ZM51.3548 42.2257C51.2793 42.3148 51.1834 42.3627 51.0737 42.3627H46.6661C46.6661 42.3627 46.6866 42.3285 46.6798 42.3079L46.5633 40.2789L51.2656 40.1898C51.3136 40.1898 51.3479 40.1486 51.3479 40.1007C51.3479 40.0527 51.3068 40.0116 51.2656 40.0116L46.5564 40.1007L46.433 37.9962L51.1491 37.9208C51.1971 37.9208 51.2314 37.8797 51.2314 37.8317C51.2314 37.7837 51.1902 37.7426 51.1491 37.7426L46.4262 37.818L46.2685 35.1858L51.1765 35.1378L51.4713 41.8966C51.4713 42.0269 51.437 42.1434 51.3616 42.2325L51.3548 42.2257Z" fill="url(#paint15_linear_3763_11558)"/>
<g style="mix-blend-mode:overlay">
<path d="M51.3342 35.0692C51.3342 35.0692 51.3479 35.0487 51.3479 35.035C51.3479 35.0213 51.341 35.0076 51.3342 35.0007L51.2177 32.3616C51.2177 32.3616 51.2245 32.3479 51.2245 32.341C51.2245 32.3273 51.2177 32.3205 51.2108 32.3136L50.8955 25.0544C50.8818 24.7117 50.635 24.4512 50.3265 24.4512L30.5436 24.9104C30.3928 24.9104 30.2488 24.9858 30.146 25.1161C30.0432 25.2463 29.9884 25.4246 30.0021 25.6028L30.619 32.7043C30.619 32.7043 30.5916 32.7455 30.5916 32.7729C30.5916 32.8003 30.6053 32.8277 30.6259 32.8414L31.421 41.9789C31.4484 42.3011 31.6884 42.5478 31.9763 42.5478H51.0737C51.2245 42.5478 51.3685 42.4793 51.4713 42.3559C51.581 42.2325 51.6358 42.0611 51.6289 41.8829L51.3342 35.0692ZM31.2634 38.2225L46.2616 37.9894L46.385 40.0938L31.4484 40.3749L31.2634 38.2225ZM31.2496 38.0442L31.0166 35.3297L46.104 35.1789L46.2616 37.8112L31.2565 38.0442H31.2496ZM31.0029 35.1447L30.8041 32.8483L45.9463 32.533L46.0903 34.9938L31.0029 35.1447ZM51.0463 32.2519L46.0971 32.3547L45.9463 29.7499L50.9023 29.6197C50.9023 29.6197 50.9229 29.6128 50.9366 29.606L51.0531 32.2588L51.0463 32.2519ZM45.9326 32.3547L30.7835 32.6701L30.5642 30.1544L45.7818 29.7499L45.9326 32.3547ZM46.1108 32.533L51.06 32.4302L51.1697 34.9459L46.2548 34.9938L46.1108 32.533ZM50.9298 29.4483C50.9298 29.4483 50.9092 29.4346 50.8955 29.4346L45.9326 29.5648L45.7887 27.056L50.731 26.9326C50.7652 26.9326 50.7927 26.912 50.8132 26.8778L50.9229 29.4415L50.9298 29.4483ZM30.2694 25.2395C30.3448 25.1504 30.4408 25.0955 30.5505 25.0955L50.3334 24.6363C50.3334 24.6363 50.3334 24.6363 50.3402 24.6363C50.5527 24.6363 50.7241 24.8213 50.731 25.0613L50.7995 26.7201C50.7995 26.7201 50.7515 26.679 50.7173 26.679L45.7612 26.8024L45.6516 24.9173C45.6516 24.8693 45.6104 24.8282 45.5625 24.835C45.5145 24.835 45.4802 24.883 45.4871 24.931L45.5967 26.8092L30.4751 27.1862C30.4134 27.1862 30.3585 27.2479 30.3654 27.3165C30.3654 27.385 30.4202 27.4399 30.4819 27.4399L45.6104 27.0628L45.7544 29.5717L30.5368 29.9761L30.1529 25.5891C30.1392 25.4588 30.1803 25.3354 30.2557 25.2395H30.2694ZM31.5924 41.9515L31.469 40.5599L46.3987 40.2789L46.5153 42.3216C46.5153 42.3216 46.5221 42.349 46.5358 42.3627H31.9763C31.7706 42.3627 31.6061 42.1914 31.5855 41.9583L31.5924 41.9515ZM51.3548 42.2257C51.2793 42.3148 51.1834 42.3627 51.0737 42.3627H46.6661C46.6661 42.3627 46.6866 42.3285 46.6798 42.3079L46.5633 40.2789L51.2656 40.1898C51.3136 40.1898 51.3479 40.1486 51.3479 40.1007C51.3479 40.0527 51.3068 40.0116 51.2656 40.0116L46.5564 40.1007L46.433 37.9962L51.1491 37.9208C51.1971 37.9208 51.2314 37.8797 51.2314 37.8317C51.2314 37.7837 51.1902 37.7426 51.1491 37.7426L46.4262 37.818L46.2685 35.1858L51.1765 35.1378L51.4713 41.8966C51.4713 42.0269 51.437 42.1434 51.3616 42.2325L51.3548 42.2257Z" fill="white"/>
</g>
<path d="M34.4448 15.5951C34.4448 15.5951 34.3832 15.5883 34.3626 15.5609C34.342 15.5403 34.3283 15.5129 34.3283 15.4855L34.2598 12.5722C34.2598 12.5722 34.2666 12.5105 34.2872 12.4899C34.3077 12.4694 34.3352 12.4556 34.3694 12.4556L35.5348 12.4282C35.8295 12.4282 36.0763 12.4625 36.2819 12.5516C36.4876 12.6407 36.6521 12.7778 36.7686 12.956C36.8852 13.1343 36.9468 13.3536 36.9606 13.621C36.9606 13.7512 36.9674 13.8677 36.9743 13.9637C36.9743 14.0597 36.9743 14.1762 36.9743 14.3064C36.9743 14.5875 36.9126 14.8137 36.8166 14.9988C36.7138 15.1838 36.563 15.3209 36.3642 15.4169C36.1654 15.506 35.9186 15.5609 35.6239 15.5677L34.438 15.5951H34.4448ZM35.1235 14.9302L35.5965 14.9165C35.7267 14.9165 35.8295 14.8891 35.9118 14.848C35.994 14.8068 36.0557 14.7383 36.1037 14.656C36.1517 14.5738 36.1654 14.4572 36.1654 14.3133C36.1654 14.2242 36.1654 14.1488 36.1654 14.0802C36.1654 14.0117 36.1654 13.9431 36.1654 13.8746C36.1654 13.806 36.1585 13.7306 36.1517 13.6484C36.1448 13.4427 36.0831 13.2988 35.9803 13.2028C35.8775 13.1137 35.7267 13.0657 35.5348 13.0726H35.0892L35.1303 14.9302H35.1235Z" fill="white"/>
<path d="M37.646 15.5195C37.646 15.5195 37.5843 15.5127 37.5638 15.4852C37.5432 15.4578 37.5295 15.4373 37.5295 15.4098L37.4609 12.4965C37.4609 12.4965 37.4678 12.4349 37.4884 12.4143C37.5089 12.3937 37.5363 12.38 37.5706 12.38L39.6613 12.332C39.6613 12.332 39.723 12.3389 39.7436 12.3595C39.7641 12.38 39.7779 12.4074 39.7779 12.4417V12.8599C39.7779 12.8599 39.7779 12.9215 39.7573 12.9421C39.7367 12.9627 39.7093 12.9764 39.675 12.9764L38.2492 13.0107L38.2629 13.6139L39.5928 13.5865C39.5928 13.5865 39.6545 13.5933 39.675 13.6207C39.6956 13.6482 39.7093 13.6687 39.7093 13.703V14.0937C39.7093 14.0937 39.7093 14.1486 39.6887 14.176C39.6682 14.2034 39.6408 14.2102 39.6065 14.2102L38.2767 14.2377L38.2904 14.8615L39.7573 14.8272C39.7573 14.8272 39.819 14.834 39.8395 14.8546C39.8601 14.8752 39.8738 14.9026 39.8738 14.9369V15.355C39.8738 15.355 39.8738 15.4098 39.8533 15.4373C39.8327 15.4578 39.8053 15.4715 39.771 15.4715L37.646 15.5195Z" fill="white"/>
<path d="M41.2786 15.4374C41.2307 15.4374 41.1895 15.4237 41.1552 15.4032C41.1278 15.3757 41.1004 15.3483 41.0867 15.3072L40.1065 12.4625C40.1065 12.4625 40.0996 12.435 40.0996 12.4213C40.0996 12.3939 40.1065 12.3733 40.127 12.3528C40.1476 12.3322 40.1682 12.3254 40.1956 12.3254L40.7508 12.3117C40.7988 12.3117 40.8331 12.3254 40.8605 12.3459C40.8879 12.3665 40.9085 12.4008 40.9153 12.4213L41.6008 14.4778L42.1835 12.3939C42.1835 12.3939 42.2109 12.3459 42.2315 12.3185C42.252 12.2911 42.2931 12.2774 42.3411 12.2774L42.9032 12.2637C42.9032 12.2637 42.9512 12.2705 42.9718 12.2911C42.9923 12.3117 42.9992 12.3322 42.9992 12.3528C42.9992 12.3665 42.9992 12.3802 42.9923 12.3939L42.1423 15.2798C42.1355 15.3141 42.1149 15.3483 42.0875 15.3757C42.0601 15.4032 42.019 15.4169 41.9641 15.4169L41.2786 15.4306V15.4374Z" fill="white"/>
<path d="M43.5952 15.3827C43.5952 15.3827 43.5335 15.3758 43.513 15.3484C43.4924 15.3279 43.4787 15.3004 43.4787 15.273L43.4102 12.3597C43.4102 12.3597 43.417 12.298 43.4376 12.2775C43.4581 12.2569 43.4856 12.2432 43.5198 12.2432L44.1231 12.2295C44.1231 12.2295 44.1847 12.2363 44.2053 12.2569C44.2259 12.2775 44.2396 12.3049 44.2396 12.3392L44.3081 15.2525C44.3081 15.2525 44.3013 15.3073 44.2739 15.3347C44.2533 15.3553 44.2259 15.369 44.1916 15.369L43.5884 15.3827H43.5952Z" fill="white"/>
<path d="M46.1053 15.3687C45.8037 15.3687 45.5569 15.3413 45.3582 15.2591C45.1594 15.1768 45.0086 15.074 44.9057 14.9369C44.8029 14.7998 44.7412 14.6558 44.7344 14.505C44.7344 14.4776 44.7412 14.4571 44.7618 14.4365C44.7824 14.4159 44.8029 14.4091 44.8303 14.4022L45.3924 14.3885C45.4336 14.3885 45.4678 14.3885 45.4884 14.4091C45.509 14.4228 45.5295 14.4433 45.5501 14.4639C45.5775 14.505 45.6118 14.553 45.6529 14.5942C45.694 14.6353 45.7557 14.6696 45.8243 14.6901C45.8997 14.7107 45.9819 14.7244 46.0848 14.7244C46.2561 14.7244 46.3864 14.6901 46.4755 14.6353C46.5646 14.5804 46.6057 14.505 46.5989 14.4091C46.5989 14.3405 46.5715 14.2857 46.5235 14.2446C46.4755 14.2034 46.4001 14.1692 46.2904 14.1349C46.1807 14.1006 46.0436 14.0732 45.8654 14.0389C45.6392 13.9978 45.4404 13.9361 45.2828 13.8675C45.1251 13.7921 44.9949 13.6962 44.9126 13.5728C44.8235 13.4494 44.7824 13.2986 44.7755 13.1135C44.7755 12.9284 44.8166 12.7639 44.9195 12.62C45.0223 12.476 45.1594 12.3595 45.3445 12.2772C45.5295 12.195 45.7489 12.147 46.0025 12.1401C46.2082 12.1401 46.3932 12.1607 46.5509 12.2087C46.7086 12.2567 46.8456 12.3252 46.9485 12.4143C47.0581 12.5034 47.1404 12.5926 47.2021 12.6954C47.2569 12.7913 47.2912 12.8942 47.2981 12.9901C47.2981 13.0107 47.2912 13.0381 47.2775 13.0587C47.2638 13.0792 47.2364 13.0861 47.209 13.0861L46.6194 13.0998C46.6194 13.0998 46.5577 13.0998 46.5303 13.0861C46.5098 13.0724 46.4823 13.0587 46.4686 13.0313C46.4481 12.9696 46.4001 12.9079 46.3247 12.8599C46.2493 12.8119 46.1465 12.7913 46.0231 12.7913C45.8928 12.7913 45.79 12.8188 45.7215 12.8667C45.6461 12.9147 45.6118 12.9833 45.6186 13.0792C45.6186 13.1409 45.6392 13.1889 45.6803 13.2369C45.7215 13.278 45.79 13.3192 45.886 13.3466C45.9819 13.374 46.1122 13.4083 46.2767 13.4425C46.5509 13.4905 46.7702 13.5454 46.9416 13.6139C47.113 13.6893 47.2364 13.7853 47.3186 13.9018C47.4009 14.0184 47.442 14.1692 47.4489 14.3542C47.4489 14.5599 47.4009 14.7312 47.2844 14.8821C47.1678 15.0329 47.017 15.1494 46.8114 15.2316C46.6126 15.3139 46.3795 15.3619 46.1122 15.3687H46.1053Z" fill="white"/>
<path d="M6.11404 44.2615C6.03863 44.2615 5.97694 44.2341 5.9221 44.1793C5.86726 44.1244 5.83984 44.0559 5.83984 43.9736C5.83984 43.9599 5.83984 43.9325 5.85355 43.8914C5.86726 43.8503 5.88097 43.816 5.90154 43.7817L7.98539 40.9233L6.08662 38.2362C6.08662 38.2362 6.04549 38.1676 6.03178 38.1334C6.01807 38.0991 6.01121 38.0648 6.01121 38.0305C6.01121 37.9551 6.03863 37.8934 6.10033 37.8386C6.15516 37.7838 6.22371 37.7563 6.29911 37.7563H7.82088C7.93055 37.7563 8.01281 37.7838 8.06765 37.8317C8.12249 37.8797 8.16362 37.9277 8.18418 37.9688L9.34264 39.566L10.4942 37.9826C10.5285 37.9414 10.5697 37.8934 10.6245 37.8386C10.6793 37.7838 10.7616 37.7563 10.8644 37.7563H12.3245C12.3999 37.7563 12.4616 37.7838 12.5164 37.8386C12.5712 37.8934 12.5987 37.9551 12.5987 38.0305C12.5987 38.0648 12.5987 38.0991 12.585 38.1334C12.5781 38.1676 12.5575 38.2019 12.537 38.2362L10.5902 40.9233L12.7152 43.7817C12.7152 43.7817 12.7563 43.8503 12.7632 43.8845C12.77 43.9188 12.7769 43.9462 12.7769 43.9736C12.7769 44.0559 12.7495 44.1244 12.6946 44.1793C12.6398 44.2341 12.5781 44.2615 12.5027 44.2615H10.9055C10.8027 44.2615 10.7342 44.241 10.6793 44.193C10.6313 44.145 10.5902 44.1039 10.5559 44.0628L9.29466 42.3491L8.01967 44.0628C8.01967 44.0628 7.94426 44.1382 7.89628 44.1861C7.8483 44.2341 7.77289 44.2615 7.67007 44.2615H6.10718H6.11404Z" fill="#282E45"/>
<path d="M16.4379 44.2614C16.3557 44.2614 16.2803 44.2339 16.2186 44.1654C16.1569 44.1037 16.1226 44.0283 16.1226 43.946V38.0029L14.4089 39.3122C14.3335 39.367 14.2581 39.3945 14.1758 39.3739C14.0936 39.3602 14.025 39.3122 13.9702 39.2368L13.2367 38.2771C13.1888 38.2017 13.1682 38.1195 13.1819 38.0304C13.1956 37.9412 13.2436 37.8727 13.3259 37.8247L16.198 35.6038C16.246 35.5695 16.294 35.5489 16.342 35.5352C16.3899 35.5215 16.4379 35.5146 16.4996 35.5146H18.0625C18.1516 35.5146 18.227 35.5421 18.2887 35.6038C18.3504 35.6655 18.3778 35.734 18.3778 35.83V43.946C18.3778 44.0283 18.3504 44.1037 18.2887 44.1654C18.2339 44.2271 18.1585 44.2614 18.0625 44.2614H16.4379Z" fill="#282E45"/>
<path d="M23.1827 44.3985C22.4013 44.3985 21.7432 44.2751 21.2222 44.0283C20.6944 43.7815 20.2968 43.4594 20.0295 43.0686C19.7553 42.6711 19.6182 42.2461 19.5977 41.7868C19.5977 41.7114 19.6251 41.6497 19.6731 41.6017C19.721 41.5537 19.7827 41.5263 19.8581 41.5263H21.5307C21.6404 41.5263 21.7226 41.5469 21.7843 41.588C21.846 41.6291 21.894 41.6908 21.9283 41.7662C22.0037 41.9582 22.0997 42.1158 22.2299 42.2392C22.3533 42.3626 22.4972 42.4586 22.6549 42.5134C22.8126 42.5682 22.9908 42.6025 23.1896 42.6025C23.4226 42.6025 23.642 42.5545 23.8408 42.4517C24.0396 42.3489 24.2041 42.2049 24.3206 42.0061C24.444 41.8073 24.4988 41.5743 24.4988 41.3001C24.4988 41.0533 24.444 40.834 24.3275 40.6489C24.2178 40.4638 24.0601 40.3199 23.8682 40.2102C23.6694 40.1005 23.4432 40.0457 23.1896 40.0457C22.9908 40.0457 22.8263 40.0662 22.7029 40.1142C22.5795 40.1622 22.4767 40.217 22.3876 40.2856C22.3053 40.3541 22.2299 40.409 22.1614 40.457C22.0928 40.5049 22.0174 40.5255 21.9351 40.5255H20.2968C20.2214 40.5255 20.1597 40.4981 20.1049 40.4432C20.0501 40.3884 20.0227 40.3267 20.0227 40.2513L20.4751 35.8917C20.4888 35.7683 20.5368 35.6723 20.6122 35.6106C20.6876 35.5489 20.7767 35.5146 20.8864 35.5146H25.8972C25.9863 35.5146 26.0686 35.5421 26.1303 35.6038C26.192 35.6586 26.2262 35.734 26.2262 35.83V37.0021C26.2262 37.0912 26.192 37.1667 26.1303 37.2283C26.0686 37.2832 25.9932 37.3175 25.8972 37.3175H22.2779L22.1134 38.9283C22.2984 38.8118 22.5109 38.709 22.7577 38.6267C23.0045 38.5445 23.3404 38.5033 23.7722 38.5033C24.1629 38.5033 24.54 38.5719 24.9033 38.709C25.2666 38.8461 25.5887 39.038 25.8766 39.2916C26.1645 39.5453 26.3908 39.84 26.5484 40.1828C26.7129 40.5255 26.7952 40.9162 26.7952 41.3481C26.7952 41.9376 26.6512 42.4654 26.3633 42.9247C26.0754 43.3839 25.6641 43.7404 25.1226 44.0077C24.5811 44.2751 23.9299 44.3985 23.1759 44.3985H23.1827Z" fill="#282E45"/>
</g>
<defs>
<linearGradient id="paint0_linear_3763_11558" x1="72.4266" y1="17.761" x2="54.5973" y2="54.1257" gradientUnits="userSpaceOnUse">
<stop stop-color="#222C4F"/>
<stop offset="1" stop-color="#4B69DE"/>
</linearGradient>
<linearGradient id="paint1_linear_3763_11558" x1="51.8412" y1="35.6793" x2="63.4943" y2="35.6793" gradientUnits="userSpaceOnUse">
<stop stop-color="#4F52FF"/>
<stop offset="1" stop-color="#4042E2"/>
</linearGradient>
<linearGradient id="paint2_linear_3763_11558" x1="58.6497" y1="18.5014" x2="44.8236" y2="-10.2339" gradientUnits="userSpaceOnUse">
<stop stop-color="#222C4F"/>
<stop offset="1" stop-color="#4B69DE"/>
</linearGradient>
<linearGradient id="paint3_linear_3763_11558" x1="12.7971" y1="63.9484" x2="45.5082" y2="26.7749" gradientUnits="userSpaceOnUse">
<stop stop-color="#222C4F"/>
<stop offset="1" stop-color="#4B69DE"/>
</linearGradient>
<linearGradient id="paint4_linear_3763_11558" x1="27.6653" y1="29.5235" x2="55.1393" y2="29.5235" gradientUnits="userSpaceOnUse">
<stop stop-color="#4F52FF"/>
<stop offset="1" stop-color="#4042E2"/>
</linearGradient>
<linearGradient id="paint5_linear_3763_11558" x1="30.6811" y1="18.8233" x2="50.7314" y2="18.8233" gradientUnits="userSpaceOnUse">
<stop stop-color="#DAE3FE"/>
<stop offset="1" stop-color="#E9EFFD"/>
</linearGradient>
<linearGradient id="paint6_linear_3763_11558" x1="31.0513" y1="21.579" x2="44.5073" y2="21.579" gradientUnits="userSpaceOnUse">
<stop stop-color="#DAE3FE"/>
<stop offset="1" stop-color="#E9EFFD"/>
</linearGradient>
<linearGradient id="paint7_linear_3763_11558" x1="30.0023" y1="33.4926" x2="51.6291" y2="33.4926" gradientUnits="userSpaceOnUse">
<stop stop-color="#4F52FF"/>
<stop offset="1" stop-color="#4042E2"/>
</linearGradient>
<linearGradient id="paint8_linear_3763_11558" x1="45.501" y1="33.616" x2="46.68" y2="33.616" gradientUnits="userSpaceOnUse">
<stop stop-color="#4F52FF"/>
<stop offset="1" stop-color="#4042E2"/>
</linearGradient>
<linearGradient id="paint9_linear_3763_11558" x1="30.3799" y1="27.0562" x2="50.8415" y2="27.0562" gradientUnits="userSpaceOnUse">
<stop stop-color="#4F52FF"/>
<stop offset="1" stop-color="#4042E2"/>
</linearGradient>
<linearGradient id="paint10_linear_3763_11558" x1="30.4062" y1="29.7979" x2="50.9775" y2="29.7979" gradientUnits="userSpaceOnUse">
<stop stop-color="#4F52FF"/>
<stop offset="1" stop-color="#4042E2"/>
</linearGradient>
<linearGradient id="paint11_linear_3763_11558" x1="30.5996" y1="32.5536" x2="51.2257" y2="32.5536" gradientUnits="userSpaceOnUse">
<stop stop-color="#4F52FF"/>
<stop offset="1" stop-color="#4042E2"/>
</linearGradient>
<linearGradient id="paint12_linear_3763_11558" x1="30.873" y1="35.1377" x2="51.3483" y2="35.1377" gradientUnits="userSpaceOnUse">
<stop stop-color="#4F52FF"/>
<stop offset="1" stop-color="#4042E2"/>
</linearGradient>
<linearGradient id="paint13_linear_3763_11558" x1="31.127" y1="37.9826" x2="51.2252" y2="37.9826" gradientUnits="userSpaceOnUse">
<stop stop-color="#4F52FF"/>
<stop offset="1" stop-color="#4042E2"/>
</linearGradient>
<linearGradient id="paint14_linear_3763_11558" x1="31.3398" y1="40.2791" x2="51.349" y2="40.2791" gradientUnits="userSpaceOnUse">
<stop stop-color="#4F52FF"/>
<stop offset="1" stop-color="#4042E2"/>
</linearGradient>
<linearGradient id="paint15_linear_3763_11558" x1="30.0021" y1="33.4926" x2="51.6289" y2="33.4926" gradientUnits="userSpaceOnUse">
<stop stop-color="#4F52FF"/>
<stop offset="1" stop-color="#4042E2"/>
</linearGradient>
<clipPath id="clip0_3763_11558">
<rect width="68.0064" height="60" fill="white"/>
</clipPath>
</defs>
</svg>
