<svg width="61" height="60" viewBox="0 0 61 60" fill="none" xmlns="http://www.w3.org/2000/svg">
<g clip-path="url(#clip0_3763_11081)">
<path d="M27.6324 59.7256C27.2279 59.9038 26.8029 59.9929 26.3711 59.9998C26.8509 60.0066 27.3376 59.9175 27.7832 59.7187L30.1412 58.6768L30.0932 58.6562L27.6392 59.7325L27.6324 59.7256Z" fill="#2D52EA"/>
<path d="M52.7412 3.31785C52.7412 3.26302 52.7412 3.20818 52.7344 3.14648C52.7344 3.20818 52.7412 3.26302 52.7412 3.32471V3.311V3.31785Z" fill="#2D52EA"/>
<path d="M30.1398 58.6772L32.7994 57.4913L32.8131 57.4639L30.0918 58.6497L30.1398 58.6772Z" fill="#E9EFFD"/>
<path d="M52.7344 6.45701L52.7412 6.42959V3.44775L52.7344 6.45701Z" fill="#E9EFFD"/>
<path d="M0.00685479 3.15332C0 3.20816 0 3.263 0 3.31784V6.42991L0.0137096 6.45733L0 3.33155C0 3.26985 0 3.21501 0.00685479 3.15332Z" fill="#2D52EA"/>
<path d="M19.9277 57.4639L19.9414 57.4981L24.9592 59.7259C25.4116 59.9247 25.8914 60.0207 26.3712 60.007C25.9394 60.0001 25.5075 59.911 25.11 59.7328L19.9277 57.4639Z" fill="#2D52EA"/>
<path d="M3.95422 7.0056C3.95422 5.04513 5.53768 3.44796 7.49815 3.44796H11.5082L14.2844 0H3.31672C3.31672 0 3.31672 0 3.30987 0C3.20019 0 3.09052 0 2.98084 0.0137096C2.93971 0.0137096 2.89858 0.0274192 2.85745 0.034274C2.7889 0.0411288 2.72036 0.0548383 2.65181 0.0685479C2.59697 0.0822575 2.54213 0.0959671 2.48729 0.109677C2.43931 0.123386 2.38447 0.130241 2.33649 0.150805C2.28165 0.164515 2.23367 0.191934 2.17883 0.205644C2.13085 0.226208 2.07601 0.239918 2.02802 0.260482C1.98004 0.281046 1.93206 0.308466 1.89093 0.32903C1.84294 0.356449 1.78811 0.377014 1.74012 0.404433C1.69214 0.431852 1.65101 0.459271 1.60988 0.48669C1.5619 0.514109 1.51391 0.541529 1.46593 0.568948C1.4248 0.596367 1.38367 0.630641 1.34254 0.65806C1.30142 0.692334 1.25343 0.719753 1.2123 0.760882C1.17117 0.795156 1.1369 0.82943 1.10263 0.863704C1.0615 0.897978 1.02037 0.939106 0.97924 0.97338C0.944966 1.00765 0.910692 1.04878 0.876418 1.08991C0.842144 1.13104 0.801015 1.17217 0.766741 1.2133C0.732467 1.25443 0.705048 1.29556 0.677629 1.33668C0.643355 1.37781 0.609081 1.4258 0.574807 1.47378C0.547388 1.51491 0.519969 1.55604 0.499404 1.60402C0.471985 1.652 0.437711 1.69999 0.410292 1.74797C0.389728 1.7891 0.369163 1.83708 0.341744 1.88507C0.314325 1.93305 0.286906 1.98789 0.266341 2.03587C0.245777 2.08386 0.232068 2.1387 0.211503 2.18668C0.190939 2.23466 0.170374 2.2895 0.156665 2.33748C0.142955 2.39232 0.129246 2.44031 0.115536 2.49514C0.101826 2.54998 0.0881169 2.59797 0.0744073 2.6528C0.0606977 2.70764 0.0606977 2.76248 0.0469881 2.81732C0.0401333 2.87216 0.0264238 2.927 0.019569 2.98869C0.019569 3.04353 0.019569 3.09837 0.0127142 3.1532C0.0127142 3.2149 0.00585938 3.26974 0.00585938 3.33143L0.019569 6.45721L0.0606977 17.7265L3.99535 12.8253L3.96793 7.0056H3.95422Z" fill="#2D52EA"/>
<path d="M28.1048 3.44796L30.8741 0H27.9334L25.1641 3.44796H28.1048Z" fill="#2D52EA"/>
<path d="M4.05188 29.7363L0.103516 34.6512L0.117225 38.298L4.07244 33.3831L4.05188 29.7363Z" fill="#2D52EA"/>
<path d="M30.0932 58.6498L18.2001 53.0357L6.23848 47.3874C4.94978 46.8253 4.12035 45.5571 4.11349 44.1519L4.07922 36.502L0.130859 41.4305L0.151424 46.647C0.151424 47.9632 0.93287 49.149 2.13931 49.6769L19.9344 57.4639L25.1166 59.7328C25.521 59.9111 25.946 60.0002 26.3779 60.007C26.8097 60.0002 27.2416 59.9111 27.6391 59.7328L30.0932 58.6566V58.6498Z" fill="#2D52EA"/>
<path d="M52.7405 3.44796V3.32457C52.7405 3.26288 52.7405 3.20804 52.7337 3.14635C52.7337 3.09151 52.7337 3.03667 52.7268 2.98183C52.7268 2.927 52.7131 2.87216 52.6994 2.81047C52.6925 2.75563 52.6857 2.70079 52.672 2.64595C52.6583 2.59111 52.6445 2.54313 52.6308 2.48829C52.6171 2.43345 52.6034 2.37861 52.5897 2.33063C52.576 2.27579 52.5554 2.22781 52.5349 2.17982C52.5143 2.13184 52.5006 2.077 52.48 2.02902C52.4595 1.97418 52.432 1.9262 52.4046 1.87821C52.3841 1.83023 52.3635 1.7891 52.3361 1.74112C52.3087 1.69313 52.2744 1.64515 52.247 1.59717C52.2195 1.55604 52.199 1.50805 52.1716 1.46693C52.1373 1.41894 52.103 1.37781 52.0687 1.32983C52.0413 1.2887 52.0071 1.24757 51.9796 1.20644C51.9454 1.16531 51.9042 1.12419 51.87 1.08991C51.8357 1.04878 51.8014 1.00765 51.7671 0.973381C51.726 0.932252 51.6849 0.897978 51.6437 0.863704C51.6026 0.82943 51.5683 0.795156 51.5272 0.760882C51.4861 0.726608 51.4381 0.692334 51.397 0.65806C51.3558 0.630641 51.3147 0.596367 51.2736 0.568948C51.2256 0.541529 51.1776 0.514109 51.1296 0.48669C51.0885 0.459271 51.0405 0.431852 50.9994 0.404433C50.9514 0.377014 50.8966 0.356449 50.8486 0.32903C50.8006 0.308466 50.7595 0.281047 50.7115 0.260482C50.6635 0.239918 50.6155 0.226208 50.5607 0.205644C50.5059 0.185079 50.4579 0.164515 50.403 0.150805C50.355 0.137096 50.3002 0.123386 50.2522 0.109677C50.1974 0.0959671 50.1425 0.0754027 50.0877 0.0685479C50.0192 0.0548383 49.9506 0.0479835 49.8821 0.034274C49.8409 0.034274 49.7998 0.0205644 49.7587 0.0137096C49.649 0 49.5393 0 49.4296 0C49.4296 0 49.4296 0 49.4228 0H33.3963L30.627 3.44796H52.7405Z" fill="#2D52EA"/>
<path d="M4.05078 29.7359L4.07135 33.3826L28.1042 3.44775H25.1635L4.05078 29.7359Z" fill="#EAEEFF"/>
<path d="M30.6267 3.44777L4.07812 36.5016L4.1124 44.1515C4.1124 45.5568 4.94868 46.8249 6.23739 47.387L18.199 53.0354L30.0921 58.6494L32.8134 57.4567L50.6085 49.6696C51.8149 49.1418 52.5963 47.9559 52.5963 46.6398L52.7334 6.45017V3.44092H30.6267V3.44777Z" fill="#EAEEFF"/>
<path d="M7.49903 3.44775C5.53856 3.44775 3.94825 5.04492 3.9551 7.00539L3.98252 12.8251L11.5091 3.44775H7.49903Z" fill="#EAEEFF"/>
<path d="M3.99719 16.6707L3.98348 12.8252L0.0488281 17.7264L0.103666 34.6509L4.05203 29.736L3.99719 16.6707Z" fill="#2D52EA"/>
<g style="mix-blend-mode:soft-light">
<path d="M3.99719 16.6707L3.98348 12.8252L0.0488281 17.7264L0.103666 34.6509L4.05203 29.736L3.99719 16.6707Z" fill="white"/>
</g>
<path d="M25.1645 3.44796L27.9338 0H14.286L11.5098 3.44796H25.1645Z" fill="#2D52EA"/>
<g style="mix-blend-mode:soft-light">
<path d="M25.1645 3.44796L27.9338 0H14.286L11.5098 3.44796H25.1645Z" fill="white"/>
</g>
<path d="M11.509 3.44775L3.98242 12.8251L3.99613 16.6706L4.05097 29.7359L25.1637 3.44775H11.509Z" fill="#E9EFFD"/>
<g style="mix-blend-mode:soft-light">
<path d="M11.509 3.44775L3.98242 12.8251L3.99613 16.6706L4.05097 29.7359L25.1637 3.44775H11.509Z" fill="white"/>
</g>
<path d="M28.1055 3.44796H30.628L33.3974 0H30.8748L28.1055 3.44796Z" fill="#2D52EA"/>
<g style="mix-blend-mode:soft-light">
<path d="M28.1055 3.44796H30.628L33.3974 0H30.8748L28.1055 3.44796Z" fill="white"/>
</g>
<path d="M4.0724 33.3828L0.117188 38.2977L0.130897 41.4303L4.07926 36.5017L4.0724 33.3828Z" fill="#2D52EA"/>
<g style="mix-blend-mode:soft-light">
<path d="M4.0724 33.3828L0.117188 38.2977L0.130897 41.4303L4.07926 36.5017L4.0724 33.3828Z" fill="white"/>
</g>
<path d="M4.07912 36.5016L30.6277 3.44775H28.1052L4.07227 33.3826L4.07912 36.5016Z" fill="#E9EFFD"/>
<g style="mix-blend-mode:soft-light">
<path d="M4.07912 36.5016L30.6277 3.44775H28.1052L4.07227 33.3826L4.07912 36.5016Z" fill="white"/>
</g>
<path d="M11.6258 18.7752C11.5504 18.7752 11.4887 18.7478 11.4338 18.693C11.379 18.6381 11.3516 18.5696 11.3516 18.4873C11.3516 18.4736 11.3516 18.4462 11.3653 18.4051C11.379 18.3639 11.3927 18.3297 11.4133 18.2954L13.4971 15.4369L11.5983 12.7499C11.5983 12.7499 11.5572 12.6813 11.5435 12.647C11.5298 12.6128 11.5229 12.5785 11.5229 12.5442C11.5229 12.4688 11.5504 12.4071 11.612 12.3523C11.6669 12.2974 11.7354 12.27 11.8108 12.27H13.3326C13.4423 12.27 13.5245 12.2974 13.5794 12.3454C13.6342 12.3934 13.6753 12.4414 13.6959 12.4825L14.8544 14.0797L16.006 12.4962C16.0402 12.4551 16.0814 12.4071 16.1362 12.3523C16.191 12.2974 16.2733 12.27 16.3761 12.27H17.8362C17.9116 12.27 17.9733 12.2974 18.0281 12.3523C18.083 12.4071 18.1104 12.4688 18.1104 12.5442C18.1104 12.5785 18.1104 12.6128 18.0967 12.647C18.0898 12.6813 18.0693 12.7156 18.0487 12.7499L16.1019 15.4369L18.2269 18.2954C18.2269 18.2954 18.268 18.3639 18.2749 18.3982C18.2818 18.4325 18.2886 18.4599 18.2886 18.4873C18.2886 18.5696 18.2612 18.6381 18.2064 18.693C18.1515 18.7478 18.0898 18.7752 18.0144 18.7752H16.4173C16.3144 18.7752 16.2459 18.7547 16.191 18.7067C16.1431 18.6587 16.1019 18.6176 16.0677 18.5764L14.8064 16.8627L13.5314 18.5764C13.5314 18.5764 13.456 18.6518 13.408 18.6998C13.36 18.7478 13.2846 18.7752 13.1818 18.7752H11.6189H11.6258Z" fill="#282E45"/>
<path d="M23.3552 18.775C23.2729 18.775 23.1975 18.7476 23.1358 18.6791C23.0742 18.6174 23.0399 18.542 23.0399 18.4597V17.0476H19.1532C19.071 17.0476 18.9956 17.0202 18.9339 16.9585C18.8722 16.9037 18.8379 16.8283 18.8379 16.7323V15.5464C18.8379 15.471 18.8516 15.4025 18.879 15.3408C18.9064 15.2791 18.9407 15.2174 18.975 15.1626L22.608 10.2408C22.7177 10.0969 22.8685 10.0283 23.0673 10.0283H24.8907C24.9729 10.0283 25.0483 10.0557 25.11 10.1174C25.1717 10.1723 25.206 10.2477 25.206 10.3436V15.19H26.3028C26.4056 15.19 26.481 15.2243 26.5427 15.2859C26.5975 15.3476 26.6318 15.423 26.6318 15.5053V16.7392C26.6318 16.8283 26.5975 16.9037 26.5358 16.9654C26.4741 17.0202 26.3987 17.0545 26.3165 17.0545H25.206V18.4666C25.206 18.5488 25.1717 18.6242 25.11 18.6859C25.0483 18.7476 24.9729 18.7819 24.8907 18.7819H23.3415L23.3552 18.775ZM20.9971 15.2791H23.0947V12.3315L20.9971 15.2791Z" fill="#282E45"/>
<path d="M35.1113 48.2373V50.8353C35.1113 51.6716 40.3552 52.357 46.8193 52.357C53.2834 52.357 58.5273 51.6784 58.5273 50.8353V48.2373H35.1113Z" fill="url(#paint0_linear_3763_11081)"/>
<path d="M46.8174 49.7589C53.2835 49.7589 58.5253 49.0775 58.5253 48.2371C58.5253 47.3966 53.2835 46.7153 46.8174 46.7153C40.3512 46.7153 35.1094 47.3966 35.1094 48.2371C35.1094 49.0775 40.3512 49.7589 46.8174 49.7589Z" fill="url(#paint1_linear_3763_11081)"/>
<path d="M46.8184 49.8618C41.0878 49.8618 35.1035 49.3134 35.1035 48.2578C35.1035 48.2029 35.1241 48.1001 35.1789 48.1001C35.2338 48.1001 35.2132 48.1824 35.2132 48.2372C35.2132 48.909 39.9773 49.6493 46.8184 49.6493C53.6594 49.6493 58.4235 48.9021 58.4235 48.2372C58.4235 48.1824 58.4304 48.1275 58.4921 48.1275C58.5538 48.1275 58.5332 48.2029 58.5332 48.2646C58.5332 49.3203 52.5421 49.8686 46.8184 49.8686V49.8618Z" fill="url(#paint2_linear_3763_11081)"/>
<path d="M45.7145 48.3192C45.831 48.2369 45.9544 48.1615 46.0847 48.0861C46.2149 48.0107 46.3863 47.9422 46.5851 47.8736C46.7907 47.8119 47.0512 47.7571 47.3596 47.7228C47.6681 47.6817 48.052 47.6611 48.5181 47.6611C48.9705 47.6611 49.3955 47.6748 49.7931 47.7023C50.1907 47.7365 50.5403 47.7777 50.8419 47.8394C51.1435 47.9011 51.3903 47.9765 51.5753 48.0656C51.7604 48.1547 51.877 48.2575 51.9112 48.374L53.2274 48.3877C53.3233 48.3877 53.4056 48.3946 53.481 48.4083C53.5564 48.422 53.5907 48.4426 53.5907 48.4631V48.5728L51.8975 48.5591C51.8358 48.6894 51.685 48.8127 51.4451 48.9224C51.2052 49.0321 50.8899 49.1281 50.5129 49.2103L49.8959 49.1212C49.8411 49.1144 49.7931 49.1006 49.7588 49.0869C49.7246 49.0732 49.704 49.0595 49.704 49.0458C49.704 49.0252 49.752 48.9978 49.8479 48.9773C49.9439 48.9498 50.0536 48.9156 50.1701 48.8744C50.2935 48.8333 50.41 48.7853 50.5266 48.7373C50.6431 48.6825 50.7185 48.6208 50.7596 48.5454L46.7564 48.5043C46.6536 48.5797 46.5302 48.6551 46.4 48.7305C46.2697 48.8059 46.0984 48.8744 45.879 48.9293C45.6665 48.991 45.3923 49.0389 45.077 49.0732C44.7548 49.1075 44.3504 49.1281 43.8637 49.1349C43.5004 49.1349 43.1371 49.1212 42.7875 49.0938C42.4379 49.0664 42.1294 49.0184 41.8553 48.9635C41.5811 48.9019 41.3617 48.8333 41.1903 48.7442C41.019 48.6551 40.923 48.5591 40.9024 48.4426L39.8194 48.4289C39.7234 48.4289 39.6412 48.422 39.5658 48.4083C39.4903 48.3946 39.4561 48.374 39.4492 48.3535V48.2438L40.9299 48.2575C40.9984 48.141 41.1286 48.045 41.3343 47.9559C41.5399 47.8736 41.7936 47.7982 42.0883 47.7297L42.5887 47.7982C42.7395 47.8188 42.8149 47.8462 42.8149 47.8736C42.8149 47.8873 42.7875 47.9079 42.719 47.9285C42.6573 47.949 42.5819 47.9765 42.4927 48.0107C42.4105 48.045 42.3282 48.0793 42.246 48.1204C42.1637 48.1615 42.102 48.2095 42.0677 48.2644L45.7145 48.2986V48.3192ZM42.054 48.47C42.0815 48.5385 42.15 48.6002 42.2528 48.6551C42.3557 48.7099 42.479 48.751 42.6298 48.7853C42.7806 48.8196 42.952 48.8402 43.1371 48.8607C43.329 48.8744 43.521 48.8813 43.7266 48.8813C43.9665 48.8813 44.179 48.8676 44.3572 48.847C44.5355 48.8264 44.6931 48.799 44.8302 48.7648C44.9673 48.7305 45.0839 48.6894 45.1867 48.6482C45.2895 48.6071 45.3786 48.5591 45.454 48.5043L42.054 48.47ZM50.7596 48.374C50.7322 48.2986 50.6568 48.2369 50.5471 48.1821C50.4306 48.1273 50.2866 48.0793 50.1153 48.045C49.9371 48.0107 49.7314 47.9833 49.4983 47.9627C49.2653 47.9422 49.0048 47.9353 48.7238 47.9353C48.477 47.9353 48.2576 47.949 48.0794 47.9696C47.9012 47.9902 47.7435 48.0176 47.6064 48.0519C47.4762 48.0861 47.3596 48.1273 47.2705 48.1752C47.1746 48.2232 47.0923 48.2712 47.0101 48.326L50.7596 48.3603V48.374Z" fill="#FCB048"/>
<path d="M46.8188 46.8799C41.5955 46.8799 36.1596 47.3392 35.2891 48.2303C35.3233 48.2646 35.3576 48.292 35.385 48.3331C36.1185 47.7162 40.6084 47.0924 46.8188 47.0924C53.0293 47.0924 57.7522 47.7436 58.3006 48.3811C58.328 48.3468 58.3554 48.3125 58.3897 48.2851C57.67 47.3666 52.1313 46.8867 46.8188 46.8867V46.8799Z" fill="url(#paint3_linear_3763_11081)"/>
<path d="M31.8555 45.5088V48.1068C31.8555 48.943 37.0994 49.6285 43.5635 49.6285C50.0275 49.6285 55.2714 48.9499 55.2714 48.1068V45.5088H31.8555Z" fill="url(#paint4_linear_3763_11081)"/>
<path d="M43.5615 47.0303C50.0276 47.0303 55.2695 46.349 55.2695 45.5086C55.2695 44.6681 50.0276 43.9868 43.5615 43.9868C37.0954 43.9868 31.8535 44.6681 31.8535 45.5086C31.8535 46.349 37.0954 47.0303 43.5615 47.0303Z" fill="url(#paint5_linear_3763_11081)"/>
<path d="M43.5625 47.1333C37.8319 47.1333 31.8477 46.5849 31.8477 45.5292C31.8477 45.4744 31.8682 45.3716 31.9231 45.3716C31.9779 45.3716 31.9573 45.4538 31.9573 45.5087C31.9573 46.1804 36.7214 46.9208 43.5625 46.9208C50.4036 46.9208 55.1677 46.1736 55.1677 45.5087C55.1677 45.4538 55.1745 45.399 55.2362 45.399C55.2979 45.399 55.2773 45.4744 55.2773 45.5361C55.2773 46.5917 49.2862 47.1401 43.5625 47.1401V47.1333Z" fill="url(#paint6_linear_3763_11081)"/>
<path d="M42.4586 45.5907C42.5752 45.5084 42.6986 45.433 42.8288 45.3576C42.959 45.2822 43.1304 45.2137 43.3292 45.1451C43.5348 45.0834 43.7953 45.0286 44.1038 44.9943C44.4123 44.96 44.7961 44.9326 45.2622 44.9326C45.7147 44.9326 46.1397 44.9463 46.5372 44.9737C46.9348 45.008 47.2844 45.0491 47.586 45.1108C47.8876 45.1725 48.1344 45.2479 48.3195 45.337C48.5046 45.4262 48.6211 45.529 48.6554 45.6455L49.9715 45.6592C50.0675 45.6592 50.1497 45.6661 50.2251 45.6798C50.3005 45.6935 50.3348 45.7141 50.3348 45.7346V45.8443L48.6417 45.8306C48.58 45.9608 48.4292 46.0842 48.1892 46.1939C47.9493 46.3036 47.634 46.3995 47.257 46.4818L46.6401 46.3927C46.5852 46.3858 46.5372 46.3721 46.503 46.3584C46.4687 46.3447 46.4481 46.331 46.4481 46.3173C46.4481 46.2967 46.4961 46.2693 46.5921 46.2487C46.688 46.2213 46.7977 46.187 46.9143 46.1459C47.0376 46.1048 47.1542 46.0568 47.2707 46.0088C47.3872 45.954 47.4626 45.8923 47.5038 45.8169L43.5006 45.7758C43.3977 45.8512 43.2744 45.9266 43.1441 46.002C43.0139 46.0774 42.8425 46.1459 42.6232 46.2008C42.4107 46.2624 42.1365 46.3104 41.8211 46.3447C41.499 46.379 41.0945 46.3995 40.6078 46.4064C40.2445 46.4064 39.8812 46.3927 39.5316 46.3653C39.182 46.3378 38.8736 46.2899 38.5994 46.235C38.3252 46.1733 38.1058 46.1048 37.9345 46.0157C37.7631 45.9266 37.6671 45.8306 37.6466 45.7141L36.5635 45.7004C36.4676 45.7004 36.3853 45.6935 36.3099 45.6798C36.2345 45.6661 36.2002 45.6455 36.1934 45.6249V45.5153L37.674 45.529C37.7425 45.4124 37.8728 45.3165 38.0784 45.2274C38.2841 45.1451 38.5377 45.0697 38.8325 45.0012L39.3329 45.0697C39.4837 45.0903 39.5591 45.1177 39.5591 45.1451C39.5591 45.1588 39.5316 45.1794 39.4631 45.2C39.4014 45.2205 39.326 45.2479 39.2369 45.2822C39.1546 45.3165 39.0724 45.3508 38.9901 45.3919C38.9079 45.433 38.8462 45.481 38.8119 45.5358L42.4586 45.5701V45.5907ZM38.7982 45.7415C38.8256 45.81 38.8941 45.8717 38.997 45.9266C39.0998 45.9814 39.2232 46.0225 39.374 46.0568C39.5248 46.0911 39.6962 46.1116 39.8812 46.1322C40.0732 46.1459 40.2651 46.1528 40.4708 46.1528C40.7107 46.1528 40.9232 46.1391 41.1014 46.1185C41.2796 46.0979 41.4373 46.0705 41.5744 46.0362C41.7115 46.002 41.828 45.9608 41.9308 45.9197C42.0336 45.8786 42.1228 45.8306 42.1982 45.7758L38.7982 45.7415ZM47.5038 45.6455C47.4763 45.5701 47.4009 45.5084 47.2913 45.4536C47.1747 45.3987 47.0308 45.3508 46.8594 45.3165C46.6812 45.2822 46.4755 45.2548 46.2425 45.2342C46.0094 45.2137 45.7489 45.2068 45.4679 45.2068C45.2211 45.2068 45.0018 45.2205 44.8235 45.2411C44.6453 45.2616 44.4877 45.2891 44.3506 45.3233C44.2203 45.3576 44.1038 45.3987 44.0147 45.4467C43.9187 45.4947 43.8365 45.5427 43.7542 45.5975L47.5038 45.6318V45.6455Z" fill="#FCB048"/>
<path d="M43.563 44.1514C38.3396 44.1514 32.9038 44.6106 32.0332 45.5018C32.0675 45.536 32.1018 45.5635 32.1292 45.6046C32.8626 44.9876 37.3525 44.3639 43.563 44.3639C49.7734 44.3639 54.4964 45.0151 55.0447 45.6526C55.0722 45.6183 55.0996 45.584 55.1339 45.5566C54.4141 44.6381 48.8754 44.1582 43.563 44.1582V44.1514Z" fill="url(#paint7_linear_3763_11081)"/>
<path d="M34.666 42.7876V45.3856C34.666 46.2218 39.9099 46.9073 46.374 46.9073C52.8381 46.9073 58.082 46.2287 58.082 45.3856V42.7876H34.666Z" fill="url(#paint8_linear_3763_11081)"/>
<path d="M46.3721 44.3092C52.8382 44.3092 58.08 43.6278 58.08 42.7874C58.08 41.9469 52.8382 41.2656 46.3721 41.2656C39.9059 41.2656 34.6641 41.9469 34.6641 42.7874C34.6641 43.6278 39.9059 44.3092 46.3721 44.3092Z" fill="url(#paint9_linear_3763_11081)"/>
<path d="M46.373 44.4121C40.6424 44.4121 34.6582 43.8637 34.6582 42.8081C34.6582 42.7532 34.6788 42.6504 34.7336 42.6504C34.7884 42.6504 34.7679 42.7326 34.7679 42.7875C34.7679 43.4593 39.532 44.1996 46.373 44.1996C53.2141 44.1996 57.9782 43.4524 57.9782 42.7875C57.9782 42.7326 57.9851 42.6778 58.0468 42.6778C58.1084 42.6778 58.0879 42.7532 58.0879 42.8149C58.0879 43.8705 52.0968 44.4189 46.373 44.4189V44.4121Z" fill="url(#paint10_linear_3763_11081)"/>
<path d="M45.2692 42.8763C45.3857 42.7941 45.5091 42.7187 45.6393 42.6433C45.7696 42.5679 45.941 42.4993 46.1397 42.4308C46.3454 42.3691 46.6059 42.3142 46.9143 42.28C47.2228 42.2388 47.6067 42.2183 48.0728 42.2183C48.5252 42.2183 48.9502 42.232 49.3478 42.2594C49.7454 42.2868 50.095 42.3348 50.3966 42.3965C50.6982 42.4582 50.945 42.5336 51.13 42.6227C51.3151 42.7118 51.4316 42.8146 51.4659 42.9312L52.782 42.9449C52.878 42.9449 52.9603 42.9517 53.0357 42.9654C53.1111 42.9791 53.1453 42.9997 53.1453 43.0203V43.1299L51.4522 43.1162C51.3905 43.2465 51.2397 43.3699 50.9998 43.4795C50.7599 43.5892 50.4446 43.6852 50.0675 43.7674L49.4506 43.6783C49.3958 43.6715 49.3478 43.6578 49.3135 43.6441C49.2792 43.6303 49.2587 43.6166 49.2587 43.6029C49.2587 43.5824 49.3067 43.5549 49.4026 43.5344C49.4986 43.507 49.6083 43.4727 49.7248 43.4316C49.8482 43.3904 49.9647 43.3424 50.0812 43.2945C50.1978 43.2396 50.2732 43.1779 50.3143 43.1025L46.3111 43.0614C46.2083 43.1368 46.0849 43.2122 45.9547 43.2876C45.8244 43.363 45.6531 43.4316 45.4337 43.4864C45.2212 43.5481 44.947 43.5961 44.6317 43.6303C44.3095 43.6646 43.9051 43.6852 43.4184 43.692C43.0551 43.692 42.6918 43.6783 42.3422 43.6509C41.9926 43.6235 41.6841 43.5755 41.4099 43.5207C41.1357 43.459 40.9164 43.3904 40.745 43.3013C40.5737 43.2122 40.4777 43.1162 40.4571 42.9997L39.3741 42.986C39.2781 42.986 39.1958 42.9791 39.1204 42.9654C39.045 42.9517 39.0108 42.9312 39.0039 42.9106V42.8009L40.4845 42.8146C40.5531 42.6981 40.6833 42.6021 40.889 42.513C41.0946 42.4308 41.3482 42.3554 41.643 42.2868L42.1434 42.3554C42.2942 42.3759 42.3696 42.4033 42.3696 42.4308C42.3696 42.4445 42.3422 42.465 42.2736 42.4856C42.2119 42.5062 42.1365 42.5336 42.0474 42.5679C41.9652 42.6021 41.8829 42.6364 41.8007 42.6775C41.7184 42.7187 41.6567 42.7666 41.6224 42.8215L45.2692 42.8558V42.8763ZM41.6019 43.0203C41.6293 43.0888 41.6978 43.1505 41.8007 43.2054C41.9035 43.2602 42.0269 43.3013 42.1777 43.3356C42.3285 43.3699 42.4998 43.3904 42.6849 43.411C42.8769 43.4247 43.0688 43.4316 43.2744 43.4316C43.5144 43.4316 43.7269 43.4179 43.9051 43.3973C44.0833 43.3767 44.241 43.3493 44.3781 43.315C44.5152 43.2808 44.6317 43.2396 44.7345 43.1985C44.8373 43.1574 44.9264 43.1094 45.0018 43.0545L41.6019 43.0203ZM50.3143 42.9243C50.2869 42.8489 50.2115 42.7872 50.1018 42.7324C49.9853 42.6775 49.8413 42.6295 49.67 42.5953C49.4917 42.561 49.2861 42.5336 49.053 42.513C48.82 42.4925 48.5595 42.4856 48.2784 42.4856C48.0317 42.4856 47.8123 42.4993 47.6341 42.5199C47.4559 42.5404 47.2982 42.5679 47.1611 42.6021C47.0309 42.6364 46.9143 42.6775 46.8252 42.7255C46.7293 42.7735 46.647 42.8215 46.5647 42.8763L50.3143 42.9106V42.9243Z" fill="#FCB048"/>
<path d="M46.3735 41.437C41.1502 41.437 35.7143 41.8963 34.8438 42.7874C34.878 42.8217 34.9123 42.8491 34.9397 42.8902C35.6732 42.2733 40.1631 41.6495 46.3735 41.6495C52.584 41.6495 57.3069 42.3007 57.8553 42.9382C57.8827 42.9039 57.9101 42.8697 57.9444 42.8422C57.2246 41.9237 51.686 41.4439 46.3735 41.4439V41.437Z" fill="url(#paint11_linear_3763_11081)"/>
<path d="M36.3652 40.0596V42.6575C36.3652 43.4938 41.6091 44.1793 48.0732 44.1793C54.5373 44.1793 59.7812 43.5007 59.7812 42.6575V40.0596H36.3652Z" fill="url(#paint12_linear_3763_11081)"/>
<path d="M59.7871 40.0594C59.7871 40.8956 54.5431 41.5811 48.0791 41.5811C41.615 41.5811 36.3711 40.9025 36.3711 40.0594C36.3711 39.2162 41.615 38.5376 48.0791 38.5376C54.5431 38.5376 59.7871 39.2162 59.7871 40.0594Z" fill="url(#paint13_linear_3763_11081)"/>
<path d="M48.0801 41.684C42.3495 41.684 36.3652 41.1357 36.3652 40.08C36.3652 40.0252 36.3858 39.9224 36.4406 39.9224C36.4955 39.9224 36.4749 40.0046 36.4749 40.0595C36.4749 40.7312 41.239 41.4715 48.0801 41.4715C54.9212 41.4715 59.6852 40.7244 59.6852 40.0595C59.6852 40.0046 59.6921 39.9498 59.7538 39.9498C59.8155 39.9498 59.7949 40.0252 59.7949 40.0869C59.7949 41.1425 53.8038 41.6909 48.0801 41.6909V41.684Z" fill="url(#paint14_linear_3763_11081)"/>
<path d="M46.9704 40.1483C47.0869 40.066 47.2103 39.9906 47.3405 39.9152C47.4708 39.8398 47.6421 39.7713 47.8409 39.7027C48.0466 39.641 48.307 39.5862 48.6155 39.5519C48.924 39.5108 49.3078 39.4902 49.774 39.4902C50.2264 39.4902 50.6514 39.5039 51.049 39.5314C51.4465 39.5656 51.7961 39.6068 52.0977 39.6685C52.3994 39.7302 52.6461 39.8056 52.8312 39.8947C53.0163 39.9838 53.1328 40.0866 53.1671 40.2031L54.4832 40.2168C54.5792 40.2168 54.6614 40.2237 54.7368 40.2374C54.8122 40.2511 54.8465 40.2717 54.8465 40.2922V40.4019L53.1534 40.3882C53.0917 40.5185 52.9409 40.6418 52.701 40.7515C52.461 40.8612 52.1457 40.9572 51.7687 41.0394L51.1518 40.9503C51.0969 40.9435 51.049 40.9297 51.0147 40.916C50.9804 40.9023 50.9598 40.8886 50.9598 40.8749C50.9598 40.8543 51.0078 40.8269 51.1038 40.8064C51.1998 40.7789 51.3094 40.7447 51.426 40.7035C51.5494 40.6624 51.6659 40.6144 51.7824 40.5664C51.899 40.5116 51.9744 40.4499 52.0155 40.3745L48.0123 40.3334C47.9095 40.4088 47.7861 40.4842 47.6558 40.5596C47.5256 40.635 47.3542 40.7035 47.1349 40.7584C46.9224 40.8201 46.6482 40.868 46.3329 40.9023C46.0107 40.9366 45.6063 40.9572 45.1196 40.964C44.7563 40.964 44.393 40.9503 44.0434 40.9229C43.6938 40.8955 43.3853 40.8475 43.1111 40.7926C42.8369 40.731 42.6176 40.6624 42.4462 40.5733C42.2748 40.4842 42.1789 40.3882 42.1583 40.2717L41.0752 40.258C40.9793 40.258 40.897 40.2511 40.8216 40.2374C40.7462 40.2237 40.7119 40.2031 40.7051 40.1826V40.0729L42.1857 40.0866C42.2543 39.9701 42.3845 39.8741 42.5901 39.785C42.7958 39.7027 43.0494 39.6273 43.3442 39.5588L43.8446 39.6273C43.9954 39.6479 44.0708 39.6753 44.0708 39.7027C44.0708 39.7164 44.0434 39.737 43.9748 39.7576C43.9131 39.7781 43.8377 39.8056 43.7486 39.8398C43.6663 39.8741 43.5841 39.9084 43.5018 39.9495C43.4196 39.9906 43.3579 40.0386 43.3236 40.0935L46.9704 40.1277V40.1483ZM43.3099 40.2922C43.3373 40.3608 43.4059 40.4225 43.5087 40.4773C43.6115 40.5322 43.7349 40.5733 43.8857 40.6076C44.0365 40.6418 44.2079 40.6624 44.393 40.683C44.5849 40.6967 44.7768 40.7035 44.9825 40.7035C45.2224 40.7035 45.4349 40.6898 45.6131 40.6693C45.7913 40.6487 45.949 40.6213 46.0861 40.587C46.2232 40.5527 46.3397 40.5116 46.4425 40.4705C46.5454 40.4293 46.6345 40.3814 46.7099 40.3265L43.3099 40.2922ZM52.0223 40.1963C51.9949 40.1209 51.9195 40.0592 51.8098 40.0043C51.6933 39.9495 51.5494 39.9015 51.378 39.8672C51.1998 39.833 50.9941 39.8056 50.7611 39.785C50.528 39.7644 50.2675 39.7576 49.9865 39.7576C49.7397 39.7576 49.5203 39.7713 49.3421 39.7918C49.1639 39.8124 49.0062 39.8398 48.8691 39.8741C48.7389 39.9084 48.6224 39.9495 48.5333 39.9975C48.4373 40.0455 48.355 40.0935 48.2728 40.1483L52.0223 40.1826V40.1963Z" fill="#FCB048"/>
<path d="M48.0805 38.709C42.8572 38.709 37.4213 39.1683 36.5508 40.0594C36.5851 40.0937 36.6193 40.1211 36.6467 40.1622C37.3802 39.5453 41.8701 38.9215 48.0805 38.9215C54.291 38.9215 59.0139 39.5727 59.5623 40.2102C59.5897 40.1759 59.6172 40.1416 59.6514 40.1142C58.9317 39.1957 53.393 38.7158 48.0805 38.7158V38.709Z" fill="url(#paint15_linear_3763_11081)"/>
<path d="M35.1113 37.1187V39.7166C35.1113 40.5529 40.3552 41.2384 46.8193 41.2384C53.2834 41.2384 58.5273 40.5598 58.5273 39.7166V37.1187H35.1113Z" fill="url(#paint16_linear_3763_11081)"/>
<path d="M46.8174 38.6402C53.2835 38.6402 58.5253 37.9589 58.5253 37.1184C58.5253 36.278 53.2835 35.5967 46.8174 35.5967C40.3512 35.5967 35.1094 36.278 35.1094 37.1184C35.1094 37.9589 40.3512 38.6402 46.8174 38.6402Z" fill="url(#paint17_linear_3763_11081)"/>
<path d="M46.8184 38.7431C41.0878 38.7431 35.1035 38.1947 35.1035 37.1391C35.1035 37.0843 35.1241 36.9814 35.1789 36.9814C35.2338 36.9814 35.2132 37.0637 35.2132 37.1185C35.2132 37.7903 39.9773 38.5306 46.8184 38.5306C53.6594 38.5306 58.4235 37.7835 58.4235 37.1185C58.4235 37.0637 58.4304 37.0089 58.4921 37.0089C58.5538 37.0089 58.5332 37.0843 58.5332 37.146C58.5332 38.2016 52.5421 38.75 46.8184 38.75V38.7431Z" fill="url(#paint18_linear_3763_11081)"/>
<path d="M45.7145 37.2005C45.831 37.1183 45.9544 37.0429 46.0847 36.9675C46.2149 36.8921 46.3863 36.8235 46.5851 36.755C46.7907 36.6933 47.0512 36.6384 47.3596 36.6042C47.6681 36.563 48.052 36.5425 48.5181 36.5425C48.9705 36.5425 49.3955 36.5562 49.7931 36.5836C50.1907 36.6179 50.5403 36.659 50.8419 36.7207C51.1435 36.7824 51.3903 36.8578 51.5753 36.9469C51.7604 37.036 51.877 37.1388 51.9112 37.2554L53.2274 37.2691C53.3233 37.2691 53.4056 37.2759 53.481 37.2897C53.5564 37.3034 53.5907 37.3239 53.5907 37.3445V37.4542L51.8975 37.4405C51.8358 37.5707 51.685 37.6941 51.4451 37.8038C51.2052 37.9134 50.8899 38.0094 50.5129 38.0917L49.8959 38.0025C49.8411 37.9957 49.7931 37.982 49.7588 37.9683C49.7246 37.9546 49.704 37.9409 49.704 37.9271C49.704 37.9066 49.752 37.8792 49.8479 37.8586C49.9439 37.8312 50.0536 37.7969 50.1701 37.7558C50.2935 37.7147 50.41 37.6667 50.5266 37.6187C50.6431 37.5638 50.7185 37.5021 50.7596 37.4267L46.7564 37.3856C46.6536 37.461 46.5302 37.5364 46.4 37.6118C46.2697 37.6872 46.0984 37.7558 45.879 37.8106C45.6665 37.8723 45.3923 37.9203 45.077 37.9546C44.7548 37.9888 44.3504 38.0094 43.8637 38.0163C43.5004 38.0163 43.1371 38.0026 42.7875 37.9751C42.4379 37.9477 42.1294 37.8997 41.8553 37.8449C41.5811 37.7832 41.3617 37.7146 41.1903 37.6255C41.019 37.5364 40.923 37.4405 40.9024 37.3239L39.8194 37.3102C39.7234 37.3102 39.6412 37.3034 39.5658 37.2897C39.4903 37.2759 39.4561 37.2554 39.4492 37.2348V37.1251L40.9299 37.1388C40.9984 37.0223 41.1286 36.9263 41.3343 36.8372C41.5399 36.755 41.7936 36.6796 42.0883 36.611L42.5887 36.6796C42.7395 36.7001 42.8149 36.7276 42.8149 36.755C42.8149 36.7687 42.7875 36.7893 42.719 36.8098C42.6573 36.8304 42.5819 36.8578 42.4927 36.8921C42.4105 36.9263 42.3282 36.9606 42.246 37.0018C42.1637 37.0429 42.102 37.0909 42.0677 37.1457L45.7145 37.18V37.2005ZM42.054 37.3513C42.0815 37.4199 42.15 37.4816 42.2528 37.5364C42.3557 37.5913 42.479 37.6324 42.6298 37.6667C42.7806 37.7009 42.952 37.7215 43.1371 37.7421C43.329 37.7558 43.521 37.7626 43.7266 37.7626C43.9665 37.7626 44.179 37.7489 44.3572 37.7284C44.5355 37.7078 44.6931 37.6804 44.8302 37.6461C44.9673 37.6118 45.0839 37.5707 45.1867 37.5296C45.2895 37.4884 45.3786 37.4405 45.454 37.3856L42.054 37.3513ZM50.7596 37.2554C50.7322 37.18 50.6568 37.1183 50.5471 37.0634C50.4306 37.0086 50.2866 36.9606 50.1153 36.9263C49.9371 36.8921 49.7314 36.8647 49.4983 36.8441C49.2653 36.8235 49.0048 36.8167 48.7238 36.8167C48.477 36.8167 48.2576 36.8304 48.0794 36.8509C47.9012 36.8715 47.7435 36.8989 47.6064 36.9332C47.4762 36.9675 47.3596 37.0086 47.2705 37.0566C47.1746 37.1046 47.0923 37.1526 47.0101 37.2074L50.7596 37.2417V37.2554Z" fill="#FCB048"/>
<path d="M46.8188 35.7612C41.5955 35.7612 36.1596 36.2205 35.2891 37.1116C35.3233 37.1459 35.3576 37.1733 35.385 37.2144C36.1185 36.5975 40.6084 35.9737 46.8188 35.9737C53.0293 35.9737 57.7522 36.6249 58.3006 37.2624C58.328 37.2282 58.3554 37.1939 58.3897 37.1665C57.67 36.2479 52.1313 35.7681 46.8188 35.7681V35.7612Z" fill="url(#paint19_linear_3763_11081)"/>
<path d="M31.8555 34.3906V36.9886C31.8555 37.8249 37.0994 38.5104 43.5635 38.5104C50.0275 38.5104 55.2714 37.8317 55.2714 36.9886V34.3906H31.8555Z" fill="url(#paint20_linear_3763_11081)"/>
<path d="M43.5615 35.9122C50.0276 35.9122 55.2695 35.2309 55.2695 34.3904C55.2695 33.55 50.0276 32.8687 43.5615 32.8687C37.0954 32.8687 31.8535 33.55 31.8535 34.3904C31.8535 35.2309 37.0954 35.9122 43.5615 35.9122Z" fill="url(#paint21_linear_3763_11081)"/>
<path d="M43.5625 36.0151C37.8319 36.0151 31.8477 35.4667 31.8477 34.4111C31.8477 34.3562 31.8682 34.2534 31.9231 34.2534C31.9779 34.2534 31.9573 34.3357 31.9573 34.3905C31.9573 35.0623 36.7214 35.8026 43.5625 35.8026C50.4036 35.8026 55.1677 35.0554 55.1677 34.3905C55.1677 34.3357 55.1745 34.2808 55.2362 34.2808C55.2979 34.2808 55.2773 34.3562 55.2773 34.4179C55.2773 35.4736 49.2862 36.022 43.5625 36.022V36.0151Z" fill="url(#paint22_linear_3763_11081)"/>
<path d="M42.4586 34.4725C42.5752 34.3903 42.6986 34.3149 42.8288 34.2394C42.959 34.164 43.1304 34.0955 43.3292 34.027C43.5348 33.9653 43.7953 33.9104 44.1038 33.8761C44.4123 33.8419 44.7961 33.8145 45.2622 33.8145C45.7147 33.8145 46.1397 33.8282 46.5372 33.8556C46.9348 33.8899 47.2844 33.931 47.586 33.9927C47.8876 34.0544 48.1344 34.1298 48.3195 34.2189C48.5046 34.308 48.6211 34.4108 48.6554 34.5273L49.9715 34.5411C50.0675 34.5411 50.1497 34.5479 50.2251 34.5616C50.3005 34.5753 50.3348 34.5959 50.3348 34.6165V34.7261L48.6417 34.7124C48.58 34.8427 48.4292 34.9661 48.1892 35.0757C47.9493 35.1854 47.634 35.2814 47.257 35.3636L46.6401 35.2745C46.5852 35.2677 46.5372 35.254 46.503 35.2402C46.4687 35.2265 46.4481 35.2128 46.4481 35.1991C46.4481 35.1786 46.4961 35.1511 46.5921 35.1306C46.688 35.1032 46.7977 35.0689 46.9143 35.0277C47.0376 34.9866 47.1542 34.9386 47.2707 34.8907C47.3872 34.8358 47.4626 34.7741 47.5038 34.6987L43.5006 34.6576C43.3977 34.733 43.2744 34.8084 43.1441 34.8838C43.0139 34.9592 42.8425 35.0278 42.6232 35.0826C42.4107 35.1443 42.1365 35.1923 41.8211 35.2265C41.499 35.2608 41.0945 35.2814 40.6078 35.2882C40.2445 35.2882 39.8812 35.2745 39.5316 35.2471C39.182 35.2197 38.8736 35.1717 38.5994 35.1169C38.3252 35.0552 38.1058 34.9866 37.9345 34.8975C37.7631 34.8084 37.6671 34.7124 37.6466 34.5959L36.5635 34.5822C36.4676 34.5822 36.3853 34.5753 36.3099 34.5616C36.2345 34.5479 36.2002 34.5274 36.1934 34.5068V34.3971L37.674 34.4108C37.7425 34.2943 37.8728 34.1983 38.0784 34.1092C38.2841 34.0269 38.5377 33.9515 38.8325 33.883L39.3329 33.9515C39.4837 33.9721 39.5591 33.9995 39.5591 34.027C39.5591 34.0407 39.5316 34.0612 39.4631 34.0818C39.4014 34.1024 39.326 34.1298 39.2369 34.164C39.1546 34.1983 39.0724 34.2326 38.9901 34.2737C38.9079 34.3149 38.8462 34.3628 38.8119 34.4177L42.4586 34.4519V34.4725ZM38.7982 34.6233C38.8256 34.6919 38.8941 34.7536 38.997 34.8084C39.0998 34.8632 39.2232 34.9044 39.374 34.9386C39.5248 34.9729 39.6962 34.9935 39.8812 35.014C40.0732 35.0278 40.2651 35.0346 40.4708 35.0346C40.7107 35.0346 40.9232 35.0209 41.1014 35.0003C41.2796 34.9798 41.4373 34.9523 41.5744 34.9181C41.7115 34.8838 41.828 34.8427 41.9308 34.8015C42.0336 34.7604 42.1228 34.7124 42.1982 34.6576L38.7982 34.6233ZM47.5038 34.5273C47.4763 34.4519 47.4009 34.3903 47.2913 34.3354C47.1747 34.2806 47.0308 34.2326 46.8594 34.1983C46.6812 34.164 46.4755 34.1366 46.2425 34.1161C46.0094 34.0955 45.7489 34.0886 45.4679 34.0886C45.2211 34.0886 45.0018 34.1024 44.8235 34.1229C44.6453 34.1435 44.4877 34.1709 44.3506 34.2052C44.2203 34.2395 44.1038 34.2806 44.0147 34.3286C43.9187 34.3765 43.8365 34.4245 43.7542 34.4794L47.5038 34.5136V34.5273Z" fill="#FCB048"/>
<path d="M43.563 33.0332C38.3396 33.0332 32.9038 33.4925 32.0332 34.3836C32.0675 34.4179 32.1018 34.4453 32.1292 34.4864C32.8626 33.8695 37.3525 33.2457 43.563 33.2457C49.7734 33.2457 54.4964 33.8969 55.0447 34.5344C55.0722 34.5001 55.0996 34.4659 55.1339 34.4384C54.4141 33.5199 48.8754 33.0401 43.563 33.0401V33.0332Z" fill="url(#paint23_linear_3763_11081)"/>
<path d="M34.666 31.6689V34.2669C34.666 35.1032 39.9099 35.7887 46.374 35.7887C52.8381 35.7887 58.082 35.1101 58.082 34.2669V31.6689H34.666Z" fill="url(#paint24_linear_3763_11081)"/>
<path d="M46.3721 33.1905C52.8382 33.1905 58.08 32.5092 58.08 31.6687C58.08 30.8283 52.8382 30.147 46.3721 30.147C39.9059 30.147 34.6641 30.8283 34.6641 31.6687C34.6641 32.5092 39.9059 33.1905 46.3721 33.1905Z" fill="url(#paint25_linear_3763_11081)"/>
<path d="M46.373 33.2934C40.6424 33.2934 34.6582 32.745 34.6582 31.6894C34.6582 31.6346 34.6788 31.5317 34.7336 31.5317C34.7884 31.5317 34.7679 31.614 34.7679 31.6688C34.7679 32.3406 39.532 33.0809 46.373 33.0809C53.2141 33.0809 57.9782 32.3337 57.9782 31.6688C57.9782 31.614 57.9851 31.5592 58.0468 31.5592C58.1084 31.5592 58.0879 31.6346 58.0879 31.6963C58.0879 32.7519 52.0968 33.3003 46.373 33.3003V33.2934Z" fill="url(#paint26_linear_3763_11081)"/>
<path d="M45.2692 31.7508C45.3857 31.6686 45.5091 31.5932 45.6393 31.5178C45.7696 31.4424 45.941 31.3738 46.1397 31.3053C46.3454 31.2436 46.6059 31.1887 46.9143 31.1545C47.2228 31.1133 47.6067 31.0928 48.0728 31.0928C48.5252 31.0928 48.9502 31.1065 49.3478 31.1339C49.7454 31.1682 50.095 31.2093 50.3966 31.271C50.6982 31.3327 50.945 31.4081 51.13 31.4972C51.3151 31.5863 51.4316 31.6891 51.4659 31.8057L52.782 31.8194C52.878 31.8194 52.9603 31.8262 53.0357 31.8399C53.1111 31.8537 53.1453 31.8742 53.1453 31.8948V32.0045L51.4522 31.9907C51.3905 32.121 51.2397 32.2444 50.9998 32.3541C50.7599 32.4637 50.4446 32.5597 50.0675 32.642L49.4506 32.5528C49.3958 32.546 49.3478 32.5323 49.3135 32.5186C49.2792 32.5049 49.2587 32.4912 49.2587 32.4774C49.2587 32.4569 49.3067 32.4295 49.4026 32.4089C49.4986 32.3815 49.6083 32.3472 49.7248 32.3061C49.8482 32.2649 49.9647 32.217 50.0812 32.169C50.1978 32.1141 50.2732 32.0524 50.3143 31.977L46.3111 31.9359C46.2083 32.0113 46.0849 32.0867 45.9547 32.1621C45.8244 32.2375 45.6531 32.3061 45.4337 32.3609C45.2212 32.4226 44.947 32.4706 44.6317 32.5049C44.3095 32.5391 43.9051 32.5597 43.4184 32.5666C43.0551 32.5666 42.6918 32.5528 42.3422 32.5254C41.9926 32.498 41.6841 32.45 41.4099 32.3952C41.1357 32.3335 40.9164 32.2649 40.745 32.1758C40.5737 32.0867 40.4777 31.9908 40.4571 31.8742L39.3741 31.8605C39.2781 31.8605 39.1958 31.8537 39.1204 31.8399C39.045 31.8262 39.0108 31.8057 39.0039 31.7851V31.6754L40.4845 31.6891C40.5531 31.5726 40.6833 31.4766 40.889 31.3875C41.0946 31.3053 41.3482 31.2299 41.643 31.1613L42.1434 31.2299C42.2942 31.2504 42.3696 31.2779 42.3696 31.3053C42.3696 31.319 42.3422 31.3395 42.2736 31.3601C42.2119 31.3807 42.1365 31.4081 42.0474 31.4424C41.9652 31.4766 41.8829 31.5109 41.8007 31.552C41.7184 31.5932 41.6567 31.6412 41.6224 31.696L45.2692 31.7303V31.7508ZM41.6019 31.9016C41.6293 31.9702 41.6978 32.0319 41.8007 32.0867C41.9035 32.1416 42.0269 32.1827 42.1777 32.217C42.3285 32.2512 42.4998 32.2718 42.6849 32.2924C42.8769 32.3061 43.0688 32.3129 43.2744 32.3129C43.5144 32.3129 43.7269 32.2992 43.9051 32.2787C44.0833 32.2581 44.241 32.2307 44.3781 32.1964C44.5152 32.1621 44.6317 32.121 44.7345 32.0799C44.8373 32.0387 44.9264 31.9908 45.0018 31.9359L41.6019 31.9016ZM50.3143 31.8057C50.2869 31.7303 50.2115 31.6686 50.1018 31.6137C49.9853 31.5589 49.8413 31.5109 49.67 31.4766C49.4917 31.4424 49.2861 31.4149 49.053 31.3944C48.82 31.3738 48.5595 31.367 48.2784 31.367C48.0317 31.367 47.8123 31.3807 47.6341 31.4012C47.4559 31.4218 47.2982 31.4492 47.1611 31.4835C47.0309 31.5178 46.9143 31.5589 46.8252 31.6069C46.7293 31.6549 46.647 31.7029 46.5647 31.7577L50.3143 31.792V31.8057Z" fill="#FCB048"/>
<path d="M46.3735 30.3115C41.1502 30.3115 35.7143 30.7708 34.8438 31.6619C34.878 31.6962 34.9123 31.7236 34.9397 31.7647C35.6732 31.1478 40.1631 30.524 46.3735 30.524C52.584 30.524 57.3069 31.1752 57.8553 31.8127C57.8827 31.7784 57.9101 31.7442 57.9444 31.7168C57.2246 30.7982 51.686 30.3184 46.3735 30.3184V30.3115Z" fill="url(#paint27_linear_3763_11081)"/>
<path d="M33.2051 28.9409V31.5389C33.2051 32.3752 38.449 33.0606 44.9131 33.0606C51.3771 33.0606 56.621 32.382 56.621 31.5389V28.9409H33.2051Z" fill="url(#paint28_linear_3763_11081)"/>
<path d="M44.9111 30.4625C51.3773 30.4625 56.6191 29.7812 56.6191 28.9407C56.6191 28.1003 51.3773 27.4189 44.9111 27.4189C38.445 27.4189 33.2031 28.1003 33.2031 28.9407C33.2031 29.7812 38.445 30.4625 44.9111 30.4625Z" fill="url(#paint29_linear_3763_11081)"/>
<path d="M44.9121 30.5654C39.1815 30.5654 33.1973 30.017 33.1973 28.9614C33.1973 28.9065 33.2178 28.8037 33.2727 28.8037C33.3275 28.8037 33.3069 28.886 33.3069 28.9408C33.3069 29.6126 38.071 30.3529 44.9121 30.3529C51.7532 30.3529 56.5173 29.6057 56.5173 28.9408C56.5173 28.886 56.5241 28.8311 56.5858 28.8311C56.6475 28.8311 56.6269 28.9065 56.6269 28.9682C56.6269 30.0239 50.6359 30.5722 44.9121 30.5722V30.5654Z" fill="url(#paint30_linear_3763_11081)"/>
<path d="M44.9126 27.5835C39.6892 27.5835 34.2534 28.0428 33.3828 28.9339C33.4171 28.9682 33.4514 28.9956 33.4788 29.0367C34.2122 28.4198 38.7021 27.796 44.9126 27.796C51.123 27.796 55.846 28.4472 56.3943 29.0847C56.4218 29.0504 56.4492 29.0161 56.4835 28.9887C55.7637 28.0702 50.225 27.5903 44.9126 27.5903V27.5835Z" fill="url(#paint31_linear_3763_11081)"/>
<path d="M59.4309 19.79C59.4309 25.1847 55.2083 29.4347 49.8136 29.2702C44.1995 29.0988 39.4766 24.2456 39.4766 18.4464C39.4766 12.6473 44.1995 8.4316 49.8136 9.01426C55.2083 9.57635 59.4309 14.3884 59.4309 19.79Z" fill="url(#paint32_linear_3763_11081)"/>
<path d="M60.8918 19.3237C60.8918 24.7184 56.6692 28.9684 51.2745 28.8039C45.6605 28.6325 40.9375 23.7793 40.9375 17.9801C40.9375 12.181 45.6605 7.96529 51.2745 8.54795C56.6692 9.11004 60.8918 13.9221 60.8918 19.3237Z" fill="url(#paint33_linear_3763_11081)"/>
<path d="M60.4664 19.2961C60.4664 24.4578 56.429 28.509 51.2742 28.3445C45.9206 28.1731 41.4238 23.5461 41.4238 18.0143C41.4238 12.4825 45.9206 8.46557 51.2742 9.01395C56.429 9.54177 60.4664 14.1413 60.4664 19.2961Z" fill="url(#paint34_linear_3763_11081)"/>
<path d="M60.1648 19.2758C60.1648 24.2661 56.2576 28.1802 51.2742 28.0157C46.1057 27.8443 41.7734 23.375 41.7734 18.0419C41.7734 12.7089 46.1057 8.82223 51.2742 9.3432C56.2576 9.85045 60.1648 14.2855 60.1648 19.2758Z" fill="url(#paint35_linear_3763_11081)"/>
<path style="mix-blend-mode:multiply" opacity="0.3" d="M49.6692 20.496C49.9708 17.5279 52.699 16.2735 52.3425 13.5453C52.1232 11.8658 50.8482 10.4469 49.4292 9.33643C45.1176 9.78884 41.7793 13.3602 41.7793 18.0283C41.7793 23.3613 46.1115 27.8307 51.28 28.002C51.7804 28.0157 52.274 27.9952 52.747 27.9335C50.6974 25.8908 49.4087 23.0392 49.6692 20.4892V20.496Z" fill="url(#paint36_linear_3763_11081)"/>
<g style="mix-blend-mode:overlay">
<path d="M52.8029 15.5192C53.1525 15.5466 53.4884 15.622 53.8106 15.7522C54.1328 15.8825 54.4824 15.766 54.6469 15.4918L54.9759 14.9228C55.0719 14.7583 55.0856 14.5527 55.017 14.3539C54.9485 14.1619 54.7977 13.9974 54.6057 13.9083C54.0437 13.6478 53.4336 13.4696 52.8029 13.4011C49.5949 13.0309 46.6953 15.3204 46.6953 18.549C46.6953 21.7776 49.5949 24.1768 52.8029 23.93C53.3787 23.882 53.934 23.7518 54.4549 23.5461C54.6469 23.4707 54.8045 23.3131 54.8799 23.1212C54.9553 22.9292 54.9485 22.7236 54.8594 22.5522L54.544 21.9627C54.3932 21.6748 54.0436 21.5377 53.7146 21.6474C53.4267 21.7433 53.1182 21.7982 52.7961 21.8119C50.9247 21.8873 49.307 20.4478 49.307 18.6038C49.307 16.7599 50.9247 15.3821 52.7961 15.526L52.8029 15.5192Z" fill="url(#paint37_linear_3763_11081)"/>
<path d="M52.3154 17.5823C52.3154 17.8428 52.096 18.0416 51.8218 18.0347L45.8513 17.8565C45.5086 17.8496 45.2344 17.6029 45.2344 17.3081C45.2344 17.0202 45.5154 16.794 45.8513 16.8077L51.8218 17.0888C52.096 17.1025 52.3154 17.3218 52.3154 17.5755V17.5823Z" fill="url(#paint38_linear_3763_11081)"/>
<path d="M52.3154 19.7071C52.3154 19.9676 52.096 20.1733 51.8218 20.1801L45.8513 20.2349C45.5086 20.2349 45.2344 20.0019 45.2344 19.714C45.2344 19.4261 45.5154 19.1862 45.8513 19.193L51.8218 19.241C52.096 19.241 52.3154 19.4535 52.3154 19.714V19.7071Z" fill="url(#paint39_linear_3763_11081)"/>
</g>
<path d="M41.8418 19.4744C41.8418 19.4744 42.1091 19.4401 42.0269 18.926C41.9583 18.5284 42.0132 18.3913 42.1023 18.4599C42.1982 18.5284 42.212 18.7615 42.212 18.7615C42.212 18.7615 42.5547 18.4667 42.6986 18.0829C42.8426 17.699 42.9317 18.0212 42.9591 18.2131C42.9865 18.4051 42.7535 19.0014 42.6232 19.118C42.493 19.2276 42.3011 19.7212 42.3011 19.7212L41.8418 19.4744Z" fill="url(#paint40_linear_3763_11081)"/>
<path d="M40.9219 24.3755L40.5723 23.7037V22.7852L41.244 24.3755H40.9219Z" fill="url(#paint41_linear_3763_11081)"/>
<path d="M31.202 50.7528C31.202 50.7528 32.9774 51.5617 33.0048 51.6851C33.0322 51.8153 31.8669 51.6439 31.3871 51.6576C30.9073 51.6782 30.5165 51.5342 30.5577 51.3355C30.5988 51.1367 30.7702 50.6226 30.7702 50.6226L31.202 50.7459V50.7528Z" fill="url(#paint42_linear_3763_11081)"/>
<path d="M31.2713 50.1018L31.1617 50.897C31.1617 50.897 30.8806 50.9998 30.6955 50.8764L30.6133 49.999L31.2713 50.095V50.1018Z" fill="url(#paint43_linear_3763_11081)"/>
<path d="M22.9142 50.1221L22.7085 50.4511C22.6537 50.5471 22.6331 50.6567 22.6605 50.7596C22.7359 51.0338 22.8799 51.5684 22.9416 51.7124C23.0238 51.9043 24.1754 52.014 24.1754 52.014C24.1754 52.014 24.2783 51.87 24.0383 51.6987C23.7984 51.5273 23.6476 51.4999 23.5654 51.2394C23.4831 50.9858 23.4283 50.2592 23.4283 50.2592L22.921 50.1221H22.9142Z" fill="url(#paint44_linear_3763_11081)"/>
<path d="M23.7782 49.2791C23.7028 49.3408 23.3327 50.4581 23.3327 50.4581C23.3327 50.4581 23.2161 50.6089 22.9899 50.3827C22.7637 50.1565 22.8871 50.2799 22.8871 50.2799L22.9282 49.1831L23.7782 49.2791Z" fill="url(#paint45_linear_3763_11081)"/>
<path d="M32.2438 34.0616C32.3398 36.4402 32.3398 39.0314 32.2027 41.7938C32.045 44.9059 31.7366 47.7849 31.3459 50.3898C31.2019 50.3898 31.0511 50.3898 30.8866 50.3898C30.7769 50.3898 30.6741 50.3829 30.5713 50.376C30.3656 49.8345 30.1257 49.1216 29.9132 48.2716C29.687 47.3805 29.5499 46.5785 29.4539 45.8108C29.1112 43.1168 29.5156 42.8769 29.2346 40.8822C28.9878 39.1136 28.6382 39.0451 28.2338 36.5294C27.7882 33.8012 28.1173 33.3899 28.2818 33.2459C28.9672 32.6153 30.5781 33.0471 32.237 34.0616H32.2438Z" fill="url(#paint46_linear_3763_11081)"/>
<path d="M31.1201 34.0202C29.5572 36.3097 27.8709 39.1545 26.3629 42.5613C25.225 45.1387 24.3955 47.5516 23.7923 49.7108C23.71 49.752 23.5181 49.8274 23.2713 49.7931C22.9355 49.7451 22.7298 49.5326 22.6818 49.4709C22.4351 47.9286 22.4625 46.6193 22.5447 45.6734C22.5996 45.0701 22.6955 44.0625 23.0794 42.8218C23.5113 41.4303 23.806 41.348 24.3681 39.8811C24.9508 38.3525 24.8137 37.9686 25.3689 36.0561C25.602 35.2678 25.9858 34.1025 26.6165 32.7041C28.1177 33.1428 29.6189 33.5884 31.1201 34.0271V34.0202Z" fill="url(#paint47_linear_3763_11081)"/>
<path d="M31.7028 21.0854C31.7028 21.0854 31.6549 21.7572 31.4286 22.2508C31.223 22.6963 30.2291 22.9568 30.0234 23.0459C29.8178 23.1419 30.3867 23.4572 30.9625 23.5326C31.5383 23.608 33.1972 23.5326 33.4988 23.3201C33.8004 23.1076 33.2657 23.1076 32.8544 22.9431C32.4432 22.7786 32.2307 21.9629 32.3198 21.5996C32.402 21.2363 31.696 21.0854 31.696 21.0854H31.7028Z" fill="url(#paint48_linear_3763_11081)"/>
<path d="M32.5385 20.5712C32.8401 20.1667 32.7099 19.3784 32.4426 19.2756C32.3672 19.2482 32.3123 19.2893 31.5377 19.92C31.1539 20.2353 30.9688 20.3929 30.9551 20.6123C30.9551 20.7425 31.0031 20.9002 31.0922 21.0099C31.1402 21.0647 31.2087 21.1333 31.3664 21.2498C31.5035 21.3595 31.4966 21.3526 31.5377 21.3869C31.6406 21.4623 31.8256 21.5788 32.1272 21.6885C32.1204 21.6131 32.1135 21.524 32.1272 21.4143C32.1272 21.3732 32.141 21.2155 32.1958 21.0647C32.2849 20.8111 32.4426 20.6945 32.5385 20.5643V20.5712Z" fill="url(#paint49_linear_3763_11081)"/>
<path d="M31.7568 21.6133C31.7568 21.6133 32.1338 21.9149 32.5931 21.7161C33.0044 21.5379 32.7233 20.5714 32.3806 20.4685C32.264 20.4343 32.079 20.4685 31.9487 20.5645C31.8733 20.6193 31.8528 20.6673 31.7294 20.7564C31.6128 20.8387 31.5717 20.8387 31.5443 20.8867C31.51 20.9484 31.51 21.058 31.6951 21.3048C31.5854 21.25 31.4757 21.2568 31.4209 21.3117C31.4141 21.3185 31.3935 21.3528 31.3866 21.3871C31.3661 21.5173 31.5169 21.6201 31.7705 21.6133H31.7568Z" fill="url(#paint50_linear_3763_11081)"/>
<path d="M32.9099 23.6698C34.4042 23.1351 35.5147 25.5548 37.7768 25.2121C39.2848 24.9859 40.3336 23.6835 41.0739 24.177C41.3139 24.3347 41.4098 24.6157 41.4578 24.8077C41.1699 25.5137 40.4022 27.1246 38.6816 28.0843C36.1591 29.4895 32.3341 29.0782 31.5389 27.2343C31.018 26.0278 31.7583 24.0879 32.9099 23.6698Z" fill="url(#paint51_linear_3763_11081)"/>
<path d="M24.7586 34.8632C25.4098 35.4527 26.5408 35.5007 26.7876 35.5144C27.946 35.5624 28.1174 35.062 29.2622 35.11C30.4138 35.158 30.7154 35.6858 31.5311 35.4733C31.6751 35.439 32.244 35.2745 32.8404 34.4862C34.5404 32.2584 33.1214 29.8112 34.8146 26.6649C35.0682 26.1919 35.2944 25.7738 35.7468 25.3282C37.2137 23.8818 38.6053 24.5399 40.456 23.3746C41.971 22.4218 42.9855 20.5024 42.5468 19.6387C42.348 19.248 42.1766 19.296 41.9093 19.2686C41.4568 20.0294 40.3464 20.9617 39.0714 21.5032C37.8581 22.0173 36.919 21.7706 35.0682 21.798C33.9303 21.8117 31.9835 21.8391 30.4412 22.3943C26.5751 23.779 25.1493 28.4814 24.7243 29.8729C24.3541 31.0862 23.5453 33.7596 24.7654 34.8632H24.7586Z" fill="url(#paint52_linear_3763_11081)"/>
</g>
<defs>
<linearGradient id="paint0_linear_3763_11081" x1="33.1097" y1="50.2937" x2="60.0491" y2="50.2937" gradientUnits="userSpaceOnUse">
<stop stop-color="#FCB148"/>
<stop offset="0.05" stop-color="#FDB946"/>
<stop offset="0.14" stop-color="#FEC144"/>
<stop offset="0.32" stop-color="#FFC444"/>
<stop offset="0.48" stop-color="#FDB946"/>
<stop offset="0.78" stop-color="#F99C4C"/>
<stop offset="0.87" stop-color="#F8924F"/>
<stop offset="1" stop-color="#F8924F"/>
</linearGradient>
<linearGradient id="paint1_linear_3763_11081" x1="46.7008" y1="47.2637" x2="48.1198" y2="59.1499" gradientUnits="userSpaceOnUse">
<stop stop-color="#FFDB44"/>
<stop offset="1" stop-color="#FEEF06"/>
</linearGradient>
<linearGradient id="paint2_linear_3763_11081" x1="46.6401" y1="46.7291" x2="47.0788" y2="50.3827" gradientUnits="userSpaceOnUse">
<stop stop-color="#FFDB44"/>
<stop offset="1" stop-color="#FEEF06"/>
</linearGradient>
<linearGradient id="paint3_linear_3763_11081" x1="47.0519" y1="49.9988" x2="46.6132" y2="46.3658" gradientUnits="userSpaceOnUse">
<stop stop-color="#F36F56"/>
<stop offset="0.31" stop-color="#F99C4C"/>
<stop offset="0.55" stop-color="#FDB946"/>
<stop offset="0.68" stop-color="#FFC444"/>
<stop offset="0.8" stop-color="#FEC144"/>
<stop offset="0.87" stop-color="#FDB946"/>
<stop offset="0.92" stop-color="#FBAC49"/>
<stop offset="0.96" stop-color="#F8994D"/>
<stop offset="1" stop-color="#F57E53"/>
</linearGradient>
<linearGradient id="paint4_linear_3763_11081" x1="29.8539" y1="47.5652" x2="56.7932" y2="47.5652" gradientUnits="userSpaceOnUse">
<stop stop-color="#FCB148"/>
<stop offset="0.05" stop-color="#FDB946"/>
<stop offset="0.14" stop-color="#FEC144"/>
<stop offset="0.32" stop-color="#FFC444"/>
<stop offset="0.48" stop-color="#FDB946"/>
<stop offset="0.78" stop-color="#F99C4C"/>
<stop offset="0.87" stop-color="#F8924F"/>
<stop offset="1" stop-color="#F8924F"/>
</linearGradient>
<linearGradient id="paint5_linear_3763_11081" x1="43.445" y1="44.5352" x2="44.8639" y2="56.4214" gradientUnits="userSpaceOnUse">
<stop stop-color="#FFDB44"/>
<stop offset="1" stop-color="#FEEF06"/>
</linearGradient>
<linearGradient id="paint6_linear_3763_11081" x1="43.3843" y1="44.0006" x2="43.823" y2="47.6542" gradientUnits="userSpaceOnUse">
<stop stop-color="#FFDB44"/>
<stop offset="1" stop-color="#FEEF06"/>
</linearGradient>
<linearGradient id="paint7_linear_3763_11081" x1="43.796" y1="47.2703" x2="43.3573" y2="43.6373" gradientUnits="userSpaceOnUse">
<stop stop-color="#F36F56"/>
<stop offset="0.31" stop-color="#F99C4C"/>
<stop offset="0.55" stop-color="#FDB946"/>
<stop offset="0.68" stop-color="#FFC444"/>
<stop offset="0.8" stop-color="#FEC144"/>
<stop offset="0.87" stop-color="#FDB946"/>
<stop offset="0.92" stop-color="#FBAC49"/>
<stop offset="0.96" stop-color="#F8994D"/>
<stop offset="1" stop-color="#F57E53"/>
</linearGradient>
<linearGradient id="paint8_linear_3763_11081" x1="32.6644" y1="44.844" x2="59.6038" y2="44.844" gradientUnits="userSpaceOnUse">
<stop stop-color="#FCB148"/>
<stop offset="0.05" stop-color="#FDB946"/>
<stop offset="0.14" stop-color="#FEC144"/>
<stop offset="0.32" stop-color="#FFC444"/>
<stop offset="0.48" stop-color="#FDB946"/>
<stop offset="0.78" stop-color="#F99C4C"/>
<stop offset="0.87" stop-color="#F8924F"/>
<stop offset="1" stop-color="#F8924F"/>
</linearGradient>
<linearGradient id="paint9_linear_3763_11081" x1="46.2555" y1="41.814" x2="47.6745" y2="53.7002" gradientUnits="userSpaceOnUse">
<stop stop-color="#FFDB44"/>
<stop offset="1" stop-color="#FEEF06"/>
</linearGradient>
<linearGradient id="paint10_linear_3763_11081" x1="46.1948" y1="41.2794" x2="46.6335" y2="44.933" gradientUnits="userSpaceOnUse">
<stop stop-color="#FFDB44"/>
<stop offset="1" stop-color="#FEEF06"/>
</linearGradient>
<linearGradient id="paint11_linear_3763_11081" x1="46.5997" y1="44.5559" x2="46.1679" y2="40.916" gradientUnits="userSpaceOnUse">
<stop stop-color="#F36F56"/>
<stop offset="0.31" stop-color="#F99C4C"/>
<stop offset="0.55" stop-color="#FDB946"/>
<stop offset="0.68" stop-color="#FFC444"/>
<stop offset="0.8" stop-color="#FEC144"/>
<stop offset="0.87" stop-color="#FDB946"/>
<stop offset="0.92" stop-color="#FBAC49"/>
<stop offset="0.96" stop-color="#F8994D"/>
<stop offset="1" stop-color="#F57E53"/>
</linearGradient>
<linearGradient id="paint12_linear_3763_11081" x1="34.3636" y1="42.116" x2="61.3098" y2="42.116" gradientUnits="userSpaceOnUse">
<stop stop-color="#FCB148"/>
<stop offset="0.05" stop-color="#FDB946"/>
<stop offset="0.14" stop-color="#FEC144"/>
<stop offset="0.32" stop-color="#FFC444"/>
<stop offset="0.48" stop-color="#FDB946"/>
<stop offset="0.78" stop-color="#F99C4C"/>
<stop offset="0.87" stop-color="#F8924F"/>
<stop offset="1" stop-color="#F8924F"/>
</linearGradient>
<linearGradient id="paint13_linear_3763_11081" x1="47.9625" y1="39.086" x2="49.3815" y2="50.9722" gradientUnits="userSpaceOnUse">
<stop stop-color="#FFDB44"/>
<stop offset="1" stop-color="#FEEF06"/>
</linearGradient>
<linearGradient id="paint14_linear_3763_11081" x1="47.9019" y1="38.5514" x2="48.3337" y2="42.205" gradientUnits="userSpaceOnUse">
<stop stop-color="#FFDB44"/>
<stop offset="1" stop-color="#FEEF06"/>
</linearGradient>
<linearGradient id="paint15_linear_3763_11081" x1="48.3067" y1="41.8279" x2="47.8749" y2="38.188" gradientUnits="userSpaceOnUse">
<stop stop-color="#F36F56"/>
<stop offset="0.31" stop-color="#F99C4C"/>
<stop offset="0.55" stop-color="#FDB946"/>
<stop offset="0.68" stop-color="#FFC444"/>
<stop offset="0.8" stop-color="#FEC144"/>
<stop offset="0.87" stop-color="#FDB946"/>
<stop offset="0.92" stop-color="#FBAC49"/>
<stop offset="0.96" stop-color="#F8994D"/>
<stop offset="1" stop-color="#F57E53"/>
</linearGradient>
<linearGradient id="paint16_linear_3763_11081" x1="0.00108194" y1="39.1751" x2="0.686561" y2="39.1751" gradientUnits="userSpaceOnUse">
<stop stop-color="#FCB148"/>
<stop offset="0.05" stop-color="#FDB946"/>
<stop offset="0.14" stop-color="#FEC144"/>
<stop offset="0.32" stop-color="#FFC444"/>
<stop offset="0.48" stop-color="#FDB946"/>
<stop offset="0.78" stop-color="#F99C4C"/>
<stop offset="0.87" stop-color="#F8924F"/>
<stop offset="1" stop-color="#F8924F"/>
</linearGradient>
<linearGradient id="paint17_linear_3763_11081" x1="46.7008" y1="36.1382" x2="48.1198" y2="48.0313" gradientUnits="userSpaceOnUse">
<stop stop-color="#FFDB44"/>
<stop offset="1" stop-color="#FEEF06"/>
</linearGradient>
<linearGradient id="paint18_linear_3763_11081" x1="46.6401" y1="35.6105" x2="47.0788" y2="39.2641" gradientUnits="userSpaceOnUse">
<stop stop-color="#FFDB44"/>
<stop offset="1" stop-color="#FEEF06"/>
</linearGradient>
<linearGradient id="paint19_linear_3763_11081" x1="47.0519" y1="38.8802" x2="46.6132" y2="35.2403" gradientUnits="userSpaceOnUse">
<stop stop-color="#F36F56"/>
<stop offset="0.31" stop-color="#F99C4C"/>
<stop offset="0.55" stop-color="#FDB946"/>
<stop offset="0.68" stop-color="#FFC444"/>
<stop offset="0.8" stop-color="#FEC144"/>
<stop offset="0.87" stop-color="#FDB946"/>
<stop offset="0.92" stop-color="#FBAC49"/>
<stop offset="0.96" stop-color="#F8994D"/>
<stop offset="1" stop-color="#F57E53"/>
</linearGradient>
<linearGradient id="paint20_linear_3763_11081" x1="29.8539" y1="36.4471" x2="56.7932" y2="36.4471" gradientUnits="userSpaceOnUse">
<stop stop-color="#FCB148"/>
<stop offset="0.05" stop-color="#FDB946"/>
<stop offset="0.14" stop-color="#FEC144"/>
<stop offset="0.32" stop-color="#FFC444"/>
<stop offset="0.48" stop-color="#FDB946"/>
<stop offset="0.78" stop-color="#F99C4C"/>
<stop offset="0.87" stop-color="#F8924F"/>
<stop offset="1" stop-color="#F8924F"/>
</linearGradient>
<linearGradient id="paint21_linear_3763_11081" x1="43.445" y1="33.4102" x2="44.8639" y2="45.3032" gradientUnits="userSpaceOnUse">
<stop stop-color="#FFDB44"/>
<stop offset="1" stop-color="#FEEF06"/>
</linearGradient>
<linearGradient id="paint22_linear_3763_11081" x1="43.3843" y1="32.8825" x2="43.823" y2="36.5361" gradientUnits="userSpaceOnUse">
<stop stop-color="#FFDB44"/>
<stop offset="1" stop-color="#FEEF06"/>
</linearGradient>
<linearGradient id="paint23_linear_3763_11081" x1="43.796" y1="36.1521" x2="43.3573" y2="32.5122" gradientUnits="userSpaceOnUse">
<stop stop-color="#F36F56"/>
<stop offset="0.31" stop-color="#F99C4C"/>
<stop offset="0.55" stop-color="#FDB946"/>
<stop offset="0.68" stop-color="#FFC444"/>
<stop offset="0.8" stop-color="#FEC144"/>
<stop offset="0.87" stop-color="#FDB946"/>
<stop offset="0.92" stop-color="#FBAC49"/>
<stop offset="0.96" stop-color="#F8994D"/>
<stop offset="1" stop-color="#F57E53"/>
</linearGradient>
<linearGradient id="paint24_linear_3763_11081" x1="32.6644" y1="33.7254" x2="59.6038" y2="33.7254" gradientUnits="userSpaceOnUse">
<stop stop-color="#FCB148"/>
<stop offset="0.05" stop-color="#FDB946"/>
<stop offset="0.14" stop-color="#FEC144"/>
<stop offset="0.32" stop-color="#FFC444"/>
<stop offset="0.48" stop-color="#FDB946"/>
<stop offset="0.78" stop-color="#F99C4C"/>
<stop offset="0.87" stop-color="#F8924F"/>
<stop offset="1" stop-color="#F8924F"/>
</linearGradient>
<linearGradient id="paint25_linear_3763_11081" x1="46.2555" y1="30.6954" x2="47.6745" y2="42.5816" gradientUnits="userSpaceOnUse">
<stop stop-color="#FFDB44"/>
<stop offset="1" stop-color="#FEEF06"/>
</linearGradient>
<linearGradient id="paint26_linear_3763_11081" x1="46.1948" y1="30.1608" x2="46.6335" y2="33.8144" gradientUnits="userSpaceOnUse">
<stop stop-color="#FFDB44"/>
<stop offset="1" stop-color="#FEEF06"/>
</linearGradient>
<linearGradient id="paint27_linear_3763_11081" x1="46.5997" y1="33.4305" x2="46.1679" y2="29.7974" gradientUnits="userSpaceOnUse">
<stop stop-color="#F36F56"/>
<stop offset="0.31" stop-color="#F99C4C"/>
<stop offset="0.55" stop-color="#FDB946"/>
<stop offset="0.68" stop-color="#FFC444"/>
<stop offset="0.8" stop-color="#FEC144"/>
<stop offset="0.87" stop-color="#FDB946"/>
<stop offset="0.92" stop-color="#FBAC49"/>
<stop offset="0.96" stop-color="#F8994D"/>
<stop offset="1" stop-color="#F57E53"/>
</linearGradient>
<linearGradient id="paint28_linear_3763_11081" x1="31.2035" y1="30.9974" x2="58.1428" y2="30.9974" gradientUnits="userSpaceOnUse">
<stop stop-color="#FCB148"/>
<stop offset="0.05" stop-color="#FDB946"/>
<stop offset="0.14" stop-color="#FEC144"/>
<stop offset="0.32" stop-color="#FFC444"/>
<stop offset="0.48" stop-color="#FDB946"/>
<stop offset="0.78" stop-color="#F99C4C"/>
<stop offset="0.87" stop-color="#F8924F"/>
<stop offset="1" stop-color="#F8924F"/>
</linearGradient>
<linearGradient id="paint29_linear_3763_11081" x1="44.7946" y1="27.9673" x2="46.2135" y2="39.8535" gradientUnits="userSpaceOnUse">
<stop stop-color="#FFDB44"/>
<stop offset="1" stop-color="#FEEF06"/>
</linearGradient>
<linearGradient id="paint30_linear_3763_11081" x1="44.7339" y1="27.4328" x2="45.1657" y2="31.0864" gradientUnits="userSpaceOnUse">
<stop stop-color="#FFDB44"/>
<stop offset="1" stop-color="#FEEF06"/>
</linearGradient>
<linearGradient id="paint31_linear_3763_11081" x1="45.1388" y1="30.7024" x2="44.7069" y2="27.0694" gradientUnits="userSpaceOnUse">
<stop stop-color="#F36F56"/>
<stop offset="0.31" stop-color="#F99C4C"/>
<stop offset="0.55" stop-color="#FDB946"/>
<stop offset="0.68" stop-color="#FFC444"/>
<stop offset="0.8" stop-color="#FEC144"/>
<stop offset="0.87" stop-color="#FDB946"/>
<stop offset="0.92" stop-color="#FBAC49"/>
<stop offset="0.96" stop-color="#F8994D"/>
<stop offset="1" stop-color="#F57E53"/>
</linearGradient>
<linearGradient id="paint32_linear_3763_11081" x1="46.0366" y1="20.215" x2="34.404" y2="23.9508" gradientUnits="userSpaceOnUse">
<stop stop-color="#FCB148"/>
<stop offset="0.05" stop-color="#FDB946"/>
<stop offset="0.14" stop-color="#FEC144"/>
<stop offset="0.32" stop-color="#FFC444"/>
<stop offset="0.48" stop-color="#FDB946"/>
<stop offset="0.78" stop-color="#F99C4C"/>
<stop offset="0.87" stop-color="#F8924F"/>
<stop offset="1" stop-color="#F8924F"/>
</linearGradient>
<linearGradient id="paint33_linear_3763_11081" x1="55.4491" y1="8.6302" x2="45.0641" y2="31.5458" gradientUnits="userSpaceOnUse">
<stop stop-color="#FFDB44"/>
<stop offset="1" stop-color="#FEEF06"/>
</linearGradient>
<linearGradient id="paint34_linear_3763_11081" x1="53.5431" y1="32.8275" x2="51.5346" y2="21.8804" gradientUnits="userSpaceOnUse">
<stop stop-color="#FCB148"/>
<stop offset="0.05" stop-color="#FDB946"/>
<stop offset="0.14" stop-color="#FEC144"/>
<stop offset="0.32" stop-color="#FFC444"/>
<stop offset="0.48" stop-color="#FDB946"/>
<stop offset="0.78" stop-color="#F99C4C"/>
<stop offset="0.87" stop-color="#F8924F"/>
<stop offset="1" stop-color="#F8924F"/>
</linearGradient>
<linearGradient id="paint35_linear_3763_11081" x1="49.2931" y1="15.1081" x2="57.5532" y2="32.6426" gradientUnits="userSpaceOnUse">
<stop stop-color="#FCB148"/>
<stop offset="0.05" stop-color="#FDB946"/>
<stop offset="0.14" stop-color="#FEC144"/>
<stop offset="0.32" stop-color="#FFC444"/>
<stop offset="0.48" stop-color="#FDB946"/>
<stop offset="0.78" stop-color="#F99C4C"/>
<stop offset="0.87" stop-color="#F8924F"/>
<stop offset="1" stop-color="#F8924F"/>
</linearGradient>
<linearGradient id="paint36_linear_3763_11081" x1="46.8587" y1="16.2392" x2="55.105" y2="33.7395" gradientUnits="userSpaceOnUse">
<stop stop-color="#FCB148"/>
<stop offset="0.05" stop-color="#FDB946"/>
<stop offset="0.14" stop-color="#FEC144"/>
<stop offset="0.32" stop-color="#FFC444"/>
<stop offset="0.48" stop-color="#FDB946"/>
<stop offset="0.78" stop-color="#F99C4C"/>
<stop offset="0.87" stop-color="#F8924F"/>
<stop offset="1" stop-color="#F8924F"/>
</linearGradient>
<linearGradient id="paint37_linear_3763_11081" x1="50.0336" y1="13.7164" x2="52.7892" y2="24.0328" gradientUnits="userSpaceOnUse">
<stop stop-color="#FFDB44"/>
<stop offset="1" stop-color="#FEEF06"/>
</linearGradient>
<linearGradient id="paint38_linear_3763_11081" x1="52.0549" y1="16.5609" x2="45.4743" y2="18.3158" gradientUnits="userSpaceOnUse">
<stop stop-color="#FFDB44"/>
<stop offset="1" stop-color="#FEEF06"/>
</linearGradient>
<linearGradient id="paint39_linear_3763_11081" x1="52.0892" y1="18.8091" x2="45.44" y2="20.5845" gradientUnits="userSpaceOnUse">
<stop stop-color="#FFDB44"/>
<stop offset="1" stop-color="#FEEF06"/>
</linearGradient>
<linearGradient id="paint40_linear_3763_11081" x1="41.8418" y1="18.8095" x2="42.966" y2="18.8095" gradientUnits="userSpaceOnUse">
<stop stop-color="#311944"/>
<stop offset="1" stop-color="#893976"/>
</linearGradient>
<linearGradient id="paint41_linear_3763_11081" x1="40.5723" y1="23.5803" x2="41.244" y2="23.5803" gradientUnits="userSpaceOnUse">
<stop stop-color="#311944"/>
<stop offset="1" stop-color="#893976"/>
</linearGradient>
<linearGradient id="paint42_linear_3763_11081" x1="32.0589" y1="47.956" x2="31.6202" y2="53.5633" gradientUnits="userSpaceOnUse">
<stop stop-color="#311944"/>
<stop offset="1" stop-color="#A03976"/>
</linearGradient>
<linearGradient id="paint43_linear_3763_11081" x1="30.9217" y1="51.0821" x2="31.004" y2="45.2761" gradientUnits="userSpaceOnUse">
<stop stop-color="#FFC444"/>
<stop offset="1" stop-color="#F36F56"/>
</linearGradient>
<linearGradient id="paint44_linear_3763_11081" x1="23.7367" y1="47.3048" x2="23.298" y2="52.912" gradientUnits="userSpaceOnUse">
<stop stop-color="#311944"/>
<stop offset="1" stop-color="#A03976"/>
</linearGradient>
<linearGradient id="paint45_linear_3763_11081" x1="23.2984" y1="50.9722" x2="23.3738" y2="45.1662" gradientUnits="userSpaceOnUse">
<stop stop-color="#FFC444"/>
<stop offset="1" stop-color="#F36F56"/>
</linearGradient>
<linearGradient id="paint46_linear_3763_11081" x1="32.3124" y1="41.6705" x2="28.0144" y2="41.6705" gradientUnits="userSpaceOnUse">
<stop stop-color="#4B69DE"/>
<stop offset="1" stop-color="#222C4F"/>
</linearGradient>
<linearGradient id="paint47_linear_3763_11081" x1="31.1201" y1="41.252" x2="22.4762" y2="41.252" gradientUnits="userSpaceOnUse">
<stop stop-color="#4B69DE"/>
<stop offset="1" stop-color="#222C4F"/>
</linearGradient>
<linearGradient id="paint48_linear_3763_11081" x1="31.6411" y1="21.9834" x2="32.1278" y2="25.7947" gradientUnits="userSpaceOnUse">
<stop stop-color="#311944"/>
<stop offset="1" stop-color="#893976"/>
</linearGradient>
<linearGradient id="paint49_linear_3763_11081" x1="31.9147" y1="21.2361" x2="31.6954" y2="18.645" gradientUnits="userSpaceOnUse">
<stop stop-color="#26264F"/>
<stop offset="1" stop-color="#444B8C"/>
</linearGradient>
<linearGradient id="paint50_linear_3763_11081" x1="30.5641" y1="19.55" x2="32.5725" y2="21.6613" gradientUnits="userSpaceOnUse">
<stop stop-color="#311944"/>
<stop offset="1" stop-color="#893976"/>
</linearGradient>
<linearGradient id="paint51_linear_3763_11081" x1="31.3744" y1="29.181" x2="43.0618" y2="20.4137" gradientUnits="userSpaceOnUse">
<stop offset="0.28" stop-color="#DB251E"/>
<stop offset="1" stop-color="#FF928E"/>
</linearGradient>
<linearGradient id="paint52_linear_3763_11081" x1="34.7529" y1="39.8192" x2="32.9295" y2="22.2984" gradientUnits="userSpaceOnUse">
<stop stop-color="#FF928E"/>
<stop offset="0.72" stop-color="#DB251E"/>
</linearGradient>
<clipPath id="clip0_3763_11081">
<rect width="60.8911" height="60" fill="white"/>
</clipPath>
</defs>
</svg>
