<svg width="19" height="16" viewBox="0 0 19 16" fill="none" xmlns="http://www.w3.org/2000/svg">
<path d="M0.116699 14.332V3.06787C0.116699 2.99593 0.122233 2.92952 0.133301 2.86865C0.144368 2.80778 0.172038 2.74137 0.216309 2.66943C0.465332 2.24333 0.827799 1.85042 1.30371 1.49072C1.78516 1.13102 2.34961 0.843262 2.99707 0.627441C3.65007 0.406087 4.3584 0.29541 5.12207 0.29541C6.02409 0.29541 6.84587 0.458659 7.5874 0.785156C8.33447 1.10612 8.91829 1.52393 9.33887 2.03857C9.75391 1.52393 10.3322 1.10612 11.0737 0.785156C11.8208 0.458659 12.6481 0.29541 13.5557 0.29541C14.3138 0.29541 15.0166 0.406087 15.6641 0.627441C16.3171 0.843262 16.8843 1.13102 17.3657 1.49072C17.8472 1.85042 18.2096 2.24333 18.4531 2.66943C18.4974 2.74137 18.5251 2.80778 18.5361 2.86865C18.5472 2.92952 18.5527 2.99593 18.5527 3.06787V14.332C18.5527 14.6751 18.4587 14.9186 18.2705 15.0625C18.0824 15.2064 17.8665 15.2783 17.623 15.2783C17.4792 15.2783 17.3408 15.2424 17.208 15.1704C17.0752 15.104 16.9313 15.021 16.7764 14.9214C16.3171 14.6115 15.8135 14.3652 15.2656 14.1826C14.7233 14.0055 14.1644 13.9198 13.5889 13.9253C12.9857 13.9308 12.3963 14.0443 11.8208 14.2656C11.2508 14.487 10.7334 14.8218 10.2686 15.27C10.0915 15.436 9.92822 15.5495 9.77881 15.6104C9.63493 15.6768 9.48828 15.71 9.33887 15.71C9.18392 15.71 9.03451 15.6768 8.89062 15.6104C8.74674 15.5495 8.5835 15.436 8.40088 15.27C7.93604 14.8218 7.41585 14.487 6.84033 14.2656C6.27035 14.0443 5.68652 13.9308 5.08887 13.9253C4.50781 13.9198 3.94336 14.0055 3.39551 14.1826C2.85319 14.3652 2.35238 14.6115 1.89307 14.9214C1.73812 15.021 1.59424 15.104 1.46143 15.1704C1.32861 15.2424 1.19303 15.2783 1.05469 15.2783C0.805664 15.2783 0.587077 15.2064 0.398926 15.0625C0.210775 14.9186 0.116699 14.6751 0.116699 14.332ZM1.45312 13.6265C1.8903 13.311 2.42985 13.0592 3.07178 12.8711C3.7137 12.6829 4.39714 12.5889 5.12207 12.5889C5.58138 12.5889 6.02962 12.6414 6.4668 12.7466C6.90397 12.8462 7.30794 12.9845 7.67871 13.1616C8.05501 13.3387 8.38428 13.5407 8.6665 13.7676V3.30859C8.37321 2.79948 7.9056 2.39274 7.26367 2.08838C6.62174 1.78402 5.90788 1.63184 5.12207 1.63184C4.60742 1.63184 4.11214 1.70101 3.63623 1.83936C3.16585 1.97217 2.73975 2.16032 2.35791 2.40381C1.97607 2.6473 1.67448 2.93229 1.45312 3.25879V13.6265ZM10.0029 13.7676C10.2852 13.5407 10.6144 13.3387 10.9907 13.1616C11.367 12.9845 11.771 12.8462 12.2026 12.7466C12.6398 12.6414 13.0908 12.5889 13.5557 12.5889C14.2751 12.5889 14.9557 12.6829 15.5977 12.8711C16.2396 13.0592 16.7791 13.311 17.2163 13.6265V3.25879C16.995 2.93229 16.6934 2.6473 16.3115 2.40381C15.9297 2.16032 15.5008 1.97217 15.0249 1.83936C14.5545 1.70101 14.0648 1.63184 13.5557 1.63184C12.7643 1.63184 12.0477 1.78402 11.4058 2.08838C10.7638 2.39274 10.2962 2.79948 10.0029 3.30859V13.7676Z" fill="#ABABC5"/>
</svg>
