<svg width="20" height="17" viewBox="0 0 20 17" fill="none" xmlns="http://www.w3.org/2000/svg">
<path d="M0.387695 9.23096V7.97754H3.90723V7.76172C3.90723 7.15299 4.21159 6.84863 4.82031 6.84863H6.87891C7.49316 6.84863 7.80029 7.15299 7.80029 7.76172V7.97754H12.1831V7.76172C12.1831 7.15299 12.4902 6.84863 13.1045 6.84863H15.1631C15.7773 6.84863 16.0845 7.15299 16.0845 7.76172V7.97754H19.604V9.23096H16.0845V9.46338C16.0845 10.0666 15.7773 10.3682 15.1631 10.3682H13.1045C12.4902 10.3682 12.1831 10.0666 12.1831 9.46338V9.23096H7.80029V9.46338C7.80029 10.0666 7.49316 10.3682 6.87891 10.3682H4.82031C4.21159 10.3682 3.90723 10.0666 3.90723 9.46338V9.23096H0.387695ZM2.95264 16.2368H17.0391C17.8968 16.2368 18.5387 16.0265 18.9648 15.606C19.391 15.1854 19.604 14.5518 19.604 13.7051V5.62842C19.604 4.7762 19.391 4.14258 18.9648 3.72754C18.5387 3.30697 17.8968 3.09668 17.0391 3.09668H2.95264C2.10042 3.09668 1.4585 3.30697 1.02686 3.72754C0.600749 4.14258 0.387695 4.7762 0.387695 5.62842V13.7051C0.387695 14.5518 0.600749 15.1854 1.02686 15.606C1.4585 16.0265 2.10042 16.2368 2.95264 16.2368ZM5.7832 3.81885H7.06982V2.34961C7.06982 2.03418 7.15837 1.79069 7.33545 1.61914C7.51253 1.44759 7.76432 1.36182 8.09082 1.36182H11.9009C12.2218 1.36182 12.4709 1.44759 12.6479 1.61914C12.825 1.79069 12.9136 2.03418 12.9136 2.34961V3.80225H14.2002V2.44092C14.2002 1.66064 14.001 1.08512 13.6025 0.714355C13.2041 0.338053 12.6286 0.149902 11.876 0.149902H8.10742C7.39909 0.149902 6.83464 0.338053 6.41406 0.714355C5.99349 1.08512 5.7832 1.66064 5.7832 2.44092V3.81885Z" fill="white"/>
</svg>
