<svg width="20" height="17" viewBox="0 0 20 17" fill="none" xmlns="http://www.w3.org/2000/svg">
<path d="M1.27881 9.23096H18.1709V7.97754H1.27881V9.23096ZM4.54932 10.3682H6.60791C6.9012 10.3682 7.12809 10.2907 7.28857 10.1357C7.44906 9.97526 7.5293 9.75114 7.5293 9.46338V7.76172C7.5293 7.46842 7.44906 7.2443 7.28857 7.08936C7.12809 6.92887 6.9012 6.84863 6.60791 6.84863H4.54932C4.25602 6.84863 4.02913 6.92887 3.86865 7.08936C3.7137 7.2443 3.63623 7.46842 3.63623 7.76172V9.46338C3.63623 9.75114 3.7137 9.97526 3.86865 10.1357C4.02913 10.2907 4.25602 10.3682 4.54932 10.3682ZM12.8335 10.3682H14.8921C15.1854 10.3682 15.4123 10.2907 15.5728 10.1357C15.7332 9.97526 15.8135 9.75114 15.8135 9.46338V7.76172C15.8135 7.46842 15.7332 7.2443 15.5728 7.08936C15.4123 6.92887 15.1854 6.84863 14.8921 6.84863H12.8335C12.5402 6.84863 12.3133 6.92887 12.1528 7.08936C11.9924 7.2443 11.9121 7.46842 11.9121 7.76172V9.46338C11.9121 9.75114 11.9924 9.97526 12.1528 10.1357C12.3133 10.2907 12.5402 10.3682 12.8335 10.3682ZM2.68164 16.2368H16.7681C17.6258 16.2368 18.2677 16.0265 18.6938 15.606C19.12 15.1854 19.333 14.5518 19.333 13.7051V5.62842C19.333 4.7762 19.12 4.14258 18.6938 3.72754C18.2677 3.30697 17.6258 3.09668 16.7681 3.09668H2.68164C1.82943 3.09668 1.1875 3.30697 0.755859 3.72754C0.329753 4.14258 0.116699 4.7762 0.116699 5.62842V13.7051C0.116699 14.5518 0.329753 15.1854 0.755859 15.606C1.1875 16.0265 1.82943 16.2368 2.68164 16.2368ZM2.69824 14.9087C2.29427 14.9087 1.98438 14.8035 1.76855 14.5933C1.55827 14.383 1.45312 14.0648 1.45312 13.6387V5.69482C1.45312 5.26872 1.55827 4.95052 1.76855 4.74023C1.98438 4.52995 2.29427 4.4248 2.69824 4.4248H16.7515C17.1554 4.4248 17.4626 4.52995 17.6729 4.74023C17.8887 4.95052 17.9966 5.26872 17.9966 5.69482V13.6387C17.9966 14.0648 17.8887 14.383 17.6729 14.5933C17.4626 14.8035 17.1554 14.9087 16.7515 14.9087H2.69824ZM5.51221 3.81885H6.79883V2.34961C6.79883 2.03418 6.88737 1.79069 7.06445 1.61914C7.24154 1.44759 7.49333 1.36182 7.81982 1.36182H11.6299C11.9508 1.36182 12.1999 1.44759 12.377 1.61914C12.554 1.79069 12.6426 2.03418 12.6426 2.34961V3.80225H13.9292V2.44092C13.9292 1.66064 13.73 1.08512 13.3315 0.714355C12.9331 0.338053 12.3576 0.149902 11.605 0.149902H7.83643C7.12809 0.149902 6.56364 0.338053 6.14307 0.714355C5.72249 1.08512 5.51221 1.66064 5.51221 2.44092V3.81885Z" fill="#ABABC5"/>
</svg>
