<svg width="116" height="105" viewBox="0 0 116 105" fill="none" xmlns="http://www.w3.org/2000/svg">
<path d="M78.9698 104.846H107.144C109.618 104.846 111.571 104.032 113.003 102.404C114.468 100.809 115.2 98.6608 115.2 95.959V33.6543C115.2 30.9525 114.468 28.804 113.003 27.209C111.571 25.5814 109.618 24.7676 107.144 24.7676H81.3624V95.959C81.3624 97.6191 81.1508 99.1816 80.7276 100.646C80.337 102.144 79.7511 103.544 78.9698 104.846ZM92.4464 49.4746V41.6621C92.4464 40.5228 93.016 39.9531 94.1553 39.9531H102.261C103.4 39.9531 103.97 40.5228 103.97 41.6621V49.4746C103.97 50.6465 103.4 51.2324 102.261 51.2324H94.1553C93.016 51.2324 92.4464 50.6465 92.4464 49.4746ZM92.4464 68.7129V60.9004C92.4464 59.7611 93.016 59.1914 94.1553 59.1914H102.261C103.4 59.1914 103.97 59.7611 103.97 60.9004V68.7129C103.97 69.8522 103.4 70.4219 102.261 70.4219H94.1553C93.016 70.4219 92.4464 69.8522 92.4464 68.7129ZM92.4464 87.9512V80.1387C92.4464 78.9668 93.016 78.3809 94.1553 78.3809H102.261C103.4 78.3809 103.97 78.9668 103.97 80.1387V87.9512C103.97 89.0905 103.4 89.6602 102.261 89.6602H94.1553C93.016 89.6602 92.4464 89.0905 92.4464 87.9512ZM0.258865 95.959C0.258865 98.6608 0.975011 100.809 2.4073 102.404C3.87215 104.032 5.85782 104.846 8.36433 104.846H66.5675C69.074 104.846 71.0434 104.032 72.4757 102.404C73.9405 100.809 74.6729 98.6608 74.6729 95.959V9.63086C74.6729 6.89648 73.9405 4.73177 72.4757 3.13672C71.0434 1.54167 69.074 0.744141 66.5675 0.744141H8.36433C5.85782 0.744141 3.87215 1.54167 2.4073 3.13672C0.975011 4.73177 0.258865 6.89648 0.258865 9.63086V95.959ZM20.5714 96.9844V81.1152C20.5714 79.9759 20.9132 79.0807 21.5968 78.4297C22.2803 77.7461 23.1755 77.4043 24.2823 77.4043H51.0889C52.2283 77.4043 53.1234 77.7461 53.7745 78.4297C54.4581 79.0807 54.7999 79.9759 54.7999 81.1152V96.9844H20.5714ZM18.96 26.9648V17.4922C18.96 16.0924 19.6274 15.3926 20.962 15.3926H30.7276C32.1274 15.3926 32.8272 16.0924 32.8272 17.4922V26.9648C32.8272 28.3646 32.1274 29.0645 30.7276 29.0645H20.962C19.6274 29.0645 18.96 28.3646 18.96 26.9648ZM42.544 26.9648V17.4922C42.544 16.0924 43.2276 15.3926 44.5948 15.3926H54.3116C55.7113 15.3926 56.4112 16.0924 56.4112 17.4922V26.9648C56.4112 28.3646 55.7113 29.0645 54.3116 29.0645H44.5948C43.2276 29.0645 42.544 28.3646 42.544 26.9648ZM18.96 46.8867V37.4141C18.96 36.0143 19.6274 35.3145 20.962 35.3145H30.7276C32.1274 35.3145 32.8272 36.0143 32.8272 37.4141V46.8867C32.8272 48.2865 32.1274 48.9863 30.7276 48.9863H20.962C19.6274 48.9863 18.96 48.2865 18.96 46.8867ZM42.544 46.8867V37.4141C42.544 36.0143 43.2276 35.3145 44.5948 35.3145H54.3116C55.7113 35.3145 56.4112 36.0143 56.4112 37.4141V46.8867C56.4112 48.2865 55.7113 48.9863 54.3116 48.9863H44.5948C43.2276 48.9863 42.544 48.2865 42.544 46.8867ZM18.96 66.8086V57.3359C18.96 55.9362 19.6274 55.2363 20.962 55.2363H30.7276C32.1274 55.2363 32.8272 55.9362 32.8272 57.3359V66.8086C32.8272 68.2083 32.1274 68.9082 30.7276 68.9082H20.962C19.6274 68.9082 18.96 68.2083 18.96 66.8086ZM42.544 66.8086V57.3359C42.544 55.9362 43.2276 55.2363 44.5948 55.2363H54.3116C55.7113 55.2363 56.4112 55.9362 56.4112 57.3359V66.8086C56.4112 68.2083 55.7113 68.9082 54.3116 68.9082H44.5948C43.2276 68.9082 42.544 68.2083 42.544 66.8086Z" fill="#ABABC5"/>
</svg>
