<svg width="41" height="40" viewBox="0 0 41 40" fill="none" xmlns="http://www.w3.org/2000/svg">
<rect x="6" y="11" width="28" height="21" fill="white"/>
<path d="M9.16846 34.2227H31.1792C34.5469 34.2227 36.2227 32.5469 36.2227 29.2275V9.55322C36.2227 6.23389 34.5469 4.55811 31.1792 4.55811H9.16846C5.80078 4.55811 4.10889 6.21777 4.10889 9.55322V29.2275C4.10889 32.563 5.80078 34.2227 9.16846 34.2227ZM8.92676 31.6284C7.49268 31.6284 6.70312 30.8711 6.70312 29.3726V14.1777C6.70312 12.6953 7.49268 11.9219 8.92676 11.9219H31.3887C32.8228 11.9219 33.6284 12.6953 33.6284 14.1777V29.3726C33.6284 30.8711 32.8228 31.6284 31.3887 31.6284H8.92676ZM17.0317 17.7065H17.9824C18.5464 17.7065 18.7236 17.5454 18.7236 16.9814V16.0308C18.7236 15.4668 18.5464 15.2896 17.9824 15.2896H17.0317C16.4678 15.2896 16.2744 15.4668 16.2744 16.0308V16.9814C16.2744 17.5454 16.4678 17.7065 17.0317 17.7065ZM22.3813 17.7065H23.332C23.896 17.7065 24.0894 17.5454 24.0894 16.9814V16.0308C24.0894 15.4668 23.896 15.2896 23.332 15.2896H22.3813C21.8174 15.2896 21.624 15.4668 21.624 16.0308V16.9814C21.624 17.5454 21.8174 17.7065 22.3813 17.7065ZM27.731 17.7065H28.6816C29.2456 17.7065 29.439 17.5454 29.439 16.9814V16.0308C29.439 15.4668 29.2456 15.2896 28.6816 15.2896H27.731C27.167 15.2896 26.9897 15.4668 26.9897 16.0308V16.9814C26.9897 17.5454 27.167 17.7065 27.731 17.7065ZM11.6821 22.9756H12.6167C13.1968 22.9756 13.374 22.8145 13.374 22.2505V21.2998C13.374 20.7358 13.1968 20.5747 12.6167 20.5747H11.6821C11.1021 20.5747 10.9248 20.7358 10.9248 21.2998V22.2505C10.9248 22.8145 11.1021 22.9756 11.6821 22.9756ZM17.0317 22.9756H17.9824C18.5464 22.9756 18.7236 22.8145 18.7236 22.2505V21.2998C18.7236 20.7358 18.5464 20.5747 17.9824 20.5747H17.0317C16.4678 20.5747 16.2744 20.7358 16.2744 21.2998V22.2505C16.2744 22.8145 16.4678 22.9756 17.0317 22.9756ZM22.3813 22.9756H23.332C23.896 22.9756 24.0894 22.8145 24.0894 22.2505V21.2998C24.0894 20.7358 23.896 20.5747 23.332 20.5747H22.3813C21.8174 20.5747 21.624 20.7358 21.624 21.2998V22.2505C21.624 22.8145 21.8174 22.9756 22.3813 22.9756ZM27.731 22.9756H28.6816C29.2456 22.9756 29.439 22.8145 29.439 22.2505V21.2998C29.439 20.7358 29.2456 20.5747 28.6816 20.5747H27.731C27.167 20.5747 26.9897 20.7358 26.9897 21.2998V22.2505C26.9897 22.8145 27.167 22.9756 27.731 22.9756ZM11.6821 28.2607H12.6167C13.1968 28.2607 13.374 28.0835 13.374 27.5195V26.5688C13.374 26.0049 13.1968 25.8438 12.6167 25.8438H11.6821C11.1021 25.8438 10.9248 26.0049 10.9248 26.5688V27.5195C10.9248 28.0835 11.1021 28.2607 11.6821 28.2607ZM17.0317 28.2607H17.9824C18.5464 28.2607 18.7236 28.0835 18.7236 27.5195V26.5688C18.7236 26.0049 18.5464 25.8438 17.9824 25.8438H17.0317C16.4678 25.8438 16.2744 26.0049 16.2744 26.5688V27.5195C16.2744 28.0835 16.4678 28.2607 17.0317 28.2607ZM22.3813 28.2607H23.332C23.896 28.2607 24.0894 28.0835 24.0894 27.5195V26.5688C24.0894 26.0049 23.896 25.8438 23.332 25.8438H22.3813C21.8174 25.8438 21.624 26.0049 21.624 26.5688V27.5195C21.624 28.0835 21.8174 28.2607 22.3813 28.2607Z" fill="#E73745"/>
<defs>
<linearGradient id="paint0_linear_1841_15877" x1="37.7701" y1="10.2817" x2="1.28556" y2="15.4669" gradientUnits="userSpaceOnUse">
<stop stop-color="#FF8787"/>
<stop offset="1" stop-color="#FC0000"/>
</linearGradient>
</defs>
</svg>
