<svg width="29" height="29" viewBox="0 0 29 29" fill="none" xmlns="http://www.w3.org/2000/svg">
<path d="M22.8945 23.9863L24.3438 22.5371L6.11914 4.3125L4.66992 5.76172L22.8945 23.9863ZM14.5 28.0742C16.4049 28.0742 18.196 27.7096 19.873 26.9805C21.5592 26.2513 23.0449 25.2441 24.3301 23.959C25.6152 22.6738 26.6224 21.1927 27.3516 19.5156C28.0807 17.8294 28.4453 16.0339 28.4453 14.1289C28.4453 12.224 28.0807 10.4329 27.3516 8.75586C26.6224 7.06966 25.6152 5.58398 24.3301 4.29883C23.0449 3.01367 21.5592 2.00651 19.873 1.27734C18.1868 0.548177 16.3913 0.183594 14.4863 0.183594C12.5814 0.183594 10.7858 0.548177 9.09961 1.27734C7.42253 2.00651 5.94141 3.01367 4.65625 4.29883C3.38021 5.58398 2.3776 7.06966 1.64844 8.75586C0.919271 10.4329 0.554688 12.224 0.554688 14.1289C0.554688 16.0339 0.919271 17.8294 1.64844 19.5156C2.3776 21.1927 3.38477 22.6738 4.66992 23.959C5.95508 25.2441 7.4362 26.2513 9.11328 26.9805C10.7995 27.7096 12.5951 28.0742 14.5 28.0742ZM14.5 25.75C12.8867 25.75 11.3783 25.4492 9.97461 24.8477C8.57096 24.2461 7.33594 23.4167 6.26953 22.3594C5.21224 21.293 4.38281 20.0579 3.78125 18.6543C3.1888 17.2507 2.89258 15.7422 2.89258 14.1289C2.89258 12.5156 3.1888 11.0072 3.78125 9.60352C4.38281 8.19987 5.21224 6.96484 6.26953 5.89844C7.32682 4.83203 8.55729 4.0026 9.96094 3.41016C11.3646 2.80859 12.873 2.50781 14.4863 2.50781C16.0996 2.50781 17.6081 2.80859 19.0117 3.41016C20.4154 4.0026 21.6504 4.83203 22.7168 5.89844C23.7832 6.96484 24.6172 8.19987 25.2188 9.60352C25.8203 11.0072 26.1211 12.5156 26.1211 14.1289C26.1211 15.7422 25.8203 17.2507 25.2188 18.6543C24.6263 20.0579 23.7969 21.293 22.7305 22.3594C21.6732 23.4167 20.4382 24.2461 19.0254 24.8477C17.6217 25.4492 16.1133 25.75 14.5 25.75Z" fill="white"/>
</svg>
