<svg width="33" height="28" viewBox="0 0 33 28" fill="none" xmlns="http://www.w3.org/2000/svg">
<path d="M11.9043 20.8945H27.8594C28.1237 20.8945 28.3561 20.7988 28.5566 20.6074C28.7572 20.4069 28.8574 20.1608 28.8574 19.8691C28.8574 19.5775 28.7572 19.3359 28.5566 19.1445C28.3561 18.944 28.1237 18.8438 27.8594 18.8438H12.1367C11.7539 18.8438 11.4395 18.7207 11.1934 18.4746C10.9564 18.2194 10.8105 17.8822 10.7559 17.4629L8.51367 2.24609C8.44076 1.71745 8.27669 1.32096 8.02148 1.05664C7.77539 0.792318 7.30143 0.660156 6.59961 0.660156H1.80078C1.52734 0.660156 1.29036 0.764974 1.08984 0.974609C0.889323 1.17513 0.789062 1.41211 0.789062 1.68555C0.789062 1.9681 0.889323 2.21419 1.08984 2.42383C1.29036 2.62435 1.52734 2.72461 1.80078 2.72461H6.42188L8.60938 17.7363C8.75521 18.7116 9.09245 19.4818 9.62109 20.0469C10.1497 20.612 10.9108 20.8945 11.9043 20.8945ZM9.38867 16.0273H27.8867C28.8893 16.0273 29.6549 15.7448 30.1836 15.1797C30.7122 14.6055 31.0495 13.8262 31.1953 12.8418L32.2891 5.60938C32.3073 5.51823 32.321 5.42708 32.3301 5.33594C32.3392 5.23568 32.3438 5.15365 32.3438 5.08984C32.3438 4.76172 32.2298 4.4974 32.002 4.29688C31.7741 4.08724 31.4733 3.98242 31.0996 3.98242H8.19922L8.21289 6.04688H30.0195L29.0488 12.5957C28.9941 13.015 28.8529 13.3477 28.625 13.5938C28.3971 13.8398 28.0827 13.9629 27.6816 13.9629L9.36133 13.9766L9.38867 16.0273ZM12.9844 27.5391C13.5951 27.5391 14.1146 27.3249 14.543 26.8965C14.9805 26.4681 15.1992 25.944 15.1992 25.3242C15.1992 24.7044 14.9805 24.1803 14.543 23.752C14.1146 23.3236 13.5951 23.1094 12.9844 23.1094C12.5651 23.1094 12.1868 23.2051 11.8496 23.3965C11.5215 23.597 11.2572 23.8659 11.0566 24.2031C10.8561 24.5404 10.7559 24.9141 10.7559 25.3242C10.7559 25.7344 10.8561 26.1081 11.0566 26.4453C11.2572 26.7826 11.5215 27.0469 11.8496 27.2383C12.1868 27.4388 12.5651 27.5391 12.9844 27.5391ZM25.7676 27.5391C26.3874 27.5391 26.9115 27.3249 27.3398 26.8965C27.7773 26.4681 27.9961 25.944 27.9961 25.3242C27.9961 24.7044 27.7773 24.1803 27.3398 23.752C26.9115 23.3236 26.3874 23.1094 25.7676 23.1094C25.3574 23.1094 24.9837 23.2051 24.6465 23.3965C24.3092 23.597 24.0404 23.8659 23.8398 24.2031C23.6393 24.5404 23.5391 24.9141 23.5391 25.3242C23.5391 25.944 23.7578 26.4681 24.1953 26.8965C24.6328 27.3249 25.1569 27.5391 25.7676 27.5391Z" fill="#E73745"/>
</svg>
