<svg width="35" height="36" viewBox="0 0 35 36" fill="none" xmlns="http://www.w3.org/2000/svg">
<path d="M17.4907 35.0928C19.8719 35.0928 22.1107 34.637 24.207 33.7256C26.3148 32.8141 28.1719 31.5552 29.7783 29.9487C31.3848 28.3423 32.6437 26.4909 33.5552 24.3945C34.4666 22.2868 34.9224 20.0423 34.9224 17.6611C34.9224 15.2799 34.4666 13.0412 33.5552 10.9448C32.6437 8.83708 31.3848 6.97998 29.7783 5.37354C28.1719 3.76709 26.3148 2.50814 24.207 1.59668C22.0993 0.685221 19.8548 0.229492 17.4736 0.229492C15.0924 0.229492 12.848 0.685221 10.7402 1.59668C8.64388 2.50814 6.79248 3.76709 5.18604 5.37354C3.59098 6.97998 2.33773 8.83708 1.42627 10.9448C0.514811 13.0412 0.059082 15.2799 0.059082 17.6611C0.059082 20.0423 0.514811 22.2868 1.42627 24.3945C2.33773 26.4909 3.59668 28.3423 5.20312 29.9487C6.80957 31.5552 8.66097 32.8141 10.7573 33.7256C12.8651 34.637 15.1095 35.0928 17.4907 35.0928ZM15.5767 26.001C15.2804 26.001 15.0127 25.9383 14.7734 25.813C14.5342 25.6877 14.3006 25.4769 14.0728 25.1807L9.7832 19.917C9.65788 19.7461 9.55534 19.5695 9.47559 19.3872C9.40723 19.1935 9.37305 18.9998 9.37305 18.8062C9.37305 18.4188 9.50407 18.0884 9.76611 17.8149C10.0282 17.5301 10.3529 17.3877 10.7402 17.3877C10.9909 17.3877 11.2131 17.439 11.4067 17.5415C11.6118 17.644 11.8226 17.8377 12.0391 18.1226L15.5083 22.6001L22.8057 10.8765C23.1247 10.3524 23.5348 10.0903 24.0361 10.0903C24.4007 10.0903 24.7311 10.21 25.0273 10.4492C25.3236 10.6771 25.4717 10.9904 25.4717 11.3892C25.4717 11.5828 25.4261 11.7765 25.335 11.9702C25.2438 12.1639 25.147 12.3462 25.0444 12.5171L17.0122 25.1807C16.8299 25.4541 16.6191 25.6592 16.3799 25.7959C16.1406 25.9326 15.8729 26.001 15.5767 26.001Z" fill="#007AFF"/>
</svg>
