<svg width="35" height="35" viewBox="0 0 35 35" fill="none" xmlns="http://www.w3.org/2000/svg">
<path d="M0.108887 8.05273C0.108887 9.01953 0.753418 9.64795 1.75244 9.64795H5.94189V29.4189C5.94189 32.8027 7.60156 34.4785 10.9854 34.4785H29.4028C32.4644 34.4785 34.4785 32.3838 34.4785 29.2095V24.8267C34.4785 23.8599 33.834 23.2314 32.835 23.2314H31.4976V5.31348C31.4976 1.9458 29.8218 0.253906 26.5024 0.253906H4.33057C1.81689 0.253906 0.108887 1.96191 0.108887 4.65283V8.05273ZM8.53613 29.4351V4.65283C8.53613 3.99219 8.47168 3.37988 8.34277 2.84814H26.3574C28.0332 2.84814 28.9033 3.73438 28.9033 5.3457V23.2314H15.062C14.063 23.2314 13.4023 23.8599 13.4023 24.8267V29.4351C13.4023 30.9014 12.3872 31.8843 10.9854 31.8843C9.55127 31.8843 8.53613 30.853 8.53613 29.4351ZM2.70312 7.05371V4.65283C2.70312 3.5249 3.396 2.84814 4.33057 2.84814C5.29736 2.84814 5.94189 3.5249 5.94189 4.65283V7.05371H2.70312ZM13.1768 9.66406H24.2627C24.8428 9.66406 25.2617 9.229 25.2617 8.66504C25.2617 8.11719 24.8428 7.68213 24.2627 7.68213H13.1768C12.5967 7.68213 12.1616 8.11719 12.1616 8.66504C12.1616 9.229 12.5967 9.66406 13.1768 9.66406ZM13.1768 15.2876H18.9614C19.5415 15.2876 19.9604 14.8687 19.9604 14.3208C19.9604 13.7568 19.5415 13.3057 18.9614 13.3057H13.1768C12.5967 13.3057 12.1616 13.7568 12.1616 14.3208C12.1616 14.8687 12.5967 15.2876 13.1768 15.2876ZM15.3682 31.8843C15.771 31.1753 15.9966 30.3052 15.9966 29.2578V25.8257H31.8843V29.2095C31.8843 30.8047 30.8853 31.8843 29.4028 31.8843H15.3682Z" fill="white"/>
</svg>
