<svg width="24" height="25" viewBox="0 0 24 25" fill="none" xmlns="http://www.w3.org/2000/svg">
<path d="M12 24.293C13.6094 24.293 15.1211 23.9844 16.5352 23.3672C17.957 22.7578 19.207 21.9141 20.2852 20.8359C21.3633 19.75 22.2109 18.5 22.8281 17.0859C23.4453 15.6641 23.7539 14.1484 23.7539 12.5391C23.7539 10.9297 23.4453 9.41797 22.8281 8.00391C22.2109 6.58203 21.3633 5.33203 20.2852 4.25391C19.207 3.16797 17.957 2.32031 16.5352 1.71094C15.1133 1.09375 13.5977 0.785156 11.9883 0.785156C10.3789 0.785156 8.86328 1.09375 7.44141 1.71094C6.02734 2.32031 4.78125 3.16797 3.70312 4.25391C2.625 5.33203 1.77734 6.58203 1.16016 8.00391C0.550781 9.41797 0.246094 10.9297 0.246094 12.5391C0.246094 14.1484 0.550781 15.6641 1.16016 17.0859C1.77734 18.5 2.625 19.75 3.70312 20.8359C4.78906 21.9141 6.03906 22.7578 7.45312 23.3672C8.875 23.9844 10.3906 24.293 12 24.293ZM12 22.7812C10.5781 22.7812 9.25 22.5156 8.01562 21.9844C6.78125 21.4531 5.69531 20.7188 4.75781 19.7812C3.82031 18.8438 3.08594 17.7578 2.55469 16.5234C2.03125 15.2812 1.76953 13.9531 1.76953 12.5391C1.76953 11.125 2.03125 9.80078 2.55469 8.56641C3.08594 7.32422 3.81641 6.23438 4.74609 5.29688C5.68359 4.35156 6.76953 3.61719 8.00391 3.09375C9.24609 2.5625 10.5742 2.29688 11.9883 2.29688C13.4102 2.29688 14.7383 2.5625 15.9727 3.09375C17.207 3.61719 18.293 4.35156 19.2305 5.29688C20.1758 6.23438 20.9141 7.32422 21.4453 8.56641C21.9766 9.80078 22.2422 11.125 22.2422 12.5391C22.2422 13.9531 21.9766 15.2812 21.4453 16.5234C20.9219 17.7578 20.1914 18.8438 19.2539 19.7812C18.3164 20.7188 17.2266 21.4531 15.9844 21.9844C14.7422 22.5156 13.4141 22.7812 12 22.7812ZM8.0625 17.5781L16.1484 9.51562L14.9883 8.35547L6.91406 16.418L6.21094 17.8828C6.17188 18 6.19141 18.0977 6.26953 18.1758C6.35547 18.2539 6.44531 18.2734 6.53906 18.2344L8.0625 17.5781ZM16.7578 8.91797L17.4844 8.17969C17.6562 8.00781 17.7461 7.83203 17.7539 7.65234C17.7617 7.47266 17.6875 7.30469 17.5312 7.14844L17.3438 6.96094C17.1953 6.80469 17.0312 6.73438 16.8516 6.75C16.6719 6.76562 16.5 6.85547 16.3359 7.01953L15.5977 7.74609L16.7578 8.91797Z" fill="#E73745"/>
</svg>
