<svg width="21" height="21" viewBox="0 0 21 21" fill="none" xmlns="http://www.w3.org/2000/svg">
<path d="M10.4575 20.0986C11.8058 20.0986 13.0706 19.842 14.252 19.3286C15.4333 18.8215 16.4723 18.1164 17.3691 17.2134C18.2721 16.3166 18.9803 15.2775 19.4937 14.0962C20.007 12.9149 20.2637 11.6501 20.2637 10.3018C20.2637 8.95964 20.007 7.69792 19.4937 6.5166C18.9803 5.33529 18.2721 4.29313 17.3691 3.39014C16.4723 2.48714 15.4302 1.78206 14.2427 1.2749C13.0614 0.761556 11.7996 0.504883 10.4575 0.504883C9.1154 0.504883 7.85059 0.761556 6.66309 1.2749C5.48177 1.78206 4.43962 2.48714 3.53662 3.39014C2.63981 4.29313 1.93473 5.33529 1.42139 6.5166C0.914225 7.69792 0.660645 8.95964 0.660645 10.3018C0.660645 11.6501 0.914225 12.9149 1.42139 14.0962C1.93473 15.2775 2.6429 16.3166 3.5459 17.2134C4.44889 18.1164 5.49105 18.8215 6.67236 19.3286C7.85368 19.842 9.1154 20.0986 10.4575 20.0986ZM4.53857 9.68945C4.53857 9.50391 4.61589 9.3431 4.77051 9.20703L9.64111 5.125C9.88851 4.91471 10.1637 4.80957 10.4668 4.80957C10.776 4.80957 11.0544 4.91471 11.3018 5.125L13.2593 6.77637V6.06201C13.2593 5.82699 13.383 5.70947 13.6304 5.70947H14.4561C14.6973 5.70947 14.8179 5.82699 14.8179 6.06201V8.0752L16.1538 9.19775C16.3084 9.32764 16.3857 9.49463 16.3857 9.69873C16.3857 9.86572 16.3301 10.0018 16.2188 10.1069C16.1074 10.2121 15.9621 10.2646 15.7827 10.2646C15.6961 10.2646 15.6126 10.2461 15.5322 10.209C15.4518 10.1657 15.3745 10.1131 15.3003 10.0513L10.7451 6.21973C10.6523 6.15169 10.5596 6.11768 10.4668 6.11768C10.374 6.11149 10.2843 6.14551 10.1978 6.21973L5.62402 10.0513C5.55599 10.1131 5.48177 10.1657 5.40137 10.209C5.32096 10.2461 5.23747 10.2646 5.15088 10.2646C4.96533 10.2646 4.81689 10.209 4.70557 10.0977C4.59424 9.98633 4.53857 9.85026 4.53857 9.68945ZM6.15283 13.9385V10.5894L10.1606 7.23096C10.3709 7.05778 10.5719 7.05778 10.7637 7.23096L14.7808 10.5894V13.9385C14.7808 14.291 14.6694 14.5724 14.4468 14.7827C14.2303 14.9868 13.9365 15.0889 13.5654 15.0889H7.36816C6.99089 15.0889 6.69401 14.9868 6.47754 14.7827C6.26107 14.5724 6.15283 14.291 6.15283 13.9385ZM9.20508 13.957H11.7192V11.1553C11.7192 10.9079 11.5955 10.7842 11.3481 10.7842H9.58545C9.33187 10.7842 9.20508 10.9079 9.20508 11.1553V13.957Z" fill="white"/>
</svg>
