<svg width="39" height="39" viewBox="0 0 39 39" fill="none" xmlns="http://www.w3.org/2000/svg">
<path d="M19.2471 38.5293C21.8324 38.5293 24.263 38.0345 26.5391 37.0449C28.8275 36.0553 30.8438 34.6885 32.5879 32.9443C34.332 31.2002 35.6989 29.1901 36.6885 26.9141C37.6781 24.6257 38.1729 22.1888 38.1729 19.6035C38.1729 17.0182 37.6781 14.5876 36.6885 12.3115C35.6989 10.0231 34.332 8.00684 32.5879 6.2627C30.8438 4.51855 28.8275 3.15169 26.5391 2.16211C24.2507 1.17253 21.8138 0.677734 19.2285 0.677734C16.6432 0.677734 14.2064 1.17253 11.918 2.16211C9.64193 3.15169 7.63184 4.51855 5.8877 6.2627C4.15592 8.00684 2.79525 10.0231 1.80566 12.3115C0.816081 14.5876 0.321289 17.0182 0.321289 19.6035C0.321289 22.1888 0.816081 24.6257 1.80566 26.9141C2.79525 29.1901 4.16211 31.2002 5.90625 32.9443C7.65039 34.6885 9.66048 36.0553 11.9365 37.0449C14.2249 38.0345 16.6618 38.5293 19.2471 38.5293ZM19.2471 35.375C17.0576 35.375 15.0104 34.9668 13.1055 34.1504C11.2005 33.334 9.52441 32.2083 8.07715 30.7734C6.64225 29.3262 5.5166 27.6501 4.7002 25.7451C3.89616 23.8402 3.49414 21.793 3.49414 19.6035C3.49414 17.4141 3.89616 15.3669 4.7002 13.4619C5.5166 11.557 6.64225 9.88086 8.07715 8.43359C9.51204 6.98633 11.182 5.86068 13.0869 5.05664C14.9919 4.24023 17.0391 3.83203 19.2285 3.83203C21.418 3.83203 23.4652 4.24023 25.3701 5.05664C27.2751 5.86068 28.9512 6.98633 30.3984 8.43359C31.8457 9.88086 32.9775 11.557 33.7939 13.4619C34.6104 15.3669 35.0186 17.4141 35.0186 19.6035C35.0186 21.793 34.6104 23.8402 33.7939 25.7451C32.9899 27.6501 31.8643 29.3262 30.417 30.7734C28.9821 32.2083 27.306 33.334 25.3887 34.1504C23.4837 34.9668 21.4365 35.375 19.2471 35.375ZM14.998 12.6455C14.998 13.5856 15.2764 14.4268 15.833 15.1689C16.3896 15.8988 17.0947 16.3997 17.9482 16.6719V25.9863C17.9482 26.8893 17.9915 27.7367 18.0781 28.5283C18.1771 29.3076 18.3193 29.9385 18.5049 30.4209C18.7028 30.891 18.944 31.126 19.2285 31.126C19.513 31.126 19.748 30.891 19.9336 30.4209C20.1191 29.9385 20.2552 29.3076 20.3418 28.5283C20.4408 27.749 20.4902 26.9017 20.4902 25.9863V16.6719C21.3561 16.4121 22.0674 15.9173 22.624 15.1875C23.1807 14.4453 23.459 13.598 23.459 12.6455C23.459 11.8662 23.2673 11.1611 22.8838 10.5303C22.5003 9.88704 21.987 9.3737 21.3438 8.99023C20.7129 8.60677 20.0078 8.41504 19.2285 8.41504C18.4492 8.41504 17.738 8.60677 17.0947 8.99023C16.4639 9.3737 15.9567 9.88704 15.5732 10.5303C15.1898 11.1611 14.998 11.8662 14.998 12.6455ZM16.7793 11.5693C16.7793 11.1982 16.9154 10.8766 17.1875 10.6045C17.4596 10.3324 17.7751 10.1963 18.1338 10.1963C18.5049 10.1963 18.8203 10.3324 19.0801 10.6045C19.3522 10.8766 19.4883 11.1982 19.4883 11.5693C19.4883 11.9281 19.3522 12.2435 19.0801 12.5156C18.8203 12.7754 18.5049 12.9053 18.1338 12.9053C17.7751 12.9053 17.4596 12.7754 17.1875 12.5156C16.9277 12.2435 16.7917 11.9281 16.7793 11.5693Z" fill="white"/>
</svg>
