<svg width="30" height="33" viewBox="0 0 30 33" fill="none" xmlns="http://www.w3.org/2000/svg">
<path d="M6.69336 17.207C6.83008 17.1888 6.96224 17.1797 7.08984 17.1797C7.22656 17.1706 7.36328 17.166 7.5 17.166C7.64583 17.166 7.78711 17.1706 7.92383 17.1797C8.06055 17.1888 8.21094 17.1979 8.375 17.207V4.64258C8.375 3.88607 8.57552 3.29818 8.97656 2.87891C9.3776 2.45964 9.97461 2.25 10.7676 2.25H17.1797V10.4941C17.1797 11.2689 17.3711 11.8477 17.7539 12.2305C18.1367 12.6042 18.7109 12.791 19.4766 12.791H27.6113V25.6562C27.6113 26.4219 27.4108 27.0052 27.0098 27.4062C26.6087 27.8164 26.0117 28.0215 25.2188 28.0215H15.4844C15.4023 28.3223 15.3021 28.6139 15.1836 28.8965C15.0742 29.179 14.9421 29.4479 14.7871 29.7031H25.3008C26.6224 29.7031 27.6159 29.3659 28.2812 28.6914C28.9557 28.0169 29.293 27.0143 29.293 25.6836V12.8594C29.293 12.3581 29.2656 11.9388 29.2109 11.6016C29.1562 11.2643 29.0469 10.959 28.8828 10.6855C28.7279 10.403 28.4954 10.1068 28.1855 9.79688L20.1602 1.67578C19.8685 1.375 19.5814 1.14714 19.2988 0.992188C19.0254 0.83724 18.7246 0.727865 18.3965 0.664062C18.0684 0.60026 17.6855 0.568359 17.248 0.568359H10.6855C9.36393 0.568359 8.36589 0.910156 7.69141 1.59375C7.02604 2.26823 6.69336 3.27083 6.69336 4.60156V17.207ZM18.7656 10.3164V2.5918L27.2695 11.1914H19.6406C19.3307 11.1914 19.1074 11.1276 18.9707 11C18.834 10.8633 18.7656 10.6354 18.7656 10.3164ZM7.54102 32.3418C8.46159 32.3418 9.33203 32.1641 10.1523 31.8086C10.9727 31.4531 11.6973 30.9609 12.3262 30.332C12.9551 29.7122 13.4473 28.9922 13.8027 28.1719C14.1582 27.3516 14.3359 26.4766 14.3359 25.5469C14.3359 24.6081 14.1582 23.7285 13.8027 22.9082C13.4564 22.0879 12.9688 21.3678 12.3398 20.748C11.7201 20.1191 11 19.6315 10.1797 19.2852C9.35938 18.9297 8.47982 18.752 7.54102 18.752C6.61133 18.752 5.73633 18.9297 4.91602 19.2852C4.0957 19.6315 3.37565 20.1191 2.75586 20.748C2.12695 21.377 1.63477 22.1016 1.2793 22.9219C0.923828 23.7422 0.746094 24.6172 0.746094 25.5469C0.746094 26.4766 0.923828 27.3516 1.2793 28.1719C1.63477 29.0013 2.12695 29.7259 2.75586 30.3457C3.37565 30.9746 4.0957 31.4622 4.91602 31.8086C5.73633 32.1641 6.61133 32.3418 7.54102 32.3418ZM7.52734 29.8535C7.30859 29.8535 7.13086 29.7852 6.99414 29.6484C6.86654 29.5117 6.80273 29.3385 6.80273 29.1289V26.2715H3.94531C3.73568 26.2715 3.5625 26.2077 3.42578 26.0801C3.28906 25.9525 3.2207 25.7747 3.2207 25.5469C3.2207 25.319 3.28906 25.1413 3.42578 25.0137C3.5625 24.8861 3.73568 24.8223 3.94531 24.8223H6.80273V21.9648C6.80273 21.7552 6.86654 21.582 6.99414 21.4453C7.13086 21.3086 7.30859 21.2402 7.52734 21.2402C7.75521 21.2402 7.93294 21.3086 8.06055 21.4453C8.19727 21.582 8.26562 21.7552 8.26562 21.9648V24.8223H11.1094C11.319 24.8223 11.4922 24.8861 11.6289 25.0137C11.7656 25.1413 11.834 25.319 11.834 25.5469C11.834 25.7747 11.7656 25.9525 11.6289 26.0801C11.4922 26.2077 11.319 26.2715 11.1094 26.2715H8.26562V29.1289C8.26562 29.3385 8.19727 29.5117 8.06055 29.6484C7.93294 29.7852 7.75521 29.8535 7.52734 29.8535Z" fill="#E73745"/>
</svg>
