<svg width="28" height="28" viewBox="0 0 28 28" fill="none" xmlns="http://www.w3.org/2000/svg">
<path d="M14.1602 27.8418C16.0378 27.8418 17.8014 27.4818 19.4512 26.7617C21.11 26.0508 22.5684 25.0664 23.8262 23.8086C25.084 22.5417 26.0729 21.0833 26.793 19.4336C27.513 17.7747 27.873 16.0065 27.873 14.1289C27.873 12.2513 27.513 10.4876 26.793 8.83789C26.0729 7.17904 25.084 5.7207 23.8262 4.46289C22.5684 3.19596 21.11 2.20703 19.4512 1.49609C17.7923 0.776042 16.0241 0.416016 14.1465 0.416016C12.2689 0.416016 10.5007 0.776042 8.8418 1.49609C7.19206 2.20703 5.73828 3.19596 4.48047 4.46289C3.22266 5.7207 2.23372 7.17904 1.51367 8.83789C0.802734 10.4876 0.447266 12.2513 0.447266 14.1289C0.447266 16.0065 0.802734 17.7747 1.51367 19.4336C2.23372 21.0833 3.22266 22.5417 4.48047 23.8086C5.7474 25.0664 7.20573 26.0508 8.85547 26.7617C10.5143 27.4818 12.2826 27.8418 14.1602 27.8418ZM14.1602 26.0781C12.5013 26.0781 10.9518 25.7682 9.51172 25.1484C8.07161 24.5286 6.80469 23.6719 5.71094 22.5781C4.61719 21.4844 3.76042 20.2174 3.14062 18.7773C2.52995 17.3281 2.22461 15.7786 2.22461 14.1289C2.22461 12.4792 2.52995 10.9342 3.14062 9.49414C3.76042 8.04492 4.61263 6.77344 5.69727 5.67969C6.79102 4.57682 8.05794 3.72005 9.49805 3.10938C10.9473 2.48958 12.4967 2.17969 14.1465 2.17969C15.8053 2.17969 17.3548 2.48958 18.7949 3.10938C20.235 3.72005 21.502 4.57682 22.5957 5.67969C23.6986 6.77344 24.5599 8.04492 25.1797 9.49414C25.7995 10.9342 26.1094 12.4792 26.1094 14.1289C26.1094 15.7786 25.7995 17.3281 25.1797 18.7773C24.569 20.2174 23.7168 21.4844 22.623 22.5781C21.5293 23.6719 20.2578 24.5286 18.8086 25.1484C17.3594 25.7682 15.8099 26.0781 14.1602 26.0781ZM6.59961 11.1348H21.7617C21.9896 11.1348 22.1764 11.0664 22.3223 10.9297C22.4772 10.7839 22.5547 10.6016 22.5547 10.3828C22.5547 10.1549 22.4772 9.97266 22.3223 9.83594C22.1764 9.6901 21.9896 9.61719 21.7617 9.61719H6.59961C6.37174 9.61719 6.18034 9.6901 6.02539 9.83594C5.87044 9.97266 5.79297 10.1549 5.79297 10.3828C5.79297 10.6016 5.87044 10.7839 6.02539 10.9297C6.18034 11.0664 6.37174 11.1348 6.59961 11.1348ZM8.60938 15.6328H19.752C19.9798 15.6328 20.1712 15.569 20.3262 15.4414C20.4811 15.3047 20.5586 15.1224 20.5586 14.8945C20.5586 14.6667 20.4811 14.4844 20.3262 14.3477C20.1712 14.2018 19.9798 14.1289 19.752 14.1289H8.60938C8.3724 14.1289 8.17643 14.2018 8.02148 14.3477C7.87565 14.4844 7.80273 14.6667 7.80273 14.8945C7.80273 15.1224 7.87565 15.3047 8.02148 15.4414C8.17643 15.569 8.3724 15.6328 8.60938 15.6328ZM10.7012 20.1719H17.6602C17.888 20.1719 18.0749 20.1035 18.2207 19.9668C18.3757 19.8301 18.4531 19.6523 18.4531 19.4336C18.4531 19.2057 18.3757 19.0234 18.2207 18.8867C18.0749 18.7409 17.888 18.668 17.6602 18.668H10.7012C10.4642 18.668 10.2682 18.7409 10.1133 18.8867C9.96745 19.0234 9.89453 19.2057 9.89453 19.4336C9.89453 19.6523 9.96745 19.8301 10.1133 19.9668C10.2682 20.1035 10.4642 20.1719 10.7012 20.1719Z" fill="#E73745"/>
</svg>
