<svg width="18" height="17" viewBox="0 0 18 17" fill="none" xmlns="http://www.w3.org/2000/svg">
    <path d="M0.573121 6.89167H1.70913C2.45036 2.99167 5.8181 0 9.78205 0C14.2697 0 18 3.85 18 8.5C18 13.1417 14.2697 17 9.78205 17C7.06691 17 4.66598 15.5667 3.13519 13.4417C2.86125 13.075 2.94988 12.6167 3.27215 12.4083C3.61054 12.2 3.98921 12.3083 4.23897 12.65C5.47166 14.425 7.48586 15.575 9.78205 15.5833C13.5849 15.6 16.6303 12.4333 16.6303 8.5C16.6303 4.56667 13.5849 1.425 9.78205 1.425C6.51099 1.425 3.8039 3.74167 3.10296 6.89167H4.2712C4.84323 6.89167 4.98825 7.3 4.68209 7.75833L2.87737 10.4167C2.61955 10.7917 2.23282 10.8 1.96695 10.4167L0.162223 7.76667C-0.151992 7.3 -0.0069697 6.89167 0.573121 6.89167ZM9.47589 3.61667C9.83039 3.61667 10.1124 3.90833 10.1124 4.275V8.7L12.0621 11.4167C12.3038 11.7583 12.2797 12.15 11.9816 12.3667C11.6512 12.6 11.2806 12.5417 11.0147 12.1833L9.02471 9.46667C8.88775 9.28333 8.83135 9.11667 8.83135 8.925V4.275C8.83135 3.90833 9.1214 3.61667 9.47589 3.61667Z" fill="white"/>
</svg>
