<svg width="20" height="19" viewBox="0 0 20 19" fill="none" xmlns="http://www.w3.org/2000/svg">
<path d="M12.1611 16.689H7.87793V11.2021C7.87793 11.0085 7.93604 10.8563 8.05225 10.7456C8.17399 10.6294 8.32894 10.5713 8.51709 10.5713H11.5303C11.724 10.5713 11.8761 10.6294 11.9868 10.7456C12.103 10.8563 12.1611 11.0085 12.1611 11.2021V16.689ZM2.70654 16.1909C2.70654 16.772 2.86979 17.223 3.19629 17.5439C3.52832 17.8649 3.98763 18.0254 4.57422 18.0254H15.4897C16.0708 18.0254 16.5246 17.8649 16.8511 17.5439C17.1831 17.223 17.3491 16.772 17.3491 16.1909V9.6167L10.5259 3.89746C10.1938 3.61523 9.86182 3.61523 9.52979 3.89746L2.70654 9.6167V16.1909ZM0.116699 8.78662C0.116699 8.95817 0.180339 9.11312 0.307617 9.25146C0.434896 9.38428 0.609212 9.45068 0.830566 9.45068C0.946777 9.45068 1.05192 9.42301 1.146 9.36768C1.24561 9.31234 1.33968 9.25146 1.42822 9.18506L9.7373 2.2124C9.83138 2.12939 9.92822 2.08789 10.0278 2.08789C10.133 2.08789 10.2326 2.12939 10.3267 2.2124L18.6357 9.18506C18.7188 9.25146 18.8073 9.31234 18.9014 9.36768C19.001 9.42301 19.1089 9.45068 19.2251 9.45068C19.4188 9.45068 19.5848 9.39535 19.7231 9.28467C19.8615 9.16846 19.9307 9.01074 19.9307 8.81152C19.9307 8.5791 19.8449 8.39095 19.6733 8.24707L11.0322 0.983887C10.7223 0.723796 10.3875 0.59375 10.0278 0.59375C9.67367 0.59375 9.34163 0.723796 9.03174 0.983887L0.382324 8.24707C0.205241 8.39095 0.116699 8.5708 0.116699 8.78662ZM15.2656 5.04297L17.3491 6.80273V2.96777C17.3491 2.78516 17.2938 2.64128 17.1831 2.53613C17.078 2.42546 16.9341 2.37012 16.7515 2.37012H15.8633C15.6862 2.37012 15.5423 2.42546 15.4316 2.53613C15.321 2.64128 15.2656 2.78516 15.2656 2.96777V5.04297Z" fill="white"/>
</svg>
