<svg width="21" height="19" viewBox="0 0 21 19" fill="none" xmlns="http://www.w3.org/2000/svg">
<path d="M8.12891 17.1704H12.9185V11.1274C12.9185 10.9393 12.8604 10.7871 12.7441 10.6709C12.6279 10.5547 12.4757 10.4966 12.2876 10.4966H8.76807C8.57438 10.4966 8.41943 10.5547 8.30322 10.6709C8.18701 10.7871 8.12891 10.9393 8.12891 11.1274V17.1704ZM4.8833 18.0254H16.1143C16.7064 18.0254 17.1657 17.8649 17.4922 17.5439C17.8187 17.223 17.9819 16.772 17.9819 16.1909V7.01855L16.6455 6.10547V15.8506C16.6455 16.1217 16.5763 16.3293 16.438 16.4731C16.2996 16.617 16.0977 16.689 15.832 16.689H5.16553C4.8999 16.689 4.69515 16.617 4.55127 16.4731C4.41292 16.3293 4.34375 16.1217 4.34375 15.8506V6.11377L3.00732 7.01855V16.1909C3.00732 16.772 3.17057 17.223 3.49707 17.5439C3.8291 17.8649 4.29118 18.0254 4.8833 18.0254ZM0.616699 8.78662C0.616699 8.95817 0.680339 9.11312 0.807617 9.25146C0.934896 9.38428 1.10921 9.45068 1.33057 9.45068C1.44678 9.45068 1.55192 9.42301 1.646 9.36768C1.74561 9.31234 1.83968 9.25146 1.92822 9.18506L10.2373 2.2124C10.3314 2.12939 10.4282 2.08789 10.5278 2.08789C10.633 2.08789 10.7326 2.12939 10.8267 2.2124L19.1357 9.18506C19.2188 9.25146 19.3073 9.31234 19.4014 9.36768C19.501 9.42301 19.6089 9.45068 19.7251 9.45068C19.9188 9.45068 20.0848 9.39535 20.2231 9.28467C20.3615 9.16846 20.4307 9.01074 20.4307 8.81152C20.4307 8.5791 20.3449 8.39095 20.1733 8.24707L11.5322 0.983887C11.2223 0.723796 10.8875 0.59375 10.5278 0.59375C10.1737 0.59375 9.84163 0.723796 9.53174 0.983887L0.882324 8.24707C0.705241 8.39095 0.616699 8.5708 0.616699 8.78662ZM15.8984 5.04297L17.9819 6.80273V2.96777C17.9819 2.78516 17.9266 2.64128 17.8159 2.53613C17.7108 2.42546 17.5669 2.37012 17.3843 2.37012H16.4961C16.319 2.37012 16.1751 2.42546 16.0645 2.53613C15.9538 2.64128 15.8984 2.78516 15.8984 2.96777V5.04297Z" fill="#ABABC5"/>
</svg>
