<svg width="45" height="37" viewBox="0 0 45 37" fill="none" xmlns="http://www.w3.org/2000/svg">
<path d="M15.6299 36.0674H38.5132C39.9943 36.0674 41.1222 35.6914 41.897 34.9395C42.6717 34.1875 43.0591 33.0653 43.0591 31.5728V30.479L35.1465 22.9937C34.8161 22.686 34.4515 22.4582 34.0527 22.3101C33.654 22.1506 33.2438 22.0708 32.8223 22.0708C32.4007 22.0708 32.002 22.1449 31.626 22.293C31.25 22.4297 30.8797 22.6576 30.5151 22.9766L23.6108 29.0947L20.8765 26.6167C20.5461 26.3091 20.2043 26.0869 19.8511 25.9502C19.5093 25.8135 19.1561 25.7451 18.7915 25.7451C18.4611 25.7451 18.1307 25.8192 17.8003 25.9673C17.4813 26.104 17.1566 26.3091 16.8262 26.5825L11.0669 31.5898C11.0669 33.071 11.4543 34.1875 12.229 34.9395C13.0037 35.6914 14.1374 36.0674 15.6299 36.0674ZM22.3804 23.3696C23.383 23.3696 24.2375 23.0107 24.9438 22.293C25.6502 21.5752 26.0034 20.715 26.0034 19.7124C26.0034 19.063 25.8382 18.4648 25.5078 17.918C25.1888 17.3597 24.7559 16.9154 24.209 16.585C23.6621 16.2546 23.0526 16.0894 22.3804 16.0894C21.3892 16.0894 20.5404 16.4482 19.834 17.166C19.1276 17.8838 18.7744 18.7326 18.7744 19.7124C18.7744 20.715 19.1276 21.5752 19.834 22.293C20.5404 23.0107 21.3892 23.3696 22.3804 23.3696ZM3.6499 27.3003C3.96891 29.0321 4.64111 30.2568 5.6665 30.9746C6.69189 31.681 8.08757 31.8804 9.85352 31.5728L11.9727 31.2139V28.4282L9.42627 28.8555C8.58317 29.0036 7.89388 28.8953 7.3584 28.5308C6.83431 28.1662 6.49251 27.5509 6.33301 26.6851L3.58154 11.0991C3.42204 10.2218 3.53027 9.52116 3.90625 8.99707C4.28223 8.46159 4.89176 8.11979 5.73486 7.97168L28.4473 3.97266C29.279 3.83594 29.9626 3.94987 30.498 4.31445C31.0335 4.66764 31.381 5.28288 31.5405 6.16016L32.4292 11.1333H35.2148L34.2065 5.54492C33.8989 3.81315 33.2267 2.58838 32.1899 1.87061C31.1646 1.15283 29.7746 0.947754 28.02 1.25537L5.20508 5.27148C3.45052 5.59049 2.20866 6.2627 1.47949 7.28809C0.750326 8.31348 0.539551 9.69206 0.847168 11.4238L3.6499 27.3003ZM15.5786 36.9731H38.9233C40.7007 36.9731 42.0337 36.5288 42.9224 35.6401C43.8224 34.7629 44.2725 33.4412 44.2725 31.6753V15.5596C44.2725 13.805 43.8224 12.4834 42.9224 11.5947C42.0337 10.7061 40.7007 10.2617 38.9233 10.2617H15.5786C13.7785 10.2617 12.4341 10.7061 11.5454 11.5947C10.6567 12.472 10.2124 13.7936 10.2124 15.5596V31.6753C10.2124 33.4412 10.6567 34.7629 11.5454 35.6401C12.4341 36.5288 13.7785 36.9731 15.5786 36.9731ZM15.6128 34.2217C14.7583 34.2217 14.1032 33.9938 13.6475 33.5381C13.1917 33.0938 12.9639 32.4272 12.9639 31.5386V15.7134C12.9639 14.8247 13.1917 14.1525 13.6475 13.6968C14.1032 13.241 14.7583 13.0132 15.6128 13.0132H38.8721C39.7152 13.0132 40.3646 13.241 40.8203 13.6968C41.2874 14.1525 41.521 14.8247 41.521 15.7134V31.5386C41.521 32.4272 41.2874 33.0938 40.8203 33.5381C40.3646 33.9938 39.7152 34.2217 38.8721 34.2217H15.6128Z" fill="#E4E4F3"/>
</svg>
