<svg width="30" height="28" viewBox="0 0 30 28" fill="none" xmlns="http://www.w3.org/2000/svg">
<path d="M9.98242 9.28906C10.7389 9.28906 11.4316 9.10221 12.0605 8.72852C12.6895 8.35482 13.1908 7.85352 13.5645 7.22461C13.9473 6.5957 14.1387 5.90299 14.1387 5.14648C14.1387 4.38997 13.9473 3.69727 13.5645 3.06836C13.1908 2.43945 12.6895 1.93815 12.0605 1.56445C11.4316 1.18164 10.7389 0.990234 9.98242 0.990234C9.22591 0.990234 8.5332 1.18164 7.9043 1.56445C7.27539 1.93815 6.76953 2.43945 6.38672 3.06836C6.01302 3.69727 5.82617 4.38997 5.82617 5.14648C5.82617 5.89388 6.01302 6.58203 6.38672 7.21094C6.76042 7.83984 7.26172 8.3457 7.89062 8.72852C8.51953 9.10221 9.2168 9.28906 9.98242 9.28906ZM20.0039 9.28906C20.7604 9.28906 21.4531 9.10221 22.082 8.72852C22.7201 8.35482 23.2259 7.85352 23.5996 7.22461C23.9824 6.5957 24.1738 5.90299 24.1738 5.14648C24.1738 4.38997 23.9824 3.69727 23.5996 3.06836C23.2259 2.43945 22.7201 1.93815 22.082 1.56445C21.4531 1.18164 20.7604 0.990234 20.0039 0.990234C19.2474 0.990234 18.5547 1.18164 17.9258 1.56445C17.2969 1.93815 16.791 2.43945 16.4082 3.06836C16.0345 3.69727 15.8477 4.38997 15.8477 5.14648C15.8477 5.90299 16.0345 6.5957 16.4082 7.22461C16.791 7.85352 17.2969 8.35482 17.9258 8.72852C18.5547 9.10221 19.2474 9.28906 20.0039 9.28906ZM4.96484 18.2852C5.72135 18.2852 6.41406 18.0983 7.04297 17.7246C7.68099 17.3418 8.18685 16.8359 8.56055 16.207C8.94336 15.5781 9.13477 14.8854 9.13477 14.1289C9.13477 13.3724 8.94336 12.6797 8.56055 12.0508C8.18685 11.4128 7.68099 10.9069 7.04297 10.5332C6.41406 10.1595 5.72135 9.97266 4.96484 9.97266C4.20833 9.97266 3.51562 10.1595 2.88672 10.5332C2.25781 10.9069 1.75195 11.4128 1.36914 12.0508C0.995443 12.6797 0.808594 13.3724 0.808594 14.1289C0.808594 14.8763 0.995443 15.569 1.36914 16.207C1.74284 16.8359 2.24414 17.3418 2.87305 17.7246C3.51107 18.0983 4.20833 18.2852 4.96484 18.2852ZM25.0215 18.2852C25.778 18.2852 26.4707 18.0983 27.0996 17.7246C27.7285 17.3418 28.2298 16.8359 28.6035 16.207C28.9863 15.5781 29.1777 14.8854 29.1777 14.1289C29.1777 13.3724 28.9863 12.6797 28.6035 12.0508C28.2298 11.4128 27.7285 10.9069 27.0996 10.5332C26.4707 10.1595 25.778 9.97266 25.0215 9.97266C24.265 9.97266 23.5677 10.1595 22.9297 10.5332C22.3008 10.9069 21.7949 11.4128 21.4121 12.0508C21.0384 12.6797 20.8516 13.3724 20.8516 14.1289C20.8516 14.8854 21.0384 15.5781 21.4121 16.207C21.7949 16.8359 22.3008 17.3418 22.9297 17.7246C23.5677 18.0983 24.265 18.2852 25.0215 18.2852ZM9.98242 27.2676C10.7389 27.2676 11.4316 27.0762 12.0605 26.6934C12.6895 26.3197 13.1908 25.8184 13.5645 25.1895C13.9473 24.5605 14.1387 23.8678 14.1387 23.1113C14.1387 22.3548 13.9473 21.6621 13.5645 21.0332C13.1908 20.4043 12.6895 19.903 12.0605 19.5293C11.4316 19.1465 10.7389 18.9551 9.98242 18.9551C9.22591 18.9551 8.5332 19.1465 7.9043 19.5293C7.27539 19.903 6.76953 20.4043 6.38672 21.0332C6.01302 21.6621 5.82617 22.3548 5.82617 23.1113C5.82617 23.8587 6.01302 24.5469 6.38672 25.1758C6.76042 25.8138 7.26172 26.3197 7.89062 26.6934C8.51953 27.0762 9.2168 27.2676 9.98242 27.2676ZM20.0039 27.2676C20.7604 27.2676 21.4531 27.0762 22.082 26.6934C22.7201 26.3197 23.2259 25.8184 23.5996 25.1895C23.9824 24.5605 24.1738 23.8678 24.1738 23.1113C24.1738 22.3548 23.9824 21.6621 23.5996 21.0332C23.2259 20.4043 22.7201 19.903 22.082 19.5293C21.4531 19.1465 20.7604 18.9551 20.0039 18.9551C19.2474 18.9551 18.5547 19.1465 17.9258 19.5293C17.2969 19.903 16.791 20.4043 16.4082 21.0332C16.0345 21.6621 15.8477 22.3548 15.8477 23.1113C15.8477 23.8678 16.0345 24.5605 16.4082 25.1895C16.791 25.8184 17.2969 26.3197 17.9258 26.6934C18.5547 27.0762 19.2474 27.2676 20.0039 27.2676Z" fill="white"/>
</svg>
