<svg width="21" height="21" viewBox="0 0 21 21" fill="none" xmlns="http://www.w3.org/2000/svg">
<path d="M10.4575 20.1079C11.8058 20.1079 13.0706 19.8512 14.252 19.3379C15.4333 18.8307 16.4723 18.1257 17.3691 17.2227C18.2721 16.3258 18.9803 15.2868 19.4937 14.1055C20.007 12.9242 20.2637 11.6593 20.2637 10.311C20.2637 8.96891 20.007 7.70719 19.4937 6.52588C18.9803 5.34456 18.2721 4.30241 17.3691 3.39941C16.4723 2.49642 15.4302 1.79134 14.2427 1.28418C13.0614 0.770833 11.7996 0.51416 10.4575 0.51416C9.1154 0.51416 7.85059 0.770833 6.66309 1.28418C5.48177 1.79134 4.43962 2.49642 3.53662 3.39941C2.63981 4.30241 1.93473 5.34456 1.42139 6.52588C0.914225 7.70719 0.660645 8.96891 0.660645 10.311C0.660645 11.6593 0.914225 12.9242 1.42139 14.1055C1.93473 15.2868 2.6429 16.3258 3.5459 17.2227C4.44889 18.1257 5.49105 18.8307 6.67236 19.3379C7.85368 19.8512 9.1154 20.1079 10.4575 20.1079ZM10.4575 13.0757C9.95654 13.0757 9.49577 12.952 9.0752 12.7046C8.65462 12.451 8.31755 12.1139 8.06396 11.6934C7.81657 11.2666 7.69287 10.8027 7.69287 10.3018C7.69287 9.7946 7.81657 9.33073 8.06396 8.91016C8.31755 8.48958 8.65462 8.15251 9.0752 7.89893C9.49577 7.64535 9.95654 7.51855 10.4575 7.51855C10.9647 7.51855 11.4285 7.64535 11.8491 7.89893C12.2697 8.15251 12.6037 8.48958 12.8511 8.91016C13.1047 9.33073 13.2314 9.7946 13.2314 10.3018C13.2314 10.8027 13.1047 11.2666 12.8511 11.6934C12.6037 12.1139 12.2697 12.451 11.8491 12.7046C11.4285 12.952 10.9647 13.0757 10.4575 13.0757ZM10.4668 4.41992C10.6585 4.41992 10.8224 4.49105 10.9585 4.6333C11.1007 4.76937 11.1719 4.93636 11.1719 5.13428V6.09912C11.1719 6.29085 11.1007 6.46094 10.9585 6.60938C10.8224 6.75163 10.6585 6.82275 10.4668 6.82275C10.2689 6.82275 10.0988 6.75163 9.95654 6.60938C9.81429 6.46094 9.74316 6.29085 9.74316 6.09912V5.13428C9.74316 4.93636 9.81429 4.76937 9.95654 4.6333C10.0988 4.49105 10.2689 4.41992 10.4668 4.41992ZM14.6138 6.13623C14.756 6.2723 14.8271 6.44238 14.8271 6.64648C14.8333 6.8444 14.7684 7.01139 14.6323 7.14746L13.9272 7.84326C13.7912 7.97933 13.6242 8.05046 13.4263 8.05664C13.2345 8.05664 13.0706 7.98861 12.9346 7.85254C12.7923 7.71647 12.7212 7.55257 12.7212 7.36084C12.7212 7.16292 12.7892 6.99284 12.9253 6.85059L13.6118 6.14551C13.7479 6.00944 13.9149 5.94141 14.1128 5.94141C14.3107 5.93522 14.4777 6.00016 14.6138 6.13623ZM16.3394 10.3018C16.3394 10.4935 16.2682 10.6605 16.126 10.8027C15.9899 10.9388 15.826 11.0068 15.6343 11.0068H14.6694C14.4715 11.0068 14.3014 10.9388 14.1592 10.8027C14.0231 10.6605 13.9551 10.4935 13.9551 10.3018C13.9551 10.11 14.0231 9.94303 14.1592 9.80078C14.3014 9.65234 14.4715 9.57812 14.6694 9.57812H15.6343C15.826 9.57812 15.9899 9.64925 16.126 9.7915C16.2682 9.93376 16.3394 10.1038 16.3394 10.3018ZM14.6323 14.4395C14.4963 14.5755 14.3262 14.6466 14.1221 14.6528C13.9242 14.6528 13.7603 14.5879 13.6304 14.458L12.9346 13.7622C12.7923 13.6261 12.7181 13.4591 12.7119 13.2612C12.7119 13.0633 12.783 12.8932 12.9253 12.751C13.0614 12.6149 13.2284 12.5469 13.4263 12.5469C13.6242 12.5469 13.7881 12.6149 13.918 12.751L14.623 13.4468C14.7653 13.5767 14.8364 13.7406 14.8364 13.9385C14.8364 14.1364 14.7684 14.3034 14.6323 14.4395ZM10.4668 16.1743C10.2689 16.1743 10.0988 16.1063 9.95654 15.9702C9.81429 15.828 9.74316 15.661 9.74316 15.4692V14.5044C9.74316 14.3065 9.81429 14.1364 9.95654 13.9941C10.0988 13.8519 10.2689 13.7808 10.4668 13.7808C10.6585 13.7808 10.8224 13.8519 10.9585 13.9941C11.1007 14.1364 11.1719 14.3065 11.1719 14.5044V15.4692C11.1719 15.661 11.1007 15.828 10.9585 15.9702C10.8224 16.1063 10.6585 16.1743 10.4668 16.1743ZM6.29199 14.4395C6.15592 14.3096 6.08789 14.1457 6.08789 13.9478C6.09408 13.7437 6.1652 13.5767 6.30127 13.4468L6.99707 12.751C7.12695 12.6149 7.29085 12.5469 7.48877 12.5469C7.69287 12.5469 7.86605 12.6149 8.0083 12.751C8.14437 12.8932 8.20931 13.0633 8.20312 13.2612C8.20312 13.4591 8.132 13.6261 7.98975 13.7622L7.30322 14.458C7.16715 14.5941 7.00016 14.659 6.80225 14.6528C6.60433 14.6466 6.43424 14.5755 6.29199 14.4395ZM4.58496 10.3018C4.58496 10.1038 4.65299 9.93376 4.78906 9.7915C4.93132 9.64925 5.1014 9.57812 5.29932 9.57812H6.25488C6.4528 9.57812 6.62288 9.65234 6.76514 9.80078C6.90739 9.94303 6.97852 10.11 6.97852 10.3018C6.97852 10.4935 6.90739 10.6605 6.76514 10.8027C6.62288 10.9388 6.4528 11.0068 6.25488 11.0068H5.29932C5.1014 11.0068 4.93132 10.9388 4.78906 10.8027C4.65299 10.6605 4.58496 10.4935 4.58496 10.3018ZM6.31055 6.13623C6.4528 6.00635 6.61979 5.9445 6.81152 5.95068C7.00944 5.95068 7.17643 6.01562 7.3125 6.14551L8.0083 6.85059C8.13818 6.98047 8.20312 7.14746 8.20312 7.35156C8.20312 7.54948 8.132 7.71647 7.98975 7.85254C7.85986 7.98861 7.69287 8.05664 7.48877 8.05664C7.29085 8.05046 7.12695 7.97933 6.99707 7.84326L6.30127 7.14746C6.1652 7.01139 6.09717 6.8444 6.09717 6.64648C6.10335 6.44238 6.17448 6.2723 6.31055 6.13623Z" fill="white"/>
</svg>
