<svg width="18" height="20" viewBox="0 0 18 20" fill="none" xmlns="http://www.w3.org/2000/svg">
<path d="M2.72314 19.1875H14.9004C15.7637 19.1875 16.4139 18.9717 16.8511 18.54C17.2882 18.1084 17.5068 17.4665 17.5068 16.6143V8.08936C17.5068 7.23714 17.2882 6.59521 16.8511 6.16357C16.4139 5.73193 15.7637 5.51611 14.9004 5.51611H2.72314C1.85433 5.51611 1.20133 5.73193 0.76416 6.16357C0.33252 6.58968 0.116699 7.23161 0.116699 8.08936V16.6143C0.116699 17.472 0.33252 18.1139 0.76416 18.54C1.20133 18.9717 1.85433 19.1875 2.72314 19.1875ZM2.73975 17.8511C2.32471 17.8511 2.00651 17.7404 1.78516 17.519C1.5638 17.2977 1.45312 16.9712 1.45312 16.5396V8.16406C1.45312 7.73242 1.5638 7.40592 1.78516 7.18457C2.00651 6.96322 2.32471 6.85254 2.73975 6.85254H14.8755C15.285 6.85254 15.6032 6.96322 15.8301 7.18457C16.057 7.40592 16.1704 7.73242 16.1704 8.16406V16.5396C16.1704 16.9712 16.057 17.2977 15.8301 17.519C15.6032 17.7404 15.285 17.8511 14.8755 17.8511H2.73975ZM1.86816 4.17969H15.7637C15.6973 3.80339 15.5645 3.51562 15.3652 3.31641C15.1715 3.11165 14.8672 3.00928 14.4521 3.00928H3.17969C2.76465 3.00928 2.45752 3.11165 2.2583 3.31641C2.05908 3.51562 1.92904 3.80339 1.86816 4.17969ZM3.57812 1.88037H14.0537C14.026 1.5262 13.9098 1.26058 13.7051 1.0835C13.5059 0.900879 13.2153 0.80957 12.8335 0.80957H4.79004C4.4082 0.80957 4.11491 0.900879 3.91016 1.0835C3.71094 1.26058 3.60026 1.5262 3.57812 1.88037Z" fill="#ABABC5"/>
</svg>
