<svg width="18" height="20" viewBox="0 0 18 20" fill="none" xmlns="http://www.w3.org/2000/svg">
<path d="M2.99023 19.0298H15.0015C15.8371 19.0298 16.4652 18.8195 16.8857 18.3989C17.3118 17.9784 17.5249 17.3558 17.5249 16.5312V8.18066C17.5249 7.35612 17.3118 6.73633 16.8857 6.32129C16.4652 5.90072 15.8371 5.69043 15.0015 5.69043H2.99023C2.14909 5.69043 1.51823 5.90072 1.09766 6.32129C0.677083 6.73633 0.466797 7.35612 0.466797 8.18066V16.5312C0.466797 17.3613 0.677083 17.9839 1.09766 18.3989C1.51823 18.8195 2.14909 19.0298 2.99023 19.0298ZM2.05225 4.354H15.9478C15.8813 3.9777 15.7485 3.68994 15.5493 3.49072C15.3556 3.28597 15.0513 3.18359 14.6362 3.18359H3.36377C2.94873 3.18359 2.6416 3.28597 2.44238 3.49072C2.24316 3.68994 2.11312 3.9777 2.05225 4.354ZM3.76221 2.05469H14.2378C14.2101 1.70052 14.0967 1.4349 13.8975 1.25781C13.6982 1.0752 13.4049 0.983887 13.0176 0.983887H4.97412C4.59229 0.983887 4.29899 1.0752 4.09424 1.25781C3.89502 1.4349 3.78434 1.70052 3.76221 2.05469Z" fill="white"/>
</svg>
