<svg width="38" height="35" viewBox="0 0 38 35" fill="none" xmlns="http://www.w3.org/2000/svg">
<path d="M12.8081 11.6943C15.9019 11.6943 18.4478 9.14844 18.4478 6.08691C18.4478 3.00928 15.8857 0.431152 12.8081 0.431152C9.74658 0.431152 7.18457 3.00928 7.18457 6.08691C7.18457 9.13232 9.73047 11.6943 12.8081 11.6943ZM25.4248 11.6943C28.5024 11.6943 31.0483 9.14844 31.0483 6.08691C31.0483 3.00928 28.5024 0.431152 25.4248 0.431152C22.3472 0.431152 19.7852 3.00928 19.7852 6.08691C19.7852 9.14844 22.3472 11.6943 25.4248 11.6943ZM6.52393 22.9897C9.60156 22.9897 12.1475 20.4277 12.1475 17.3662C12.1475 14.2886 9.60156 11.7427 6.52393 11.7427C3.43018 11.7427 0.884277 14.2886 0.884277 17.3662C0.884277 20.4438 3.43018 22.9897 6.52393 22.9897ZM31.7251 22.9897C34.8027 22.9897 37.3486 20.4277 37.3486 17.3662C37.3486 14.2886 34.8027 11.7427 31.7251 11.7427C28.6313 11.7427 26.0854 14.2886 26.0854 17.3662C26.0854 20.4277 28.6313 22.9897 31.7251 22.9897ZM12.8081 34.2852C15.8857 34.2852 18.4478 31.7231 18.4478 28.6455C18.4478 25.584 15.9019 23.022 12.8081 23.022C9.73047 23.022 7.18457 25.5679 7.18457 28.6455C7.18457 31.7231 9.73047 34.2852 12.8081 34.2852ZM25.4248 34.2852C28.5024 34.2852 31.0483 31.7231 31.0483 28.6455C31.0483 25.5679 28.5024 23.022 25.4248 23.022C22.3472 23.022 19.7852 25.584 19.7852 28.6455C19.7852 31.7231 22.3472 34.2852 25.4248 34.2852Z" fill="white"/>
</svg>
