<svg width="34" height="29" viewBox="0 0 34 29" fill="none" xmlns="http://www.w3.org/2000/svg">
<path d="M4.9707 25.5293H19.9414C19.7865 25.265 19.6497 24.9915 19.5312 24.709C19.4128 24.4355 19.3125 24.1484 19.2305 23.8477H4.86133C4.14128 23.8477 3.58984 23.6562 3.20703 23.2734C2.82422 22.8997 2.63281 22.3438 2.63281 21.6055V9.0957C2.63281 8.35742 2.82422 7.80143 3.20703 7.42773C3.58984 7.04492 4.14128 6.85352 4.86133 6.85352H24.1113C24.8223 6.85352 25.3691 7.04492 25.752 7.42773C26.1439 7.80143 26.3398 8.35742 26.3398 9.0957V13.0332C26.513 13.015 26.668 13.0013 26.8047 12.9922C26.9414 12.9831 27.0781 12.9785 27.2148 12.9785C27.3516 12.9785 27.4883 12.9831 27.625 12.9922C27.7617 12.9922 27.8939 13.0013 28.0215 13.0195V4.77539C28.0215 3.45378 27.6842 2.46029 27.0098 1.79492C26.3444 1.12044 25.3418 0.783203 24.002 0.783203H4.9707C3.63997 0.783203 2.63737 1.12044 1.96289 1.79492C1.28841 2.46029 0.951172 3.45378 0.951172 4.77539V21.5371C0.951172 22.8587 1.28841 23.8522 1.96289 24.5176C2.63737 25.1921 3.63997 25.5293 4.9707 25.5293ZM7.02148 11.8164H21.9648C22.1562 11.8164 22.3158 11.7526 22.4434 11.625C22.571 11.4883 22.6348 11.3242 22.6348 11.1328C22.6348 10.9505 22.571 10.7956 22.4434 10.668C22.3158 10.5404 22.1562 10.4766 21.9648 10.4766H7.02148C6.83008 10.4766 6.66602 10.5404 6.5293 10.668C6.40169 10.7956 6.33789 10.9505 6.33789 11.1328C6.33789 11.3242 6.40169 11.4883 6.5293 11.625C6.66602 11.7526 6.83008 11.8164 7.02148 11.8164ZM7.03516 16.0273H20.7617C20.9622 15.7721 21.1673 15.5306 21.377 15.3027C21.5866 15.0749 21.819 14.8698 22.0742 14.6875H7.03516C6.83464 14.6875 6.66602 14.7513 6.5293 14.8789C6.40169 15.0065 6.33789 15.1706 6.33789 15.3711C6.33789 15.5534 6.40169 15.7083 6.5293 15.8359C6.66602 15.9635 6.83464 16.0273 7.03516 16.0273ZM7.03516 20.2246H16.7148C16.9154 20.2246 17.0794 20.1608 17.207 20.0332C17.3346 19.9056 17.3984 19.7507 17.3984 19.5684C17.3984 19.3861 17.3346 19.2266 17.207 19.0898C17.0794 18.9531 16.9154 18.8848 16.7148 18.8848H7.03516C6.83464 18.8848 6.66602 18.9531 6.5293 19.0898C6.40169 19.2266 6.33789 19.3861 6.33789 19.5684C6.33789 19.7507 6.40169 19.9056 6.5293 20.0332C6.66602 20.1608 6.83464 20.2246 7.03516 20.2246ZM27.2012 28.1543C28.1217 28.1543 28.9922 27.9766 29.8125 27.6211C30.6328 27.2656 31.3574 26.7734 31.9863 26.1445C32.6152 25.5247 33.1074 24.8047 33.4629 23.9844C33.8184 23.1641 33.9961 22.2891 33.9961 21.3594C33.9961 20.4206 33.8184 19.541 33.4629 18.7207C33.1165 17.9004 32.6289 17.1803 32 16.5605C31.3802 15.9316 30.6602 15.444 29.8398 15.0977C29.0195 14.7422 28.14 14.5645 27.2012 14.5645C26.2715 14.5645 25.3965 14.7422 24.5762 15.0977C23.7559 15.444 23.0312 15.9316 22.4023 16.5605C21.7826 17.1895 21.2949 17.9141 20.9395 18.7344C20.584 19.5547 20.4062 20.4297 20.4062 21.3594C20.4062 22.2891 20.584 23.1641 20.9395 23.9844C21.2949 24.8138 21.7826 25.5384 22.4023 26.1582C23.0312 26.7871 23.7559 27.2747 24.5762 27.6211C25.3965 27.9766 26.2715 28.1543 27.2012 28.1543ZM27.2012 25.666C26.9824 25.666 26.8047 25.5977 26.668 25.4609C26.5404 25.3242 26.4766 25.151 26.4766 24.9414V22.084H23.6191C23.4095 22.084 23.2363 22.0202 23.0996 21.8926C22.9629 21.765 22.8945 21.5872 22.8945 21.3594C22.8945 21.1315 22.9629 20.9538 23.0996 20.8262C23.2363 20.6986 23.4095 20.6348 23.6191 20.6348H26.4766V17.7773C26.4766 17.5677 26.5404 17.3945 26.668 17.2578C26.8047 17.1211 26.9824 17.0527 27.2012 17.0527C27.429 17.0527 27.6068 17.1211 27.7344 17.2578C27.8711 17.3945 27.9395 17.5677 27.9395 17.7773V20.6348H30.7832C30.9928 20.6348 31.166 20.6986 31.3027 20.8262C31.4395 20.9538 31.5078 21.1315 31.5078 21.3594C31.5078 21.5872 31.4395 21.765 31.3027 21.8926C31.166 22.0202 30.9928 22.084 30.7832 22.084H27.9395V24.9414C27.9395 25.151 27.8711 25.3242 27.7344 25.4609C27.6068 25.5977 27.429 25.666 27.2012 25.666Z" fill="#E73745"/>
</svg>
