<svg width="39" height="39" viewBox="0 0 39 39" fill="none" xmlns="http://www.w3.org/2000/svg">
<path d="M19.2471 38.5293C21.8324 38.5293 24.263 38.0345 26.5391 37.0449C28.8275 36.0553 30.8438 34.6885 32.5879 32.9443C34.332 31.2002 35.6989 29.1901 36.6885 26.9141C37.6781 24.6257 38.1729 22.1888 38.1729 19.6035C38.1729 17.0182 37.6781 14.5876 36.6885 12.3115C35.6989 10.0231 34.332 8.00684 32.5879 6.2627C30.8438 4.51855 28.8275 3.15169 26.5391 2.16211C24.2507 1.17253 21.8138 0.677734 19.2285 0.677734C16.6432 0.677734 14.2064 1.17253 11.918 2.16211C9.64193 3.15169 7.63184 4.51855 5.8877 6.2627C4.15592 8.00684 2.79525 10.0231 1.80566 12.3115C0.816081 14.5876 0.321289 17.0182 0.321289 19.6035C0.321289 22.1888 0.816081 24.6257 1.80566 26.9141C2.79525 29.1901 4.16211 31.2002 5.90625 32.9443C7.65039 34.6885 9.66048 36.0553 11.9365 37.0449C14.2249 38.0345 16.6618 38.5293 19.2471 38.5293ZM19.2471 35.375C17.0576 35.375 15.0104 34.9668 13.1055 34.1504C11.2005 33.334 9.52441 32.2083 8.07715 30.7734C6.64225 29.3262 5.5166 27.6501 4.7002 25.7451C3.89616 23.8402 3.49414 21.793 3.49414 19.6035C3.49414 17.4141 3.89616 15.3669 4.7002 13.4619C5.5166 11.557 6.64225 9.88086 8.07715 8.43359C9.51204 6.98633 11.182 5.86068 13.0869 5.05664C14.9919 4.24023 17.0391 3.83203 19.2285 3.83203C21.418 3.83203 23.4652 4.24023 25.3701 5.05664C27.2751 5.86068 28.9512 6.98633 30.3984 8.43359C31.8457 9.88086 32.9775 11.557 33.7939 13.4619C34.6104 15.3669 35.0186 17.4141 35.0186 19.6035C35.0186 21.793 34.6104 23.8402 33.7939 25.7451C32.9899 27.6501 31.8643 29.3262 30.417 30.7734C28.9821 32.2083 27.306 33.334 25.3887 34.1504C23.4837 34.9668 21.4365 35.375 19.2471 35.375ZM10.6377 19.6035C10.6377 20.0488 10.7861 20.4137 11.083 20.6982C11.3799 20.9827 11.7633 21.125 12.2334 21.125H17.6885V26.5986C17.6885 27.0687 17.8307 27.4521 18.1152 27.749C18.3997 28.0335 18.7646 28.1758 19.21 28.1758C19.68 28.1758 20.0573 28.0335 20.3418 27.749C20.6387 27.4521 20.7871 27.0687 20.7871 26.5986V21.125H26.2607C26.7308 21.125 27.1081 20.9827 27.3926 20.6982C27.6895 20.4137 27.8379 20.0488 27.8379 19.6035C27.8379 19.1335 27.6895 18.7562 27.3926 18.4717C27.1081 18.1748 26.7308 18.0264 26.2607 18.0264H20.7871V12.5713C20.7871 12.0889 20.6387 11.7054 20.3418 11.4209C20.0573 11.124 19.68 10.9756 19.21 10.9756C18.7646 10.9756 18.3997 11.124 18.1152 11.4209C17.8307 11.7178 17.6885 12.1012 17.6885 12.5713V18.0264H12.2334C11.751 18.0264 11.3613 18.1748 11.0645 18.4717C10.7799 18.7562 10.6377 19.1335 10.6377 19.6035Z" fill="white"/>
</svg>
