<svg width="24" height="24" viewBox="0 0 24 24" fill="none" xmlns="http://www.w3.org/2000/svg">
<path d="M0.486328 12.1289C0.486328 12.4661 0.604818 12.7533 0.841797 12.9902C1.08789 13.2272 1.375 13.3457 1.70312 13.3457H10.5488V22.1914C10.5488 22.5195 10.6673 22.8021 10.9043 23.0391C11.1413 23.2852 11.4284 23.4082 11.7656 23.4082C12.1029 23.4082 12.39 23.2852 12.627 23.0391C12.873 22.8021 12.9961 22.5195 12.9961 22.1914V13.3457H21.8281C22.1562 13.3457 22.4388 13.2272 22.6758 12.9902C22.9219 12.7533 23.0449 12.4661 23.0449 12.1289C23.0449 11.7917 22.9219 11.5046 22.6758 11.2676C22.4388 11.0215 22.1562 10.8984 21.8281 10.8984H12.9961V2.06641C12.9961 1.73828 12.873 1.45573 12.627 1.21875C12.39 0.972656 12.1029 0.849609 11.7656 0.849609C11.4284 0.849609 11.1413 0.972656 10.9043 1.21875C10.6673 1.45573 10.5488 1.73828 10.5488 2.06641V10.8984H1.70312C1.375 10.8984 1.08789 11.0215 0.841797 11.2676C0.604818 11.5046 0.486328 11.7917 0.486328 12.1289Z" fill="#E73745"/>
</svg>
