<svg width="43" height="43" viewBox="0 0 43 43" fill="none" xmlns="http://www.w3.org/2000/svg">
<path d="M21.2397 42.178C24.0971 42.178 26.7837 41.6311 29.2993 40.5374C31.8286 39.4436 34.0571 37.9329 35.9848 36.0051C37.9126 34.0774 39.4233 31.8557 40.5171 29.3401C41.6108 26.8108 42.1577 24.1174 42.1577 21.26C42.1577 18.4026 41.6108 15.7161 40.5171 13.2004C39.4233 10.6711 37.9126 8.44263 35.9848 6.51489C34.0571 4.58716 31.8286 3.07642 29.2993 1.98267C26.77 0.888916 24.0766 0.342041 21.2192 0.342041C18.3618 0.342041 15.6684 0.888916 13.1391 1.98267C10.6235 3.07642 8.40183 4.58716 6.4741 6.51489C4.56004 8.44263 3.05613 10.6711 1.96238 13.2004C0.868629 15.7161 0.321754 18.4026 0.321754 21.26C0.321754 24.1174 0.868629 26.8108 1.96238 29.3401C3.05613 31.8557 4.56687 34.0774 6.49461 36.0051C8.42234 37.9329 10.644 39.4436 13.1596 40.5374C15.6889 41.6311 18.3823 42.178 21.2397 42.178ZM11.2319 21.2805C11.2319 20.7473 11.4028 20.3167 11.7446 19.9885C12.0864 19.6467 12.5239 19.4758 13.0571 19.4758H19.4761V13.0569C19.4761 12.5237 19.6333 12.0862 19.9477 11.7444C20.2759 11.4026 20.6997 11.2317 21.2192 11.2317C21.7524 11.2317 22.1831 11.4026 22.5112 11.7444C22.853 12.0862 23.0239 12.5237 23.0239 13.0569V19.4758H29.4634C29.9966 19.4758 30.4272 19.6467 30.7553 19.9885C31.0971 20.3167 31.268 20.7473 31.268 21.2805C31.268 21.8 31.0971 22.2239 30.7553 22.552C30.4136 22.8665 29.9829 23.0237 29.4634 23.0237H23.0239V29.4631C23.0239 29.9963 22.853 30.4338 22.5112 30.7756C22.1831 31.1038 21.7524 31.2678 21.2192 31.2678C20.6997 31.2678 20.2759 31.1038 19.9477 30.7756C19.6333 30.4338 19.4761 29.9963 19.4761 29.4631V23.0237H13.0571C12.5239 23.0237 12.0864 22.8665 11.7446 22.552C11.4028 22.2239 11.2319 21.8 11.2319 21.2805Z" fill="white"/>
</svg>
