<svg width="22" height="19" viewBox="0 0 22 19" fill="none" xmlns="http://www.w3.org/2000/svg">
    <path d="M0 17.9131V1.21387C0 0.676758 0.410156 0.24707 0.957031 0.24707C1.50391 0.24707 1.91406 0.676758 1.91406 1.21387V9.63184L5.45898 7.58105C5.45898 7.55176 5.45898 7.52246 5.45898 7.49316C5.45898 6.46777 6.28906 5.62793 7.32422 5.62793C8.34961 5.62793 9.17969 6.46777 9.17969 7.49316C9.17969 7.59082 9.16992 7.68848 9.16016 7.78613L11.1816 9.50488C11.4453 9.36816 11.7383 9.2998 12.041 9.2998C12.4707 9.2998 12.8711 9.44629 13.1836 9.69043L17.5684 7.06348C17.5488 6.94629 17.5293 6.81934 17.5293 6.69238C17.5293 5.66699 18.3691 4.82715 19.3945 4.82715C20.4199 4.82715 21.2598 5.66699 21.2598 6.69238C21.2598 7.71777 20.4199 8.55762 19.3945 8.55762C19.0137 8.55762 18.6523 8.44043 18.3594 8.23535L13.8867 10.9111C13.8965 10.9893 13.9062 11.0771 13.9062 11.1553C13.9062 12.1904 13.0664 13.0205 12.041 13.0205C11.0156 13.0205 10.1855 12.1904 10.1855 11.1553C10.1855 10.9404 10.2246 10.7256 10.293 10.5303L8.45703 8.96777C8.14453 9.21191 7.74414 9.3584 7.32422 9.3584C6.82617 9.3584 6.38672 9.16309 6.05469 8.85059L1.91406 11.2529V16.5654C1.91406 16.7705 1.98242 16.8389 2.1875 16.8389H20.4004C20.9277 16.8389 21.3672 17.249 21.3672 17.7959C21.3672 18.3428 20.9277 18.7529 20.4004 18.7529H0.839844C0.332031 18.7529 0 18.4209 0 17.9131Z" fill="#D50032"/>
</svg>
