<svg width="38" height="26" viewBox="0 0 38 26" fill="none" xmlns="http://www.w3.org/2000/svg">
<path d="M5.26172 25.5566H28.1348C29.3561 25.5566 30.3086 25.2012 30.9922 24.4902C31.6758 23.7884 32.0176 22.7311 32.0176 21.3184V15.7949C31.7441 15.8405 31.3978 15.8678 30.9785 15.877C30.5592 15.877 30.1719 15.8496 29.8164 15.7949V21.2227C29.8164 21.9245 29.6296 22.4577 29.2559 22.8223C28.8822 23.1777 28.3581 23.3555 27.6836 23.3555H5.28906C4.60547 23.3555 4.08138 23.1777 3.7168 22.8223C3.35221 22.4577 3.16992 21.9199 3.16992 21.209V4.77539C3.16992 4.10091 3.3431 3.59049 3.68945 3.24414C4.03581 2.89779 4.53711 2.72461 5.19336 2.72461H8.07812C8.53385 2.72461 8.91667 2.78841 9.22656 2.91602C9.54557 3.04362 9.87826 3.25326 10.2246 3.54492L11.0586 4.24219C11.3503 4.48828 11.6374 4.68424 11.9199 4.83008C12.2025 4.97591 12.5124 5.08073 12.8496 5.14453C13.1868 5.20833 13.5788 5.24023 14.0254 5.24023H22.1328C22.2148 4.85742 22.3105 4.49284 22.4199 4.14648C22.5293 3.79102 22.6797 3.42188 22.8711 3.03906H14.5996C14.1348 3.03906 13.7428 2.97982 13.4238 2.86133C13.1048 2.73372 12.7721 2.52409 12.4258 2.23242L11.5918 1.54883C11.291 1.29362 10.9993 1.0931 10.7168 0.947266C10.4434 0.801432 10.138 0.696615 9.80078 0.632812C9.47266 0.56901 9.08529 0.537109 8.63867 0.537109H4.74219C3.53906 0.537109 2.60938 0.878906 1.95312 1.5625C1.29688 2.24609 0.96875 3.27604 0.96875 4.65234V21.3184C0.96875 22.7311 1.32422 23.7884 2.03516 24.4902C2.75521 25.2012 3.83073 25.5566 5.26172 25.5566ZM2.30859 10.2441H22.5156C22.388 9.91602 22.2832 9.57878 22.2012 9.23242C22.1191 8.88607 22.0599 8.53516 22.0234 8.17969H2.30859V10.2441ZM30.7871 14.0039C31.7259 14.0039 32.6146 13.8216 33.4531 13.457C34.2917 13.0924 35.0299 12.5911 35.668 11.9531C36.3151 11.3151 36.821 10.5768 37.1855 9.73828C37.5501 8.89974 37.7324 8.00651 37.7324 7.05859C37.7324 6.10156 37.5501 5.20378 37.1855 4.36523C36.8301 3.52669 36.3333 2.78841 35.6953 2.15039C35.0573 1.51237 34.319 1.01562 33.4805 0.660156C32.6419 0.295573 31.7441 0.113281 30.7871 0.113281C29.8392 0.113281 28.946 0.295573 28.1074 0.660156C27.2689 1.01562 26.5306 1.51693 25.8926 2.16406C25.2546 2.80208 24.7533 3.54036 24.3887 4.37891C24.0241 5.20833 23.8418 6.10156 23.8418 7.05859C23.8418 8.01562 24.0241 8.91341 24.3887 9.75195C24.7533 10.5905 25.2546 11.3288 25.8926 11.9668C26.5306 12.6048 27.2689 13.1061 28.1074 13.4707C28.946 13.8262 29.8392 14.0039 30.7871 14.0039ZM30.7871 11.4062C30.5319 11.4062 30.3268 11.3288 30.1719 11.1738C30.026 11.0189 29.9531 10.8184 29.9531 10.5723V7.89258H27.2734C27.0273 7.89258 26.8268 7.81966 26.6719 7.67383C26.5169 7.51888 26.4395 7.3138 26.4395 7.05859C26.4395 6.80339 26.5169 6.60286 26.6719 6.45703C26.8268 6.30208 27.0273 6.22461 27.2734 6.22461H29.9531V3.54492C29.9531 3.29883 30.026 3.09831 30.1719 2.94336C30.3268 2.78841 30.5319 2.71094 30.7871 2.71094C31.0423 2.71094 31.2428 2.78841 31.3887 2.94336C31.5436 3.09831 31.6211 3.29883 31.6211 3.54492V6.22461H34.3008C34.5469 6.22461 34.7474 6.30208 34.9023 6.45703C35.0573 6.60286 35.1348 6.80339 35.1348 7.05859C35.1348 7.3138 35.0573 7.51888 34.9023 7.67383C34.7474 7.81966 34.5469 7.89258 34.3008 7.89258H31.6211V10.5723C31.6211 10.8184 31.5436 11.0189 31.3887 11.1738C31.2428 11.3288 31.0423 11.4062 30.7871 11.4062Z" fill="#E73745"/>
</svg>
