<svg width="20" height="21" viewBox="0 0 20 21" fill="none" xmlns="http://www.w3.org/2000/svg">
    <path d="M18.9425 11.016C19.1484 9.20305 18.7985 7.37034 17.9391 5.76084C17.0797 4.15133 15.7514 2.84105 14.1303 2.00371C12.5092 1.16637 10.6719 0.841532 8.86194 1.07225C7.052 1.30297 5.35494 2.07836 3.99575 3.29561C2.63656 4.51286 1.67944 6.11448 1.25129 7.88811C0.823147 9.66175 0.944193 11.5236 1.59839 13.2269C2.25258 14.9302 3.40901 16.3944 4.91437 17.4254C6.41973 18.4564 8.2029 19.0055 10.0275 19M13.9995 20L18.9995 15M18.9995 15V19.5M18.9995 15H14.4995M9.99951 4.99997V9.99997L11.9995 12" stroke="#D50032" stroke-width="1.75" stroke-linecap="round" stroke-linejoin="round"/>
</svg>