<svg width="20" height="16" viewBox="0 0 20 16" fill="none" xmlns="http://www.w3.org/2000/svg">
    <path d="M0.616699 14.332V3.06787C0.616699 2.99593 0.622233 2.92952 0.633301 2.86865C0.644368 2.80778 0.672038 2.74137 0.716309 2.66943C0.965332 2.24333 1.3278 1.85042 1.80371 1.49072C2.28516 1.13102 2.84961 0.843262 3.49707 0.627441C4.15007 0.406087 4.8584 0.29541 5.62207 0.29541C6.52409 0.29541 7.34587 0.458659 8.0874 0.785156C8.83447 1.10612 9.41829 1.52393 9.83887 2.03857C10.2539 1.52393 10.8322 1.10612 11.5737 0.785156C12.3208 0.458659 13.1481 0.29541 14.0557 0.29541C14.8138 0.29541 15.5166 0.406087 16.1641 0.627441C16.8171 0.843262 17.3843 1.13102 17.8657 1.49072C18.3472 1.85042 18.7096 2.24333 18.9531 2.66943C18.9974 2.74137 19.0251 2.80778 19.0361 2.86865C19.0472 2.92952 19.0527 2.99593 19.0527 3.06787V14.332C19.0527 14.6751 18.9587 14.9186 18.7705 15.0625C18.5824 15.2064 18.3665 15.2783 18.123 15.2783C17.9792 15.2783 17.8408 15.2424 17.708 15.1704C17.5752 15.104 17.4313 15.021 17.2764 14.9214C16.8171 14.6115 16.3135 14.3652 15.7656 14.1826C15.2233 14.0055 14.6644 13.9198 14.0889 13.9253C13.4857 13.9308 12.8963 14.0443 12.3208 14.2656C11.7508 14.487 11.2334 14.8218 10.7686 15.27C10.5915 15.436 10.4282 15.5495 10.2788 15.6104C10.1349 15.6768 9.98828 15.71 9.83887 15.71C9.68392 15.71 9.53451 15.6768 9.39062 15.6104C9.24674 15.5495 9.0835 15.436 8.90088 15.27C8.43604 14.8218 7.91585 14.487 7.34033 14.2656C6.77035 14.0443 6.18652 13.9308 5.58887 13.9253C5.00781 13.9198 4.44336 14.0055 3.89551 14.1826C3.35319 14.3652 2.85238 14.6115 2.39307 14.9214C2.23812 15.021 2.09424 15.104 1.96143 15.1704C1.82861 15.2424 1.69303 15.2783 1.55469 15.2783C1.30566 15.2783 1.08708 15.2064 0.898926 15.0625C0.710775 14.9186 0.616699 14.6751 0.616699 14.332ZM1.95312 13.6265C2.3903 13.311 2.92985 13.0592 3.57178 12.8711C4.2137 12.6829 4.89714 12.5889 5.62207 12.5889C6.08138 12.5889 6.52962 12.6414 6.9668 12.7466C7.40397 12.8462 7.80794 12.9845 8.17871 13.1616C8.55501 13.3387 8.88428 13.5407 9.1665 13.7676V3.30859C8.87321 2.79948 8.4056 2.39274 7.76367 2.08838C7.12174 1.78402 6.40788 1.63184 5.62207 1.63184C5.10742 1.63184 4.61214 1.70101 4.13623 1.83936C3.66585 1.97217 3.23975 2.16032 2.85791 2.40381C2.47607 2.6473 2.17448 2.93229 1.95312 3.25879V13.6265ZM10.5029 13.7676C10.7852 13.5407 11.1144 13.3387 11.4907 13.1616C11.867 12.9845 12.271 12.8462 12.7026 12.7466C13.1398 12.6414 13.5908 12.5889 14.0557 12.5889C14.7751 12.5889 15.4557 12.6829 16.0977 12.8711C16.7396 13.0592 17.2791 13.311 17.7163 13.6265V3.25879C17.495 2.93229 17.1934 2.6473 16.8115 2.40381C16.4297 2.16032 16.0008 1.97217 15.5249 1.83936C15.0545 1.70101 14.5648 1.63184 14.0557 1.63184C13.2643 1.63184 12.5477 1.78402 11.9058 2.08838C11.2638 2.39274 10.7962 2.79948 10.5029 3.30859V13.7676Z" fill="#ABABC5"/>
</svg>
