<svg width="20" height="16" viewBox="0 0 20 16" fill="none" xmlns="http://www.w3.org/2000/svg">
    <path d="M4.79834 0.386719C5.67269 0.386719 6.48063 0.552734 7.22217 0.884766C7.96924 1.2168 8.54753 1.67611 8.95703 2.2627C9.03451 2.37891 9.08154 2.46191 9.09814 2.51172C9.12028 2.56152 9.13135 2.64176 9.13135 2.75244V15.0293C9.13135 15.1344 9.09814 15.2174 9.03174 15.2783C8.97087 15.3447 8.89339 15.3779 8.79932 15.3779C8.69417 15.3779 8.59733 15.3392 8.50879 15.2617C8.21549 15.0072 7.889 14.7886 7.5293 14.606C7.1696 14.4289 6.78776 14.2905 6.38379 14.1909C5.97982 14.0968 5.56201 14.0498 5.13037 14.0498C4.43864 14.0498 3.76074 14.1632 3.09668 14.3901C2.43262 14.6226 1.83773 14.9629 1.31201 15.4111C1.23454 15.4775 1.14876 15.5273 1.05469 15.5605C0.966146 15.5938 0.87207 15.6104 0.772461 15.6104C0.567708 15.6104 0.407227 15.555 0.291016 15.4443C0.174805 15.3392 0.116699 15.1898 0.116699 14.9961V3.28369C0.116699 3.12874 0.119466 3.0153 0.125 2.94336C0.136068 2.86589 0.166504 2.78564 0.216309 2.70264C0.498535 2.21012 0.883138 1.79232 1.37012 1.44922C1.8571 1.10612 2.39665 0.843262 2.98877 0.660645C3.58643 0.478027 4.18962 0.386719 4.79834 0.386719ZM14.5518 0.386719C15.1605 0.386719 15.7609 0.478027 16.353 0.660645C16.9507 0.843262 17.493 1.10612 17.98 1.44922C18.467 1.79232 18.8516 2.21012 19.1338 2.70264C19.1836 2.78011 19.2113 2.85758 19.2168 2.93506C19.2279 3.01253 19.2334 3.12874 19.2334 3.28369V14.9961C19.2334 15.1898 19.1753 15.3392 19.0591 15.4443C18.9429 15.555 18.7824 15.6104 18.5776 15.6104C18.478 15.6104 18.3812 15.5938 18.2871 15.5605C18.1986 15.5273 18.1156 15.4775 18.0381 15.4111C17.5124 14.9629 16.9175 14.6226 16.2534 14.3901C15.5894 14.1632 14.9115 14.0498 14.2197 14.0498C13.7881 14.0498 13.3703 14.0968 12.9663 14.1909C12.5623 14.2905 12.1805 14.4289 11.8208 14.606C11.4611 14.7886 11.1346 15.0072 10.8413 15.2617C10.7528 15.3392 10.6559 15.3779 10.5508 15.3779C10.4567 15.3779 10.3765 15.3447 10.3101 15.2783C10.2492 15.2174 10.2188 15.1344 10.2188 15.0293V2.75244C10.2188 2.64176 10.2271 2.56152 10.2437 2.51172C10.2658 2.46191 10.3156 2.37891 10.3931 2.2627C10.8026 1.67611 11.3781 1.2168 12.1196 0.884766C12.8667 0.552734 13.6774 0.386719 14.5518 0.386719Z" fill="white"/>
</svg>
