<svg width="21" height="21" viewBox="0 0 21 21" fill="none" xmlns="http://www.w3.org/2000/svg">
<path d="M10.4585 20.145C11.8068 20.145 13.0716 19.8883 14.2529 19.375C15.4342 18.8678 16.4733 18.1628 17.3701 17.2598C18.2731 16.363 18.9813 15.3239 19.4946 14.1426C20.008 12.9613 20.2646 11.6965 20.2646 10.3481C20.2646 9.00602 20.008 7.7443 19.4946 6.56299C18.9813 5.38167 18.2731 4.33952 17.3701 3.43652C16.4733 2.53353 15.4312 1.82845 14.2437 1.32129C13.0623 0.807943 11.8006 0.55127 10.4585 0.55127C9.11637 0.55127 7.85156 0.807943 6.66406 1.32129C5.48275 1.82845 4.44059 2.53353 3.5376 3.43652C2.64079 4.33952 1.93571 5.38167 1.42236 6.56299C0.915202 7.7443 0.661621 9.00602 0.661621 10.3481C0.661621 11.6965 0.915202 12.9613 1.42236 14.1426C1.93571 15.3239 2.64388 16.363 3.54688 17.2598C4.44987 18.1628 5.49202 18.8678 6.67334 19.375C7.85465 19.8883 9.11637 20.145 10.4585 20.145ZM5.64355 11.916L9.05762 5.98779C9.29264 5.58577 9.58643 5.31982 9.93896 5.18994C10.2977 5.05387 10.6533 5.05387 11.0059 5.18994C11.3646 5.31982 11.6584 5.58577 11.8872 5.98779L15.3105 11.916C15.5518 12.3366 15.6507 12.7417 15.6074 13.1313C15.5641 13.5148 15.4002 13.8302 15.1157 14.0776C14.8374 14.325 14.4663 14.4487 14.0024 14.4487H6.95166C6.48779 14.4487 6.11361 14.325 5.8291 14.0776C5.55078 13.8302 5.38997 13.5148 5.34668 13.1313C5.30339 12.7417 5.40234 12.3366 5.64355 11.916ZM7.69385 12.2593C7.65055 12.3211 7.64128 12.3768 7.66602 12.4263C7.69076 12.4757 7.74023 12.5005 7.81445 12.5005H13.1304C13.2108 12.5005 13.2633 12.4757 13.2881 12.4263C13.3128 12.3768 13.3035 12.3211 13.2603 12.2593L10.6162 7.65771C10.5729 7.58968 10.5234 7.55566 10.4678 7.55566C10.4121 7.55566 10.3657 7.58968 10.3286 7.65771L7.69385 12.2593Z" fill="white"/>
</svg>
