<svg width="17" height="18" viewBox="0 0 17 18" fill="none" xmlns="http://www.w3.org/2000/svg">
<path d="M0.390137 7.44629C0.390137 8.35938 0.561686 9.21712 0.904785 10.0195C1.24788 10.8164 1.7238 11.5192 2.33252 12.1279C2.94124 12.7367 3.64404 13.2126 4.44092 13.5557C5.24333 13.8988 6.10107 14.0703 7.01416 14.0703C7.73356 14.0703 8.41976 13.9596 9.07275 13.7383C9.72575 13.5169 10.3234 13.2126 10.8657 12.8252L14.9497 16.9175C15.0493 17.0116 15.1572 17.0807 15.2734 17.125C15.3952 17.1748 15.5225 17.1997 15.6553 17.1997C15.8434 17.1997 16.0094 17.1554 16.1533 17.0669C16.2972 16.9839 16.4079 16.8677 16.4854 16.7183C16.5684 16.5688 16.6099 16.4028 16.6099 16.2202C16.6099 16.0874 16.585 15.9629 16.5352 15.8467C16.4909 15.7305 16.4245 15.6281 16.3359 15.5396L12.2769 11.4556C12.703 10.9022 13.035 10.2852 13.2729 9.60449C13.5164 8.92383 13.6382 8.20443 13.6382 7.44629C13.6382 6.5332 13.4666 5.67822 13.1235 4.88135C12.7804 4.07894 12.3045 3.37337 11.6958 2.76465C11.0871 2.15592 10.3815 1.68001 9.5791 1.33691C8.78223 0.993815 7.92725 0.822266 7.01416 0.822266C6.10107 0.822266 5.24333 0.993815 4.44092 1.33691C3.64404 1.68001 2.94124 2.15592 2.33252 2.76465C1.7238 3.37337 1.24788 4.07894 0.904785 4.88135C0.561686 5.67822 0.390137 6.5332 0.390137 7.44629ZM1.80957 7.44629C1.80957 6.72689 1.94238 6.05452 2.20801 5.4292C2.47917 4.79834 2.8527 4.24495 3.32861 3.76904C3.81006 3.2876 4.36344 2.91406 4.98877 2.64844C5.61963 2.37728 6.29476 2.2417 7.01416 2.2417C7.73356 2.2417 8.40592 2.37728 9.03125 2.64844C9.66211 2.91406 10.2155 3.2876 10.6914 3.76904C11.1673 4.24495 11.5409 4.79834 11.812 5.4292C12.0832 6.05452 12.2188 6.72689 12.2188 7.44629C12.2188 8.16569 12.0832 8.84082 11.812 9.47168C11.5409 10.097 11.1673 10.6476 10.6914 11.1235C10.2155 11.5994 9.66211 11.973 9.03125 12.2441C8.40592 12.5153 7.73356 12.6509 7.01416 12.6509C6.29476 12.6509 5.61963 12.5153 4.98877 12.2441C4.36344 11.973 3.81006 11.5994 3.32861 11.1235C2.8527 10.6476 2.47917 10.097 2.20801 9.47168C1.94238 8.84082 1.80957 8.16569 1.80957 7.44629Z" fill="white"/>
</svg>
