<svg width="17" height="18" viewBox="0 0 17 18" fill="none" xmlns="http://www.w3.org/2000/svg">
<path d="M0.40918 7.44629C0.40918 8.35938 0.580729 9.21712 0.923828 10.0195C1.26693 10.8164 1.74284 11.5192 2.35156 12.1279C2.96029 12.7367 3.66309 13.2126 4.45996 13.5557C5.26237 13.8988 6.12012 14.0703 7.0332 14.0703C7.7526 14.0703 8.4388 13.9596 9.0918 13.7383C9.74479 13.5169 10.3424 13.2126 10.8848 12.8252L14.9688 16.9175C15.0684 17.0116 15.1763 17.0807 15.2925 17.125C15.4142 17.1748 15.5415 17.1997 15.6743 17.1997C15.8625 17.1997 16.0285 17.1554 16.1724 17.0669C16.3162 16.9839 16.4269 16.8677 16.5044 16.7183C16.5874 16.5688 16.6289 16.4028 16.6289 16.2202C16.6289 16.0874 16.604 15.9629 16.5542 15.8467C16.5099 15.7305 16.4435 15.6281 16.355 15.5396L12.2959 11.4556C12.722 10.9022 13.054 10.2852 13.292 9.60449C13.5355 8.92383 13.6572 8.20443 13.6572 7.44629C13.6572 6.5332 13.4857 5.67822 13.1426 4.88135C12.7995 4.07894 12.3236 3.37337 11.7148 2.76465C11.1061 2.15592 10.4006 1.68001 9.59814 1.33691C8.80127 0.993815 7.94629 0.822266 7.0332 0.822266C6.12012 0.822266 5.26237 0.993815 4.45996 1.33691C3.66309 1.68001 2.96029 2.15592 2.35156 2.76465C1.74284 3.37337 1.26693 4.07894 0.923828 4.88135C0.580729 5.67822 0.40918 6.5332 0.40918 7.44629ZM1.82861 7.44629C1.82861 6.72689 1.96143 6.05452 2.22705 5.4292C2.49821 4.79834 2.87174 4.24495 3.34766 3.76904C3.8291 3.2876 4.38249 2.91406 5.00781 2.64844C5.63867 2.37728 6.3138 2.2417 7.0332 2.2417C7.7526 2.2417 8.42497 2.37728 9.05029 2.64844C9.68115 2.91406 10.2345 3.2876 10.7104 3.76904C11.1864 4.24495 11.5599 4.79834 11.8311 5.4292C12.1022 6.05452 12.2378 6.72689 12.2378 7.44629C12.2378 8.16569 12.1022 8.84082 11.8311 9.47168C11.5599 10.097 11.1864 10.6476 10.7104 11.1235C10.2345 11.5994 9.68115 11.973 9.05029 12.2441C8.42497 12.5153 7.7526 12.6509 7.0332 12.6509C6.3138 12.6509 5.63867 12.5153 5.00781 12.2441C4.38249 11.973 3.8291 11.5994 3.34766 11.1235C2.87174 10.6476 2.49821 10.097 2.22705 9.47168C1.96143 8.84082 1.82861 8.16569 1.82861 7.44629Z" fill="#ABABC5"/>
</svg>
