<svg width="29" height="30" viewBox="0 0 29 30" fill="none" xmlns="http://www.w3.org/2000/svg">
<path d="M17.209 29.25C17.7012 29.25 18.125 29.054 18.4805 28.6621C18.8359 28.2702 19.1413 27.7461 19.3965 27.0898L28.3516 3.69727C28.4701 3.37826 28.5612 3.08203 28.625 2.80859C28.6979 2.53516 28.7344 2.27995 28.7344 2.04297C28.7344 1.59635 28.6068 1.24544 28.3516 0.990234C28.0964 0.735026 27.7454 0.607422 27.2988 0.607422C27.071 0.607422 26.8158 0.64388 26.5332 0.716797C26.2598 0.780599 25.9635 0.871745 25.6445 0.990234L2.12891 10C1.55469 10.2188 1.07161 10.5059 0.679688 10.8613C0.28776 11.2168 0.0917969 11.6406 0.0917969 12.1328C0.0917969 12.7617 0.30599 13.2174 0.734375 13.5C1.16276 13.7734 1.70508 14.0104 2.36133 14.2109L12.2324 17.1094L15.1035 26.8574C15.304 27.541 15.5456 28.1107 15.8281 28.5664C16.1107 29.0221 16.571 29.25 17.209 29.25ZM12.8477 15.0312L3.41406 12.1465C3.30469 12.1191 3.22721 12.0872 3.18164 12.0508C3.14518 12.0143 3.12695 11.9733 3.12695 11.9277C3.12695 11.8822 3.14518 11.8411 3.18164 11.8047C3.2181 11.7591 3.28646 11.7181 3.38672 11.6816L21.8711 4.68164C22.418 4.47201 22.9512 4.24414 23.4707 3.99805C23.9993 3.74284 24.5189 3.49674 25.0293 3.25977C24.5736 3.62435 24.0905 4.01628 23.5801 4.43555C23.0697 4.85482 22.6276 5.2513 22.2539 5.625L12.8477 15.0312ZM17.4277 26.2422C17.373 26.2422 17.3275 26.2148 17.291 26.1602C17.2637 26.1146 17.2318 26.0371 17.1953 25.9277L14.3105 16.4941L23.7168 7.08789C24.0905 6.71419 24.487 6.26758 24.9062 5.74805C25.3346 5.22852 25.7311 4.73633 26.0957 4.27148C25.8587 4.79102 25.6126 5.3151 25.3574 5.84375C25.1022 6.3724 24.8698 6.91471 24.6602 7.4707L17.6602 25.9551C17.6237 26.0553 17.5872 26.1283 17.5508 26.1738C17.5143 26.2194 17.4733 26.2422 17.4277 26.2422Z" fill="#ABABC5"/>
</svg>
