<?xml version="1.0" encoding="UTF-8"?>
<svg id="Calque_2" xmlns="http://www.w3.org/2000/svg" viewBox="0 0 800 800" fill="#fff">
    <g id="Calque_1-2">
        <path fill="#fff" d="m397.36,640.47h0c-9.72-5.46-.92-.52,0,0Z" />
        <path fill="#fff"
            d="m400,0C179.09,0,0,179.09,0,400s179.09,400,400,400,400-179.09,400-400S620.91,0,400,0Zm277.45,433.87l-82.73,49.41-81.75-46.02,82.67-49.33,81.81,45.94Zm-262.86,62.1l87.15-52.01,81.77,46.02c-3.73,2.23-82.72,49.38-87.01,51.95h0c-.26.16-.24.15,0,0h0s-81.91-45.96-81.91-45.96Zm-116.68-52.59l94.04,52.92-82.58,49.28-94.06-52.84,82.6-49.35Zm-.17-13.09l-81.71-45.98,16.54-9.88,81.78,45.94-16.61,9.92Zm11.38,6.41l16.62-9.93,47.33,26.59c2.1,1.18,4.75.47,5.66-.06.93-.55,66.31-39.56,67.66-40.38h0s.03-.02,0,0l43.89,24.71-87.11,51.98-94.04-52.92Zm66.73-114.48l-70.46-39.65,65.09-38.87,70.54,39.63-65.17,38.89Zm76.62-32.53l60.99,34.31-65.09,38.86-61.09-34.27,65.19-38.9Zm-87.83,39.22l-61.65,36.78-70.49-39.6,61.68-36.83,70.46,39.65Zm11.43,6.36l61.07,34.28-61.71,36.84-61.06-34.31,61.7-36.82Zm81.52,70.96l82.75-49.35,43.91,24.66-82.77,49.39-43.88-24.71Zm134.74-93.64c-1.29.77-2.14,1.28-2.67,1.6,7.64-4.56-3.61,2.16,0,0-10.12,6.04-53.38,31.86-208.25,124.28h0c0-1.27-.21-23.72-.2-22.34l210.92-125.91.2,22.37Zm-5.92-32.15l-61.74,36.86-61.01-34.3,61.73-36.84,61.02,34.28Zm-72.4-40.68l-61.77,36.87-70.55-39.64,61.75-36.88,70.58,39.65Zm-142.97-80.32l61,34.28-61.75,36.87-61.02-34.28,61.76-36.87Zm-72.97,43.56l61.02,34.28-65.08,38.87-60.99-34.32,65.05-38.83Zm-138,82.38l61.75-36.86,60.99,34.32-61.69,36.84c-1.26-.71-58.01-32.59-61.05-34.3h0c-.18-.1-.17-.1,0,0h0Zm209.83,130.88l.2,22.39c-135.39-76.03-19.1-10.72-215.37-120.96h0l-.2-22.43,215.37,121Zm-247.74,24.13h0l82.67-49.39,81.71,45.98-82.61,49.35c-1.02-.58-77.84-43.73-81.78-45.95h0s-.03-.02-.04-.02c-.02,0-.03-.02-.04-.02-.1-.06-.1-.06,0,0,.01,0,.02.01.04.02.02,0,.02.01.04.02Zm275.22,200.08c-1.9-1.07-40.09-22.52-280.53-157.6h0s-.29-32.64-.29-32.64c1.21.68,281.63,158.23,280.52,157.61.01,1.64.27,30.75.29,32.62h0s.05.03.07.04c.01,0,.01,0,0,0-.01,0-.03-.02-.07-.04,0,.13,0,.12,0,0Zm-76.6-88.51h0c-.31-.17-.29-.16,0,0h0l82.63-49.31,81.89,45.97-82.66,49.34c-1-.56-77.23-43.41-81.85-46.01Zm87.93,88.31l-.28-32.51c2.9-1.73,4.11-2.46,4.38-2.61-2.06,1.23-55.48,33.12,270.38-161.45l.28,32.57-274.75,164.01Z" />
    </g>
</svg>