<?xml version="1.0" encoding="UTF-8"?>
<svg id="Calque_2" xmlns="http://www.w3.org/2000/svg" viewBox="0 0 800 800" fill="#fff">
    <g id="Calque_1-2">
        <path fill="#fff"
            d="m273.65,512.18c3.53,24.37-11.68,48.81-26.36,66h78.76c9.3-24.2-14.98-55.31-24.28-65.99h-28.12Z" />
        <path fill="#fff"
            d="m335.06,512.19c14.39,18.81,20.96,42.45,18.34,65.99h47.4c21.22-13.9,11.78-52.1,7.44-65.99h-73.18Z" />
        <path fill="#fff"
            d="m434.35,578.18h0s37.27,0,37.27,0c11-20.45,17.83-42.89,20.11-66h-56c6.7,21.57,6.21,44.73-1.39,66Z" />
        <polygon fill="#fff" points="471.03 221.8 328.96 221.8 196.96 485.79 603.02 485.79 471.03 221.8" />
        <path fill="#fff" d="m246.62,512.19h-57.82v66s21.48,0,21.48,0c10.78-9.62,44.08-41.82,36.33-66Z" />
        <path fill="#fff"
            d="m518.23,512.19c-1.85,22.82-7.65,45.15-17.13,66h28.02s0,0,0,0c5.97-3.2,27.95-18.08,39.47-66h-50.36Z" />
        <path fill="#fff" d="m567.61,578.18h43.58v-66s-15.56,0-15.56,0c-4.3,23.81-13.88,46.36-28.02,66Z" />
        <path fill="#fff"
            d="m400,0C179.09,0,0,179.09,0,400s179.09,400,400,400,400-179.09,400-400S620.91,0,400,0Zm237.58,591.39c0,7.29-5.91,13.2-13.2,13.2h-92.39s-.04,0-.04,0H175.61c-7.29,0-13.2-5.91-13.2-13.2v-92.4c0-.18.1-.34.1-.52.06-1.37.33-2.73.81-4.02h0c.11-.29.18-.59.3-.87.07-.16.09-.34.17-.5l145.19-290.38c2.24-4.47,6.81-7.29,11.81-7.29h158.39c5,0,9.57,2.82,11.81,7.29l145.19,290.38c.08.16.1.34.17.5.13.28.19.58.3.87.48,1.29.75,2.65.81,4.02h0c0,.18.1.34.1.52v92.4Z" />
    </g>
</svg>