<?xml version="1.0" encoding="UTF-8"?>
<svg id="Calque_2" xmlns="http://www.w3.org/2000/svg" viewBox="0 0 800 800" fill="#fff">
    <g id="Calque_1-2">
        <path fill="#fff"
            d="m356.35,605.29c0,15.54,12.64,28.18,28.18,28.18s28.17-12.64,28.17-28.18v-3.49h-56.35v3.49Z" />
        <path fill="#fff"
            d="m515.9,166.53H253.17c-7.16,0-12.99,5.82-12.99,12.99v45.84c0,7.16,5.82,12.99,12.99,12.99h262.73c7.16,0,12.99-5.83,12.99-12.99v-45.84c0-7.16-5.82-12.99-12.99-12.99Z" />
        <rect fill="#fff" x="356.35" y="407.28" width="56.35" height="179.13" />
        <path fill="#fff"
            d="m400,0C179.09,0,0,179.09,0,400s179.09,400,400,400,400-179.09,400-400S620.91,0,400,0Zm190.67,268.95c0,15.65-12.73,28.38-28.37,28.38h-157.08c-7.16,0-12.98,5.82-12.98,12.99v41.32h28.17c15.34,0,27.82,12.48,27.82,27.82,0,12.67-8.52,23.36-20.12,26.71v199.13c0,24.02-19.54,43.57-43.57,43.57s-43.58-19.55-43.58-43.57v-199.12c-11.61-3.35-20.12-14.05-20.12-26.71,0-15.34,12.49-27.82,27.82-27.82h28.18v-41.32c0-15.65,12.73-28.38,28.37-28.38h157.08c7.16,0,12.98-5.83,12.98-12.99v-45.84c0-7.16-5.82-12.98-12.98-12.98h-18.02v15.22c0,15.65-12.73,28.38-28.38,28.38H253.17c-15.65,0-28.38-12.73-28.38-28.38v-15.22h-7.76c-4.25,0-7.7-3.44-7.7-7.7s3.45-7.7,7.7-7.7h7.76v-15.22c0-15.65,12.73-28.38,28.38-28.38h262.73c15.65,0,28.38,12.73,28.38,28.38v15.23h18.03c15.64,0,28.37,12.72,28.37,28.37v45.84Z" />
        <path fill="#fff"
            d="m336.22,379.46c0,6.85,5.57,12.43,12.43,12.43h71.74c6.85,0,12.43-5.58,12.43-12.43h0c0-6.85-5.57-12.43-12.42-12.43h-71.75c-6.85,0-12.43,5.57-12.43,12.43Z" />
    </g>
</svg>