<svg width="29" height="29" viewBox="0 0 29 29" fill="none" xmlns="http://www.w3.org/2000/svg">
<path d="M14.3926 28.0742C16.2975 28.0742 18.0885 27.7096 19.7656 26.9805C21.4518 26.2513 22.9375 25.2441 24.2227 23.959C25.5078 22.6738 26.515 21.1927 27.2441 19.5156C27.9733 17.8294 28.3379 16.0339 28.3379 14.1289C28.3379 12.224 27.9733 10.4329 27.2441 8.75586C26.515 7.06966 25.5078 5.58398 24.2227 4.29883C22.9375 3.01367 21.4518 2.00651 19.7656 1.27734C18.0794 0.548177 16.2839 0.183594 14.3789 0.183594C12.474 0.183594 10.6784 0.548177 8.99219 1.27734C7.3151 2.00651 5.83398 3.01367 4.54883 4.29883C3.27279 5.58398 2.27018 7.06966 1.54102 8.75586C0.811849 10.4329 0.447266 12.224 0.447266 14.1289C0.447266 16.0339 0.811849 17.8294 1.54102 19.5156C2.27018 21.1927 3.27734 22.6738 4.5625 23.959C5.84766 25.2441 7.32878 26.2513 9.00586 26.9805C10.6921 27.7096 12.4876 28.0742 14.3926 28.0742ZM14.3926 25.75C12.7793 25.75 11.2708 25.4492 9.86719 24.8477C8.46354 24.2461 7.22852 23.4167 6.16211 22.3594C5.10482 21.293 4.27539 20.0579 3.67383 18.6543C3.08138 17.2507 2.78516 15.7422 2.78516 14.1289C2.78516 12.5156 3.08138 11.0072 3.67383 9.60352C4.27539 8.19987 5.10482 6.96484 6.16211 5.89844C7.2194 4.83203 8.44987 4.0026 9.85352 3.41016C11.2572 2.80859 12.7656 2.50781 14.3789 2.50781C15.9922 2.50781 17.5007 2.80859 18.9043 3.41016C20.3079 4.0026 21.543 4.83203 22.6094 5.89844C23.6758 6.96484 24.5098 8.19987 25.1113 9.60352C25.7129 11.0072 26.0137 12.5156 26.0137 14.1289C26.0137 15.7422 25.7129 17.2507 25.1113 18.6543C24.5189 20.0579 23.6895 21.293 22.623 22.3594C21.5658 23.4167 20.3307 24.2461 18.918 24.8477C17.5143 25.4492 16.0059 25.75 14.3926 25.75ZM11.5625 21.2383C11.9818 21.6484 12.3965 21.8535 12.8066 21.8535C13.2168 21.8535 13.6361 21.6439 14.0645 21.2246L20.668 14.6621C20.9323 14.4069 21.151 14.1608 21.3242 13.9238C21.5065 13.6868 21.5977 13.3587 21.5977 12.9395V10.3828C21.5977 10.0729 21.5521 9.81771 21.4609 9.61719C21.3698 9.40755 21.2194 9.19792 21.0098 8.98828L19.8203 7.8125C19.6107 7.60286 19.401 7.4388 19.1914 7.32031C18.9909 7.19271 18.7357 7.12891 18.4258 7.12891H15.7734C15.3633 7.12891 15.0352 7.21549 14.7891 7.38867C14.5521 7.56185 14.306 7.7806 14.0508 8.04492L7.50195 14.6758C7.08268 15.0951 6.87305 15.5098 6.87305 15.9199C6.87305 16.321 7.07812 16.7266 7.48828 17.1367L11.5625 21.2383ZM16.8125 11.9141C16.6211 11.7227 16.5254 11.4948 16.5254 11.2305C16.5254 10.957 16.6211 10.7201 16.8125 10.5195C17.0039 10.3372 17.2318 10.2461 17.4961 10.2461C17.7695 10.2461 17.9974 10.3372 18.1797 10.5195C18.3711 10.7109 18.4668 10.9434 18.4668 11.2168C18.4668 11.4811 18.3711 11.709 18.1797 11.9004C17.9883 12.0918 17.7604 12.1875 17.4961 12.1875C17.2318 12.1875 17.0039 12.0964 16.8125 11.9141Z" fill="#E73745"/>
</svg>
