<svg width="35" height="36" viewBox="0 0 35 36" fill="none" xmlns="http://www.w3.org/2000/svg">
<path d="M8.55273 19.5068C8.21094 19.5068 7.92611 19.3929 7.69824 19.165C7.47038 18.9372 7.35645 18.6523 7.35645 18.3105C7.35645 17.9801 7.47038 17.701 7.69824 17.4731C7.92611 17.2453 8.21094 17.1313 8.55273 17.1313H16.2944V6.79199C16.2944 6.46159 16.4084 6.18245 16.6362 5.95459C16.8641 5.72673 17.1432 5.61279 17.4736 5.61279C17.8154 5.61279 18.1003 5.72673 18.3281 5.95459C18.556 6.18245 18.6699 6.46159 18.6699 6.79199V18.3105C18.6699 18.6523 18.556 18.9372 18.3281 19.165C18.1003 19.3929 17.8154 19.5068 17.4736 19.5068H8.55273ZM17.4907 35.0928C19.8719 35.0928 22.1107 34.637 24.207 33.7256C26.3148 32.8141 28.1719 31.5552 29.7783 29.9487C31.3848 28.3423 32.6437 26.4909 33.5552 24.3945C34.4666 22.2868 34.9224 20.0423 34.9224 17.6611C34.9224 15.2799 34.4666 13.0412 33.5552 10.9448C32.6437 8.83708 31.3848 6.97998 29.7783 5.37354C28.1719 3.76709 26.3148 2.50814 24.207 1.59668C22.0993 0.685221 19.8548 0.229492 17.4736 0.229492C15.0924 0.229492 12.848 0.685221 10.7402 1.59668C8.64388 2.50814 6.79248 3.76709 5.18604 5.37354C3.59098 6.97998 2.33773 8.83708 1.42627 10.9448C0.514811 13.0412 0.059082 15.2799 0.059082 17.6611C0.059082 20.0423 0.514811 22.2868 1.42627 24.3945C2.33773 26.4909 3.59668 28.3423 5.20312 29.9487C6.80957 31.5552 8.66097 32.8141 10.7573 33.7256C12.8651 34.637 15.1095 35.0928 17.4907 35.0928Z" fill="#E4E4F3"/>
</svg>
