<svg width="29" height="29" viewBox="0 0 29 29" fill="none" xmlns="http://www.w3.org/2000/svg">
<path d="M14.3926 28.0742C16.2975 28.0742 18.0885 27.7096 19.7656 26.9805C21.4518 26.2513 22.9375 25.2441 24.2227 23.959C25.5078 22.6738 26.515 21.1927 27.2441 19.5156C27.9733 17.8294 28.3379 16.0339 28.3379 14.1289C28.3379 12.224 27.9733 10.4329 27.2441 8.75586C26.515 7.06966 25.5078 5.58398 24.2227 4.29883C22.9375 3.01367 21.4518 2.00651 19.7656 1.27734C18.0794 0.548177 16.2839 0.183594 14.3789 0.183594C12.474 0.183594 10.6784 0.548177 8.99219 1.27734C7.3151 2.00651 5.83398 3.01367 4.54883 4.29883C3.27279 5.58398 2.27018 7.06966 1.54102 8.75586C0.811849 10.4329 0.447266 12.224 0.447266 14.1289C0.447266 16.0339 0.811849 17.8294 1.54102 19.5156C2.27018 21.1927 3.27734 22.6738 4.5625 23.959C5.84766 25.2441 7.32878 26.2513 9.00586 26.9805C10.6921 27.7096 12.4876 28.0742 14.3926 28.0742ZM14.3926 25.75C12.7793 25.75 11.2708 25.4492 9.86719 24.8477C8.46354 24.2461 7.22852 23.4167 6.16211 22.3594C5.10482 21.293 4.27539 20.0579 3.67383 18.6543C3.08138 17.2507 2.78516 15.7422 2.78516 14.1289C2.78516 12.5156 3.08138 11.0072 3.67383 9.60352C4.27539 8.19987 5.10482 6.96484 6.16211 5.89844C7.2194 4.83203 8.44987 4.0026 9.85352 3.41016C11.2572 2.80859 12.7656 2.50781 14.3789 2.50781C15.9922 2.50781 17.5007 2.80859 18.9043 3.41016C20.3079 4.0026 21.543 4.83203 22.6094 5.89844C23.6758 6.96484 24.5098 8.19987 25.1113 9.60352C25.7129 11.0072 26.0137 12.5156 26.0137 14.1289C26.0137 15.7422 25.7129 17.2507 25.1113 18.6543C24.5189 20.0579 23.6895 21.293 22.623 22.3594C21.5658 23.4167 20.3307 24.2461 18.918 24.8477C17.5143 25.4492 16.0059 25.75 14.3926 25.75ZM10.8516 22.1816H17.9199C18.3757 22.1816 18.7357 22.0586 19 21.8125C19.2734 21.5573 19.4147 21.2018 19.4238 20.7461L19.8887 9.93164H20.9688C21.1328 9.93164 21.2695 9.87695 21.3789 9.76758C21.4974 9.64909 21.5612 9.51237 21.5703 9.35742C21.5794 9.19336 21.5202 9.05664 21.3926 8.94727C21.2741 8.82878 21.1328 8.76953 20.9688 8.76953H17.7012V7.66211C17.7012 7.09701 17.5234 6.65039 17.168 6.32227C16.8216 5.98503 16.3477 5.81641 15.7461 5.81641H12.9844C12.3919 5.81641 11.9225 5.98503 11.5762 6.32227C11.2298 6.65039 11.0566 7.09701 11.0566 7.66211V8.76953H7.76172C7.59766 8.76953 7.45638 8.82878 7.33789 8.94727C7.22852 9.05664 7.17383 9.19336 7.17383 9.35742C7.17383 9.51237 7.22852 9.64909 7.33789 9.76758C7.45638 9.87695 7.59766 9.93164 7.76172 9.93164H8.88281L9.34766 20.7461C9.36589 21.2018 9.5026 21.5573 9.75781 21.8125C10.0221 22.0586 10.3867 22.1816 10.8516 22.1816ZM12.0273 20.0625C11.6992 20.0625 11.5352 19.9076 11.5352 19.5977L11.248 11.6133C11.248 11.2943 11.4167 11.1348 11.7539 11.1348C12.0729 11.1348 12.237 11.2943 12.2461 11.6133L12.5059 19.5977C12.5059 19.9076 12.3464 20.0625 12.0273 20.0625ZM14.3516 20.0625C14.0234 20.0625 13.8594 19.9076 13.8594 19.5977V11.6133C13.8594 11.2943 14.0234 11.1348 14.3516 11.1348C14.6979 11.1348 14.8711 11.2943 14.8711 11.6133V19.5977C14.8711 19.9076 14.6979 20.0625 14.3516 20.0625ZM16.6895 20.0625C16.3704 20.0625 16.2109 19.9076 16.2109 19.5977L16.4707 11.6133C16.4798 11.2943 16.6484 11.1348 16.9766 11.1348C17.3047 11.1348 17.4688 11.2943 17.4688 11.6133L17.1816 19.5977C17.1816 19.9076 17.0176 20.0625 16.6895 20.0625ZM12.4375 8.76953V7.73047C12.4375 7.55729 12.4922 7.41602 12.6016 7.30664C12.7201 7.19727 12.8704 7.14258 13.0527 7.14258H15.6641C15.8464 7.14258 15.9967 7.19727 16.1152 7.30664C16.2337 7.41602 16.293 7.55729 16.293 7.73047V8.76953H12.4375Z" fill="#E73745"/>
</svg>
