<svg width="24" height="16" viewBox="0 0 24 16" fill="none" xmlns="http://www.w3.org/2000/svg">
<path d="M10.7666 15.8345H21.1924C22.5537 15.8345 23.2344 15.3918 23.2344 14.5063C23.2344 13.964 23.0684 13.3857 22.7363 12.7715C22.4043 12.1572 21.9229 11.5789 21.292 11.0366C20.6667 10.4888 19.9058 10.0433 19.0093 9.7002C18.1183 9.3571 17.1084 9.18555 15.9795 9.18555C14.8561 9.18555 13.8462 9.3571 12.9497 9.7002C12.0588 10.0433 11.2979 10.4888 10.667 11.0366C10.0417 11.5789 9.56299 12.1572 9.23096 12.7715C8.89893 13.3857 8.73291 13.964 8.73291 14.5063C8.73291 15.3918 9.41081 15.8345 10.7666 15.8345ZM10.3682 14.5811C10.263 14.5811 10.1855 14.5645 10.1357 14.5312C10.0915 14.498 10.0693 14.4372 10.0693 14.3486C10.0693 14.0111 10.1966 13.6209 10.4512 13.1782C10.7113 12.73 11.0931 12.2983 11.5967 11.8833C12.1003 11.4683 12.7173 11.1252 13.4478 10.854C14.1838 10.5773 15.0277 10.439 15.9795 10.439C16.9313 10.439 17.7752 10.5773 18.5112 10.854C19.2472 11.1252 19.867 11.4683 20.3706 11.8833C20.8742 12.2983 21.2533 12.73 21.5078 13.1782C21.7679 13.6209 21.8979 14.0111 21.8979 14.3486C21.8979 14.4372 21.873 14.498 21.8232 14.5312C21.779 14.5645 21.7015 14.5811 21.5908 14.5811H10.3682ZM15.9878 8.15625C16.6463 8.15625 17.2467 7.97917 17.7891 7.625C18.3314 7.27083 18.763 6.80046 19.084 6.21387C19.4105 5.62174 19.5737 4.96875 19.5737 4.25488C19.5737 3.54655 19.4132 2.90739 19.0923 2.3374C18.7713 1.76188 18.3397 1.30534 17.7974 0.967773C17.255 0.630208 16.6519 0.461426 15.9878 0.461426C15.3293 0.461426 14.7288 0.632975 14.1865 0.976074C13.6442 1.31917 13.2098 1.77848 12.8833 2.354C12.5623 2.92952 12.4019 3.56868 12.4019 4.27148C12.4019 4.97982 12.5623 5.63005 12.8833 6.22217C13.2098 6.80876 13.6442 7.27913 14.1865 7.6333C14.7288 7.98193 15.3293 8.15625 15.9878 8.15625ZM15.9878 6.90283C15.5838 6.90283 15.2103 6.78662 14.8672 6.5542C14.5296 6.31624 14.2557 5.99805 14.0454 5.59961C13.8407 5.20117 13.7383 4.75846 13.7383 4.27148C13.7383 3.79004 13.8379 3.3584 14.0371 2.97656C14.2419 2.58919 14.5158 2.28206 14.8589 2.05518C15.202 1.82829 15.5783 1.71484 15.9878 1.71484C16.4028 1.71484 16.7791 1.82552 17.1167 2.04688C17.4598 2.26823 17.731 2.57259 17.9302 2.95996C18.1349 3.3418 18.2373 3.77344 18.2373 4.25488C18.2373 4.74186 18.1349 5.18734 17.9302 5.59131C17.7254 5.98975 17.4515 6.30794 17.1084 6.5459C16.7708 6.78385 16.3973 6.90283 15.9878 6.90283ZM1.80176 15.8345H8.31787C8.11865 15.7238 7.9554 15.555 7.82812 15.3281C7.70085 15.1012 7.65104 14.8605 7.67871 14.606H1.60254C1.514 14.606 1.45036 14.5866 1.41162 14.5479C1.37288 14.5146 1.35352 14.4593 1.35352 14.3818C1.35352 13.8672 1.48633 13.3719 1.75195 12.896C2.02311 12.4201 2.39388 11.994 2.86426 11.6177C3.33464 11.2414 3.87419 10.9453 4.48291 10.7295C5.09163 10.5081 5.73633 10.3975 6.41699 10.3975C6.76562 10.3975 7.10042 10.4251 7.42139 10.4805C7.74788 10.5358 8.05778 10.616 8.35107 10.7212C8.6499 10.8263 8.9349 10.9591 9.20605 11.1196C9.33333 10.9536 9.47445 10.7987 9.62939 10.6548C9.78434 10.5054 9.95589 10.367 10.144 10.2397C9.78434 10.0018 9.40251 9.80534 8.99854 9.65039C8.6001 9.48991 8.18506 9.37093 7.75342 9.29346C7.32178 9.21045 6.8763 9.16895 6.41699 9.16895C5.54818 9.16895 4.73193 9.31283 3.96826 9.60059C3.21012 9.88835 2.54053 10.2812 1.95947 10.7793C1.38395 11.2773 0.932943 11.8418 0.606445 12.4727C0.279948 13.1035 0.116699 13.7648 0.116699 14.4565C0.116699 14.9159 0.257812 15.259 0.540039 15.4858C0.822266 15.7183 1.24284 15.8345 1.80176 15.8345ZM6.42529 8.22266C6.99528 8.22266 7.51546 8.07048 7.98584 7.76611C8.45622 7.45622 8.83252 7.04395 9.11475 6.5293C9.39697 6.00911 9.53809 5.43359 9.53809 4.80273C9.53809 4.18848 9.39697 3.62956 9.11475 3.12598C8.83805 2.6224 8.46452 2.22119 7.99414 1.92236C7.52376 1.62354 7.00081 1.47412 6.42529 1.47412C5.85531 1.47412 5.33236 1.6263 4.85645 1.93066C4.38607 2.22949 4.00977 2.63346 3.72754 3.14258C3.44531 3.65169 3.30697 4.21061 3.3125 4.81934C3.3125 5.44466 3.45361 6.01465 3.73584 6.5293C4.01807 7.04395 4.39437 7.45622 4.86475 7.76611C5.33512 8.07048 5.85531 8.22266 6.42529 8.22266ZM6.42529 6.98584C6.08773 6.98584 5.77507 6.889 5.4873 6.69531C5.20508 6.50163 4.97819 6.24154 4.80664 5.91504C4.63509 5.58301 4.54932 5.21777 4.54932 4.81934C4.54932 4.43197 4.63232 4.0778 4.79834 3.75684C4.96989 3.43587 5.19678 3.18132 5.479 2.99316C5.76676 2.80501 6.08219 2.71094 6.42529 2.71094C6.77393 2.71094 7.08936 2.80501 7.37158 2.99316C7.65934 3.17578 7.88623 3.4248 8.05225 3.74023C8.2238 4.05566 8.30957 4.40983 8.30957 4.80273C8.30957 5.20671 8.2238 5.57471 8.05225 5.90674C7.8807 6.23877 7.65104 6.50163 7.36328 6.69531C7.07552 6.889 6.76286 6.98584 6.42529 6.98584Z" fill="#ABABC5"/>
</svg>
