<svg width="29" height="29" viewBox="0 0 29 29" fill="none" xmlns="http://www.w3.org/2000/svg">
<path d="M14.3926 28.0742C16.2975 28.0742 18.0885 27.7096 19.7656 26.9805C21.4518 26.2513 22.9375 25.2441 24.2227 23.959C25.5078 22.6738 26.515 21.1927 27.2441 19.5156C27.9733 17.8294 28.3379 16.0339 28.3379 14.1289C28.3379 12.224 27.9733 10.4329 27.2441 8.75586C26.515 7.06966 25.5078 5.58398 24.2227 4.29883C22.9375 3.01367 21.4518 2.00651 19.7656 1.27734C18.0794 0.548177 16.2839 0.183594 14.3789 0.183594C12.474 0.183594 10.6784 0.548177 8.99219 1.27734C7.3151 2.00651 5.83398 3.01367 4.54883 4.29883C3.27279 5.58398 2.27018 7.06966 1.54102 8.75586C0.811849 10.4329 0.447266 12.224 0.447266 14.1289C0.447266 16.0339 0.811849 17.8294 1.54102 19.5156C2.27018 21.1927 3.27734 22.6738 4.5625 23.959C5.84766 25.2441 7.32878 26.2513 9.00586 26.9805C10.6921 27.7096 12.4876 28.0742 14.3926 28.0742ZM14.3926 25.75C12.7793 25.75 11.2708 25.4492 9.86719 24.8477C8.46354 24.2461 7.22852 23.4167 6.16211 22.3594C5.10482 21.293 4.27539 20.0579 3.67383 18.6543C3.08138 17.2507 2.78516 15.7422 2.78516 14.1289C2.78516 12.5156 3.08138 11.0072 3.67383 9.60352C4.27539 8.19987 5.10482 6.96484 6.16211 5.89844C7.2194 4.83203 8.44987 4.0026 9.85352 3.41016C11.2572 2.80859 12.7656 2.50781 14.3789 2.50781C15.9922 2.50781 17.5007 2.80859 18.9043 3.41016C20.3079 4.0026 21.543 4.83203 22.6094 5.89844C23.6758 6.96484 24.5098 8.19987 25.1113 9.60352C25.7129 11.0072 26.0137 12.5156 26.0137 14.1289C26.0137 15.7422 25.7129 17.2507 25.1113 18.6543C24.5189 20.0579 23.6895 21.293 22.623 22.3594C21.5658 23.4167 20.3307 24.2461 18.918 24.8477C17.5143 25.4492 16.0059 25.75 14.3926 25.75ZM23.7441 23.1387L23.7031 22.9883C23.4753 22.3138 22.9421 21.653 22.1035 21.0059C21.2741 20.3587 20.1986 19.8255 18.877 19.4062C17.5645 18.987 16.0697 18.7773 14.3926 18.7773C12.7246 18.7773 11.2298 18.987 9.9082 19.4062C8.5957 19.8255 7.52018 20.3587 6.68164 21.0059C5.8431 21.653 5.3099 22.3092 5.08203 22.9746L5.04102 23.1387C5.86133 23.9499 6.83203 24.6426 7.95312 25.2168C9.07422 25.791 10.2044 26.2285 11.3438 26.5293C12.4922 26.8392 13.5085 26.9941 14.3926 26.9941C15.2858 26.9941 16.3021 26.8392 17.4414 26.5293C18.5807 26.2285 19.7064 25.791 20.8184 25.2168C21.9395 24.6426 22.9147 23.9499 23.7441 23.1387ZM14.3926 16.4531C15.2676 16.4622 16.0605 16.2435 16.7715 15.7969C17.4824 15.3411 18.043 14.7214 18.4531 13.9375C18.8724 13.1536 19.082 12.2741 19.082 11.2988C19.082 10.3783 18.8724 9.53516 18.4531 8.76953C18.0339 8.00391 17.4688 7.39323 16.7578 6.9375C16.056 6.47266 15.2676 6.24023 14.3926 6.24023C13.5176 6.24023 12.7246 6.47266 12.0137 6.9375C11.3027 7.39323 10.7376 8.00391 10.3184 8.76953C9.89909 9.53516 9.69401 10.3783 9.70312 11.2988C9.71224 12.2741 9.92188 13.1491 10.332 13.9238C10.7513 14.6986 11.3118 15.3138 12.0137 15.7695C12.7246 16.2161 13.5176 16.444 14.3926 16.4531Z" fill="#E73745"/>
</svg>
