<svg width="23" height="16" viewBox="0 0 23 16" fill="none" xmlns="http://www.w3.org/2000/svg">
<path d="M10.6118 15.6104H21.0376C21.6906 15.6104 22.1499 15.5163 22.4155 15.3281C22.6812 15.1455 22.814 14.8716 22.814 14.5063C22.814 13.9751 22.6507 13.4134 22.3242 12.8213C22.0033 12.2292 21.5384 11.6758 20.9297 11.1611C20.3265 10.641 19.5933 10.2204 18.73 9.89941C17.8722 9.57292 16.9038 9.40967 15.8247 9.40967C14.7511 9.40967 13.7827 9.57292 12.9194 9.89941C12.0617 10.2204 11.3285 10.641 10.7197 11.1611C10.111 11.6758 9.64616 12.2292 9.3252 12.8213C9.00423 13.4134 8.84375 13.9751 8.84375 14.5063C8.84375 14.8716 8.9738 15.1455 9.23389 15.3281C9.49951 15.5163 9.95882 15.6104 10.6118 15.6104ZM15.833 7.92383C16.4251 7.92383 16.973 7.76335 17.4766 7.44238C17.9801 7.11589 18.3841 6.67594 18.6885 6.12256C18.9928 5.56917 19.145 4.94661 19.145 4.25488C19.145 3.57422 18.9928 2.96549 18.6885 2.42871C18.3841 1.88639 17.9801 1.46029 17.4766 1.15039C16.973 0.840495 16.4251 0.685547 15.833 0.685547C15.2409 0.685547 14.693 0.843262 14.1895 1.15869C13.6859 1.47412 13.2791 1.90299 12.9692 2.44531C12.6649 2.98763 12.5127 3.59635 12.5127 4.27148C12.5127 4.95768 12.6649 5.57747 12.9692 6.13086C13.2736 6.67871 13.6776 7.11589 14.1812 7.44238C14.6847 7.76335 15.2354 7.92383 15.833 7.92383ZM1.64697 15.6104H7.94727C7.73145 15.2949 7.62907 14.9159 7.64014 14.4731C7.6512 14.0304 7.75358 13.5656 7.94727 13.0786C8.14095 12.5916 8.40658 12.1213 8.74414 11.6675C9.08724 11.2082 9.48291 10.8042 9.93115 10.4556C9.46631 10.1457 8.93229 9.89111 8.3291 9.69189C7.73145 9.48714 7.04525 9.38477 6.27051 9.38477C5.33529 9.38477 4.49137 9.53971 3.73877 9.84961C2.9917 10.154 2.35254 10.5579 1.82129 11.0615C1.29557 11.5596 0.891602 12.1047 0.609375 12.6968C0.327148 13.2889 0.186035 13.8727 0.186035 14.4482C0.186035 14.819 0.296712 15.104 0.518066 15.3032C0.744954 15.508 1.12126 15.6104 1.64697 15.6104ZM6.27051 8.11475C6.79069 8.11475 7.26937 7.97363 7.70654 7.69141C8.14372 7.40918 8.49512 7.02734 8.76074 6.5459C9.02637 6.05892 9.15918 5.5166 9.15918 4.91895C9.15918 4.32129 9.02637 3.79004 8.76074 3.3252C8.49512 2.85482 8.14095 2.48682 7.69824 2.22119C7.26107 1.95003 6.78516 1.81445 6.27051 1.81445C5.76139 1.81445 5.28548 1.9528 4.84277 2.22949C4.4056 2.50065 4.05143 2.87142 3.78027 3.3418C3.50911 3.81217 3.3763 4.34342 3.38184 4.93555C3.38184 5.52767 3.51465 6.06445 3.78027 6.5459C4.0459 7.02734 4.3973 7.40918 4.83447 7.69141C5.27718 7.97363 5.75586 8.11475 6.27051 8.11475Z" fill="white"/>
</svg>
