<svg width="34" height="29" viewBox="0 0 34 29" fill="none" xmlns="http://www.w3.org/2000/svg">
<path d="M19.5 27.8418C21.3776 27.8418 23.1413 27.4818 24.791 26.7617C26.4499 26.0508 27.9082 25.0664 29.166 23.8086C30.4238 22.5417 31.4082 21.0833 32.1191 19.4336C32.8392 17.7747 33.1992 16.0065 33.1992 14.1289C33.1992 12.2513 32.8392 10.4876 32.1191 8.83789C31.4082 7.17904 30.4193 5.7207 29.1523 4.46289C27.8945 3.19596 26.4362 2.20703 24.7773 1.49609C23.1276 0.776042 21.3639 0.416016 19.4863 0.416016C17.709 0.416016 16.0273 0.739583 14.4414 1.38672C12.8555 2.03385 11.4427 2.93164 10.2031 4.08008C8.97266 5.2194 7.97461 6.55013 7.20898 8.07227C6.44336 9.5944 5.98763 11.2305 5.8418 12.9805C6.10612 12.9258 6.40234 12.8893 6.73047 12.8711C7.05859 12.8438 7.36393 12.8438 7.64648 12.8711C7.79232 11.3763 8.19792 9.98177 8.86328 8.6875C9.52865 7.38411 10.3945 6.24935 11.4609 5.2832C12.5273 4.30794 13.7441 3.54688 15.1113 3C16.4785 2.45312 17.9368 2.17969 19.4863 2.17969C21.1361 2.17969 22.681 2.48958 24.1211 3.10938C25.5703 3.72005 26.8418 4.57682 27.9355 5.67969C29.0384 6.77344 29.8997 8.04492 30.5195 9.49414C31.1393 10.9342 31.4492 12.4792 31.4492 14.1289C31.4492 15.6875 31.1667 17.1595 30.6016 18.5449C30.0456 19.9212 29.2754 21.138 28.291 22.1953C27.89 21.6393 27.2702 21.0924 26.4316 20.5547C25.6022 20.0169 24.5951 19.5749 23.4102 19.2285C22.2344 18.8822 20.9264 18.709 19.4863 18.709C18.7663 18.709 18.0781 18.7591 17.4219 18.8594C16.7747 18.9505 16.1641 19.0781 15.5898 19.2422C15.7448 19.862 15.8223 20.5182 15.8223 21.2109C15.8223 22.2227 15.6445 23.1888 15.2891 24.1094C14.9427 25.0299 14.4596 25.8548 13.8398 26.584C14.7057 26.985 15.6126 27.2949 16.5605 27.5137C17.5176 27.7324 18.4974 27.8418 19.5 27.8418ZM19.4863 16.3574C20.3613 16.3665 21.1497 16.1478 21.8516 15.7012C22.5534 15.2454 23.1094 14.6302 23.5195 13.8555C23.9388 13.0716 24.1484 12.1921 24.1484 11.2168C24.1484 10.2962 23.9388 9.45768 23.5195 8.70117C23.1003 7.93555 22.5397 7.32487 21.8379 6.86914C21.1361 6.4043 20.3522 6.17188 19.4863 6.17188C18.6204 6.17188 17.832 6.4043 17.1211 6.86914C16.4193 7.32487 15.8587 7.93555 15.4395 8.70117C15.0202 9.45768 14.8151 10.2962 14.8242 11.2168C14.8242 12.1829 15.0293 13.0534 15.4395 13.8281C15.8587 14.6029 16.4193 15.2181 17.1211 15.6738C17.8229 16.1296 18.6113 16.3574 19.4863 16.3574ZM7.44141 28.0332C8.36198 28.0332 9.23242 27.8555 10.0527 27.5C10.873 27.1445 11.5977 26.6523 12.2266 26.0234C12.8555 25.4036 13.3477 24.6836 13.7031 23.8633C14.0586 23.043 14.2363 22.168 14.2363 21.2383C14.2363 20.2995 14.0586 19.4199 13.7031 18.5996C13.3568 17.7793 12.8691 17.0592 12.2402 16.4395C11.6204 15.8105 10.9004 15.3229 10.0801 14.9766C9.25977 14.6211 8.38021 14.4434 7.44141 14.4434C6.51172 14.4434 5.63672 14.6211 4.81641 14.9766C3.99609 15.3229 3.27604 15.8105 2.65625 16.4395C2.02734 17.0684 1.53516 17.793 1.17969 18.6133C0.824219 19.4336 0.646484 20.3086 0.646484 21.2383C0.646484 22.168 0.824219 23.0475 1.17969 23.877C1.53516 24.6973 2.02734 25.4173 2.65625 26.0371C3.27604 26.666 3.99609 27.1536 4.81641 27.5C5.63672 27.8555 6.51172 28.0332 7.44141 28.0332ZM7.44141 25.5449C7.22266 25.5449 7.04492 25.4766 6.9082 25.3398C6.7806 25.2031 6.7168 25.0299 6.7168 24.8203V21.9629H3.85938C3.64974 21.9629 3.47656 21.8991 3.33984 21.7715C3.20312 21.6439 3.13477 21.4661 3.13477 21.2383C3.13477 21.0104 3.20312 20.8327 3.33984 20.7051C3.47656 20.5775 3.64974 20.5137 3.85938 20.5137H6.7168V17.6562C6.7168 17.4466 6.7806 17.2734 6.9082 17.1367C7.04492 17 7.22266 16.9316 7.44141 16.9316C7.66927 16.9316 7.84701 17 7.97461 17.1367C8.11133 17.2734 8.17969 17.4466 8.17969 17.6562V20.5137H11.0234C11.2331 20.5137 11.4062 20.5775 11.543 20.7051C11.6797 20.8327 11.748 21.0104 11.748 21.2383C11.748 21.4661 11.6797 21.6439 11.543 21.7715C11.4062 21.8991 11.2331 21.9629 11.0234 21.9629H8.17969V24.8203C8.17969 25.0299 8.11133 25.2031 7.97461 25.3398C7.84701 25.4766 7.66927 25.5449 7.44141 25.5449Z" fill="#E73745"/>
</svg>
