<svg width="24" height="24" viewBox="0 0 24 24" fill="none" xmlns="http://www.w3.org/2000/svg">
<circle cx="12" cy="12" r="12" fill="#32ADE6"/>
<path d="M10.5645 18.1006C10.8584 18.1006 11.0908 17.9707 11.2549 17.7178L17.7148 7.5459C17.8379 7.34766 17.8857 7.19727 17.8857 7.04004C17.8857 6.66406 17.6396 6.41797 17.2637 6.41797C16.9902 6.41797 16.8398 6.50684 16.6758 6.7666L10.5371 16.5488L7.35156 12.3789C7.18066 12.1396 7.00977 12.0439 6.76367 12.0439C6.37402 12.0439 6.10742 12.3105 6.10742 12.6865C6.10742 12.8438 6.17578 13.0215 6.30566 13.1855L9.85352 17.7041C10.0586 17.9707 10.2705 18.1006 10.5645 18.1006Z" fill="#28285B"/>
</svg>