<svg width="32" height="32" viewBox="0 0 32 32" fill="none" xmlns="http://www.w3.org/2000/svg">
<path d="M7.71484 27.9277H10.668C10.9505 27.9277 11.1829 28.0234 11.3652 28.2148L13.4707 30.3066C14.3366 31.1725 15.1751 31.6009 15.9863 31.5918C16.8066 31.5918 17.6497 31.1634 18.5156 30.3066L20.6211 28.2148C20.8125 28.0234 21.0449 27.9277 21.3184 27.9277H24.2715C25.4928 27.9277 26.3952 27.6361 26.9785 27.0527C27.5618 26.4785 27.8535 25.5762 27.8535 24.3457V21.3926C27.8535 21.1191 27.9492 20.8867 28.1406 20.6953L30.2188 18.5898C31.0938 17.7331 31.5267 16.8945 31.5176 16.0742C31.5176 15.2539 31.0846 14.4108 30.2188 13.5449L28.1406 11.4395C27.9492 11.248 27.8535 11.0202 27.8535 10.7559V7.78906C27.8535 6.57682 27.5618 5.67904 26.9785 5.0957C26.4043 4.50326 25.502 4.20703 24.2715 4.20703H21.3184C21.0449 4.20703 20.8125 4.11589 20.6211 3.93359L18.5156 1.8418C17.6497 0.975911 16.8066 0.542969 15.9863 0.542969C15.1751 0.542969 14.3366 0.975911 13.4707 1.8418L11.3652 3.93359C11.1829 4.11589 10.9505 4.20703 10.668 4.20703H7.71484C6.49349 4.20703 5.59115 4.4987 5.00781 5.08203C4.42448 5.65625 4.13281 6.55859 4.13281 7.78906V10.7559C4.13281 11.0202 4.04167 11.248 3.85938 11.4395L1.76758 13.5449C0.901693 14.4108 0.46875 15.2539 0.46875 16.0742C0.46875 16.8945 0.901693 17.7331 1.76758 18.5898L3.85938 20.6953C4.04167 20.8867 4.13281 21.1191 4.13281 21.3926V24.3457C4.13281 25.5671 4.42448 26.4694 5.00781 27.0527C5.59115 27.6361 6.49349 27.9277 7.71484 27.9277ZM7.71484 25.7539C7.10417 25.7539 6.7168 25.6719 6.55273 25.5078C6.38867 25.3438 6.30664 24.9564 6.30664 24.3457V20.668C6.30664 20.2669 6.16536 19.9251 5.88281 19.6426L3.29883 17.0723C2.86133 16.6348 2.64258 16.3021 2.64258 16.0742C2.64258 15.8464 2.86133 15.5137 3.29883 15.0762L5.88281 12.5059C6.16536 12.2142 6.30664 11.8678 6.30664 11.4668V7.78906C6.30664 7.17839 6.38411 6.79102 6.53906 6.62695C6.70312 6.46289 7.09505 6.38086 7.71484 6.38086H11.3926C11.8118 6.38086 12.1582 6.23958 12.4316 5.95703L15.002 3.37305C15.4395 2.94466 15.7676 2.73047 15.9863 2.73047C16.2142 2.73047 16.5469 2.94466 16.9844 3.37305L19.5684 5.95703C19.8418 6.23958 20.1836 6.38086 20.5938 6.38086H24.2715C24.8822 6.38086 25.2695 6.46745 25.4336 6.64062C25.5977 6.80469 25.6797 7.1875 25.6797 7.78906V11.4668C25.6797 11.8678 25.8255 12.2142 26.1172 12.5059L28.7012 15.0762C29.1296 15.5137 29.3438 15.8464 29.3438 16.0742C29.3438 16.3021 29.1296 16.6348 28.7012 17.0723L26.1172 19.6426C25.8255 19.9251 25.6797 20.2669 25.6797 20.668V24.3457C25.6797 24.9564 25.5977 25.3438 25.4336 25.5078C25.2695 25.6719 24.8822 25.7539 24.2715 25.7539H20.5938C20.1836 25.7539 19.8418 25.8997 19.5684 26.1914L16.9844 28.7754C16.5469 29.2038 16.2142 29.418 15.9863 29.418C15.7676 29.418 15.4395 29.2038 15.002 28.7754L12.4316 26.1914C12.1582 25.8997 11.8118 25.7539 11.3926 25.7539H7.71484ZM14.5098 22.5547C14.9746 22.5547 15.3438 22.3451 15.6172 21.9258L21.8652 12.082C21.9473 11.9544 22.0202 11.8177 22.084 11.6719C22.1569 11.5169 22.1934 11.362 22.1934 11.207C22.1934 10.9062 22.0794 10.6647 21.8516 10.4824C21.6237 10.3001 21.3685 10.209 21.0859 10.209C20.7031 10.209 20.3841 10.4141 20.1289 10.8242L14.4551 19.9297L11.7617 16.4434C11.5977 16.2246 11.4336 16.0788 11.2695 16.0059C11.1146 15.9238 10.9414 15.8828 10.75 15.8828C10.4583 15.8828 10.2077 15.9922 9.99805 16.2109C9.79753 16.4206 9.69727 16.6758 9.69727 16.9766C9.69727 17.2591 9.80208 17.5417 10.0117 17.8242L13.3477 21.9258C13.5208 22.1445 13.6986 22.304 13.8809 22.4043C14.0723 22.5046 14.2819 22.5547 14.5098 22.5547Z" fill="white"/>
</svg>
