<svg width="21" height="21" viewBox="0 0 21 21" fill="none" xmlns="http://www.w3.org/2000/svg">
<path d="M10.4575 20.1079C11.8058 20.1079 13.0706 19.8512 14.252 19.3379C15.4333 18.8307 16.4723 18.1257 17.3691 17.2227C18.2721 16.3258 18.9803 15.2868 19.4937 14.1055C20.007 12.9242 20.2637 11.6593 20.2637 10.311C20.2637 8.96891 20.007 7.70719 19.4937 6.52588C18.9803 5.34456 18.2721 4.30241 17.3691 3.39941C16.4723 2.49642 15.4302 1.79134 14.2427 1.28418C13.0614 0.770833 11.7996 0.51416 10.4575 0.51416C9.1154 0.51416 7.85059 0.770833 6.66309 1.28418C5.48177 1.79134 4.43962 2.49642 3.53662 3.39941C2.63981 4.30241 1.93473 5.34456 1.42139 6.52588C0.914225 7.70719 0.660645 8.96891 0.660645 10.311C0.660645 11.6593 0.914225 12.9242 1.42139 14.1055C1.93473 15.2868 2.6429 16.3258 3.5459 17.2227C4.44889 18.1257 5.49105 18.8307 6.67236 19.3379C7.85368 19.8512 9.1154 20.1079 10.4575 20.1079ZM6.3291 10.9326C6.3291 10.778 6.38786 10.6326 6.50537 10.4966L11.6172 4.24365C11.778 4.05192 11.9512 3.95915 12.1367 3.96533C12.3285 3.97152 12.4769 4.05192 12.582 4.20654C12.6872 4.35498 12.6934 4.54671 12.6006 4.78174L10.9771 9.04932H14.02C14.1685 9.04932 14.2922 9.0988 14.3911 9.19775C14.4963 9.29053 14.5488 9.41113 14.5488 9.55957C14.5488 9.70801 14.4932 9.85026 14.3818 9.98633L9.27002 16.2485C9.10921 16.4403 8.93294 16.533 8.74121 16.5269C8.55566 16.5145 8.40723 16.4341 8.2959 16.2856C8.19076 16.131 8.18457 15.9362 8.27734 15.7012L9.90088 11.4429H6.86719C6.71257 11.4429 6.58268 11.3934 6.47754 11.2944C6.37858 11.1955 6.3291 11.0749 6.3291 10.9326Z" fill="white"/>
</svg>
