<?xml version="1.0" encoding="UTF-8"?>
<svg id="Calque_1" data-name="Calque 1" xmlns="http://www.w3.org/2000/svg" xmlns:xlink="http://www.w3.org/1999/xlink" viewBox="0 0 450 65">
  <defs>
    <style>
      .cls-1 {
        clip-path: url(#clippath);
      }

      .cls-2 {
        fill: none;
      }

      .cls-2, .cls-3 {
        stroke-width: 0px;
      }

      .cls-4 {
        clip-path: url(#clippath-1);
      }

      .cls-3 {
        fill: #e7540f;
      }
    </style>
    <clipPath id="clippath">
      <rect class="cls-2" x="20.06" width="409.89" height="65"/>
    </clipPath>
    <clipPath id="clippath-1">
      <rect class="cls-2" x="20.06" width="409.89" height="65"/>
    </clipPath>
  </defs>
  <g id="LOGO_ORANGE_RVB" data-name="LOGO ORANGE RVB">
    <g class="cls-1">
      <g class="cls-4">
        <path class="cls-3" d="m297.97,46.59v-14.24h10.07v-10.47h-10.07v-10.75l-12.85,1.08-2.06,9.67-5.67.48v9.99h5.21v15.98c0,13.63,7.38,16.5,15.55,16.5,3.21,0,7.21-.78,10.85-2.34l.18-11.12c-2.95.87-4.69.96-6.08.96-3.48,0-5.12-1.39-5.12-5.73"/>
        <path class="cls-3" d="m40.64,46.59v-14.24h10.07v-10.47h-10.07v-10.75s-12.85,1.08-12.85,1.08l-2.06,9.67-5.67.48v9.99h5.21v15.98c0,13.63,7.38,16.5,15.55,16.5,3.21,0,7.21-.78,10.85-2.34l.18-11.12c-2.95.87-4.69.96-6.08.96-3.48,0-5.12-1.39-5.12-5.73"/>
        <path class="cls-3" d="m83.6,65c-19.8,0-25.71-10.07-25.71-23.19s8.77-22.93,23.1-22.93c11.72,0,18.85,7.38,18.85,19.45,0,1.83-.18,4.08-.78,6.43h-26.05c.17,5.56,3.9,8.6,12.16,8.6,4.34,0,8.86-.43,14.68-1.91l-.52,10.51c-4.86,2.09-10.94,3.04-15.72,3.04m-4.26-35.78c-3.48,0-6.34,2.52-6.51,7.99l12.85-.35c0-5.04-2.61-7.64-6.34-7.64"/>
        <path class="cls-3" d="m128.15,65c-13.64,0-22.15-8.08-22.15-22.32,0-16.5,10.86-23.71,22.93-23.71,3.3,0,7.73.52,10.77,1.65l-.96,11.99c-3.3-.96-5.64-1.3-7.81-1.3-5.39,0-9.12,3.21-9.12,10.16s3.65,10.94,9.72,10.94c1.83,0,4.34-.35,8.25-1.65l-.26,12.16c-4.08,1.39-8.34,2.09-11.38,2.09"/>
        <path class="cls-3" d="m148.46,1.29L163.83,0v17.06c0,3.04-.09,5.39-.26,7.38,3.91-4.17,8.68-5.47,13.37-5.47,10.42,0,14.85,7.03,14.85,17.71v27.44h-15.28v-24.58c0-5.56-1.82-7.73-5.47-7.73-2,0-4.34.78-7.21,2.87v29.44h-15.37V1.29Z"/>
        <path class="cls-3" d="m202.48,20.45l13.72-1.16.43,6.28c4-5.04,9.21-6.6,14.33-6.6,10.34,0,14.85,7.03,14.85,17.72v27.44h-15.28v-24.58c0-5.56-1.91-7.73-5.47-7.73-2,0-4.43.78-7.29,2.87v29.44h-15.28V20.45Z"/>
        <polygon class="cls-3" points="366.95 24.11 382.33 22.82 382.33 64.13 366.95 64.13 366.95 24.11"/>
        <polygon class="cls-3" points="382.33 .7 366.95 1.99 366.95 17.87 382.33 16.53 382.33 .7"/>
        <path class="cls-3" d="m336.09,65c-14.5,0-23.1-9.03-23.1-22.41,0-15.2,9.99-23.71,24.4-23.71s22.66,8.07,22.66,22.06c0,15.37-9.55,24.06-23.97,24.06m.26-34.39c-4.78,0-7.64,3.56-7.64,11.12,0,7.04,2.95,11.55,7.64,11.55h.52c4.43,0,7.55-3.74,7.55-10.6,0-8.25-3.21-12.07-8.07-12.07"/>
        <path class="cls-3" d="m408.4,11.12l-12.85,1.08-2.06,9.68-5.67.48v9.99h5.21v15.98c0,13.54,7.29,16.46,15.39,16.49v-17.94c0-.1-.02-.19-.02-.29v-14.24h10.07v-10.47h-10.07v-10.76Z"/>
        <polygon class="cls-3" points="256.47 24.11 271.84 22.82 271.84 64.13 256.47 64.13 256.47 24.11"/>
        <polygon class="cls-3" points="271.84 .7 256.47 1.99 256.47 17.87 271.84 16.53 271.84 .7"/>
        <rect class="cls-3" x="414.57" y="49.85" width="15.37" height="14.93"/>
      </g>
    </g>
  </g>
</svg>