<?xml version="1.0" encoding="UTF-8"?>
<svg id="Calque_2" data-name="Calque 2" xmlns="http://www.w3.org/2000/svg" viewBox="0 0 294.11 169.33">
  <g id="Calque_1-2" data-name="Calque 1">
    <g id="picto_seul_technitoit" data-name="picto seul technitoit">
      <g>
        <path fill="#e7540f" stroke-width="0px"
          d="m179.2,12.86C171.25,10.44,126.04-.54,123.65.02c-2.19.51-43.47,30.78-48.05,33.81,15.67,4.66,40.34,13.28,57.05,16.7,16.65-8.48,38.07-28.41,46.34-35.22,6,6.73,31.55,32.68,40.75,28.16-5.58-3.98-33.3-28.41-40.53-30.61h-.01Z" />
        <path fill="#e7540f" stroke-width="0px"
          d="m139.22,63.41l-4.51,2.3-4.95-1.01c-7.52-1.54-16.31-3.99-25.19-6.68l.07,34.03,41.85,15.13,41.93-15.16.08-47.56c-3.79-3.07-7.35-6.3-10.46-9.3-10.96,9.4-25.63,21.52-38.82,28.24h0Z" />
      </g>
      <polygon fill="#e7540f" stroke-width="0px"
        points="202.9 75.08 202.9 102.18 146.48 122.64 90.14 102.2 90.14 75.08 0 74.63 147.05 169.33 294.11 74.63 202.9 75.08" />
    </g>
  </g>
</svg>