<svg width="33" height="31" viewBox="0 0 33 31" fill="none" xmlns="http://www.w3.org/2000/svg">
<path d="M25.4371 5.758L25.4368 5.75758C22.7494 2.53877 18.8509 0.692871 14.733 0.692871C6.97229 0.692871 0.666992 7.1484 0.666992 15.0828C0.666992 23.017 6.97216 29.4786 14.733 29.4786C19.5496 29.4786 23.9822 26.9892 26.587 22.8283L26.5871 22.828L27.1176 21.9782L27.3563 21.5959H26.9056H24.9854H24.8517L24.7774 21.7071L24.616 21.9491L24.6157 21.9495C22.3832 25.3101 18.6894 27.3144 14.7387 27.3144C8.15877 27.3144 2.79308 21.8313 2.79308 15.0828C2.79308 8.33425 8.153 2.85708 14.733 2.85708C18.0569 2.85708 21.2592 4.3012 23.5193 6.81667L23.5206 6.81804L23.682 6.99509L23.7564 7.07663H23.8667H26.0002H26.5331L26.1925 6.66683L25.4371 5.758Z" fill="#47BCC8" stroke="#47BCC8" stroke-width="0.5"/>
<path d="M32.0837 14.2095H9.62988V15.9563H32.0837V14.2095Z" fill="#47BCC8"/>
<path d="M32.0837 14.2095H9.62988V15.9563H32.0837V14.2095Z" stroke="#47BCC8"/>
</svg>
