<?xml version="1.0" encoding="UTF-8"?>
<svg id="Calque_2" xmlns="http://www.w3.org/2000/svg" viewBox="0 0 800 800" fill="#fff">
    <g id="Calque_1-2">
        <polygon fill="#fff" points="181.65 554 386.05 554 386.05 392.72 235.41 392.72 181.65 554" />
        <polygon fill="#fff" points="244.37 365.28 386.05 365.28 386.05 246 284.13 246 244.37 365.28" />
        <polygon fill="#fff" points="515.97 246 414.05 246 414.05 365.28 555.73 365.28 515.97 246" />
        <polygon fill="#fff" points="414.05 393.28 414.05 554 618.45 554 564.69 393.28 414.05 393.28" />
        <path fill="#fff"
            d="m400,0C179.09,0,0,179.09,0,400s179.09,400,400,400,400-179.09,400-400S620.91,0,400,0Zm249.25,576.4c-2.24,3.36-6.72,5.6-11.2,5.6H162.05c-9.52,0-16.24-9.52-13.44-18.48l112-336c2.24-5.6,7.28-9.52,13.44-9.52h252c6.16,0,11.76,3.92,13.44,9.52l112,336c1.12,4.48.56,8.96-2.24,12.88,2.8-3.91-2.24,3.37,0,0Z" />
        <polygon fill="#fff" points="649.25 576.4 649.25 576.4 649.25 576.4 649.25 576.4" />
    </g>
</svg>