<?xml version="1.0" encoding="UTF-8"?>
<svg id="Calque_2" xmlns="http://www.w3.org/2000/svg" viewBox="0 0 800 800" fill="#fff">
    <g id="Calque_1-2">
        <polygon fill="#fff"
            points="260.65 260.69 260.66 260.69 278.19 243.15 226.48 212.11 212.11 226.48 243.15 278.2 260.65 260.69 260.65 260.69" />
        <path fill="#fff"
            d="m382.91,446.95c.35-.35.71-.67,1.08-.98l57.01-64.26c.6-.93,1.3-1.8,2.11-2.61.34-.34.69-.65,1.05-.95l13.32-15.01c4.9-5.5,12.83-6.94,19.4-3.55,10.63,5.6,22.47,8.42,35.14,8.42,44.13,0,80.01-35.91,80.01-80.01,0-3.71-.29-7.46-.8-11.2l-49.99,49.77c-5.57,5.85-13.54,9.31-22.08,9.44-8.77.13-17.06-3.33-23.27-9.47l-22.37-22.43c-6.14-6.11-9.6-14.56-9.51-23.17.13-8.61,3.59-16.58,9.83-22.47l49.41-49.64c-3.78-.54-7.52-.83-11.23-.83h0c-44.13,0-80.01,35.9-80.01,80.01,0,12.67,2.85,24.48,8.42,35.14,3.43,6.53,1.99,14.53-3.52,19.4l-49.02,43.48c-.29.34-.58.68-.9,1-.8.8-1.66,1.49-2.57,2.08l-165.77,147.06c-6.91,5.98-10.65,14.47-10.65,23.87,0,17.67,14.37,32,32,32,9.41,0,17.89-3.74,23.78-10.53l117.03-131.91c.6-.93,1.31-1.82,2.12-2.63Z" />
        <path fill="#fff"
            d="m400,0C179.09,0,0,179.09,0,400s179.09,400,400,400,400-179.09,400-400S620.91,0,400,0Zm219.35,555.35l-64.01,64.01c-3.14,3.1-7.23,4.67-11.33,4.67h0,0,0c-4.1,0-8.19-1.57-11.33-4.67l-137.62-137.62-107.27,120.92c-11.81,13.54-29.28,21.38-47.81,21.38h0c-35.3,0-64.01-28.71-64.01-64.01,0-18.53,7.84-36,21.47-47.91l154.73-137.27-80.21-80.21-20.69,20.69c-3.01,3.01-7.07,4.68-11.3,4.68h0c-.67,0-1.31-.03-1.95-.13-4.89-.58-9.25-3.43-11.78-7.65l-48.01-80.01c-3.78-6.27-2.78-14.34,2.4-19.56l32-32c5.19-5.19,13.25-6.18,19.56-2.4l80.01,48.01c4.23,2.53,7.04,6.88,7.65,11.78.61,4.9-1.09,9.79-4.58,13.28l-20.69,20.69,81.56,81.56,30.66-27.2c-4.51-12.03-6.82-24.9-6.82-38.37,0-61.77,50.25-112.01,112.01-112.01,16.19,0,32.77,3.71,48.01,10.76,4.74,2.18,8.1,6.56,9.03,11.68.9,5.15-.7,10.4-4.41,14.11l-68.49,68.81,22.34,22.53,68.94-68.52c3.68-3.68,8.83-5.34,14.11-4.41,5.12.93,9.51,4.32,11.68,9.06,7.1,15.3,10.82,31.87,10.82,48,0,61.77-50.25,112.01-112.01,112.01-10.13,0-19.91-1.3-29.26-3.88l136.6,136.6c6.24,6.24,6.24,16.39,0,22.63Z" />
        <polygon fill="#fff" points="416.35 457.74 544.02 585.4 585.4 544.02 455.26 413.88 416.35 457.74" />
    </g>
</svg>