<?xml version="1.0" encoding="UTF-8"?>
<svg id="Calque_2" xmlns="http://www.w3.org/2000/svg" viewBox="0 0 800 800" fill="#fff">
    <g id="Calque_1-2">
        <path fill="#fff"
            d="m400,0C179.09,0,0,179.09,0,400s179.09,400,400,400,400-179.09,400-400S620.91,0,400,0Zm137.08,223.53l15.48,12.63c7.79,6.23,12.32,15.68,12.28,25.66v123.12h-2.51c-1.38-.29-2.74-.67-4.07-1.15h0s-1.49-.48-1.49-.48c-1.04-.44-2.06-.94-3.05-1.49h0l-2.1-1.16c-.81-.54-1.63-1.08-2.38-1.69l-2.17-1.83-1.83-1.83c-.68-.75-1.43-1.7-1.97-2.38-.54-.68-1.02-1.36-1.43-2.04-.57-.95-1.09-1.92-1.56-2.92-.27-.68-.95-1.35-.95-2.1-.43-1.16-.8-2.33-1.08-3.53h0c-.2-.62-.54-1.23-.54-1.9-.39-1.92-.59-3.88-.61-5.84v-131.08Zm-289.44,12.42h0s15.48-12.42,15.48-12.42v122.18c.03,2.48-.18,4.96-.61,7.4-.14.68-.54,1.35-.54,2.1-.39,1.66-.89,3.3-1.49,4.89l-.95,2.17c-.7,1.52-1.49,2.99-2.38,4.41h0c-.41.61-.75,1.22-1.16,1.83-1.17,1.66-2.47,3.22-3.87,4.68h0l-1.08,1.16c-1.46,1.41-3.03,2.7-4.68,3.87h0c-1.02.75-2.17,1.36-3.26,1.97l-2.51,1.36c-1.39.67-2.82,1.26-4.28,1.76h-.88v-121.5h0c-.11-10.03,4.39-19.57,12.22-25.86Zm147.44,313.39c-.1,17.97-7.29,35.17-20,47.88-12.7,12.71-29.91,19.9-47.88,20h-58.78c-13.13,0-25.72-5.21-35.01-14.49-9.29-9.27-14.52-21.86-14.54-34.99v-41.68h45.88s0,24.83,0,24.83c0,12.26,6.54,23.58,17.15,29.72,10.62,6.13,23.7,6.13,34.31,0,10.61-6.13,17.16-17.46,17.16-29.72v-24.84h38.01c2.6,0,4.72-2.11,4.72-4.72s-2.11-4.72-4.72-4.72h-152.52v-29.87h152.52c2.6,0,4.72-2.11,4.72-4.72s-2.11-4.72-4.72-4.72h-152.52v-29.87h152.52c2.6,0,4.72-2.11,4.72-4.72s-2.11-4.72-4.72-4.72h-152.72v-38.89c0-2.4,1.95-4.35,4.34-4.35,2.49-.06,4.96-.31,7.4-.75h1.43c2.3-.42,4.57-1.01,6.79-1.76h0s2.24-.68,2.24-.68c1.76-.69,3.48-1.48,5.16-2.37h0c1.08-.55,1.9-.96,3.26-1.77,1.36-.81,2.58-1.7,3.8-2.65,1.22-.95,2.71-2.17,3.66-3.05.95-.88,1.83-1.76,2.71-2.71,1.23-1.34,2.39-2.74,3.46-4.21h0c.68-.88,1.36-1.83,1.97-2.78,1.03-1.66,1.96-3.39,2.78-5.16.48-.95.95-1.9,1.36-2.92.77-1.99,1.4-4.03,1.9-6.11h0c.2-.88.75-1.76.75-2.71.62-3.11.94-6.27.95-9.44v-134.74c.07-6.55,4.66-12.18,11.07-13.57l66.04-14.59,9.16,41.74,36.18,166.1v158.7Zm-71.06-6.78v8.35c0,8.89-4.74,17.1-12.44,21.54-7.69,4.45-17.18,4.45-24.88,0-7.7-4.44-12.44-12.66-12.44-21.54v-8.35h49.75Zm-49.75-9.44v-7.06h49.75v7.06h-49.75Zm85.72-347.52h0c25.66,10.75,54.57,10.75,80.23,0h0s0,0,0,0c0,0,0,0,0,0l-40.12,182.52-40.12-182.52Zm221.35,252.43h-153.33v.07c-2.61,0-4.72,2.12-4.72,4.72s2.11,4.72,4.72,4.72h153.33v29.8h-153.33c-2.6,0-4.72,2.11-4.72,4.72s2.11,4.72,4.72,4.72h153.33v29.87h-153.33c-2.6,0-4.72,2.11-4.72,4.72s2.11,4.72,4.72,4.72h38.76v24.84c0,12.26,6.54,23.58,17.15,29.72,10.62,6.13,23.7,6.13,34.31,0,10.61-6.13,17.16-17.46,17.16-29.72v-24.84h45.88v41.68c-.02,13.12-5.24,25.7-14.51,34.97-9.28,9.28-21.86,14.49-34.97,14.51h-59.12c-17.97-.1-35.17-7.29-47.88-20-12.71-12.7-19.89-29.91-20-47.88v-158.7l36.52-166.09,9.16-41.75,66.25,14.86c6.4,1.39,10.99,7.03,11.06,13.58v143.43c0,2.55.26,5.09.75,7.6h0c.2.95.75,1.84.75,2.72.37,1.47.82,2.92,1.36,4.34.48,1.16,1.02,2.24,1.56,3.26.54,1.02,1.08,2.04,1.7,3.05.77,1.25,1.61,2.45,2.51,3.6h0l1.56,1.83c1.2,1.35,2.5,2.62,3.87,3.8l.81.68c7.08,5.94,16.01,9.22,25.25,9.3h9.1c2.4,0,4.34,1.95,4.34,4.35v38.82Zm-105.14,95.09v-7.06h49.75v7.06h-49.75Zm49.75,9.44v8.35c0,8.89-4.74,17.1-12.44,21.54-7.7,4.45-17.18,4.45-24.88,0-7.7-4.44-12.44-12.66-12.44-21.54v-8.35h49.75Z" />
    </g>
</svg>