<?xml version="1.0" encoding="UTF-8"?>
<svg id="Calque_2" xmlns="http://www.w3.org/2000/svg" viewBox="0 0 800 800" fill="#fff">
    <g id="Calque_1-2">
        <path fill="#fff"
            d="m400,0C179.09,0,0,179.09,0,400s179.09,400,400,400,400-179.09,400-400S620.91,0,400,0Zm58.23,239.6h155.71v33.37h-155.71v-33.37Zm0,55.61h155.71v67.28l-36.07-41.18s0,0-.01-.02l-.03-.04s-.05-.03-.07-.06c-.77-.87-1.7-1.55-2.69-2.14-.25-.15-.49-.28-.75-.41-1.06-.52-2.18-.93-3.38-1.09l-112.7-15.05v-7.28Zm93.7,42.25l-31.1,57.01-71.37-11.89,36.79-53.87,65.2,8.69.47.06Zm-140.53-18.74l50.17,6.69-36.29,53.13-51.62-8.6,37.74-51.22Zm-52.54,71.31l52.6,8.76-36.27,53.1-53.96-10.79,37.63-51.07Zm-61.72,46.26l-54.48-10.9,35.91-48.74,55.68,9.28-37.11,50.36Zm89.1-120.92l-37.19,50.47-55.68-9.28,35.94-48.78,56.92,7.59Zm-145.6-19.41l63.51,8.47-35.39,48.03-63.8-10.63,35.68-45.87Zm-51.2,65.83s.01,0,.02,0l64.5,10.75-35.39,48.02-64.78-12.95,35.65-45.83Zm-90.11,115.85l40.3-51.81c1.41,1.23,3.02,2.24,4.99,2.63l59.39,11.88-39.49,53.6-65.18-16.3Zm88.51,22.13l40.24-54.61,54.48,10.9-41.94,56.92-52.79-13.2Zm76.13,19.03l42.69-57.94,54.9,10.98-41.62,60.94-55.97-13.99Zm166.36,41.59l-87.38-21.85,42.31-61.96,81.85,16.37-36.78,67.43Zm-31.44-103.76l36.75-53.81,73.92,12.32-31.29,57.36-79.38-15.87Zm92.24,38.78l20.89-38.3,25.54,38.3h-46.43Zm73.16,0l-40.24-60.36,12-22,65.88,82.36h-37.64Zm66.12,0l-82.82-103.52,24-43.99,38.2,43.61,90.87,103.9h-70.26Z" />
    </g>
</svg>