<?xml version="1.0" encoding="UTF-8"?>
<svg id="Calque_2" xmlns="http://www.w3.org/2000/svg" viewBox="0 0 800 800"
    fill="#fff">
    <g id="Calque_1-2">
        <path fill="#fff"
            d="m238.63,332.94c.17-27.72.39-49.73.39-51.91h0c0-1.01.22-1.96.62-2.86l-5.71.05c-4.76,8.85-14.78,33.15,4.7,54.71Z" />
        <path fill="#fff"
            d="m162.25,278.62l-12.66.11c-.62,0-1.23-.05-1.79-.17,0,0-1.18-.06-2.3,1.06-1.23,1.18-4.98,6.5-2.86,24.53h0c1.62,13.89,15.57,20.5,25.98,23.47-11.14-16.07-10.41-34.94-6.38-49Z" />
        <path fill="#fff"
            d="m312.72,277.61l-48.95.34c.84,1.46,1.23,3.08,1.06,4.76-.06.28-2.52,28.11,14.22,47.49h0c10.19,11.82,25.7,18.31,46.04,19.32.11,0,.28.05.39.05-9.24-9.57-15.23-20.21-17.69-31.86-3.41-16.13.67-30.52,4.93-40.1Z" />
        <path fill="#fff"
            d="m216.35,278.28l-37.13.28c-1.51,4.09-3.47,10.81-3.64,18.37-.28,15.34,7.05,27.16,21.9,35.17.11.06.22.17.39.28l22.8,3.02c-13.11-19.99-10.53-41.72-4.31-57.12Z" />
        <path fill="#fff"
            d="m568.29,322.97c-1.45-20.72,5.6-36.74,12.49-47.26l-129.75.89c-4.53,6.05-15.01,22.23-12.49,41.83,2.41,18.65,15.91,36.01,39.93,51.69l120.96,16.24c-16.35-16.07-29.46-39.2-31.14-63.39h0Z" />
        <path fill="#fff"
            d="m400,0C179.09,0,0,179.09,0,400s179.09,400,400,400,400-179.09,400-400S620.91,0,400,0Zm273.74,404.28c-.5,3.98-3.92,6.89-7.84,6.89-.34,0-.73,0-1.06-.05l-332.7-44.69c-.62,15.68-1.68,48.55-.67,64.62l.17,2.41c1.4,23.75,4.31,73.08,69.44,82.49,6.33.95,41.5.67,94.02-.73h.22c4.31,0,7.84,3.41,7.95,7.73.11,4.42-3.36,8.06-7.73,8.18-56.56,1.51-89.09,1.74-96.71.62-77.89-11.26-81.59-73.75-82.99-97.27l-.11-2.35c-1.12-17.42.11-52.03.73-67.43-21.17-2.46-37.8-10.64-49.5-24.25-5.71-6.61-9.69-13.89-12.38-21-.05,8.23-.11,17.36-.17,26.88v.28c-.22,39.14-.22,84.45.45,101.47,1.12,27.16,4.54,109.82,104.61,138.6,5.32,1.57,43.79,2.86,135.8,2.07h.05c4.37,0,7.9,3.47,7.95,7.84s-3.47,7.95-7.84,8.01c-19.09.17-36.29.22-51.57.22-52.14,0-81.93-1.01-88.7-2.91-111.11-31.97-114.86-123.25-116.09-153.21-.67-16.41-.67-57.46-.5-94.86l-60.2-8.06c-1.62-.11-47.43-4.82-51.46-39.76-2.24-18.82.45-31.36,8.12-38.3,5.82-5.27,12.37-5.15,15.06-4.82l296.85-2.18h.11l215.43-1.51h.05c4.37,0,7.95,3.53,7.95,7.89s-3.53,7.95-7.89,8.01l-61.54.45c-5.21,5.32-18.7,21.67-16.97,46.31,2.24,31.47,28.28,61.55,50.57,69.27l32.43,4.37h.01c4.31.56,7.39,4.54,6.66,8.79Z" />
        <path fill="#fff"
            d="m431.99,276.71l-101.36.73c-3.42,5.72-10.81,20.56-7.28,37.13,3.2,14.95,14.56,28.11,33.6,39.2l90.78,12.15c-14.39-14-22.91-29.29-24.98-45.69-2.3-17.92,3.53-33.27,9.24-43.51Z" />
    </g>
</svg>